<svg id="Layer_1" data-name="Layer 1" xmlns="http://www.w3.org/2000/svg" xmlns:xlink="http://www.w3.org/1999/xlink" viewBox="0 0 1080 1080"><defs><symbol id="New_Symbol_1" data-name="New Symbol 1" viewBox="0 0 27.07 27.07"><circle cx="13.54" cy="13.54" r="13.54" style="fill:#397cb5"/></symbol><symbol id="New_Symbol-2" data-name="New Symbol" viewBox="0 0 30 30"><circle cx="15" cy="15" r="15" style="fill:#e54447"/></symbol></defs><line x1="479" y1="571" x2="426.68" y2="499.19" style="fill:none;stroke:#6da57d;stroke-linecap:round;stroke-linejoin:round;stroke-width:2px"/><polyline points="345.17 639.9 480 571 398 428" style="fill:none;stroke:#6da57d;stroke-linecap:round;stroke-linejoin:round;stroke-width:2px"/><line x1="479.68" y1="571.19" x2="325.65" y2="557.41" style="fill:none;stroke:#6da57d;stroke-linecap:round;stroke-linejoin:round;stroke-width:2px"/><line x1="630.31" y1="593.78" x2="479.5" y2="570.97" style="fill:none;stroke:#6da57d;stroke-linecap:round;stroke-linejoin:round;stroke-width:2px"/><line x1="587" y1="650.33" x2="480" y2="571" style="fill:none;stroke:#6da57d;stroke-linecap:round;stroke-linejoin:round;stroke-width:2px"/><g id="New_Symbol" data-name="New Symbol"><use width="27.07" height="27.07" transform="translate(604.09 685.12)" xlink:href="#New_Symbol_1"/><use width="27.07" height="27.07" transform="translate(470.45 873.78)" xlink:href="#New_Symbol_1"/><use width="27.07" height="27.07" transform="translate(388.83 883.82)" xlink:href="#New_Symbol_1"/><use width="27.07" height="27.07" transform="translate(618.88 579.47)" xlink:href="#New_Symbol_1"/><use width="27.07" height="27.07" transform="translate(731.85 771.83)" xlink:href="#New_Symbol_1"/><use width="27.07" height="27.07" transform="translate(571.92 635.95)" xlink:href="#New_Symbol_1"/><use width="27.07" height="27.07" transform="translate(667.79 636.39)" xlink:href="#New_Symbol_1"/><use width="27.07" height="27.07" transform="translate(765.35 587.06)" xlink:href="#New_Symbol_1"/><use width="27.07" height="27.07" transform="translate(711.2 554.72)" xlink:href="#New_Symbol_1"/><use width="27.07" height="27.07" transform="translate(755.73 651.78)" xlink:href="#New_Symbol_1"/><use width="27.07" height="27.07" transform="translate(688.62 711.08)" xlink:href="#New_Symbol_1"/><use width="27.07" height="27.07" transform="translate(627.77 755.29)" xlink:href="#New_Symbol_1"/><use width="27.07" height="27.07" transform="translate(659.4 824.55)" xlink:href="#New_Symbol_1"/><use width="27.07" height="27.07" transform="translate(315.23 793.86)" xlink:href="#New_Symbol_1"/><use width="27.07" height="27.07" transform="translate(387.87 774.44)" xlink:href="#New_Symbol_1"/><use width="27.07" height="27.07" transform="translate(460.15 777.57)" xlink:href="#New_Symbol_1"/></g><use width="27.07" height="27.07" transform="translate(279 247) scale(1.03 1)" xlink:href="#New_Symbol_1"/><use width="30" height="30" transform="translate(280.08 183.58) scale(0.9 0.9)" xlink:href="#New_Symbol-2"/><path d="M168.87,205.77a15.67,15.67,0,0,1-6.41,1.15c-6.84,0-12-4.32-12-12.27,0-7.6,5.15-12.75,12.67-12.75A13,13,0,0,1,168.9,183l-.75,2.56a11.36,11.36,0,0,0-4.9-1c-5.69,0-9.46,3.64-9.46,10,0,5.94,3.42,9.75,9.32,9.75a12.39,12.39,0,0,0,5.11-1Z" style="fill:#e54447"/><path d="M172.69,181h3.16v25.56h-3.16Z" style="fill:#e54447"/><path d="M190.83,206.56l-.25-2.2h-.11a6.5,6.5,0,0,1-5.33,2.6,5,5,0,0,1-5.33-5c0-4.21,3.75-6.51,10.48-6.48v-.36c0-1.44-.4-4-4-4a8.73,8.73,0,0,0-4.54,1.3l-.72-2.09a10.79,10.79,0,0,1,5.73-1.55c5.32,0,6.62,3.64,6.62,7.13v6.51a24.12,24.12,0,0,0,.29,4.18Zm-.47-8.89c-3.46-.07-7.38.54-7.38,3.92a2.81,2.81,0,0,0,3,3,4.32,4.32,0,0,0,4.21-2.92,3.21,3.21,0,0,0,.18-1Z" style="fill:#e54447"/><path d="M198.1,203.32a8.33,8.33,0,0,0,4.18,1.26c2.3,0,3.38-1.15,3.38-2.59s-.9-2.34-3.24-3.21c-3.13-1.11-4.61-2.84-4.61-4.93,0-2.8,2.27-5.11,6-5.11a8.76,8.76,0,0,1,4.29,1.08l-.79,2.31a6.75,6.75,0,0,0-3.57-1c-1.87,0-2.91,1.08-2.91,2.37s1,2.09,3.31,2.95c3,1.16,4.57,2.67,4.57,5.26,0,3.06-2.38,5.22-6.52,5.22a9.92,9.92,0,0,1-4.89-1.19Z" style="fill:#e54447"/><path d="M212.36,203.32a8.29,8.29,0,0,0,4.17,1.26c2.31,0,3.39-1.15,3.39-2.59s-.9-2.34-3.24-3.21c-3.14-1.11-4.61-2.84-4.61-4.93,0-2.8,2.27-5.11,6-5.11a8.75,8.75,0,0,1,4.28,1.08l-.79,2.31a6.68,6.68,0,0,0-3.56-1c-1.87,0-2.92,1.08-2.92,2.37s1,2.09,3.31,2.95c3,1.16,4.58,2.67,4.58,5.26,0,3.06-2.38,5.22-6.52,5.22a9.9,9.9,0,0,1-4.89-1.19Z" style="fill:#e54447"/><path d="M240.54,186.11h-.07l-4.07,2.2-.61-2.41,5.11-2.74h2.7v23.4h-3.06Z" style="fill:#e54447"/><path d="M168.87,271.5a15.46,15.46,0,0,1-6.41,1.16c-6.84,0-12-4.32-12-12.28,0-7.59,5.15-12.74,12.67-12.74a13,13,0,0,1,5.76,1.08l-.75,2.55a11.52,11.52,0,0,0-4.9-1c-5.69,0-9.46,3.63-9.46,10,0,5.94,3.42,9.76,9.32,9.76a12.55,12.55,0,0,0,5.11-1Z" style="fill:#397cb5"/><path d="M172.69,246.74h3.16V272.3h-3.16Z" style="fill:#397cb5"/><path d="M190.83,272.3l-.25-2.2h-.11a6.49,6.49,0,0,1-5.33,2.59,5,5,0,0,1-5.33-5c0-4.21,3.75-6.52,10.48-6.48v-.36c0-1.44-.4-4-4-4a8.73,8.73,0,0,0-4.54,1.29l-.72-2.08a10.79,10.79,0,0,1,5.73-1.55c5.32,0,6.62,3.63,6.62,7.12v6.52a24.19,24.19,0,0,0,.29,4.18Zm-.47-8.9c-3.46-.07-7.38.54-7.38,3.93a2.8,2.8,0,0,0,3,3,4.33,4.33,0,0,0,4.21-2.91,3.31,3.31,0,0,0,.18-1Z" style="fill:#397cb5"/><path d="M198.1,269.06a8.33,8.33,0,0,0,4.18,1.26c2.3,0,3.38-1.16,3.38-2.6s-.9-2.34-3.24-3.2c-3.13-1.12-4.61-2.84-4.61-4.93,0-2.81,2.27-5.11,6-5.11a8.65,8.65,0,0,1,4.29,1.08l-.79,2.3a6.84,6.84,0,0,0-3.57-1c-1.87,0-2.91,1.08-2.91,2.38s1,2.09,3.31,2.95c3,1.15,4.57,2.66,4.57,5.26,0,3.06-2.38,5.22-6.52,5.22a9.92,9.92,0,0,1-4.89-1.19Z" style="fill:#397cb5"/><path d="M212.36,269.06a8.29,8.29,0,0,0,4.17,1.26c2.31,0,3.39-1.16,3.39-2.6s-.9-2.34-3.24-3.2c-3.14-1.12-4.61-2.84-4.61-4.93,0-2.81,2.27-5.11,6-5.11a8.64,8.64,0,0,1,4.28,1.08l-.79,2.3a6.77,6.77,0,0,0-3.56-1c-1.87,0-2.92,1.08-2.92,2.38s1,2.09,3.31,2.95c3,1.15,4.58,2.66,4.58,5.26,0,3.06-2.38,5.22-6.52,5.22a9.9,9.9,0,0,1-4.89-1.19Z" style="fill:#397cb5"/><path d="M233.67,272.3v-1.95l2.48-2.41c6-5.69,8.68-8.71,8.71-12.24,0-2.37-1.15-4.57-4.64-4.57a8,8,0,0,0-5,2l-1-2.23a10.28,10.28,0,0,1,6.63-2.38c5,0,7.16,3.46,7.16,6.81,0,4.31-3.13,7.81-8.06,12.56l-1.87,1.73v.07h10.51v2.63Z" style="fill:#397cb5"/><polyline points="115.1 136.63 115.1 964.9 943.37 964.9" style="fill:none;stroke:#515a60;stroke-linecap:round;stroke-linejoin:round;stroke-width:6px"/><polygon points="100.14 141 115.1 115.1 130.06 141 100.14 141" style="fill:#515a60"/><polygon points="939 979.86 964.9 964.9 939 949.94 939 979.86" style="fill:#515a60"/><use width="30" height="30" transform="translate(544.08 286.58) scale(0.9 0.9)" xlink:href="#New_Symbol-2"/><use width="30" height="30" transform="translate(496.12 351.88) scale(0.9 0.9)" xlink:href="#New_Symbol-2"/><use width="30" height="30" transform="translate(413.14 485.66) scale(0.9 0.9)" xlink:href="#New_Symbol-2"/><g id="New_Symbol-10" data-name="New Symbol"><circle cx="479.68" cy="571.19" r="13.54" style="fill:#383838"/><circle cx="480" cy="571" r="107" style="fill:none;stroke:#515a60;stroke-linecap:round;stroke-linejoin:round;stroke-width:6px;stroke-dasharray:12"/><circle cx="480" cy="570" r="197" style="fill:none;stroke:#515a60;stroke-linecap:round;stroke-linejoin:round;stroke-width:6px;stroke-dasharray:12"/></g><use width="30" height="30" transform="translate(286.11 443.94) scale(0.9 0.9)" xlink:href="#New_Symbol-2"/><use width="30" height="30" transform="translate(171.14 599) scale(0.9 0.9)" xlink:href="#New_Symbol-2"/><use width="30" height="30" transform="translate(392.45 272.73) scale(0.9 0.9)" xlink:href="#New_Symbol-2"/><use width="30" height="30" transform="translate(310.58 389.94) scale(0.9 0.9)" xlink:href="#New_Symbol-2"/><use width="30" height="30" transform="translate(251.64 608.86) scale(0.9 0.9)" xlink:href="#New_Symbol-2"/><use width="30" height="30" transform="translate(312.11 543.88) scale(0.9 0.9)" xlink:href="#New_Symbol-2"/><use width="30" height="30" transform="translate(233.4 323.01) scale(0.9 0.9)" xlink:href="#New_Symbol-2"/><use width="30" height="30" transform="translate(171 408.32) scale(0.9 0.9)" xlink:href="#New_Symbol-2"/><use width="30" height="30" transform="translate(170.07 526.29) scale(0.9 0.9)" xlink:href="#New_Symbol-2"/><use width="30" height="30" transform="translate(209.64 714.37) scale(0.9 0.9)" xlink:href="#New_Symbol-2"/><use width="30" height="30" transform="translate(331.64 626.37) scale(0.9 0.9)" xlink:href="#New_Symbol-2"/><use width="30" height="30" transform="translate(384.52 413.98) scale(0.9 0.9)" xlink:href="#New_Symbol-2"/><use width="30" height="30" transform="translate(228.45 478.52) scale(0.9 0.9)" xlink:href="#New_Symbol-2"/><use width="30" height="30" transform="translate(379.39 324.81) scale(0.9 0.9)" xlink:href="#New_Symbol-2"/><path d="M460.82,430.86h2.09v7.8H463c.44-.62.87-1.2,1.28-1.72l4.94-6.08h2.59l-5.85,6.87,6.31,9.31h-2.47l-5.33-7.94-1.54,1.77V447h-2.09Z" style="fill:#515a60"/><path d="M473,439v-1.44h12.38V439Zm0,4.71v-1.44h12.38v1.44Z" style="fill:#515a60"/><path d="M492,433.41h-.05l-2.71,1.46-.41-1.61,3.41-1.82H494V447h-2Z" style="fill:#515a60"/><path d="M499,450a34.75,34.75,0,0,0,1.44-5.73l2.35-.24a29.28,29.28,0,0,1-2.28,5.83Z" style="fill:#515a60"/><path d="M521.81,446.51a10.28,10.28,0,0,1-4.27.77c-4.57,0-8-2.88-8-8.18,0-5.07,3.43-8.5,8.45-8.5a8.62,8.62,0,0,1,3.84.72l-.5,1.7a7.67,7.67,0,0,0-3.27-.67c-3.79,0-6.31,2.42-6.31,6.67,0,4,2.28,6.51,6.22,6.51a8.51,8.51,0,0,0,3.41-.67Z" style="fill:#e54447"/><path d="M524.35,430h2.11v17h-2.11Z" style="fill:#e54447"/><path d="M536.45,447l-.17-1.46h-.07a4.33,4.33,0,0,1-3.55,1.72A3.31,3.31,0,0,1,529.1,444c0-2.81,2.5-4.35,7-4.32v-.24a2.4,2.4,0,0,0-2.64-2.69,5.89,5.89,0,0,0-3,.86l-.48-1.39a7.24,7.24,0,0,1,3.82-1c3.55,0,4.42,2.42,4.42,4.75v4.35a15.77,15.77,0,0,0,.19,2.78Zm-.31-5.93c-2.31-.05-4.93.36-4.93,2.62a1.87,1.87,0,0,0,2,2A2.9,2.9,0,0,0,536,443.8a2.31,2.31,0,0,0,.12-.67Z" style="fill:#e54447"/><path d="M541.29,444.88a5.55,5.55,0,0,0,2.79.84c1.53,0,2.25-.77,2.25-1.73s-.6-1.56-2.16-2.13c-2.08-.75-3.07-1.9-3.07-3.29,0-1.87,1.51-3.41,4-3.41a5.85,5.85,0,0,1,2.86.72l-.53,1.54a4.52,4.52,0,0,0-2.38-.68c-1.25,0-1.94.72-1.94,1.59s.69,1.39,2.21,2c2,.76,3,1.77,3,3.5,0,2-1.59,3.48-4.35,3.48a6.6,6.6,0,0,1-3.26-.79Z" style="fill:#e54447"/><path d="M550.8,444.88a5.51,5.51,0,0,0,2.78.84c1.54,0,2.26-.77,2.26-1.73s-.6-1.56-2.16-2.13c-2.09-.75-3.07-1.9-3.07-3.29,0-1.87,1.51-3.41,4-3.41a5.85,5.85,0,0,1,2.86.72l-.53,1.54a4.45,4.45,0,0,0-2.37-.68c-1.25,0-2,.72-2,1.59s.7,1.39,2.21,2c2,.76,3,1.77,3,3.5,0,2-1.59,3.48-4.35,3.48a6.63,6.63,0,0,1-3.26-.79Z" style="fill:#e54447"/><path d="M569.59,433.41h-.05l-2.71,1.46-.41-1.61,3.41-1.82h1.8V447h-2Z" style="fill:#e54447"/><path d="M631.82,408.86h2.09v7.8H634c.44-.62.87-1.2,1.28-1.72l4.94-6.08h2.59l-5.85,6.87,6.31,9.31h-2.47l-5.33-7.94-1.54,1.77V425h-2.09Z" style="fill:#515a60"/><path d="M644,417v-1.44h12.38V417Zm0,4.71v-1.44h12.38v1.44Z" style="fill:#515a60"/><path d="M668.52,409.44v1.39L661.73,425h-2.19l6.77-13.8v-.05h-7.63v-1.75Z" style="fill:#515a60"/><path d="M670,428a34.75,34.75,0,0,0,1.44-5.73l2.35-.24a29.28,29.28,0,0,1-2.28,5.83Z" style="fill:#515a60"/><path d="M692.81,424.51a10.28,10.28,0,0,1-4.27.77c-4.57,0-8-2.88-8-8.18,0-5.07,3.43-8.5,8.45-8.5a8.62,8.62,0,0,1,3.84.72l-.5,1.7a7.67,7.67,0,0,0-3.27-.67c-3.79,0-6.31,2.42-6.31,6.67,0,4,2.28,6.51,6.22,6.51a8.51,8.51,0,0,0,3.41-.67Z" style="fill:#e54447"/><path d="M695.35,408h2.11v17h-2.11Z" style="fill:#e54447"/><path d="M707.45,425l-.17-1.46h-.07a4.33,4.33,0,0,1-3.55,1.72A3.31,3.31,0,0,1,700.1,422c0-2.81,2.5-4.35,7-4.32v-.24a2.4,2.4,0,0,0-2.64-2.69,5.89,5.89,0,0,0-3,.86l-.48-1.39a7.24,7.24,0,0,1,3.82-1c3.55,0,4.42,2.42,4.42,4.75v4.35a15.77,15.77,0,0,0,.19,2.78Zm-.31-5.93c-2.31-.05-4.93.36-4.93,2.62a1.87,1.87,0,0,0,2,2A2.9,2.9,0,0,0,707,421.8a2.31,2.31,0,0,0,.12-.67Z" style="fill:#e54447"/><path d="M712.29,422.88a5.55,5.55,0,0,0,2.79.84c1.53,0,2.25-.77,2.25-1.73s-.6-1.56-2.16-2.13c-2.08-.75-3.07-1.9-3.07-3.29,0-1.87,1.51-3.41,4-3.41a5.85,5.85,0,0,1,2.86.72l-.53,1.54a4.52,4.52,0,0,0-2.38-.68c-1.25,0-1.94.72-1.94,1.59s.69,1.39,2.21,2c2,.76,3,1.77,3,3.5,0,2-1.59,3.48-4.35,3.48a6.6,6.6,0,0,1-3.26-.79Z" style="fill:#e54447"/><path d="M721.8,422.88a5.51,5.51,0,0,0,2.78.84c1.54,0,2.26-.77,2.26-1.73s-.6-1.56-2.16-2.13c-2.09-.75-3.07-1.9-3.07-3.29,0-1.87,1.51-3.41,4-3.41a5.85,5.85,0,0,1,2.86.72l-.53,1.54a4.45,4.45,0,0,0-2.37-.68c-1.25,0-2,.72-2,1.59s.7,1.39,2.21,2c2,.76,3,1.77,3,3.5,0,2-1.59,3.48-4.35,3.48a6.63,6.63,0,0,1-3.26-.79Z" style="fill:#e54447"/><path d="M740.59,411.41h-.05l-2.71,1.46-.41-1.61,3.41-1.82h1.8V425h-2Z" style="fill:#e54447"/></svg>