<svg id="Layer_1" data-name="Layer 1" xmlns="http://www.w3.org/2000/svg" xmlns:xlink="http://www.w3.org/1999/xlink" viewBox="0 0 1080 1080"><defs><symbol id="New_Symbol_1" data-name="New Symbol 1" viewBox="0 0 27.07 27.07"><circle cx="13.54" cy="13.54" r="13.54" style="fill:#397cb5"/></symbol><symbol id="New_Symbol-2" data-name="New Symbol" viewBox="0 0 30 30"><circle cx="15" cy="15" r="15" style="fill:#e54447"/></symbol></defs><g id="New_Symbol" data-name="New Symbol"><polygon points="939.89 140.1 115 964.99 115 140.1 939.89 140.1" style="fill:#e9cbd2"/><polygon points="115.11 964.89 940 140 940 964.89 115.11 964.89" style="fill:#cfd9e9"/><use width="27.07" height="27.07" transform="translate(596.06 652.47)" xlink:href="#New_Symbol_1"/><use width="27.07" height="27.07" transform="translate(427.04 846.93)" xlink:href="#New_Symbol_1"/><use width="27.07" height="27.07" transform="translate(351.63 827.43)" xlink:href="#New_Symbol_1"/><use width="27.07" height="27.07" transform="translate(456.31 657.17)" xlink:href="#New_Symbol_1"/><use width="27.07" height="27.07" transform="translate(604.21 545.28)" xlink:href="#New_Symbol_1"/><use width="27.07" height="27.07" transform="translate(527.25 746.49)" xlink:href="#New_Symbol_1"/><use width="27.07" height="27.07" transform="translate(469.84 767.2)" xlink:href="#New_Symbol_1"/><use width="27.07" height="27.07" transform="translate(719.67 745)" xlink:href="#New_Symbol_1"/><use width="27.07" height="27.07" transform="translate(559.37 601.84)" xlink:href="#New_Symbol_1"/><use width="27.07" height="27.07" transform="translate(655.12 603.2)" xlink:href="#New_Symbol_1"/><use width="27.07" height="27.07" transform="translate(751.28 556.31)" xlink:href="#New_Symbol_1"/><use width="27.07" height="27.07" transform="translate(697.32 522.94)" xlink:href="#New_Symbol_1"/><use width="27.07" height="27.07" transform="translate(743.58 621.05)" xlink:href="#New_Symbol_1"/><use width="27.07" height="27.07" transform="translate(680.13 679.92)" xlink:href="#New_Symbol_1"/><use width="27.07" height="27.07" transform="translate(626.91 727.27)" xlink:href="#New_Symbol_1"/><use width="27.07" height="27.07" transform="translate(646.39 801.6)" xlink:href="#New_Symbol_1"/></g><use width="27.07" height="27.07" transform="translate(279 247) scale(1.03 1)" xlink:href="#New_Symbol_1"/><use width="30" height="30" transform="translate(280.08 183.58) scale(0.9 0.9)" xlink:href="#New_Symbol-2"/><path d="M168.87,205.77a15.67,15.67,0,0,1-6.41,1.15c-6.84,0-12-4.32-12-12.27,0-7.6,5.15-12.75,12.67-12.75A13,13,0,0,1,168.9,183l-.75,2.56a11.36,11.36,0,0,0-4.9-1c-5.69,0-9.46,3.64-9.46,10,0,5.94,3.42,9.75,9.32,9.75a12.39,12.39,0,0,0,5.11-1Z" style="fill:#e54447"/><path d="M172.69,181h3.16v25.56h-3.16Z" style="fill:#e54447"/><path d="M190.83,206.56l-.25-2.2h-.11a6.5,6.5,0,0,1-5.33,2.6,5,5,0,0,1-5.33-5c0-4.21,3.75-6.51,10.48-6.48v-.36c0-1.44-.4-4-4-4a8.73,8.73,0,0,0-4.54,1.3l-.72-2.09a10.79,10.79,0,0,1,5.73-1.55c5.32,0,6.62,3.64,6.62,7.13v6.51a24.12,24.12,0,0,0,.29,4.18Zm-.47-8.89c-3.46-.07-7.38.54-7.38,3.92a2.81,2.81,0,0,0,3,3,4.32,4.32,0,0,0,4.21-2.92,3.21,3.21,0,0,0,.18-1Z" style="fill:#e54447"/><path d="M198.1,203.32a8.33,8.33,0,0,0,4.18,1.26c2.3,0,3.38-1.15,3.38-2.59s-.9-2.34-3.24-3.21c-3.13-1.11-4.61-2.84-4.61-4.93,0-2.8,2.27-5.11,6-5.11a8.76,8.76,0,0,1,4.29,1.08l-.79,2.31a6.75,6.75,0,0,0-3.57-1c-1.87,0-2.91,1.08-2.91,2.37s1,2.09,3.31,2.95c3,1.16,4.57,2.67,4.57,5.26,0,3.06-2.38,5.22-6.52,5.22a9.92,9.92,0,0,1-4.89-1.19Z" style="fill:#e54447"/><path d="M212.36,203.32a8.29,8.29,0,0,0,4.17,1.26c2.31,0,3.39-1.15,3.39-2.59s-.9-2.34-3.24-3.21c-3.14-1.11-4.61-2.84-4.61-4.93,0-2.8,2.27-5.11,6-5.11a8.75,8.75,0,0,1,4.28,1.08l-.79,2.31a6.68,6.68,0,0,0-3.56-1c-1.87,0-2.92,1.08-2.92,2.37s1,2.09,3.31,2.95c3,1.16,4.58,2.67,4.58,5.26,0,3.06-2.38,5.22-6.52,5.22a9.9,9.9,0,0,1-4.89-1.19Z" style="fill:#e54447"/><path d="M240.54,186.11h-.07l-4.07,2.2-.61-2.41,5.11-2.74h2.7v23.4h-3.06Z" style="fill:#e54447"/><path d="M168.87,271.5a15.46,15.46,0,0,1-6.41,1.16c-6.84,0-12-4.32-12-12.28,0-7.59,5.15-12.74,12.67-12.74a13,13,0,0,1,5.76,1.08l-.75,2.55a11.52,11.52,0,0,0-4.9-1c-5.69,0-9.46,3.63-9.46,10,0,5.94,3.42,9.76,9.32,9.76a12.55,12.55,0,0,0,5.11-1Z" style="fill:#397cb5"/><path d="M172.69,246.74h3.16V272.3h-3.16Z" style="fill:#397cb5"/><path d="M190.83,272.3l-.25-2.2h-.11a6.49,6.49,0,0,1-5.33,2.59,5,5,0,0,1-5.33-5c0-4.21,3.75-6.52,10.48-6.48v-.36c0-1.44-.4-4-4-4a8.73,8.73,0,0,0-4.54,1.29l-.72-2.08a10.79,10.79,0,0,1,5.73-1.55c5.32,0,6.62,3.63,6.62,7.12v6.52a24.19,24.19,0,0,0,.29,4.18Zm-.47-8.9c-3.46-.07-7.38.54-7.38,3.93a2.8,2.8,0,0,0,3,3,4.33,4.33,0,0,0,4.21-2.91,3.31,3.31,0,0,0,.18-1Z" style="fill:#397cb5"/><path d="M198.1,269.06a8.33,8.33,0,0,0,4.18,1.26c2.3,0,3.38-1.16,3.38-2.6s-.9-2.34-3.24-3.2c-3.13-1.12-4.61-2.84-4.61-4.93,0-2.81,2.27-5.11,6-5.11a8.65,8.65,0,0,1,4.29,1.08l-.79,2.3a6.84,6.84,0,0,0-3.57-1c-1.87,0-2.91,1.08-2.91,2.38s1,2.09,3.31,2.95c3,1.15,4.57,2.66,4.57,5.26,0,3.06-2.38,5.22-6.52,5.22a9.92,9.92,0,0,1-4.89-1.19Z" style="fill:#397cb5"/><path d="M212.36,269.06a8.29,8.29,0,0,0,4.17,1.26c2.31,0,3.39-1.16,3.39-2.6s-.9-2.34-3.24-3.2c-3.14-1.12-4.61-2.84-4.61-4.93,0-2.81,2.27-5.11,6-5.11a8.64,8.64,0,0,1,4.28,1.08l-.79,2.3a6.77,6.77,0,0,0-3.56-1c-1.87,0-2.92,1.08-2.92,2.38s1,2.09,3.31,2.95c3,1.15,4.58,2.66,4.58,5.26,0,3.06-2.38,5.22-6.52,5.22a9.9,9.9,0,0,1-4.89-1.19Z" style="fill:#397cb5"/><path d="M233.67,272.3v-1.95l2.48-2.41c6-5.69,8.68-8.71,8.71-12.24,0-2.37-1.15-4.57-4.64-4.57a8,8,0,0,0-5,2l-1-2.23a10.28,10.28,0,0,1,6.63-2.38c5,0,7.16,3.46,7.16,6.81,0,4.31-3.13,7.81-8.06,12.56l-1.87,1.73v.07h10.51v2.63Z" style="fill:#397cb5"/><polyline points="115.1 136.63 115.1 964.9 943.37 964.9" style="fill:none;stroke:#515a60;stroke-linecap:round;stroke-linejoin:round;stroke-width:6px"/><polygon points="100.14 141 115.1 115.1 130.06 141 100.14 141" style="fill:#515a60"/><polygon points="939 979.86 964.9 964.9 939 949.94 939 979.86" style="fill:#515a60"/><use width="30" height="30" transform="translate(544.08 286.58) scale(0.9 0.9)" xlink:href="#New_Symbol-2"/><use width="30" height="30" transform="translate(499.12 369.88) scale(0.9 0.9)" xlink:href="#New_Symbol-2"/><use width="30" height="30" transform="translate(413.14 485.66) scale(0.9 0.9)" xlink:href="#New_Symbol-2"/><use width="30" height="30" transform="translate(286.11 443.94) scale(0.9 0.9)" xlink:href="#New_Symbol-2"/><use width="30" height="30" transform="translate(171.14 599) scale(0.9 0.9)" xlink:href="#New_Symbol-2"/><use width="30" height="30" transform="translate(392.45 272.73) scale(0.9 0.9)" xlink:href="#New_Symbol-2"/><use width="30" height="30" transform="translate(310.58 389.94) scale(0.9 0.9)" xlink:href="#New_Symbol-2"/><use width="30" height="30" transform="translate(273.64 594.86) scale(0.9 0.9)" xlink:href="#New_Symbol-2"/><use width="30" height="30" transform="translate(312.11 543.88) scale(0.9 0.9)" xlink:href="#New_Symbol-2"/><use width="30" height="30" transform="translate(233.4 323.01) scale(0.9 0.9)" xlink:href="#New_Symbol-2"/><use width="30" height="30" transform="translate(171 408.32) scale(0.9 0.9)" xlink:href="#New_Symbol-2"/><use width="30" height="30" transform="translate(170.07 526.29) scale(0.9 0.9)" xlink:href="#New_Symbol-2"/><use width="30" height="30" transform="translate(209.64 714.37) scale(0.9 0.9)" xlink:href="#New_Symbol-2"/><use width="30" height="30" transform="translate(384.52 413.98) scale(0.9 0.9)" xlink:href="#New_Symbol-2"/><use width="30" height="30" transform="translate(228.45 478.52) scale(0.9 0.9)" xlink:href="#New_Symbol-2"/><use width="30" height="30" transform="translate(379.39 324.81) scale(0.9 0.9)" xlink:href="#New_Symbol-2"/><path d="M915.15,164.85l-772.7,772.7Z" style="fill:#fff"/><polyline points="910.91 169.09 915.15 164.85 910.91 169.09" style="fill:none;stroke:#515a60;stroke-linecap:round;stroke-linejoin:round;stroke-width:6px"/><line x1="902.51" y1="177.49" x2="150.89" y2="929.11" style="fill:none;stroke:#515a60;stroke-linecap:round;stroke-linejoin:round;stroke-width:6px;stroke-dasharray:11.876477241516113,11.876477241516113"/><polyline points="146.69 933.31 142.45 937.55 146.69 933.31" style="fill:none;stroke:#515a60;stroke-linecap:round;stroke-linejoin:round;stroke-width:6px"/><line x1="155.09" y1="924.91" x2="906.71" y2="173.29" style="fill:none;stroke:#515a60;stroke-linecap:round;stroke-linejoin:round;stroke-width:6px;stroke-dasharray:11.876477241516113,11.876477241516113"/></svg>