<?xml version="1.0" encoding="utf-8" standalone="no"?>
<!DOCTYPE svg PUBLIC "-//W3C//DTD SVG 1.1//EN"
  "http://www.w3.org/Graphics/SVG/1.1/DTD/svg11.dtd">
<!-- Created with matplotlib (https://matplotlib.org/) -->
<svg height="324pt" version="1.1" viewBox="0 0 576 324" width="576pt" xmlns="http://www.w3.org/2000/svg" xmlns:xlink="http://www.w3.org/1999/xlink">
 <metadata>
  <rdf:RDF xmlns:cc="http://creativecommons.org/ns#" xmlns:dc="http://purl.org/dc/elements/1.1/" xmlns:rdf="http://www.w3.org/1999/02/22-rdf-syntax-ns#">
   <cc:Work>
    <dc:type rdf:resource="http://purl.org/dc/dcmitype/StillImage"/>
    <dc:date>2021-04-28T15:25:20.501149</dc:date>
    <dc:format>image/svg+xml</dc:format>
    <dc:creator>
     <cc:Agent>
      <dc:title>Matplotlib v3.3.4, https://matplotlib.org/</dc:title>
     </cc:Agent>
    </dc:creator>
   </cc:Work>
  </rdf:RDF>
 </metadata>
 <defs>
  <style type="text/css">*{stroke-linecap:butt;stroke-linejoin:round;}</style>
 </defs>
 <g id="figure_1">
  <g id="patch_1">
   <path d="M 0 324 
L 576 324 
L 576 0 
L 0 0 
z
" style="fill:#ffffff;"/>
  </g>
  <g id="axes_1">
   <g id="patch_2">
    <path d="M 72 288.36 
L 518.4 288.36 
L 518.4 38.88 
L 72 38.88 
z
" style="fill:#eaeaf2;"/>
   </g>
   <g id="matplotlib.axis_1">
    <g id="xtick_1">
     <g id="line2d_1">
      <path clip-path="url(#pee619eac71)" d="M 92.290909 288.36 
L 92.290909 38.88 
" style="fill:none;stroke:#ffffff;stroke-linecap:round;"/>
     </g>
     <g id="text_1">
      <!-- 0 -->
      <g style="fill:#262626;" transform="translate(89.232393 305.733594)scale(0.11 -0.11)">
       <defs>
        <path d="M 4.15625 35.296875 
Q 4.15625 48 6.765625 55.734375 
Q 9.375 63.484375 14.515625 67.671875 
Q 19.671875 71.875 27.484375 71.875 
Q 33.25 71.875 37.59375 69.546875 
Q 41.9375 67.234375 44.765625 62.859375 
Q 47.609375 58.5 49.21875 52.21875 
Q 50.828125 45.953125 50.828125 35.296875 
Q 50.828125 22.703125 48.234375 14.96875 
Q 45.65625 7.234375 40.5 3 
Q 35.359375 -1.21875 27.484375 -1.21875 
Q 17.140625 -1.21875 11.234375 6.203125 
Q 4.15625 15.140625 4.15625 35.296875 
z
M 13.1875 35.296875 
Q 13.1875 17.671875 17.3125 11.828125 
Q 21.4375 6 27.484375 6 
Q 33.546875 6 37.671875 11.859375 
Q 41.796875 17.71875 41.796875 35.296875 
Q 41.796875 52.984375 37.671875 58.78125 
Q 33.546875 64.59375 27.390625 64.59375 
Q 21.34375 64.59375 17.71875 59.46875 
Q 13.1875 52.9375 13.1875 35.296875 
z
" id="ArialMT-48"/>
       </defs>
       <use xlink:href="#ArialMT-48"/>
      </g>
     </g>
    </g>
    <g id="xtick_2">
     <g id="line2d_2">
      <path clip-path="url(#pee619eac71)" d="M 173.53579 288.36 
L 173.53579 38.88 
" style="fill:none;stroke:#ffffff;stroke-linecap:round;"/>
     </g>
     <g id="text_2">
      <!-- 200 -->
      <g style="fill:#262626;" transform="translate(164.360243 305.733594)scale(0.11 -0.11)">
       <defs>
        <path d="M 50.34375 8.453125 
L 50.34375 0 
L 3.03125 0 
Q 2.9375 3.171875 4.046875 6.109375 
Q 5.859375 10.9375 9.828125 15.625 
Q 13.8125 20.3125 21.34375 26.46875 
Q 33.015625 36.03125 37.109375 41.625 
Q 41.21875 47.21875 41.21875 52.203125 
Q 41.21875 57.421875 37.46875 61 
Q 33.734375 64.59375 27.734375 64.59375 
Q 21.390625 64.59375 17.578125 60.78125 
Q 13.765625 56.984375 13.71875 50.25 
L 4.6875 51.171875 
Q 5.609375 61.28125 11.65625 66.578125 
Q 17.71875 71.875 27.9375 71.875 
Q 38.234375 71.875 44.234375 66.15625 
Q 50.25 60.453125 50.25 52 
Q 50.25 47.703125 48.484375 43.546875 
Q 46.734375 39.40625 42.65625 34.8125 
Q 38.578125 30.21875 29.109375 22.21875 
Q 21.1875 15.578125 18.9375 13.203125 
Q 16.703125 10.84375 15.234375 8.453125 
z
" id="ArialMT-50"/>
       </defs>
       <use xlink:href="#ArialMT-50"/>
       <use x="55.615234" xlink:href="#ArialMT-48"/>
       <use x="111.230469" xlink:href="#ArialMT-48"/>
      </g>
     </g>
    </g>
    <g id="xtick_3">
     <g id="line2d_3">
      <path clip-path="url(#pee619eac71)" d="M 254.780672 288.36 
L 254.780672 38.88 
" style="fill:none;stroke:#ffffff;stroke-linecap:round;"/>
     </g>
     <g id="text_3">
      <!-- 400 -->
      <g style="fill:#262626;" transform="translate(245.605125 305.733594)scale(0.11 -0.11)">
       <defs>
        <path d="M 32.328125 0 
L 32.328125 17.140625 
L 1.265625 17.140625 
L 1.265625 25.203125 
L 33.9375 71.578125 
L 41.109375 71.578125 
L 41.109375 25.203125 
L 50.78125 25.203125 
L 50.78125 17.140625 
L 41.109375 17.140625 
L 41.109375 0 
z
M 32.328125 25.203125 
L 32.328125 57.46875 
L 9.90625 25.203125 
z
" id="ArialMT-52"/>
       </defs>
       <use xlink:href="#ArialMT-52"/>
       <use x="55.615234" xlink:href="#ArialMT-48"/>
       <use x="111.230469" xlink:href="#ArialMT-48"/>
      </g>
     </g>
    </g>
    <g id="xtick_4">
     <g id="line2d_4">
      <path clip-path="url(#pee619eac71)" d="M 336.025553 288.36 
L 336.025553 38.88 
" style="fill:none;stroke:#ffffff;stroke-linecap:round;"/>
     </g>
     <g id="text_4">
      <!-- 600 -->
      <g style="fill:#262626;" transform="translate(326.850006 305.733594)scale(0.11 -0.11)">
       <defs>
        <path d="M 49.75 54.046875 
L 41.015625 53.375 
Q 39.84375 58.546875 37.703125 60.890625 
Q 34.125 64.65625 28.90625 64.65625 
Q 24.703125 64.65625 21.53125 62.3125 
Q 17.390625 59.28125 14.984375 53.46875 
Q 12.59375 47.65625 12.5 36.921875 
Q 15.671875 41.75 20.265625 44.09375 
Q 24.859375 46.4375 29.890625 46.4375 
Q 38.671875 46.4375 44.84375 39.96875 
Q 51.03125 33.5 51.03125 23.25 
Q 51.03125 16.5 48.125 10.71875 
Q 45.21875 4.9375 40.140625 1.859375 
Q 35.0625 -1.21875 28.609375 -1.21875 
Q 17.625 -1.21875 10.6875 6.859375 
Q 3.765625 14.9375 3.765625 33.5 
Q 3.765625 54.25 11.421875 63.671875 
Q 18.109375 71.875 29.4375 71.875 
Q 37.890625 71.875 43.28125 67.140625 
Q 48.6875 62.40625 49.75 54.046875 
z
M 13.875 23.1875 
Q 13.875 18.65625 15.796875 14.5 
Q 17.71875 10.359375 21.1875 8.171875 
Q 24.65625 6 28.46875 6 
Q 34.03125 6 38.03125 10.484375 
Q 42.046875 14.984375 42.046875 22.703125 
Q 42.046875 30.125 38.078125 34.390625 
Q 34.125 38.671875 28.125 38.671875 
Q 22.171875 38.671875 18.015625 34.390625 
Q 13.875 30.125 13.875 23.1875 
z
" id="ArialMT-54"/>
       </defs>
       <use xlink:href="#ArialMT-54"/>
       <use x="55.615234" xlink:href="#ArialMT-48"/>
       <use x="111.230469" xlink:href="#ArialMT-48"/>
      </g>
     </g>
    </g>
    <g id="xtick_5">
     <g id="line2d_5">
      <path clip-path="url(#pee619eac71)" d="M 417.270434 288.36 
L 417.270434 38.88 
" style="fill:none;stroke:#ffffff;stroke-linecap:round;"/>
     </g>
     <g id="text_5">
      <!-- 800 -->
      <g style="fill:#262626;" transform="translate(408.094887 305.733594)scale(0.11 -0.11)">
       <defs>
        <path d="M 17.671875 38.8125 
Q 12.203125 40.828125 9.5625 44.53125 
Q 6.9375 48.25 6.9375 53.421875 
Q 6.9375 61.234375 12.546875 66.546875 
Q 18.171875 71.875 27.484375 71.875 
Q 36.859375 71.875 42.578125 66.421875 
Q 48.296875 60.984375 48.296875 53.171875 
Q 48.296875 48.1875 45.671875 44.5 
Q 43.0625 40.828125 37.75 38.8125 
Q 44.34375 36.671875 47.78125 31.875 
Q 51.21875 27.09375 51.21875 20.453125 
Q 51.21875 11.28125 44.71875 5.03125 
Q 38.234375 -1.21875 27.640625 -1.21875 
Q 17.046875 -1.21875 10.546875 5.046875 
Q 4.046875 11.328125 4.046875 20.703125 
Q 4.046875 27.6875 7.59375 32.390625 
Q 11.140625 37.109375 17.671875 38.8125 
z
M 15.921875 53.71875 
Q 15.921875 48.640625 19.1875 45.40625 
Q 22.46875 42.1875 27.6875 42.1875 
Q 32.765625 42.1875 36.015625 45.375 
Q 39.265625 48.578125 39.265625 53.21875 
Q 39.265625 58.0625 35.90625 61.359375 
Q 32.5625 64.65625 27.59375 64.65625 
Q 22.5625 64.65625 19.234375 61.421875 
Q 15.921875 58.203125 15.921875 53.71875 
z
M 13.09375 20.65625 
Q 13.09375 16.890625 14.875 13.375 
Q 16.65625 9.859375 20.171875 7.921875 
Q 23.6875 6 27.734375 6 
Q 34.03125 6 38.125 10.046875 
Q 42.234375 14.109375 42.234375 20.359375 
Q 42.234375 26.703125 38.015625 30.859375 
Q 33.796875 35.015625 27.4375 35.015625 
Q 21.234375 35.015625 17.15625 30.90625 
Q 13.09375 26.8125 13.09375 20.65625 
z
" id="ArialMT-56"/>
       </defs>
       <use xlink:href="#ArialMT-56"/>
       <use x="55.615234" xlink:href="#ArialMT-48"/>
       <use x="111.230469" xlink:href="#ArialMT-48"/>
      </g>
     </g>
    </g>
    <g id="xtick_6">
     <g id="line2d_6">
      <path clip-path="url(#pee619eac71)" d="M 498.515315 288.36 
L 498.515315 38.88 
" style="fill:none;stroke:#ffffff;stroke-linecap:round;"/>
     </g>
     <g id="text_6">
      <!-- 1000 -->
      <g style="fill:#262626;" transform="translate(486.281253 305.733594)scale(0.11 -0.11)">
       <defs>
        <path d="M 37.25 0 
L 28.46875 0 
L 28.46875 56 
Q 25.296875 52.984375 20.140625 49.953125 
Q 14.984375 46.921875 10.890625 45.40625 
L 10.890625 53.90625 
Q 18.265625 57.375 23.78125 62.296875 
Q 29.296875 67.234375 31.59375 71.875 
L 37.25 71.875 
z
" id="ArialMT-49"/>
       </defs>
       <use xlink:href="#ArialMT-49"/>
       <use x="55.615234" xlink:href="#ArialMT-48"/>
       <use x="111.230469" xlink:href="#ArialMT-48"/>
       <use x="166.845703" xlink:href="#ArialMT-48"/>
      </g>
     </g>
    </g>
    <g id="text_7">
     <!-- Iterations -->
     <g style="fill:#262626;" transform="translate(270.522187 320.509219)scale(0.12 -0.12)">
      <defs>
       <path d="M 9.328125 0 
L 9.328125 71.578125 
L 18.796875 71.578125 
L 18.796875 0 
z
" id="ArialMT-73"/>
       <path d="M 25.78125 7.859375 
L 27.046875 0.09375 
Q 23.34375 -0.6875 20.40625 -0.6875 
Q 15.625 -0.6875 12.984375 0.828125 
Q 10.359375 2.34375 9.28125 4.8125 
Q 8.203125 7.28125 8.203125 15.1875 
L 8.203125 45.015625 
L 1.765625 45.015625 
L 1.765625 51.859375 
L 8.203125 51.859375 
L 8.203125 64.703125 
L 16.9375 69.96875 
L 16.9375 51.859375 
L 25.78125 51.859375 
L 25.78125 45.015625 
L 16.9375 45.015625 
L 16.9375 14.703125 
Q 16.9375 10.9375 17.40625 9.859375 
Q 17.875 8.796875 18.921875 8.15625 
Q 19.96875 7.515625 21.921875 7.515625 
Q 23.390625 7.515625 25.78125 7.859375 
z
" id="ArialMT-116"/>
       <path d="M 42.09375 16.703125 
L 51.171875 15.578125 
Q 49.03125 7.625 43.21875 3.21875 
Q 37.40625 -1.171875 28.375 -1.171875 
Q 17 -1.171875 10.328125 5.828125 
Q 3.65625 12.84375 3.65625 25.484375 
Q 3.65625 38.578125 10.390625 45.796875 
Q 17.140625 53.03125 27.875 53.03125 
Q 38.28125 53.03125 44.875 45.953125 
Q 51.46875 38.875 51.46875 26.03125 
Q 51.46875 25.25 51.421875 23.6875 
L 12.75 23.6875 
Q 13.234375 15.140625 17.578125 10.59375 
Q 21.921875 6.0625 28.421875 6.0625 
Q 33.25 6.0625 36.671875 8.59375 
Q 40.09375 11.140625 42.09375 16.703125 
z
M 13.234375 30.90625 
L 42.1875 30.90625 
Q 41.609375 37.453125 38.875 40.71875 
Q 34.671875 45.796875 27.984375 45.796875 
Q 21.921875 45.796875 17.796875 41.75 
Q 13.671875 37.703125 13.234375 30.90625 
z
" id="ArialMT-101"/>
       <path d="M 6.5 0 
L 6.5 51.859375 
L 14.40625 51.859375 
L 14.40625 44 
Q 17.4375 49.515625 20 51.265625 
Q 22.5625 53.03125 25.640625 53.03125 
Q 30.078125 53.03125 34.671875 50.203125 
L 31.640625 42.046875 
Q 28.421875 43.953125 25.203125 43.953125 
Q 22.3125 43.953125 20.015625 42.21875 
Q 17.71875 40.484375 16.75 37.40625 
Q 15.28125 32.71875 15.28125 27.15625 
L 15.28125 0 
z
" id="ArialMT-114"/>
       <path d="M 40.4375 6.390625 
Q 35.546875 2.25 31.03125 0.53125 
Q 26.515625 -1.171875 21.34375 -1.171875 
Q 12.796875 -1.171875 8.203125 3 
Q 3.609375 7.171875 3.609375 13.671875 
Q 3.609375 17.484375 5.34375 20.625 
Q 7.078125 23.78125 9.890625 25.6875 
Q 12.703125 27.59375 16.21875 28.5625 
Q 18.796875 29.25 24.03125 29.890625 
Q 34.671875 31.15625 39.703125 32.90625 
Q 39.75 34.71875 39.75 35.203125 
Q 39.75 40.578125 37.25 42.78125 
Q 33.890625 45.75 27.25 45.75 
Q 21.046875 45.75 18.09375 43.578125 
Q 15.140625 41.40625 13.71875 35.890625 
L 5.125 37.0625 
Q 6.296875 42.578125 8.984375 45.96875 
Q 11.671875 49.359375 16.75 51.1875 
Q 21.828125 53.03125 28.515625 53.03125 
Q 35.15625 53.03125 39.296875 51.46875 
Q 43.453125 49.90625 45.40625 47.53125 
Q 47.359375 45.171875 48.140625 41.546875 
Q 48.578125 39.3125 48.578125 33.453125 
L 48.578125 21.734375 
Q 48.578125 9.46875 49.140625 6.21875 
Q 49.703125 2.984375 51.375 0 
L 42.1875 0 
Q 40.828125 2.734375 40.4375 6.390625 
z
M 39.703125 26.03125 
Q 34.90625 24.078125 25.34375 22.703125 
Q 19.921875 21.921875 17.671875 20.9375 
Q 15.4375 19.96875 14.203125 18.09375 
Q 12.984375 16.21875 12.984375 13.921875 
Q 12.984375 10.40625 15.640625 8.0625 
Q 18.3125 5.71875 23.4375 5.71875 
Q 28.515625 5.71875 32.46875 7.9375 
Q 36.421875 10.15625 38.28125 14.015625 
Q 39.703125 17 39.703125 22.796875 
z
" id="ArialMT-97"/>
       <path d="M 6.640625 61.46875 
L 6.640625 71.578125 
L 15.4375 71.578125 
L 15.4375 61.46875 
z
M 6.640625 0 
L 6.640625 51.859375 
L 15.4375 51.859375 
L 15.4375 0 
z
" id="ArialMT-105"/>
       <path d="M 3.328125 25.921875 
Q 3.328125 40.328125 11.328125 47.265625 
Q 18.015625 53.03125 27.640625 53.03125 
Q 38.328125 53.03125 45.109375 46.015625 
Q 51.90625 39.015625 51.90625 26.65625 
Q 51.90625 16.65625 48.90625 10.90625 
Q 45.90625 5.171875 40.15625 2 
Q 34.421875 -1.171875 27.640625 -1.171875 
Q 16.75 -1.171875 10.03125 5.8125 
Q 3.328125 12.796875 3.328125 25.921875 
z
M 12.359375 25.921875 
Q 12.359375 15.96875 16.703125 11.015625 
Q 21.046875 6.0625 27.640625 6.0625 
Q 34.1875 6.0625 38.53125 11.03125 
Q 42.875 16.015625 42.875 26.21875 
Q 42.875 35.84375 38.5 40.796875 
Q 34.125 45.75 27.640625 45.75 
Q 21.046875 45.75 16.703125 40.8125 
Q 12.359375 35.890625 12.359375 25.921875 
z
" id="ArialMT-111"/>
       <path d="M 6.59375 0 
L 6.59375 51.859375 
L 14.5 51.859375 
L 14.5 44.484375 
Q 20.21875 53.03125 31 53.03125 
Q 35.6875 53.03125 39.625 51.34375 
Q 43.5625 49.65625 45.515625 46.921875 
Q 47.46875 44.1875 48.25 40.4375 
Q 48.734375 37.984375 48.734375 31.890625 
L 48.734375 0 
L 39.9375 0 
L 39.9375 31.546875 
Q 39.9375 36.921875 38.90625 39.578125 
Q 37.890625 42.234375 35.28125 43.8125 
Q 32.671875 45.40625 29.15625 45.40625 
Q 23.53125 45.40625 19.453125 41.84375 
Q 15.375 38.28125 15.375 28.328125 
L 15.375 0 
z
" id="ArialMT-110"/>
       <path d="M 3.078125 15.484375 
L 11.765625 16.84375 
Q 12.5 11.625 15.84375 8.84375 
Q 19.1875 6.0625 25.203125 6.0625 
Q 31.25 6.0625 34.171875 8.515625 
Q 37.109375 10.984375 37.109375 14.3125 
Q 37.109375 17.28125 34.515625 19 
Q 32.71875 20.171875 25.53125 21.96875 
Q 15.875 24.421875 12.140625 26.203125 
Q 8.40625 27.984375 6.46875 31.125 
Q 4.546875 34.28125 4.546875 38.09375 
Q 4.546875 41.546875 6.125 44.5 
Q 7.71875 47.46875 10.453125 49.421875 
Q 12.5 50.921875 16.03125 51.96875 
Q 19.578125 53.03125 23.640625 53.03125 
Q 29.734375 53.03125 34.34375 51.265625 
Q 38.96875 49.515625 41.15625 46.5 
Q 43.359375 43.5 44.1875 38.484375 
L 35.59375 37.3125 
Q 35.015625 41.3125 32.203125 43.546875 
Q 29.390625 45.796875 24.265625 45.796875 
Q 18.21875 45.796875 15.625 43.796875 
Q 13.03125 41.796875 13.03125 39.109375 
Q 13.03125 37.40625 14.109375 36.03125 
Q 15.1875 34.625 17.484375 33.6875 
Q 18.796875 33.203125 25.25 31.453125 
Q 34.578125 28.953125 38.25 27.359375 
Q 41.9375 25.78125 44.03125 22.75 
Q 46.140625 19.734375 46.140625 15.234375 
Q 46.140625 10.84375 43.578125 6.953125 
Q 41.015625 3.078125 36.171875 0.953125 
Q 31.34375 -1.171875 25.25 -1.171875 
Q 15.140625 -1.171875 9.84375 3.03125 
Q 4.546875 7.234375 3.078125 15.484375 
z
" id="ArialMT-115"/>
      </defs>
      <use xlink:href="#ArialMT-73"/>
      <use x="27.783203" xlink:href="#ArialMT-116"/>
      <use x="55.566406" xlink:href="#ArialMT-101"/>
      <use x="111.181641" xlink:href="#ArialMT-114"/>
      <use x="144.482422" xlink:href="#ArialMT-97"/>
      <use x="200.097656" xlink:href="#ArialMT-116"/>
      <use x="227.880859" xlink:href="#ArialMT-105"/>
      <use x="250.097656" xlink:href="#ArialMT-111"/>
      <use x="305.712891" xlink:href="#ArialMT-110"/>
      <use x="361.328125" xlink:href="#ArialMT-115"/>
     </g>
    </g>
   </g>
   <g id="matplotlib.axis_2">
    <g id="ytick_1">
     <g id="line2d_7">
      <path clip-path="url(#pee619eac71)" d="M 72 257.503934 
L 518.4 257.503934 
" style="fill:none;stroke:#ffffff;stroke-linecap:round;"/>
     </g>
     <g id="text_8">
      <!-- 1 -->
      <g style="fill:#262626;" transform="translate(56.382969 261.440731)scale(0.11 -0.11)">
       <use xlink:href="#ArialMT-49"/>
      </g>
     </g>
    </g>
    <g id="ytick_2">
     <g id="line2d_8">
      <path clip-path="url(#pee619eac71)" d="M 72 215.972245 
L 518.4 215.972245 
" style="fill:none;stroke:#ffffff;stroke-linecap:round;"/>
     </g>
     <g id="text_9">
      <!-- 2 -->
      <g style="fill:#262626;" transform="translate(56.382969 219.909041)scale(0.11 -0.11)">
       <use xlink:href="#ArialMT-50"/>
      </g>
     </g>
    </g>
    <g id="ytick_3">
     <g id="line2d_9">
      <path clip-path="url(#pee619eac71)" d="M 72 174.440555 
L 518.4 174.440555 
" style="fill:none;stroke:#ffffff;stroke-linecap:round;"/>
     </g>
     <g id="text_10">
      <!-- 3 -->
      <g style="fill:#262626;" transform="translate(56.382969 178.377352)scale(0.11 -0.11)">
       <defs>
        <path d="M 4.203125 18.890625 
L 12.984375 20.0625 
Q 14.5 12.59375 18.140625 9.296875 
Q 21.78125 6 27 6 
Q 33.203125 6 37.46875 10.296875 
Q 41.75 14.59375 41.75 20.953125 
Q 41.75 27 37.796875 30.921875 
Q 33.84375 34.859375 27.734375 34.859375 
Q 25.25 34.859375 21.53125 33.890625 
L 22.515625 41.609375 
Q 23.390625 41.5 23.921875 41.5 
Q 29.546875 41.5 34.03125 44.421875 
Q 38.53125 47.359375 38.53125 53.46875 
Q 38.53125 58.296875 35.25 61.46875 
Q 31.984375 64.65625 26.8125 64.65625 
Q 21.6875 64.65625 18.265625 61.421875 
Q 14.84375 58.203125 13.875 51.765625 
L 5.078125 53.328125 
Q 6.6875 62.15625 12.390625 67.015625 
Q 18.109375 71.875 26.609375 71.875 
Q 32.46875 71.875 37.390625 69.359375 
Q 42.328125 66.84375 44.9375 62.5 
Q 47.5625 58.15625 47.5625 53.265625 
Q 47.5625 48.640625 45.0625 44.828125 
Q 42.578125 41.015625 37.703125 38.765625 
Q 44.046875 37.3125 47.5625 32.6875 
Q 51.078125 28.078125 51.078125 21.140625 
Q 51.078125 11.765625 44.234375 5.25 
Q 37.40625 -1.265625 26.953125 -1.265625 
Q 17.53125 -1.265625 11.296875 4.34375 
Q 5.078125 9.96875 4.203125 18.890625 
z
" id="ArialMT-51"/>
       </defs>
       <use xlink:href="#ArialMT-51"/>
      </g>
     </g>
    </g>
    <g id="ytick_4">
     <g id="line2d_10">
      <path clip-path="url(#pee619eac71)" d="M 72 132.908865 
L 518.4 132.908865 
" style="fill:none;stroke:#ffffff;stroke-linecap:round;"/>
     </g>
     <g id="text_11">
      <!-- 4 -->
      <g style="fill:#262626;" transform="translate(56.382969 136.845662)scale(0.11 -0.11)">
       <use xlink:href="#ArialMT-52"/>
      </g>
     </g>
    </g>
    <g id="ytick_5">
     <g id="line2d_11">
      <path clip-path="url(#pee619eac71)" d="M 72 91.377175 
L 518.4 91.377175 
" style="fill:none;stroke:#ffffff;stroke-linecap:round;"/>
     </g>
     <g id="text_12">
      <!-- 5 -->
      <g style="fill:#262626;" transform="translate(56.382969 95.313972)scale(0.11 -0.11)">
       <defs>
        <path d="M 4.15625 18.75 
L 13.375 19.53125 
Q 14.40625 12.796875 18.140625 9.390625 
Q 21.875 6 27.15625 6 
Q 33.5 6 37.890625 10.78125 
Q 42.28125 15.578125 42.28125 23.484375 
Q 42.28125 31 38.0625 35.34375 
Q 33.84375 39.703125 27 39.703125 
Q 22.75 39.703125 19.328125 37.765625 
Q 15.921875 35.84375 13.96875 32.765625 
L 5.71875 33.84375 
L 12.640625 70.609375 
L 48.25 70.609375 
L 48.25 62.203125 
L 19.671875 62.203125 
L 15.828125 42.96875 
Q 22.265625 47.46875 29.34375 47.46875 
Q 38.71875 47.46875 45.15625 40.96875 
Q 51.609375 34.46875 51.609375 24.265625 
Q 51.609375 14.546875 45.953125 7.46875 
Q 39.0625 -1.21875 27.15625 -1.21875 
Q 17.390625 -1.21875 11.203125 4.25 
Q 5.03125 9.71875 4.15625 18.75 
z
" id="ArialMT-53"/>
       </defs>
       <use xlink:href="#ArialMT-53"/>
      </g>
     </g>
    </g>
    <g id="ytick_6">
     <g id="line2d_12">
      <path clip-path="url(#pee619eac71)" d="M 72 49.845485 
L 518.4 49.845485 
" style="fill:none;stroke:#ffffff;stroke-linecap:round;"/>
     </g>
     <g id="text_13">
      <!-- 6 -->
      <g style="fill:#262626;" transform="translate(56.382969 53.782282)scale(0.11 -0.11)">
       <use xlink:href="#ArialMT-54"/>
      </g>
     </g>
    </g>
    <g id="text_14">
     <!-- MSE -->
     <g style="fill:#262626;" transform="translate(49.997969 176.622187)rotate(-90)scale(0.12 -0.12)">
      <defs>
       <path d="M 7.421875 0 
L 7.421875 71.578125 
L 21.6875 71.578125 
L 38.625 20.90625 
Q 40.96875 13.8125 42.046875 10.296875 
Q 43.265625 14.203125 45.84375 21.78125 
L 62.984375 71.578125 
L 75.734375 71.578125 
L 75.734375 0 
L 66.609375 0 
L 66.609375 59.90625 
L 45.796875 0 
L 37.25 0 
L 16.546875 60.9375 
L 16.546875 0 
z
" id="ArialMT-77"/>
       <path d="M 4.5 23 
L 13.421875 23.78125 
Q 14.0625 18.40625 16.375 14.96875 
Q 18.703125 11.53125 23.578125 9.40625 
Q 28.46875 7.28125 34.578125 7.28125 
Q 39.984375 7.28125 44.140625 8.890625 
Q 48.296875 10.5 50.3125 13.296875 
Q 52.34375 16.109375 52.34375 19.4375 
Q 52.34375 22.796875 50.390625 25.3125 
Q 48.4375 27.828125 43.953125 29.546875 
Q 41.0625 30.671875 31.203125 33.03125 
Q 21.34375 35.40625 17.390625 37.5 
Q 12.25 40.1875 9.734375 44.15625 
Q 7.234375 48.140625 7.234375 53.078125 
Q 7.234375 58.5 10.296875 63.203125 
Q 13.375 67.921875 19.28125 70.359375 
Q 25.203125 72.796875 32.421875 72.796875 
Q 40.375 72.796875 46.453125 70.234375 
Q 52.546875 67.671875 55.8125 62.6875 
Q 59.078125 57.71875 59.328125 51.421875 
L 50.25 50.734375 
Q 49.515625 57.515625 45.28125 60.984375 
Q 41.0625 64.453125 32.8125 64.453125 
Q 24.21875 64.453125 20.28125 61.296875 
Q 16.359375 58.15625 16.359375 53.71875 
Q 16.359375 49.859375 19.140625 47.359375 
Q 21.875 44.875 33.421875 42.265625 
Q 44.96875 39.65625 49.265625 37.703125 
Q 55.515625 34.8125 58.484375 30.390625 
Q 61.46875 25.984375 61.46875 20.21875 
Q 61.46875 14.5 58.203125 9.4375 
Q 54.9375 4.390625 48.796875 1.578125 
Q 42.671875 -1.21875 35.015625 -1.21875 
Q 25.296875 -1.21875 18.71875 1.609375 
Q 12.15625 4.4375 8.421875 10.125 
Q 4.6875 15.828125 4.5 23 
z
" id="ArialMT-83"/>
       <path d="M 7.90625 0 
L 7.90625 71.578125 
L 59.671875 71.578125 
L 59.671875 63.140625 
L 17.390625 63.140625 
L 17.390625 41.21875 
L 56.984375 41.21875 
L 56.984375 32.8125 
L 17.390625 32.8125 
L 17.390625 8.453125 
L 61.328125 8.453125 
L 61.328125 0 
z
" id="ArialMT-69"/>
      </defs>
      <use xlink:href="#ArialMT-77"/>
      <use x="83.300781" xlink:href="#ArialMT-83"/>
      <use x="150" xlink:href="#ArialMT-69"/>
     </g>
    </g>
   </g>
   <g id="line2d_13">
    <path clip-path="url(#pee619eac71)" d="M 92.290909 158.866171 
L 92.697133 112.175874 
L 106.102539 112.307977 
L 107.727437 112.508973 
L 108.133661 112.6607 
L 108.539885 112.993091 
L 108.94611 114.068519 
L 109.352334 123.311791 
L 109.758559 63.124891 
L 110.164783 159.762871 
L 110.571007 147.419618 
L 110.977232 50.22 
L 112.195905 50.508676 
L 112.602129 50.726585 
L 113.008354 51.130719 
L 113.414578 52.066981 
L 113.820803 55.410588 
L 114.227027 83.997921 
L 114.633251 139.883328 
L 115.039476 59.411643 
L 115.4457 109.323066 
L 115.851925 112.91186 
L 116.258149 114.159014 
L 116.664373 124.473159 
L 117.070598 113.537987 
L 117.476822 117.447378 
L 117.883047 171.054689 
L 118.289271 170.675717 
L 118.695495 146.9818 
L 119.10172 112.152312 
L 168.254873 112.261192 
L 170.692219 112.446589 
L 171.504668 112.728034 
L 171.910893 113.145057 
L 172.317117 114.604008 
L 172.723342 127.344546 
L 173.129566 52.818351 
L 173.53579 59.949946 
L 173.942015 132.293874 
L 174.348239 133.036828 
L 174.754464 112.407164 
L 175.566912 112.609135 
L 175.973137 112.864554 
L 176.379361 113.55079 
L 176.785586 117.013439 
L 177.19181 117.41035 
L 177.598034 112.144209 
L 498.109091 112.144693 
L 498.109091 112.144693 
" style="fill:none;stroke:#4c72b0;stroke-linecap:round;stroke-width:1.5;"/>
   </g>
   <g id="line2d_14">
    <path clip-path="url(#pee619eac71)" d="M 92.290909 158.866171 
L 92.697133 118.721233 
L 93.103358 129.24906 
L 93.509582 126.858843 
L 93.915807 116.734851 
L 94.322031 115.021317 
L 94.728256 116.593626 
L 95.13448 120.74346 
L 95.540704 137.311195 
L 95.946929 137.387186 
L 96.353153 112.795828 
L 97.978051 113.060066 
L 99.196724 113.489237 
L 100.009173 114.131304 
L 100.415397 114.759866 
L 100.821622 115.937493 
L 101.227846 118.685493 
L 101.63407 127.953588 
L 102.040295 164.25966 
L 102.446519 163.461518 
L 102.852744 146.615226 
L 103.258968 170.464461 
L 103.665192 171.361003 
L 104.071417 173.338136 
L 106.508763 174.180453 
L 106.914988 174.48409 
L 107.321212 175.006817 
L 107.727437 176.168947 
L 108.133661 180.303139 
L 108.539885 209.944523 
L 108.94611 155.376495 
L 109.352334 192.420574 
L 109.758559 172.025516 
L 110.164783 202.553478 
L 110.571007 159.886619 
L 110.977232 218.963993 
L 111.383456 178.335353 
L 111.789681 190.031671 
L 112.195905 198.260309 
L 112.602129 180.567521 
L 113.414578 211.919982 
L 113.820803 212.517672 
L 114.227027 206.593894 
L 114.633251 176.915529 
L 115.039476 197.022107 
L 115.4457 180.772461 
L 115.851925 213.793062 
L 116.258149 174.871332 
L 116.664373 182.50583 
L 117.070598 225.950127 
L 117.476822 192.192645 
L 117.883047 199.514373 
L 118.289271 182.309594 
L 118.695495 218.379735 
L 119.10172 182.081927 
L 119.507944 204.437658 
L 119.914169 218.112516 
L 120.320393 198.454977 
L 120.726618 184.583531 
L 121.132842 230.530212 
L 121.539066 223.094904 
L 121.945291 183.352162 
L 122.351515 223.335347 
L 122.75774 189.124854 
L 123.163964 234.290525 
L 123.570188 184.898484 
L 124.382637 241.668139 
L 124.788862 199.994586 
L 125.195086 197.320372 
L 125.60131 181.402965 
L 126.007535 213.975216 
L 126.413759 180.32485 
L 126.819984 200.996389 
L 127.226208 195.315035 
L 127.632432 220.50912 
L 128.038657 205.423387 
L 128.444881 246.086355 
L 128.851106 191.095693 
L 129.25733 194.371807 
L 129.663554 214.467986 
L 130.069779 188.576344 
L 130.476003 239.170186 
L 130.882228 254.288563 
L 131.288452 239.028175 
L 131.694676 233.734522 
L 132.100901 232.737011 
L 132.507125 227.262208 
L 132.91335 203.704362 
L 133.319574 203.897715 
L 133.725799 239.005269 
L 134.132023 192.704232 
L 134.538247 243.955637 
L 134.944472 244.981268 
L 136.163145 196.390459 
L 136.569369 219.874856 
L 136.975594 204.609946 
L 137.381818 235.520317 
L 138.194267 195.960927 
L 138.600491 210.927507 
L 139.006716 194.380604 
L 139.41294 235.685371 
L 139.819165 239.361021 
L 140.225389 254.206609 
L 140.631613 248.274153 
L 141.037838 214.19042 
L 141.444062 195.913725 
L 141.850287 232.577961 
L 142.256511 231.562559 
L 142.662735 229.696299 
L 143.06896 223.45832 
L 143.475184 221.951227 
L 143.881409 216.197325 
L 144.287633 231.670799 
L 144.693857 230.611619 
L 145.100082 230.96619 
L 145.506306 238.289431 
L 145.912531 212.543319 
L 146.318755 205.348404 
L 146.72498 229.878533 
L 147.131204 228.148328 
L 147.943653 236.414742 
L 148.349877 227.881314 
L 148.756102 234.60651 
L 149.162326 212.175963 
L 149.974775 231.108121 
L 150.380999 243.630064 
L 150.787224 250.728819 
L 151.193448 248.255223 
L 151.599672 253.130894 
L 152.005897 248.764956 
L 152.412121 214.170547 
L 152.818346 229.895152 
L 153.22457 234.251978 
L 153.630794 240.792136 
L 154.037019 261.518494 
L 154.443243 242.667344 
L 154.849468 236.461039 
L 155.255692 236.66483 
L 155.661916 237.014696 
L 156.068141 237.726485 
L 156.474365 239.667841 
L 156.88059 248.657209 
L 157.693038 236.749317 
L 158.099263 237.15556 
L 158.505487 238.028662 
L 158.911712 240.660457 
L 159.317936 254.372891 
L 159.724161 226.668741 
L 160.536609 249.856843 
L 160.942834 241.17731 
L 161.349058 239.143913 
L 161.755283 245.450648 
L 162.161507 257.551811 
L 162.567731 240.222208 
L 162.973956 251.609598 
L 163.38018 234.884801 
L 163.786405 239.391576 
L 164.598853 253.382549 
L 165.005078 238.170784 
L 165.411302 241.064 
L 165.817527 256.416786 
L 166.223751 228.380997 
L 166.629975 242.164031 
L 167.0362 260.471671 
L 167.442424 243.523693 
L 167.848649 238.864866 
L 168.254873 243.973678 
L 168.661097 262.95266 
L 169.067322 258.647217 
L 169.473546 227.308371 
L 170.285995 259.953069 
L 170.692219 236.82131 
L 171.098444 241.201021 
L 171.504668 256.756999 
L 171.910893 232.993691 
L 172.723342 259.680813 
L 173.129566 243.358638 
L 173.53579 264.016785 
L 173.942015 263.79906 
L 174.348239 249.467131 
L 175.160688 237.236866 
L 175.566912 238.068668 
L 175.973137 240.539738 
L 176.379361 253.630031 
L 176.785586 230.38604 
L 177.19181 240.806559 
L 177.598034 254.905421 
L 178.004259 232.093649 
L 178.410483 244.759521 
L 178.816708 262.916361 
L 179.629156 240.178225 
L 180.035381 240.366826 
L 180.441605 252.173906 
L 180.84783 238.440121 
L 181.254054 242.385975 
L 181.660278 262.413709 
L 182.066503 242.502158 
L 182.472727 240.320863 
L 182.878952 251.864737 
L 183.285176 239.808633 
L 183.6914 242.08116 
L 184.097625 261.430586 
L 184.503849 237.363244 
L 184.910074 243.652969 
L 185.316298 265.173844 
L 185.722523 265.305834 
L 186.128747 254.789826 
L 186.534971 230.670474 
L 186.941196 243.004591 
L 187.34742 265.05129 
L 188.159869 238.000411 
L 188.566093 240.148913 
L 188.972318 250.951101 
L 189.378542 242.430342 
L 189.784767 238.850877 
L 190.190991 243.593462 
L 190.597215 266.970401 
L 191.00344 263.697119 
L 191.409664 241.300033 
L 191.815889 258.635433 
L 192.222113 222.786869 
L 193.034562 266.946801 
L 193.440786 262.18783 
L 193.847011 228.384369 
L 194.253235 244.081728 
L 194.659459 267.199582 
L 195.065684 267.938789 
L 195.471908 268.186548 
L 195.878133 261.581715 
L 196.284357 238.556151 
L 196.690581 242.211092 
L 197.096806 264.222472 
L 197.50303 225.014925 
L 198.315479 257.680448 
L 198.721704 228.091627 
L 199.534152 264.840194 
L 199.940377 246.469861 
L 200.346601 264.106696 
L 200.752826 242.48565 
L 201.15905 265.092358 
L 201.565274 233.910479 
L 201.971499 240.55202 
L 202.377723 253.368209 
L 202.783948 238.472725 
L 203.190172 241.692744 
L 203.596396 260.380036 
L 204.002621 231.669641 
L 204.408845 249.097293 
L 204.81507 254.567675 
L 205.221294 239.830296 
L 206.033743 256.717709 
L 206.439967 239.394787 
L 206.846192 246.159582 
L 207.252416 266.352865 
L 207.65864 247.982612 
L 208.064865 260.273903 
L 208.471089 239.137998 
L 208.877314 244.805856 
L 209.283538 270.06492 
L 209.689762 268.758055 
L 210.095987 247.712335 
L 210.502211 237.301293 
L 210.908436 238.013522 
L 211.31466 239.995573 
L 211.720885 249.80514 
L 212.127109 252.729797 
L 212.533333 237.539506 
L 212.939558 238.584025 
L 213.345782 242.138562 
L 213.752007 263.888314 
L 214.158231 225.869998 
L 214.564455 243.123082 
L 214.97068 267.667042 
L 215.376904 247.384275 
L 215.783129 238.600344 
L 216.189353 242.167124 
L 216.595577 263.610368 
L 217.001802 230.964595 
L 217.408026 244.63179 
L 217.814251 269.687738 
L 218.626699 270.707355 
L 219.032924 270.985125 
L 219.439148 269.389685 
L 219.845373 251.957407 
L 220.657821 237.492097 
L 221.064046 238.422822 
L 221.47027 241.399799 
L 221.876495 259.237839 
L 222.282719 226.127317 
L 222.688943 243.752767 
L 223.095168 269.656736 
L 223.501392 260.453957 
L 223.907617 239.882327 
L 224.313841 248.87423 
L 224.720066 260.356879 
L 225.12629 239.610782 
L 225.532514 247.224879 
L 225.938739 266.977941 
L 226.344963 245.263187 
L 226.751188 271.708108 
L 227.157412 269.407388 
L 227.563636 244.105163 
L 227.969861 237.553155 
L 228.376085 238.543929 
L 228.78231 241.827 
L 229.188534 262.04875 
L 229.594758 225.480092 
L 230.000983 243.900082 
L 230.407207 270.346463 
L 230.813432 262.522964 
L 231.219656 241.322441 
L 231.62588 258.518925 
L 232.032105 230.799011 
L 232.438329 243.33146 
L 232.844554 268.709484 
L 233.250778 251.787461 
L 233.657002 239.539317 
L 234.063227 246.671468 
L 234.469451 269.36002 
L 234.875676 255.768007 
L 235.2819 237.839582 
L 235.688124 241.008344 
L 236.094349 256.129986 
L 236.500573 239.030861 
L 236.906798 242.965245 
L 237.313022 267.202458 
L 237.719247 246.313607 
L 238.125471 241.261276 
L 238.531695 257.722608 
L 238.93792 237.876218 
L 239.344144 245.707334 
L 239.750369 270.676537 
L 240.156593 268.999576 
L 240.969042 240.682681 
L 241.375266 253.864183 
L 242.187715 240.880246 
L 242.593939 255.166913 
L 243.000164 243.586005 
L 243.406388 242.205415 
L 243.812613 263.587027 
L 244.218837 238.026028 
L 244.625061 245.84251 
L 245.031286 271.053503 
L 245.43751 269.584907 
L 246.249959 241.888578 
L 246.656183 261.923968 
L 247.062408 235.286669 
L 247.468632 245.237218 
L 247.874857 271.792945 
L 248.687305 272.500286 
L 249.09353 272.637328 
L 249.499754 271.494953 
L 249.905979 262.142894 
L 250.312203 230.56014 
L 250.718428 242.257287 
L 251.124652 264.254224 
L 251.530876 236.450649 
L 251.937101 243.30764 
L 252.343325 268.943934 
L 252.74955 253.067873 
L 253.155774 241.809608 
L 253.561998 261.364536 
L 253.968223 237.215273 
L 254.374447 245.070519 
L 254.780672 272.10856 
L 255.186896 272.220012 
L 255.59312 271.030875 
L 255.999345 261.539446 
L 256.405569 244.500881 
L 256.811794 272.611288 
L 257.218018 269.549964 
L 258.030467 244.572717 
L 258.436691 240.04952 
L 258.842916 249.526468 
L 259.24914 265.229635 
L 259.655364 248.391015 
L 260.061589 268.6887 
L 260.467813 254.174564 
L 260.874038 249.544356 
L 261.280262 240.70226 
L 261.686486 253.869436 
L 262.092711 251.40318 
L 262.498935 241.648069 
L 262.90516 260.364319 
L 263.311384 238.592862 
L 263.717609 243.481806 
L 264.123833 269.725453 
L 264.936282 244.690919 
L 265.342506 272.674163 
L 265.748731 270.920558 
L 266.154955 262.819599 
L 266.561179 237.65456 
L 266.967404 242.964832 
L 267.373628 267.803981 
L 267.779853 249.065765 
L 268.186077 243.121475 
L 268.592301 268.456335 
L 268.998526 251.866426 
L 269.40475 243.819434 
L 269.810975 270.956467 
L 270.217199 262.278827 
L 270.623423 248.959694 
L 271.029648 268.569001 
L 271.842097 244.390891 
L 272.248321 243.001595 
L 272.654545 267.986407 
L 273.06077 250.584265 
L 273.466994 244.201618 
L 273.873219 271.962292 
L 274.279443 267.020543 
L 274.685667 255.771882 
L 275.498116 244.006534 
L 275.904341 271.61966 
L 276.310565 264.897741 
L 276.71679 252.952491 
L 277.123014 258.241289 
L 277.529238 247.350142 
L 277.935463 272.476674 
L 278.341687 269.279679 
L 278.747912 253.233538 
L 279.154136 244.683096 
L 279.56036 273.25327 
L 279.966585 271.066963 
L 280.372809 263.895243 
L 280.779034 240.873265 
L 281.185258 243.095316 
L 281.591482 268.565776 
L 281.997707 252.511143 
L 282.403931 245.741749 
L 282.810156 273.865674 
L 284.028829 274.449422 
L 284.435053 274.518791 
L 284.841278 274.206178 
L 285.247502 272.310352 
L 285.653726 261.164842 
L 286.059951 246.763326 
L 286.466175 274.255128 
L 286.8724 272.350112 
L 287.278624 261.226216 
L 287.684848 246.915583 
L 288.091073 274.153904 
L 288.497297 271.818408 
L 289.309746 245.689421 
L 289.715971 274.882332 
L 290.528419 275.031197 
L 290.934644 274.784694 
L 291.340868 273.198135 
L 291.747093 263.48754 
L 292.153317 247.547915 
L 292.559541 273.535881 
L 292.965766 268.040613 
L 293.37199 243.329429 
L 293.778215 241.649795 
L 294.184439 260.313401 
L 294.590663 242.592426 
L 294.996888 243.173065 
L 295.403112 269.124892 
L 295.809337 253.496512 
L 296.215561 247.18207 
L 296.621785 273.695128 
L 297.02801 272.595132 
L 297.434234 266.686175 
L 297.840459 256.890534 
L 298.246683 250.835781 
L 298.652907 246.638176 
L 299.059132 274.218776 
L 299.465356 274.018442 
L 299.871581 272.617562 
L 300.277805 268.903124 
L 300.684029 251.833446 
L 301.090254 246.644358 
L 301.496478 274.444753 
L 301.902703 274.201225 
L 302.308927 272.652141 
L 302.715152 268.521349 
L 303.121376 250.126307 
L 303.5276 246.029664 
L 303.933825 274.792449 
L 305.152498 275.134817 
L 305.558722 275.051361 
L 305.964947 274.476581 
L 306.371171 271.302501 
L 306.777396 262.541053 
L 307.18362 241.170255 
L 307.589844 243.504373 
L 307.996069 270.720302 
L 308.402293 257.883388 
L 308.808518 250.103309 
L 309.214742 269.331635 
L 309.620966 262.687418 
L 310.027191 245.552688 
L 310.433415 247.01559 
L 310.83964 274.259603 
L 311.245864 274.057306 
L 311.652088 272.712368 
L 312.058313 270.144089 
L 312.464537 257.266175 
L 312.870762 251.384209 
L 313.276986 266.719442 
L 313.68321 260.161202 
L 314.089435 248.765471 
L 314.495659 249.611295 
L 314.901884 270.823281 
L 315.308108 268.396221 
L 315.714333 255.660587 
L 316.120557 253.866087 
L 316.526781 261.65799 
L 316.933006 258.693142 
L 317.33923 252.947306 
L 317.745455 254.575354 
L 318.151679 260.807206 
L 318.557903 260.215532 
L 318.964128 252.649245 
L 319.370352 256.362484 
L 319.776577 258.135983 
L 320.182801 260.4089 
L 320.589025 253.733141 
L 320.99525 258.725151 
L 321.401474 255.661537 
L 321.807699 260.615528 
L 322.213923 254.658056 
L 322.620147 260.777389 
L 323.026372 255.02814 
L 323.432596 261.634062 
L 323.838821 255.231868 
L 324.245045 262.308528 
L 324.651269 255.616902 
L 325.057494 262.995814 
L 325.463718 256.120205 
L 325.869943 263.660603 
L 326.276167 256.719889 
L 326.682391 264.291982 
L 327.088616 257.384617 
L 327.49484 264.875143 
L 327.901065 258.07338 
L 328.307289 265.39345 
L 328.713514 258.738012 
L 329.119738 265.832544 
L 329.525962 259.331654 
L 329.932187 266.185505 
L 330.338411 259.821412 
L 330.744636 266.456152 
L 331.15086 260.198131 
L 331.557084 266.65843 
L 331.963309 260.476823 
L 332.369533 266.812332 
L 332.775758 260.687941 
L 333.181982 266.938441 
L 333.588206 260.865053 
L 333.994431 267.053261 
L 334.400655 261.034779 
L 334.80688 267.166788 
L 335.213104 261.212079 
L 335.619328 267.282678 
L 336.025553 261.400839 
L 336.431777 267.400215 
L 336.838002 261.597683 
L 337.244226 267.51678 
L 337.65045 261.796448 
L 338.056675 267.629773 
L 338.462899 261.991571 
L 338.869124 267.737602 
L 339.275348 262.179729 
L 339.681572 267.83985 
L 340.087797 262.36 
L 340.494021 267.936986 
L 340.900246 262.533177 
L 341.30647 268.029914 
L 341.712695 262.70085 
L 342.118919 268.119607 
L 342.525143 262.864664 
L 342.931368 268.206878 
L 343.337592 263.025894 
L 343.743817 268.292302 
L 344.150041 263.185334 
L 344.556265 268.376243 
L 344.96249 263.343367 
L 345.368714 268.458919 
L 345.774939 263.500132 
L 346.181163 268.540485 
L 346.587387 263.655683 
L 346.993612 268.621083 
L 347.399836 263.810091 
L 347.806061 268.700877 
L 348.212285 263.963508 
L 348.618509 268.780066 
L 349.024734 264.116172 
L 349.430958 268.858878 
L 349.837183 264.268397 
L 350.243407 268.937564 
L 350.649631 264.420547 
L 351.055856 269.016392 
L 351.46208 264.573019 
L 351.868305 269.09564 
L 352.274529 264.72623 
L 352.680753 269.175597 
L 353.086978 264.880615 
L 353.493202 269.256567 
L 353.899427 265.036639 
L 354.305651 269.338879 
L 354.711876 265.194811 
L 355.1181 269.422898 
L 355.524324 265.355715 
L 355.930549 269.509045 
L 356.336773 265.520039 
L 356.742998 269.597822 
L 357.149222 265.688627 
L 357.555446 269.689842 
L 357.961671 265.862542 
L 358.367895 269.785879 
L 358.77412 266.043162 
L 359.180344 269.886944 
L 359.586568 266.232326 
L 359.992793 269.994396 
L 360.399017 266.432572 
L 360.805242 270.110137 
L 361.211466 266.647525 
L 361.61769 270.236937 
L 362.023915 266.882587 
L 362.430139 270.379031 
L 362.836364 267.146191 
L 363.242588 270.543237 
L 363.648812 267.452215 
L 364.055037 270.741218 
L 364.461261 267.824865 
L 364.867486 270.994257 
L 365.27371 268.30907 
L 365.679934 271.343863 
L 366.086159 268.993174 
L 366.492383 271.875149 
L 366.898608 270.054102 
L 367.304832 272.753998 
L 367.711057 271.783468 
L 368.117281 274.125666 
L 368.523505 274.09429 
L 368.92973 275.271542 
L 370.554627 275.833023 
L 372.585749 276.142857 
L 373.804423 276.20266 
L 374.616871 276.101946 
L 375.42932 275.66375 
L 375.835545 274.57074 
L 376.241769 274.408894 
L 376.647993 270.817056 
L 377.054218 269.870369 
L 377.460442 258.204803 
L 377.866667 258.085959 
L 378.272891 258.158408 
L 378.679115 261.007631 
L 379.08534 255.97192 
L 379.491564 263.764707 
L 379.897789 256.537872 
L 380.304013 266.21671 
L 380.710238 259.242961 
L 381.116462 267.837432 
L 381.522686 262.256596 
L 381.928911 269.042364 
L 382.335135 264.888623 
L 382.74136 270.20409 
L 383.147584 267.45087 
L 383.553808 271.652666 
L 383.960033 270.489377 
L 384.366257 273.747375 
L 384.772482 274.011633 
L 385.178706 275.26895 
L 386.397379 275.675378 
L 388.428501 276.104207 
L 390.865848 276.383714 
L 393.709419 276.50471 
L 394.521867 276.444481 
L 394.928092 276.354643 
L 395.740541 275.709783 
L 396.146765 274.156168 
L 396.552989 273.810811 
L 396.959214 268.413921 
L 397.365438 266.656617 
L 397.771663 253.485199 
L 398.177887 258.35875 
L 398.584111 258.739735 
L 398.990336 262.181302 
L 399.39656 256.233582 
L 399.802785 264.814324 
L 400.209009 257.694911 
L 400.615233 267.087385 
L 401.021458 260.83652 
L 401.427682 268.611046 
L 401.833907 263.91783 
L 402.240131 269.973281 
L 402.646355 266.915686 
L 403.05258 271.631608 
L 403.458804 270.445 
L 403.865029 274.023016 
L 404.271253 274.369325 
L 404.677477 275.460246 
L 406.7086 276.007709 
L 409.145946 276.386203 
L 412.395741 276.604621 
L 415.239312 276.638208 
L 416.051761 276.498354 
L 416.86421 275.867843 
L 417.270434 274.389292 
L 417.676658 274.184654 
L 418.082883 269.507797 
L 418.489107 268.953599 
L 418.895332 256.986733 
L 419.301556 258.777054 
L 419.707781 258.614438 
L 420.114005 262.223623 
L 420.520229 256.659698 
L 420.926454 264.900156 
L 421.332678 258.072151 
L 421.738903 267.268033 
L 422.145127 261.283139 
L 422.551351 268.922623 
L 422.957576 264.593848 
L 423.3638 270.529152 
L 423.770025 268.085302 
L 424.176249 272.692777 
L 424.582473 272.41306 
L 424.988698 275.246489 
L 425.801147 275.735838 
L 427.832269 276.218451 
L 430.269615 276.544438 
L 433.51941 276.729088 
L 436.362981 276.713075 
L 437.17543 276.459269 
L 437.581654 275.918051 
L 437.987879 275.619802 
L 438.394103 273.602808 
L 438.800328 273.953977 
L 439.206552 269.082771 
L 439.612776 269.324287 
L 440.019001 258.527 
L 440.425225 260.405666 
L 440.83145 257.515784 
L 441.237674 263.126974 
L 441.643898 257.301329 
L 442.050123 265.950051 
L 442.456347 259.467481 
L 442.862572 268.096111 
L 443.268796 262.935456 
L 443.67502 269.841234 
L 444.081245 266.561871 
L 444.487469 271.918388 
L 444.893694 270.922336 
L 445.299918 274.789964 
L 445.706143 275.172561 
L 446.112367 275.80644 
L 448.143489 276.296931 
L 450.580835 276.634789 
L 453.830631 276.828421 
L 459.111548 276.905414 
L 459.923997 276.836626 
L 460.330221 276.743482 
L 461.14267 276.135336 
L 461.548894 274.76878 
L 461.955119 274.777408 
L 462.361343 271.111265 
L 462.767568 271.987532 
L 463.173792 264.107261 
L 463.580016 264.094068 
L 463.986241 255.339749 
L 464.392465 261.992764 
L 464.79869 257.735394 
L 465.204914 265.333071 
L 465.611138 259.003411 
L 466.017363 267.737436 
L 466.423587 262.35529 
L 466.829812 269.671326 
L 467.236036 266.174451 
L 467.64226 271.880479 
L 468.048485 270.778275 
L 468.454709 274.913773 
L 468.860934 275.293509 
L 469.267158 275.953008 
L 471.29828 276.433273 
L 473.735627 276.762118 
L 476.985422 276.950298 
L 481.860115 276.991851 
L 482.672563 276.838871 
L 483.485012 276.273284 
L 483.891237 275.03164 
L 484.297461 275.177662 
L 484.703686 272.213614 
L 485.10991 273.502078 
L 485.516134 268.187954 
L 485.922359 269.52639 
L 486.328583 260.152071 
L 486.734808 262.86351 
L 487.141032 257.329045 
L 487.547256 264.707077 
L 487.953481 258.755718 
L 488.359705 267.396491 
L 488.76593 261.898499 
L 489.172154 269.519728 
L 489.578378 265.85491 
L 489.984603 271.860822 
L 490.390827 270.673696 
L 490.797052 275.041321 
L 491.203276 275.414502 
L 491.6095 276.091529 
L 493.640622 276.562332 
L 496.077969 276.882238 
L 498.109091 277.017292 
L 498.109091 277.017292 
" style="fill:none;stroke:#dd8452;stroke-linecap:round;stroke-width:1.5;"/>
   </g>
   <g id="line2d_15">
    <path clip-path="url(#pee619eac71)" d="M 92.290909 158.866171 
L 92.697133 146.392042 
L 93.103358 174.578261 
L 93.509582 186.759748 
L 93.915807 194.236035 
L 94.322031 169.584966 
L 94.728256 203.043517 
L 95.540704 177.917086 
L 95.946929 203.017235 
L 96.353153 200.598948 
L 96.759378 182.496104 
L 97.165602 222.395354 
L 97.571826 202.189702 
L 97.978051 194.920303 
L 98.384275 230.893333 
L 99.196724 200.307271 
L 99.602948 216.211783 
L 100.009173 221.329977 
L 100.415397 205.172772 
L 100.821622 232.703643 
L 101.227846 211.389771 
L 101.63407 220.068352 
L 102.040295 219.838967 
L 102.446519 223.131791 
L 102.852744 209.405534 
L 103.258968 230.664441 
L 103.665192 210.526009 
L 104.071417 231.490159 
L 104.477641 209.01156 
L 104.883866 233.5065 
L 105.29009 219.808194 
L 105.696314 231.363665 
L 106.102539 210.568624 
L 106.508763 234.563959 
L 106.914988 222.251788 
L 107.321212 231.027806 
L 107.727437 212.216345 
L 108.133661 234.949742 
L 108.539885 225.47045 
L 108.94611 233.632574 
L 109.352334 220.716252 
L 109.758559 227.821413 
L 110.164783 212.009574 
L 110.571007 231.266524 
L 110.977232 221.114332 
L 111.383456 218.20812 
L 111.789681 225.339961 
L 112.195905 227.506941 
L 112.602129 215.140682 
L 113.008354 231.666839 
L 113.414578 224.443748 
L 113.820803 219.67963 
L 114.227027 229.247661 
L 114.633251 228.919654 
L 115.039476 217.952093 
L 115.4457 233.858233 
L 116.258149 222.003499 
L 116.664373 232.605388 
L 117.070598 231.228857 
L 117.476822 220.766583 
L 117.883047 236.672679 
L 118.695495 224.543623 
L 119.10172 235.921528 
L 119.507944 233.816133 
L 119.914169 223.801378 
L 120.320393 239.639603 
L 121.132842 227.249513 
L 121.539066 239.433255 
L 121.945291 236.60473 
L 122.351515 227.12402 
L 122.75774 242.757136 
L 123.570188 230.185144 
L 123.976413 243.238382 
L 124.382637 239.662967 
L 124.788862 230.802588 
L 125.195086 246.155567 
L 126.007535 233.475392 
L 126.413759 247.419373 
L 126.819984 243.117781 
L 127.226208 234.864232 
L 127.632432 249.962884 
L 128.038657 244.709306 
L 128.444881 237.133207 
L 128.851106 251.758107 
L 129.25733 246.764655 
L 129.663554 238.746629 
L 130.069779 253.598143 
L 130.476003 248.151279 
L 130.882228 240.044228 
L 131.288452 254.743832 
L 131.694676 249.034129 
L 132.100901 240.709563 
L 132.507125 255.406812 
L 132.91335 249.45416 
L 133.319574 241.031506 
L 133.725799 255.796298 
L 134.132023 249.683437 
L 134.538247 241.214119 
L 134.944472 256.097998 
L 135.350696 249.854663 
L 135.756921 241.358264 
L 136.163145 256.379757 
L 136.569369 250.015321 
L 136.975594 241.49376 
L 137.381818 256.660869 
L 137.788043 250.178141 
L 138.194267 241.627846 
L 138.600491 256.945809 
L 139.006716 250.346826 
L 139.41294 241.762149 
L 139.819165 257.235771 
L 140.225389 250.523318 
L 140.631613 241.897249 
L 141.037838 257.531441 
L 141.850287 242.033624 
L 142.256511 257.833575 
L 143.06896 242.171849 
L 143.475184 258.143182 
L 144.287633 242.312691 
L 144.693857 258.461688 
L 145.506306 242.457238 
L 145.912531 258.791205 
L 146.72498 242.607114 
L 147.131204 259.134982 
L 147.943653 242.764923 
L 148.349877 259.498284 
L 149.162326 242.935157 
L 149.56855 259.890179 
L 149.974775 252.593456 
L 150.380999 243.126383 
L 150.787224 260.327632 
L 151.193448 253.076309 
L 151.599672 243.357224 
L 152.005897 260.846001 
L 152.412121 253.746061 
L 152.818346 243.676474 
L 153.22457 261.530196 
L 153.630794 254.850235 
L 154.037019 244.254232 
L 154.443243 262.61821 
L 154.849468 257.315932 
L 155.255692 246.078154 
L 155.661916 264.466939 
L 156.068141 264.283422 
L 156.474365 262.799899 
L 156.88059 256.764514 
L 157.286814 245.12865 
L 157.693038 264.103138 
L 158.099263 260.97808 
L 158.505487 250.667999 
L 158.911712 261.26804 
L 159.317936 251.130496 
L 159.724161 260.725417 
L 160.130385 249.925327 
L 160.536609 262.807527 
L 160.942834 254.670348 
L 161.349058 255.345644 
L 161.755283 244.148467 
L 162.161507 262.771806 
L 162.567731 255.418723 
L 162.973956 244.344624 
L 163.38018 263.174309 
L 163.786405 256.220899 
L 164.192629 244.957915 
L 164.598853 264.277052 
L 165.005078 259.111325 
L 165.411302 247.491412 
L 165.817527 265.993874 
L 166.223751 265.903478 
L 166.629975 265.100971 
L 167.0362 260.922152 
L 167.848649 243.387593 
L 168.254873 260.887161 
L 169.067322 243.831072 
L 169.473546 262.028274 
L 170.285995 244.494225 
L 170.692219 263.555934 
L 171.098444 256.386848 
L 171.504668 245.783914 
L 171.910893 265.72689 
L 172.317117 262.335236 
L 172.723342 252.269852 
L 173.129566 262.132136 
L 173.53579 251.826388 
L 173.942015 263.002736 
L 174.348239 253.422919 
L 174.754464 260.627346 
L 175.160688 249.521977 
L 175.566912 266.278505 
L 175.973137 262.988582 
L 176.785586 245.335109 
L 177.19181 265.322523 
L 177.598034 259.683381 
L 178.004259 248.561782 
L 178.410483 267.337235 
L 178.816708 266.803746 
L 179.222932 264.231646 
L 179.629156 255.539582 
L 180.035381 258.431962 
L 180.441605 247.457865 
L 180.84783 267.6775 
L 181.254054 267.425703 
L 181.660278 265.980892 
L 182.066503 260.606769 
L 182.472727 249.418061 
L 182.878952 267.469563 
L 183.285176 265.589721 
L 183.6914 259.313478 
L 184.097625 248.238944 
L 184.503849 268.133952 
L 185.316298 268.144121 
L 185.722523 267.835416 
L 186.128747 266.264688 
L 186.941196 254.880322 
L 187.34742 245.834685 
L 187.753645 266.498569 
L 188.159869 261.251066 
L 188.566093 250.459189 
L 188.972318 267.409062 
L 189.378542 263.718401 
L 190.190991 246.910635 
L 190.597215 267.983864 
L 191.00344 265.797205 
L 191.409664 258.471846 
L 191.815889 257.100356 
L 192.222113 247.718265 
L 192.628337 268.66294 
L 193.034562 268.096019 
L 193.440786 265.550852 
L 193.847011 258.809294 
L 194.253235 248.892909 
L 194.659459 268.99484 
L 195.065684 268.945613 
L 195.471908 268.572099 
L 195.878133 266.819808 
L 196.284357 261.279824 
L 196.690581 251.007808 
L 197.096806 267.939113 
L 197.50303 264.126869 
L 198.315479 248.202576 
L 198.721704 269.266162 
L 199.127928 269.035717 
L 199.534152 267.91805 
L 199.940377 263.974324 
L 200.346601 254.674649 
L 200.752826 263.592494 
L 201.15905 254.230457 
L 201.565274 264.396296 
L 201.971499 255.561559 
L 202.377723 262.618303 
L 202.783948 253.226542 
L 203.190172 266.090416 
L 203.596396 258.852701 
L 204.002621 258.875466 
L 204.408845 250.272991 
L 204.81507 269.380338 
L 205.221294 268.253489 
L 205.627518 264.541165 
L 206.033743 256.099041 
L 206.439967 262.575542 
L 206.846192 253.645964 
L 207.252416 266.123223 
L 207.65864 259.041865 
L 208.064865 259.410522 
L 208.471089 251.233056 
L 208.877314 269.087209 
L 209.283538 266.642079 
L 209.689762 260.952677 
L 210.095987 252.543101 
L 210.502211 267.946864 
L 211.31466 258.131972 
L 211.720885 250.986123 
L 212.127109 269.603467 
L 212.533333 267.971018 
L 212.939558 263.522516 
L 213.345782 255.452347 
L 213.752007 264.633717 
L 214.158231 257.004617 
L 214.564455 262.753469 
L 214.97068 254.895209 
L 215.376904 265.631172 
L 215.783129 258.697639 
L 216.189353 261.123231 
L 216.595577 253.73642 
L 217.001802 267.340604 
L 217.408026 261.907585 
L 217.814251 259.204611 
L 218.220475 252.751418 
L 218.626699 268.665115 
L 219.032924 264.90381 
L 219.845373 253.372738 
L 220.251597 268.16527 
L 221.064046 259.540487 
L 221.47027 253.490971 
L 221.876495 268.218853 
L 222.688943 259.779779 
L 223.095168 253.919277 
L 223.501392 267.916907 
L 224.720066 254.305977 
L 225.12629 267.658629 
L 225.532514 262.912198 
L 225.938739 260.171088 
L 226.344963 254.758016 
L 226.751188 267.32243 
L 227.157412 262.432803 
L 227.563636 260.490894 
L 227.969861 255.26395 
L 228.376085 266.924389 
L 228.78231 261.930039 
L 229.188534 260.888577 
L 229.594758 255.827384 
L 230.000983 266.465727 
L 230.407207 261.421453 
L 230.813432 261.355094 
L 231.219656 256.445946 
L 231.62588 265.958123 
L 232.032105 260.935099 
L 232.438329 261.866344 
L 232.844554 257.106866 
L 233.250778 265.42844 
L 233.657002 260.508395 
L 234.063227 262.381727 
L 234.469451 257.782554 
L 234.875676 264.920162 
L 235.2819 260.182621 
L 235.688124 262.850267 
L 236.094349 258.431831 
L 236.500573 264.484607 
L 236.906798 259.990772 
L 237.313022 263.226542 
L 237.719247 259.01225 
L 238.125471 264.160948 
L 238.531695 259.943671 
L 238.93792 263.489421 
L 239.344144 259.499591 
L 239.750369 263.958147 
L 240.156593 260.024866 
L 240.562817 263.649196 
L 240.969042 259.898535 
L 241.375266 263.855353 
L 241.781491 260.199746 
L 242.187715 263.736875 
L 242.593939 260.23437 
L 243.000164 263.819078 
L 243.406388 260.431521 
L 243.812613 263.785995 
L 244.218837 260.535534 
L 244.625061 263.820362 
L 245.031286 260.692568 
L 245.43751 263.820868 
L 245.843735 260.822277 
L 246.249959 263.841497 
L 246.656183 260.96693 
L 247.062408 263.854832 
L 247.468632 261.105155 
L 247.874857 263.874315 
L 248.281081 261.247215 
L 248.687305 263.893768 
L 249.09353 261.388327 
L 249.499754 263.916009 
L 249.905979 261.530536 
L 250.312203 263.939917 
L 250.718428 261.672924 
L 251.124652 263.966006 
L 251.530876 261.815794 
L 251.937101 263.994137 
L 252.343325 261.958964 
L 252.74955 264.024413 
L 253.155774 262.10243 
L 253.561998 264.056843 
L 253.968223 262.246122 
L 254.374447 264.091462 
L 254.780672 262.389989 
L 255.186896 264.128291 
L 255.59312 262.533971 
L 255.999345 264.167346 
L 256.405569 262.67801 
L 256.811794 264.208639 
L 257.218018 262.822045 
L 257.624242 264.252175 
L 258.030467 262.966014 
L 258.436691 264.297955 
L 258.842916 263.109855 
L 259.24914 264.345972 
L 259.655364 263.253504 
L 260.061589 264.396214 
L 260.467813 263.396898 
L 260.874038 264.448664 
L 261.280262 263.539974 
L 261.686486 264.503296 
L 262.092711 263.682667 
L 262.498935 264.560081 
L 262.90516 263.824914 
L 263.311384 264.618984 
L 263.717609 263.966652 
L 264.123833 264.679964 
L 264.530057 264.10782 
L 264.936282 264.742973 
L 265.342506 264.248356 
L 265.748731 264.807962 
L 266.154955 264.3882 
L 266.561179 264.874874 
L 266.967404 264.527295 
L 267.373628 264.943648 
L 267.779853 264.665582 
L 268.186077 265.014219 
L 268.592301 264.803007 
L 268.998526 265.086519 
L 269.40475 264.939517 
L 269.810975 265.160476 
L 270.217199 265.07506 
L 270.623423 265.236016 
L 271.029648 265.209587 
L 271.842097 265.343052 
L 274.685667 265.634667 
L 275.091892 265.865441 
L 275.498116 265.71801 
L 275.904341 265.992982 
L 276.310565 265.802362 
L 276.71679 266.119235 
L 277.123014 265.887637 
L 277.529238 266.244171 
L 277.935463 265.973753 
L 278.341687 266.367767 
L 278.747912 266.060626 
L 279.154136 266.489998 
L 279.56036 266.148174 
L 279.966585 266.610846 
L 280.372809 266.236318 
L 280.779034 266.730294 
L 281.185258 266.324979 
L 281.591482 266.848328 
L 281.997707 266.414081 
L 282.403931 266.964937 
L 282.810156 266.50355 
L 283.21638 267.08011 
L 283.622604 266.593313 
L 284.028829 267.193844 
L 284.435053 266.683303 
L 284.841278 267.306132 
L 285.247502 266.773451 
L 285.653726 267.416974 
L 286.059951 266.863695 
L 286.466175 267.52637 
L 286.8724 266.953975 
L 287.278624 267.634323 
L 287.684848 267.044231 
L 288.091073 267.740837 
L 288.497297 267.13441 
L 288.903522 267.845919 
L 289.309746 267.224459 
L 289.715971 267.949577 
L 290.122195 267.31433 
L 290.528419 268.051821 
L 290.934644 267.403977 
L 291.340868 268.152662 
L 291.747093 267.493357 
L 292.153317 268.252112 
L 292.559541 267.582429 
L 292.965766 268.350186 
L 293.37199 267.671157 
L 293.778215 268.446897 
L 294.184439 267.759505 
L 294.590663 268.542262 
L 294.996888 267.847442 
L 295.403112 268.636298 
L 295.809337 267.934939 
L 296.215561 268.729023 
L 296.621785 268.021968 
L 297.02801 268.820453 
L 297.434234 268.108504 
L 297.840459 268.910608 
L 298.246683 268.194525 
L 298.652907 268.999506 
L 299.059132 268.280011 
L 299.465356 269.087168 
L 299.871581 268.364942 
L 300.277805 269.173613 
L 300.684029 268.449303 
L 301.090254 269.258861 
L 301.496478 268.533079 
L 301.902703 269.342932 
L 302.308927 268.616256 
L 302.715152 269.425846 
L 303.121376 268.698822 
L 303.5276 269.507624 
L 303.933825 268.780768 
L 304.340049 269.588284 
L 304.746274 268.862084 
L 305.152498 269.667848 
L 305.558722 268.942762 
L 305.964947 269.746335 
L 306.371171 269.022798 
L 306.777396 269.823766 
L 307.18362 269.102183 
L 307.589844 269.900158 
L 307.996069 269.180916 
L 308.402293 269.975532 
L 308.808518 269.258991 
L 309.214742 270.049907 
L 309.620966 269.336406 
L 310.027191 270.1233 
L 310.433415 269.413158 
L 310.83964 270.195732 
L 311.245864 269.489248 
L 311.652088 270.267219 
L 312.058313 269.564674 
L 312.464537 270.337779 
L 312.870762 269.639435 
L 313.276986 270.40743 
L 313.68321 269.713533 
L 314.089435 270.476188 
L 314.495659 269.786969 
L 314.901884 270.544071 
L 315.308108 269.859743 
L 315.714333 270.611094 
L 316.120557 269.931858 
L 316.526781 270.677274 
L 316.933006 270.003315 
L 317.33923 270.742626 
L 317.745455 270.074117 
L 318.151679 270.807164 
L 318.557903 270.144267 
L 318.964128 270.870905 
L 319.370352 270.213768 
L 319.776577 270.933862 
L 320.182801 270.282623 
L 320.589025 270.99605 
L 320.99525 270.350835 
L 321.401474 271.057482 
L 321.807699 270.418408 
L 322.213923 271.118171 
L 322.620147 270.485346 
L 323.026372 271.178132 
L 323.432596 270.551652 
L 323.838821 271.237376 
L 324.245045 270.617332 
L 324.651269 271.295915 
L 325.057494 270.682388 
L 325.463718 271.353763 
L 325.869943 270.746825 
L 326.276167 271.41093 
L 326.682391 270.810647 
L 327.088616 271.467429 
L 327.49484 270.87386 
L 327.901065 271.52327 
L 328.307289 270.936467 
L 328.713514 271.578465 
L 329.119738 270.998473 
L 329.525962 271.633024 
L 329.932187 271.059882 
L 330.338411 271.686957 
L 330.744636 271.120699 
L 331.15086 271.740275 
L 331.557084 271.180929 
L 331.963309 271.792987 
L 332.369533 271.240577 
L 332.775758 271.845104 
L 333.181982 271.299647 
L 333.588206 271.896634 
L 333.994431 271.358144 
L 334.400655 271.947587 
L 334.80688 271.416072 
L 335.213104 271.997972 
L 335.619328 271.473437 
L 336.025553 272.047797 
L 336.431777 271.530243 
L 336.838002 272.097071 
L 337.244226 271.586495 
L 337.65045 272.145803 
L 338.056675 271.642197 
L 338.462899 272.194 
L 338.869124 271.697355 
L 339.275348 272.241671 
L 339.681572 271.751973 
L 340.087797 272.288823 
L 340.494021 271.806056 
L 340.900246 272.335464 
L 341.30647 271.859609 
L 341.712695 272.381602 
L 342.118919 271.912636 
L 342.525143 272.427243 
L 342.931368 271.965142 
L 343.337592 272.472396 
L 343.743817 272.017132 
L 344.150041 272.517066 
L 344.556265 272.068611 
L 344.96249 272.561261 
L 345.368714 272.119582 
L 345.774939 272.604988 
L 346.181163 272.170051 
L 346.587387 272.648253 
L 346.993612 272.220023 
L 347.399836 272.691063 
L 347.806061 272.269502 
L 348.212285 272.733423 
L 348.618509 272.318492 
L 349.024734 272.775341 
L 349.430958 272.366999 
L 349.837183 272.816822 
L 350.243407 272.415026 
L 350.649631 272.857872 
L 351.055856 272.462579 
L 351.46208 272.898498 
L 351.868305 272.509661 
L 352.274529 272.938704 
L 352.680753 272.556278 
L 353.086978 272.978497 
L 353.493202 272.602433 
L 353.899427 273.017882 
L 354.305651 272.648132 
L 354.711876 273.056865 
L 355.1181 272.693378 
L 355.524324 273.09545 
L 355.930549 272.738176 
L 356.336773 273.133644 
L 356.742998 272.782531 
L 357.149222 273.171451 
L 357.555446 272.826446 
L 357.961671 273.208877 
L 358.367895 272.869927 
L 358.77412 273.245927 
L 359.180344 272.912976 
L 359.586568 273.282605 
L 359.992793 272.9556 
L 360.399017 273.318916 
L 360.805242 272.997801 
L 361.211466 273.354865 
L 361.61769 273.039585 
L 362.023915 273.390457 
L 362.430139 273.080954 
L 362.836364 273.425697 
L 363.242588 273.121914 
L 363.648812 273.460589 
L 364.055037 273.162469 
L 364.461261 273.495137 
L 364.867486 273.202622 
L 365.27371 273.529346 
L 365.679934 273.242378 
L 366.086159 273.56322 
L 366.492383 273.281741 
L 366.898608 273.596763 
L 367.304832 273.320715 
L 367.711057 273.629981 
L 368.117281 273.359303 
L 368.523505 273.662876 
L 368.92973 273.397511 
L 369.335954 273.695453 
L 369.742179 273.43534 
L 370.148403 273.727716 
L 370.554627 273.472797 
L 370.960852 273.759669 
L 371.367076 273.509883 
L 371.773301 273.791316 
L 372.179525 273.546604 
L 372.585749 273.82266 
L 372.991974 273.582963 
L 373.398198 273.853706 
L 373.804423 273.618964 
L 374.210647 273.884456 
L 374.616871 273.65461 
L 375.023096 273.914916 
L 375.42932 273.689906 
L 375.835545 273.945088 
L 376.241769 273.724854 
L 376.647993 273.974975 
L 377.054218 273.759458 
L 377.460442 274.004582 
L 377.866667 273.793723 
L 378.272891 274.033912 
L 378.679115 273.827651 
L 379.08534 274.062968 
L 379.491564 273.861246 
L 379.897789 274.091753 
L 380.304013 273.894512 
L 380.710238 274.120272 
L 381.116462 273.927452 
L 381.522686 274.148526 
L 381.928911 273.960069 
L 382.335135 274.176519 
L 382.74136 273.992367 
L 383.147584 274.204255 
L 383.553808 274.024349 
L 383.960033 274.231736 
L 384.366257 274.056018 
L 384.772482 274.258966 
L 385.178706 274.087378 
L 385.58493 274.285947 
L 385.991155 274.118431 
L 386.397379 274.312682 
L 386.803604 274.149182 
L 387.209828 274.339174 
L 387.616052 274.179632 
L 388.022277 274.365426 
L 388.428501 274.209786 
L 388.834726 274.391441 
L 389.24095 274.239645 
L 389.647174 274.417221 
L 390.053399 274.269214 
L 390.459623 274.44277 
L 390.865848 274.298495 
L 391.272072 274.468089 
L 391.678296 274.327491 
L 392.084521 274.493181 
L 392.490745 274.356205 
L 392.89697 274.518049 
L 393.303194 274.38464 
L 393.709419 274.542696 
L 394.115643 274.412798 
L 394.521867 274.567123 
L 394.928092 274.440683 
L 395.334316 274.591334 
L 395.740541 274.468296 
L 396.146765 274.61533 
L 396.552989 274.495641 
L 396.959214 274.639113 
L 397.365438 274.52272 
L 397.771663 274.662687 
L 398.177887 274.549536 
L 398.584111 274.686053 
L 398.990336 274.576092 
L 399.39656 274.709213 
L 399.802785 274.602389 
L 400.209009 274.732169 
L 400.615233 274.62843 
L 401.021458 274.754924 
L 401.427682 274.654218 
L 401.833907 274.77748 
L 402.240131 274.679754 
L 402.646355 274.799838 
L 403.05258 274.705042 
L 403.458804 274.822 
L 403.865029 274.730084 
L 404.271253 274.843968 
L 404.677477 274.75488 
L 405.083702 274.865744 
L 405.489926 274.779435 
L 405.896151 274.88733 
L 406.302375 274.803749 
L 406.7086 274.908728 
L 407.114824 274.827825 
L 407.521048 274.929938 
L 407.927273 274.851665 
L 408.333497 274.950963 
L 408.739722 274.875271 
L 409.145946 274.971805 
L 409.55217 274.898644 
L 409.958395 274.992464 
L 410.364619 274.921787 
L 410.770844 275.012942 
L 411.177068 274.9447 
L 411.583292 275.033241 
L 411.989517 274.967387 
L 412.395741 275.053361 
L 412.801966 274.989848 
L 413.20819 275.073305 
L 413.614414 275.012086 
L 414.020639 275.093073 
L 414.426863 275.034101 
L 414.833088 275.112666 
L 415.239312 275.055895 
L 415.645536 275.132087 
L 416.051761 275.07747 
L 416.457985 275.151335 
L 416.86421 275.098826 
L 417.270434 275.170411 
L 417.676658 275.119966 
L 418.082883 275.189318 
L 418.489107 275.140891 
L 418.895332 275.208054 
L 419.707781 275.226623 
L 420.926454 275.202382 
L 422.145127 275.281322 
L 423.3638 275.261972 
L 424.582473 275.334527 
L 425.801147 275.319684 
L 427.01982 275.386249 
L 428.238493 275.375536 
L 429.457166 275.436494 
L 430.675839 275.429539 
L 431.894513 275.485263 
L 433.113186 275.4817 
L 435.144308 275.547982 
L 437.17543 275.564543 
L 439.206552 275.622631 
L 442.050123 275.657162 
L 444.893694 275.719972 
L 448.549713 275.768958 
L 453.424406 275.843883 
L 461.14267 275.949246 
L 498.109091 276.254542 
L 498.109091 276.254542 
" style="fill:none;stroke:#55a868;stroke-linecap:round;stroke-width:1.5;"/>
   </g>
   <g id="line2d_16">
    <path clip-path="url(#pee619eac71)" d="M 92.290909 158.866171 
L 93.103358 186.189993 
L 93.915807 196.487297 
L 94.728256 204.384767 
L 95.540704 210.595758 
L 96.353153 215.50062 
L 97.165602 219.41869 
L 98.384275 223.966981 
L 99.602948 227.437147 
L 100.821622 230.185289 
L 102.040295 232.464999 
L 103.665192 234.987707 
L 105.29009 237.088429 
L 106.914988 238.867197 
L 108.94611 240.74211 
L 110.977232 242.330475 
L 113.414578 243.970922 
L 116.258149 245.624815 
L 119.507944 247.264658 
L 123.163964 248.871128 
L 127.632432 250.57691 
L 132.507125 252.192355 
L 138.194267 253.830009 
L 144.693857 255.450603 
L 152.005897 257.02598 
L 160.130385 258.536567 
L 169.067322 259.969367 
L 179.222932 261.3684 
L 190.597215 262.707378 
L 203.596396 264.006524 
L 218.220475 265.238538 
L 234.875676 266.413209 
L 253.968223 267.531257 
L 275.904341 268.588791 
L 301.496478 269.595054 
L 331.557084 270.549043 
L 367.304832 271.454659 
L 410.364619 272.314992 
L 462.767568 273.130355 
L 498.109091 273.578673 
L 498.109091 273.578673 
" style="fill:none;stroke:#c44e52;stroke-linecap:round;stroke-width:1.5;"/>
   </g>
   <g id="line2d_17">
    <path clip-path="url(#pee619eac71)" d="M 92.290909 158.866171 
L 92.697133 170.77388 
L 93.103358 175.820794 
L 93.509582 178.424469 
L 94.322031 181.55619 
L 95.946929 186.172784 
L 98.384275 192.25522 
L 100.415397 196.780641 
L 102.446519 200.835224 
L 104.477641 204.452666 
L 106.508763 207.674574 
L 108.539885 210.544804 
L 110.977232 213.584584 
L 113.414578 216.246293 
L 115.851925 218.588584 
L 118.695495 220.983633 
L 121.539066 223.076937 
L 124.788862 225.166987 
L 128.038657 226.99386 
L 131.694676 228.794608 
L 135.756921 230.541191 
L 140.225389 232.216461 
L 145.100082 233.811873 
L 150.787224 235.433682 
L 157.286814 237.042865 
L 164.598853 238.614978 
L 173.129566 240.207551 
L 182.878952 241.787785 
L 193.847011 243.336001 
L 206.439967 244.888307 
L 221.064046 246.463311 
L 237.719247 248.031751 
L 256.811794 249.605325 
L 278.747912 251.186779 
L 303.933825 252.772584 
L 332.369533 254.33412 
L 364.461261 255.869087 
L 400.615233 257.371881 
L 441.237674 258.834965 
L 487.141032 260.261683 
L 498.109091 260.572675 
L 498.109091 260.572675 
" style="fill:none;stroke:#8172b3;stroke-linecap:round;stroke-width:1.5;"/>
   </g>
   <g id="patch_3">
    <path d="M 72 288.36 
L 72 38.88 
" style="fill:none;stroke:#ffffff;stroke-linecap:square;stroke-linejoin:miter;stroke-width:1.25;"/>
   </g>
   <g id="patch_4">
    <path d="M 518.4 288.36 
L 518.4 38.88 
" style="fill:none;stroke:#ffffff;stroke-linecap:square;stroke-linejoin:miter;stroke-width:1.25;"/>
   </g>
   <g id="patch_5">
    <path d="M 72 288.36 
L 518.4 288.36 
" style="fill:none;stroke:#ffffff;stroke-linecap:square;stroke-linejoin:miter;stroke-width:1.25;"/>
   </g>
   <g id="patch_6">
    <path d="M 72 38.88 
L 518.4 38.88 
" style="fill:none;stroke:#ffffff;stroke-linecap:square;stroke-linejoin:miter;stroke-width:1.25;"/>
   </g>
   <g id="legend_1">
    <g id="patch_7">
     <path d="M 414.644219 125.6425 
L 510.7 125.6425 
Q 512.9 125.6425 512.9 123.4425 
L 512.9 46.58 
Q 512.9 44.38 510.7 44.38 
L 414.644219 44.38 
Q 412.444219 44.38 412.444219 46.58 
L 412.444219 123.4425 
Q 412.444219 125.6425 414.644219 125.6425 
z
" style="fill:#eaeaf2;opacity:0.8;stroke:#cccccc;stroke-linejoin:miter;"/>
    </g>
    <g id="line2d_18">
     <path d="M 416.844219 52.83625 
L 438.844219 52.83625 
" style="fill:none;stroke:#4c72b0;stroke-linecap:round;stroke-width:1.5;"/>
    </g>
    <g id="line2d_19"/>
    <g id="text_15">
     <!-- alpha = 0.5 -->
     <g style="fill:#262626;" transform="translate(447.644219 56.68625)scale(0.11 -0.11)">
      <defs>
       <path d="M 6.390625 0 
L 6.390625 71.578125 
L 15.1875 71.578125 
L 15.1875 0 
z
" id="ArialMT-108"/>
       <path d="M 6.59375 -19.875 
L 6.59375 51.859375 
L 14.59375 51.859375 
L 14.59375 45.125 
Q 17.4375 49.078125 21 51.046875 
Q 24.5625 53.03125 29.640625 53.03125 
Q 36.28125 53.03125 41.359375 49.609375 
Q 46.4375 46.1875 49.015625 39.953125 
Q 51.609375 33.734375 51.609375 26.3125 
Q 51.609375 18.359375 48.75 11.984375 
Q 45.90625 5.609375 40.453125 2.21875 
Q 35.015625 -1.171875 29 -1.171875 
Q 24.609375 -1.171875 21.109375 0.6875 
Q 17.625 2.546875 15.375 5.375 
L 15.375 -19.875 
z
M 14.546875 25.640625 
Q 14.546875 15.625 18.59375 10.84375 
Q 22.65625 6.0625 28.421875 6.0625 
Q 34.28125 6.0625 38.453125 11.015625 
Q 42.625 15.96875 42.625 26.375 
Q 42.625 36.28125 38.546875 41.203125 
Q 34.46875 46.140625 28.8125 46.140625 
Q 23.1875 46.140625 18.859375 40.890625 
Q 14.546875 35.640625 14.546875 25.640625 
z
" id="ArialMT-112"/>
       <path d="M 6.59375 0 
L 6.59375 71.578125 
L 15.375 71.578125 
L 15.375 45.90625 
Q 21.53125 53.03125 30.90625 53.03125 
Q 36.671875 53.03125 40.921875 50.75 
Q 45.171875 48.484375 47 44.484375 
Q 48.828125 40.484375 48.828125 32.859375 
L 48.828125 0 
L 40.046875 0 
L 40.046875 32.859375 
Q 40.046875 39.453125 37.1875 42.453125 
Q 34.328125 45.453125 29.109375 45.453125 
Q 25.203125 45.453125 21.75 43.421875 
Q 18.3125 41.40625 16.84375 37.9375 
Q 15.375 34.46875 15.375 28.375 
L 15.375 0 
z
" id="ArialMT-104"/>
       <path id="ArialMT-32"/>
       <path d="M 52.828125 42.09375 
L 5.5625 42.09375 
L 5.5625 50.296875 
L 52.828125 50.296875 
z
M 52.828125 20.359375 
L 5.5625 20.359375 
L 5.5625 28.5625 
L 52.828125 28.5625 
z
" id="ArialMT-61"/>
       <path d="M 9.078125 0 
L 9.078125 10.015625 
L 19.09375 10.015625 
L 19.09375 0 
z
" id="ArialMT-46"/>
      </defs>
      <use xlink:href="#ArialMT-97"/>
      <use x="55.615234" xlink:href="#ArialMT-108"/>
      <use x="77.832031" xlink:href="#ArialMT-112"/>
      <use x="133.447266" xlink:href="#ArialMT-104"/>
      <use x="189.0625" xlink:href="#ArialMT-97"/>
      <use x="244.677734" xlink:href="#ArialMT-32"/>
      <use x="272.460938" xlink:href="#ArialMT-61"/>
      <use x="330.859375" xlink:href="#ArialMT-32"/>
      <use x="358.642578" xlink:href="#ArialMT-48"/>
      <use x="414.257812" xlink:href="#ArialMT-46"/>
      <use x="442.041016" xlink:href="#ArialMT-53"/>
     </g>
    </g>
    <g id="line2d_20">
     <path d="M 416.844219 68.42875 
L 438.844219 68.42875 
" style="fill:none;stroke:#dd8452;stroke-linecap:round;stroke-width:1.5;"/>
    </g>
    <g id="line2d_21"/>
    <g id="text_16">
     <!-- alpha = 0.2 -->
     <g style="fill:#262626;" transform="translate(447.644219 72.27875)scale(0.11 -0.11)">
      <use xlink:href="#ArialMT-97"/>
      <use x="55.615234" xlink:href="#ArialMT-108"/>
      <use x="77.832031" xlink:href="#ArialMT-112"/>
      <use x="133.447266" xlink:href="#ArialMT-104"/>
      <use x="189.0625" xlink:href="#ArialMT-97"/>
      <use x="244.677734" xlink:href="#ArialMT-32"/>
      <use x="272.460938" xlink:href="#ArialMT-61"/>
      <use x="330.859375" xlink:href="#ArialMT-32"/>
      <use x="358.642578" xlink:href="#ArialMT-48"/>
      <use x="414.257812" xlink:href="#ArialMT-46"/>
      <use x="442.041016" xlink:href="#ArialMT-50"/>
     </g>
    </g>
    <g id="line2d_22">
     <path d="M 416.844219 84.02125 
L 438.844219 84.02125 
" style="fill:none;stroke:#55a868;stroke-linecap:round;stroke-width:1.5;"/>
    </g>
    <g id="line2d_23"/>
    <g id="text_17">
     <!-- alpha = 0.1 -->
     <g style="fill:#262626;" transform="translate(447.644219 87.87125)scale(0.11 -0.11)">
      <use xlink:href="#ArialMT-97"/>
      <use x="55.615234" xlink:href="#ArialMT-108"/>
      <use x="77.832031" xlink:href="#ArialMT-112"/>
      <use x="133.447266" xlink:href="#ArialMT-104"/>
      <use x="189.0625" xlink:href="#ArialMT-97"/>
      <use x="244.677734" xlink:href="#ArialMT-32"/>
      <use x="272.460938" xlink:href="#ArialMT-61"/>
      <use x="330.859375" xlink:href="#ArialMT-32"/>
      <use x="358.642578" xlink:href="#ArialMT-48"/>
      <use x="414.257812" xlink:href="#ArialMT-46"/>
      <use x="442.041016" xlink:href="#ArialMT-49"/>
     </g>
    </g>
    <g id="line2d_24">
     <path d="M 416.844219 99.61375 
L 438.844219 99.61375 
" style="fill:none;stroke:#c44e52;stroke-linecap:round;stroke-width:1.5;"/>
    </g>
    <g id="line2d_25"/>
    <g id="text_18">
     <!-- alpha = 0.05 -->
     <g style="fill:#262626;" transform="translate(447.644219 103.46375)scale(0.11 -0.11)">
      <use xlink:href="#ArialMT-97"/>
      <use x="55.615234" xlink:href="#ArialMT-108"/>
      <use x="77.832031" xlink:href="#ArialMT-112"/>
      <use x="133.447266" xlink:href="#ArialMT-104"/>
      <use x="189.0625" xlink:href="#ArialMT-97"/>
      <use x="244.677734" xlink:href="#ArialMT-32"/>
      <use x="272.460938" xlink:href="#ArialMT-61"/>
      <use x="330.859375" xlink:href="#ArialMT-32"/>
      <use x="358.642578" xlink:href="#ArialMT-48"/>
      <use x="414.257812" xlink:href="#ArialMT-46"/>
      <use x="442.041016" xlink:href="#ArialMT-48"/>
      <use x="497.65625" xlink:href="#ArialMT-53"/>
     </g>
    </g>
    <g id="line2d_26">
     <path d="M 416.844219 115.20625 
L 438.844219 115.20625 
" style="fill:none;stroke:#8172b3;stroke-linecap:round;stroke-width:1.5;"/>
    </g>
    <g id="line2d_27"/>
    <g id="text_19">
     <!-- alpha = 0.01 -->
     <g style="fill:#262626;" transform="translate(447.644219 119.05625)scale(0.11 -0.11)">
      <use xlink:href="#ArialMT-97"/>
      <use x="55.615234" xlink:href="#ArialMT-108"/>
      <use x="77.832031" xlink:href="#ArialMT-112"/>
      <use x="133.447266" xlink:href="#ArialMT-104"/>
      <use x="189.0625" xlink:href="#ArialMT-97"/>
      <use x="244.677734" xlink:href="#ArialMT-32"/>
      <use x="272.460938" xlink:href="#ArialMT-61"/>
      <use x="330.859375" xlink:href="#ArialMT-32"/>
      <use x="358.642578" xlink:href="#ArialMT-48"/>
      <use x="414.257812" xlink:href="#ArialMT-46"/>
      <use x="442.041016" xlink:href="#ArialMT-48"/>
      <use x="497.65625" xlink:href="#ArialMT-49"/>
     </g>
    </g>
   </g>
  </g>
 </g>
 <defs>
  <clipPath id="pee619eac71">
   <rect height="249.48" width="446.4" x="72" y="38.88"/>
  </clipPath>
 </defs>
</svg>
