<?xml version="1.0" encoding="utf-8" standalone="no"?>
<!DOCTYPE svg PUBLIC "-//W3C//DTD SVG 1.1//EN"
  "http://www.w3.org/Graphics/SVG/1.1/DTD/svg11.dtd">
<!-- Created with matplotlib (https://matplotlib.org/) -->
<svg height="324pt" version="1.1" viewBox="0 0 576 324" width="576pt" xmlns="http://www.w3.org/2000/svg" xmlns:xlink="http://www.w3.org/1999/xlink">
 <metadata>
  <rdf:RDF xmlns:cc="http://creativecommons.org/ns#" xmlns:dc="http://purl.org/dc/elements/1.1/" xmlns:rdf="http://www.w3.org/1999/02/22-rdf-syntax-ns#">
   <cc:Work>
    <dc:type rdf:resource="http://purl.org/dc/dcmitype/StillImage"/>
    <dc:date>2021-04-28T14:21:44.379067</dc:date>
    <dc:format>image/svg+xml</dc:format>
    <dc:creator>
     <cc:Agent>
      <dc:title>Matplotlib v3.3.4, https://matplotlib.org/</dc:title>
     </cc:Agent>
    </dc:creator>
   </cc:Work>
  </rdf:RDF>
 </metadata>
 <defs>
  <style type="text/css">*{stroke-linecap:butt;stroke-linejoin:round;}</style>
 </defs>
 <g id="figure_1">
  <g id="patch_1">
   <path d="M 0 324 
L 576 324 
L 576 0 
L 0 0 
z
" style="fill:#ffffff;"/>
  </g>
  <g id="axes_1">
   <g id="patch_2">
    <path d="M 72 288.36 
L 518.4 288.36 
L 518.4 38.88 
L 72 38.88 
z
" style="fill:#eaeaf2;"/>
   </g>
   <g id="matplotlib.axis_1">
    <g id="xtick_1">
     <g id="line2d_1">
      <path clip-path="url(#p27dc4ef061)" d="M 92.290909 288.36 
L 92.290909 38.88 
" style="fill:none;stroke:#ffffff;stroke-linecap:round;"/>
     </g>
     <g id="text_1">
      <!-- 0 -->
      <g style="fill:#262626;" transform="translate(89.232393 305.733594)scale(0.11 -0.11)">
       <defs>
        <path d="M 4.15625 35.296875 
Q 4.15625 48 6.765625 55.734375 
Q 9.375 63.484375 14.515625 67.671875 
Q 19.671875 71.875 27.484375 71.875 
Q 33.25 71.875 37.59375 69.546875 
Q 41.9375 67.234375 44.765625 62.859375 
Q 47.609375 58.5 49.21875 52.21875 
Q 50.828125 45.953125 50.828125 35.296875 
Q 50.828125 22.703125 48.234375 14.96875 
Q 45.65625 7.234375 40.5 3 
Q 35.359375 -1.21875 27.484375 -1.21875 
Q 17.140625 -1.21875 11.234375 6.203125 
Q 4.15625 15.140625 4.15625 35.296875 
z
M 13.1875 35.296875 
Q 13.1875 17.671875 17.3125 11.828125 
Q 21.4375 6 27.484375 6 
Q 33.546875 6 37.671875 11.859375 
Q 41.796875 17.71875 41.796875 35.296875 
Q 41.796875 52.984375 37.671875 58.78125 
Q 33.546875 64.59375 27.390625 64.59375 
Q 21.34375 64.59375 17.71875 59.46875 
Q 13.1875 52.9375 13.1875 35.296875 
z
" id="ArialMT-48"/>
       </defs>
       <use xlink:href="#ArialMT-48"/>
      </g>
     </g>
    </g>
    <g id="xtick_2">
     <g id="line2d_2">
      <path clip-path="url(#p27dc4ef061)" d="M 173.53579 288.36 
L 173.53579 38.88 
" style="fill:none;stroke:#ffffff;stroke-linecap:round;"/>
     </g>
     <g id="text_2">
      <!-- 200 -->
      <g style="fill:#262626;" transform="translate(164.360243 305.733594)scale(0.11 -0.11)">
       <defs>
        <path d="M 50.34375 8.453125 
L 50.34375 0 
L 3.03125 0 
Q 2.9375 3.171875 4.046875 6.109375 
Q 5.859375 10.9375 9.828125 15.625 
Q 13.8125 20.3125 21.34375 26.46875 
Q 33.015625 36.03125 37.109375 41.625 
Q 41.21875 47.21875 41.21875 52.203125 
Q 41.21875 57.421875 37.46875 61 
Q 33.734375 64.59375 27.734375 64.59375 
Q 21.390625 64.59375 17.578125 60.78125 
Q 13.765625 56.984375 13.71875 50.25 
L 4.6875 51.171875 
Q 5.609375 61.28125 11.65625 66.578125 
Q 17.71875 71.875 27.9375 71.875 
Q 38.234375 71.875 44.234375 66.15625 
Q 50.25 60.453125 50.25 52 
Q 50.25 47.703125 48.484375 43.546875 
Q 46.734375 39.40625 42.65625 34.8125 
Q 38.578125 30.21875 29.109375 22.21875 
Q 21.1875 15.578125 18.9375 13.203125 
Q 16.703125 10.84375 15.234375 8.453125 
z
" id="ArialMT-50"/>
       </defs>
       <use xlink:href="#ArialMT-50"/>
       <use x="55.615234" xlink:href="#ArialMT-48"/>
       <use x="111.230469" xlink:href="#ArialMT-48"/>
      </g>
     </g>
    </g>
    <g id="xtick_3">
     <g id="line2d_3">
      <path clip-path="url(#p27dc4ef061)" d="M 254.780672 288.36 
L 254.780672 38.88 
" style="fill:none;stroke:#ffffff;stroke-linecap:round;"/>
     </g>
     <g id="text_3">
      <!-- 400 -->
      <g style="fill:#262626;" transform="translate(245.605125 305.733594)scale(0.11 -0.11)">
       <defs>
        <path d="M 32.328125 0 
L 32.328125 17.140625 
L 1.265625 17.140625 
L 1.265625 25.203125 
L 33.9375 71.578125 
L 41.109375 71.578125 
L 41.109375 25.203125 
L 50.78125 25.203125 
L 50.78125 17.140625 
L 41.109375 17.140625 
L 41.109375 0 
z
M 32.328125 25.203125 
L 32.328125 57.46875 
L 9.90625 25.203125 
z
" id="ArialMT-52"/>
       </defs>
       <use xlink:href="#ArialMT-52"/>
       <use x="55.615234" xlink:href="#ArialMT-48"/>
       <use x="111.230469" xlink:href="#ArialMT-48"/>
      </g>
     </g>
    </g>
    <g id="xtick_4">
     <g id="line2d_4">
      <path clip-path="url(#p27dc4ef061)" d="M 336.025553 288.36 
L 336.025553 38.88 
" style="fill:none;stroke:#ffffff;stroke-linecap:round;"/>
     </g>
     <g id="text_4">
      <!-- 600 -->
      <g style="fill:#262626;" transform="translate(326.850006 305.733594)scale(0.11 -0.11)">
       <defs>
        <path d="M 49.75 54.046875 
L 41.015625 53.375 
Q 39.84375 58.546875 37.703125 60.890625 
Q 34.125 64.65625 28.90625 64.65625 
Q 24.703125 64.65625 21.53125 62.3125 
Q 17.390625 59.28125 14.984375 53.46875 
Q 12.59375 47.65625 12.5 36.921875 
Q 15.671875 41.75 20.265625 44.09375 
Q 24.859375 46.4375 29.890625 46.4375 
Q 38.671875 46.4375 44.84375 39.96875 
Q 51.03125 33.5 51.03125 23.25 
Q 51.03125 16.5 48.125 10.71875 
Q 45.21875 4.9375 40.140625 1.859375 
Q 35.0625 -1.21875 28.609375 -1.21875 
Q 17.625 -1.21875 10.6875 6.859375 
Q 3.765625 14.9375 3.765625 33.5 
Q 3.765625 54.25 11.421875 63.671875 
Q 18.109375 71.875 29.4375 71.875 
Q 37.890625 71.875 43.28125 67.140625 
Q 48.6875 62.40625 49.75 54.046875 
z
M 13.875 23.1875 
Q 13.875 18.65625 15.796875 14.5 
Q 17.71875 10.359375 21.1875 8.171875 
Q 24.65625 6 28.46875 6 
Q 34.03125 6 38.03125 10.484375 
Q 42.046875 14.984375 42.046875 22.703125 
Q 42.046875 30.125 38.078125 34.390625 
Q 34.125 38.671875 28.125 38.671875 
Q 22.171875 38.671875 18.015625 34.390625 
Q 13.875 30.125 13.875 23.1875 
z
" id="ArialMT-54"/>
       </defs>
       <use xlink:href="#ArialMT-54"/>
       <use x="55.615234" xlink:href="#ArialMT-48"/>
       <use x="111.230469" xlink:href="#ArialMT-48"/>
      </g>
     </g>
    </g>
    <g id="xtick_5">
     <g id="line2d_5">
      <path clip-path="url(#p27dc4ef061)" d="M 417.270434 288.36 
L 417.270434 38.88 
" style="fill:none;stroke:#ffffff;stroke-linecap:round;"/>
     </g>
     <g id="text_5">
      <!-- 800 -->
      <g style="fill:#262626;" transform="translate(408.094887 305.733594)scale(0.11 -0.11)">
       <defs>
        <path d="M 17.671875 38.8125 
Q 12.203125 40.828125 9.5625 44.53125 
Q 6.9375 48.25 6.9375 53.421875 
Q 6.9375 61.234375 12.546875 66.546875 
Q 18.171875 71.875 27.484375 71.875 
Q 36.859375 71.875 42.578125 66.421875 
Q 48.296875 60.984375 48.296875 53.171875 
Q 48.296875 48.1875 45.671875 44.5 
Q 43.0625 40.828125 37.75 38.8125 
Q 44.34375 36.671875 47.78125 31.875 
Q 51.21875 27.09375 51.21875 20.453125 
Q 51.21875 11.28125 44.71875 5.03125 
Q 38.234375 -1.21875 27.640625 -1.21875 
Q 17.046875 -1.21875 10.546875 5.046875 
Q 4.046875 11.328125 4.046875 20.703125 
Q 4.046875 27.6875 7.59375 32.390625 
Q 11.140625 37.109375 17.671875 38.8125 
z
M 15.921875 53.71875 
Q 15.921875 48.640625 19.1875 45.40625 
Q 22.46875 42.1875 27.6875 42.1875 
Q 32.765625 42.1875 36.015625 45.375 
Q 39.265625 48.578125 39.265625 53.21875 
Q 39.265625 58.0625 35.90625 61.359375 
Q 32.5625 64.65625 27.59375 64.65625 
Q 22.5625 64.65625 19.234375 61.421875 
Q 15.921875 58.203125 15.921875 53.71875 
z
M 13.09375 20.65625 
Q 13.09375 16.890625 14.875 13.375 
Q 16.65625 9.859375 20.171875 7.921875 
Q 23.6875 6 27.734375 6 
Q 34.03125 6 38.125 10.046875 
Q 42.234375 14.109375 42.234375 20.359375 
Q 42.234375 26.703125 38.015625 30.859375 
Q 33.796875 35.015625 27.4375 35.015625 
Q 21.234375 35.015625 17.15625 30.90625 
Q 13.09375 26.8125 13.09375 20.65625 
z
" id="ArialMT-56"/>
       </defs>
       <use xlink:href="#ArialMT-56"/>
       <use x="55.615234" xlink:href="#ArialMT-48"/>
       <use x="111.230469" xlink:href="#ArialMT-48"/>
      </g>
     </g>
    </g>
    <g id="xtick_6">
     <g id="line2d_6">
      <path clip-path="url(#p27dc4ef061)" d="M 498.515315 288.36 
L 498.515315 38.88 
" style="fill:none;stroke:#ffffff;stroke-linecap:round;"/>
     </g>
     <g id="text_6">
      <!-- 1000 -->
      <g style="fill:#262626;" transform="translate(486.281253 305.733594)scale(0.11 -0.11)">
       <defs>
        <path d="M 37.25 0 
L 28.46875 0 
L 28.46875 56 
Q 25.296875 52.984375 20.140625 49.953125 
Q 14.984375 46.921875 10.890625 45.40625 
L 10.890625 53.90625 
Q 18.265625 57.375 23.78125 62.296875 
Q 29.296875 67.234375 31.59375 71.875 
L 37.25 71.875 
z
" id="ArialMT-49"/>
       </defs>
       <use xlink:href="#ArialMT-49"/>
       <use x="55.615234" xlink:href="#ArialMT-48"/>
       <use x="111.230469" xlink:href="#ArialMT-48"/>
       <use x="166.845703" xlink:href="#ArialMT-48"/>
      </g>
     </g>
    </g>
    <g id="text_7">
     <!-- Iterations -->
     <g style="fill:#262626;" transform="translate(270.522187 320.509219)scale(0.12 -0.12)">
      <defs>
       <path d="M 9.328125 0 
L 9.328125 71.578125 
L 18.796875 71.578125 
L 18.796875 0 
z
" id="ArialMT-73"/>
       <path d="M 25.78125 7.859375 
L 27.046875 0.09375 
Q 23.34375 -0.6875 20.40625 -0.6875 
Q 15.625 -0.6875 12.984375 0.828125 
Q 10.359375 2.34375 9.28125 4.8125 
Q 8.203125 7.28125 8.203125 15.1875 
L 8.203125 45.015625 
L 1.765625 45.015625 
L 1.765625 51.859375 
L 8.203125 51.859375 
L 8.203125 64.703125 
L 16.9375 69.96875 
L 16.9375 51.859375 
L 25.78125 51.859375 
L 25.78125 45.015625 
L 16.9375 45.015625 
L 16.9375 14.703125 
Q 16.9375 10.9375 17.40625 9.859375 
Q 17.875 8.796875 18.921875 8.15625 
Q 19.96875 7.515625 21.921875 7.515625 
Q 23.390625 7.515625 25.78125 7.859375 
z
" id="ArialMT-116"/>
       <path d="M 42.09375 16.703125 
L 51.171875 15.578125 
Q 49.03125 7.625 43.21875 3.21875 
Q 37.40625 -1.171875 28.375 -1.171875 
Q 17 -1.171875 10.328125 5.828125 
Q 3.65625 12.84375 3.65625 25.484375 
Q 3.65625 38.578125 10.390625 45.796875 
Q 17.140625 53.03125 27.875 53.03125 
Q 38.28125 53.03125 44.875 45.953125 
Q 51.46875 38.875 51.46875 26.03125 
Q 51.46875 25.25 51.421875 23.6875 
L 12.75 23.6875 
Q 13.234375 15.140625 17.578125 10.59375 
Q 21.921875 6.0625 28.421875 6.0625 
Q 33.25 6.0625 36.671875 8.59375 
Q 40.09375 11.140625 42.09375 16.703125 
z
M 13.234375 30.90625 
L 42.1875 30.90625 
Q 41.609375 37.453125 38.875 40.71875 
Q 34.671875 45.796875 27.984375 45.796875 
Q 21.921875 45.796875 17.796875 41.75 
Q 13.671875 37.703125 13.234375 30.90625 
z
" id="ArialMT-101"/>
       <path d="M 6.5 0 
L 6.5 51.859375 
L 14.40625 51.859375 
L 14.40625 44 
Q 17.4375 49.515625 20 51.265625 
Q 22.5625 53.03125 25.640625 53.03125 
Q 30.078125 53.03125 34.671875 50.203125 
L 31.640625 42.046875 
Q 28.421875 43.953125 25.203125 43.953125 
Q 22.3125 43.953125 20.015625 42.21875 
Q 17.71875 40.484375 16.75 37.40625 
Q 15.28125 32.71875 15.28125 27.15625 
L 15.28125 0 
z
" id="ArialMT-114"/>
       <path d="M 40.4375 6.390625 
Q 35.546875 2.25 31.03125 0.53125 
Q 26.515625 -1.171875 21.34375 -1.171875 
Q 12.796875 -1.171875 8.203125 3 
Q 3.609375 7.171875 3.609375 13.671875 
Q 3.609375 17.484375 5.34375 20.625 
Q 7.078125 23.78125 9.890625 25.6875 
Q 12.703125 27.59375 16.21875 28.5625 
Q 18.796875 29.25 24.03125 29.890625 
Q 34.671875 31.15625 39.703125 32.90625 
Q 39.75 34.71875 39.75 35.203125 
Q 39.75 40.578125 37.25 42.78125 
Q 33.890625 45.75 27.25 45.75 
Q 21.046875 45.75 18.09375 43.578125 
Q 15.140625 41.40625 13.71875 35.890625 
L 5.125 37.0625 
Q 6.296875 42.578125 8.984375 45.96875 
Q 11.671875 49.359375 16.75 51.1875 
Q 21.828125 53.03125 28.515625 53.03125 
Q 35.15625 53.03125 39.296875 51.46875 
Q 43.453125 49.90625 45.40625 47.53125 
Q 47.359375 45.171875 48.140625 41.546875 
Q 48.578125 39.3125 48.578125 33.453125 
L 48.578125 21.734375 
Q 48.578125 9.46875 49.140625 6.21875 
Q 49.703125 2.984375 51.375 0 
L 42.1875 0 
Q 40.828125 2.734375 40.4375 6.390625 
z
M 39.703125 26.03125 
Q 34.90625 24.078125 25.34375 22.703125 
Q 19.921875 21.921875 17.671875 20.9375 
Q 15.4375 19.96875 14.203125 18.09375 
Q 12.984375 16.21875 12.984375 13.921875 
Q 12.984375 10.40625 15.640625 8.0625 
Q 18.3125 5.71875 23.4375 5.71875 
Q 28.515625 5.71875 32.46875 7.9375 
Q 36.421875 10.15625 38.28125 14.015625 
Q 39.703125 17 39.703125 22.796875 
z
" id="ArialMT-97"/>
       <path d="M 6.640625 61.46875 
L 6.640625 71.578125 
L 15.4375 71.578125 
L 15.4375 61.46875 
z
M 6.640625 0 
L 6.640625 51.859375 
L 15.4375 51.859375 
L 15.4375 0 
z
" id="ArialMT-105"/>
       <path d="M 3.328125 25.921875 
Q 3.328125 40.328125 11.328125 47.265625 
Q 18.015625 53.03125 27.640625 53.03125 
Q 38.328125 53.03125 45.109375 46.015625 
Q 51.90625 39.015625 51.90625 26.65625 
Q 51.90625 16.65625 48.90625 10.90625 
Q 45.90625 5.171875 40.15625 2 
Q 34.421875 -1.171875 27.640625 -1.171875 
Q 16.75 -1.171875 10.03125 5.8125 
Q 3.328125 12.796875 3.328125 25.921875 
z
M 12.359375 25.921875 
Q 12.359375 15.96875 16.703125 11.015625 
Q 21.046875 6.0625 27.640625 6.0625 
Q 34.1875 6.0625 38.53125 11.03125 
Q 42.875 16.015625 42.875 26.21875 
Q 42.875 35.84375 38.5 40.796875 
Q 34.125 45.75 27.640625 45.75 
Q 21.046875 45.75 16.703125 40.8125 
Q 12.359375 35.890625 12.359375 25.921875 
z
" id="ArialMT-111"/>
       <path d="M 6.59375 0 
L 6.59375 51.859375 
L 14.5 51.859375 
L 14.5 44.484375 
Q 20.21875 53.03125 31 53.03125 
Q 35.6875 53.03125 39.625 51.34375 
Q 43.5625 49.65625 45.515625 46.921875 
Q 47.46875 44.1875 48.25 40.4375 
Q 48.734375 37.984375 48.734375 31.890625 
L 48.734375 0 
L 39.9375 0 
L 39.9375 31.546875 
Q 39.9375 36.921875 38.90625 39.578125 
Q 37.890625 42.234375 35.28125 43.8125 
Q 32.671875 45.40625 29.15625 45.40625 
Q 23.53125 45.40625 19.453125 41.84375 
Q 15.375 38.28125 15.375 28.328125 
L 15.375 0 
z
" id="ArialMT-110"/>
       <path d="M 3.078125 15.484375 
L 11.765625 16.84375 
Q 12.5 11.625 15.84375 8.84375 
Q 19.1875 6.0625 25.203125 6.0625 
Q 31.25 6.0625 34.171875 8.515625 
Q 37.109375 10.984375 37.109375 14.3125 
Q 37.109375 17.28125 34.515625 19 
Q 32.71875 20.171875 25.53125 21.96875 
Q 15.875 24.421875 12.140625 26.203125 
Q 8.40625 27.984375 6.46875 31.125 
Q 4.546875 34.28125 4.546875 38.09375 
Q 4.546875 41.546875 6.125 44.5 
Q 7.71875 47.46875 10.453125 49.421875 
Q 12.5 50.921875 16.03125 51.96875 
Q 19.578125 53.03125 23.640625 53.03125 
Q 29.734375 53.03125 34.34375 51.265625 
Q 38.96875 49.515625 41.15625 46.5 
Q 43.359375 43.5 44.1875 38.484375 
L 35.59375 37.3125 
Q 35.015625 41.3125 32.203125 43.546875 
Q 29.390625 45.796875 24.265625 45.796875 
Q 18.21875 45.796875 15.625 43.796875 
Q 13.03125 41.796875 13.03125 39.109375 
Q 13.03125 37.40625 14.109375 36.03125 
Q 15.1875 34.625 17.484375 33.6875 
Q 18.796875 33.203125 25.25 31.453125 
Q 34.578125 28.953125 38.25 27.359375 
Q 41.9375 25.78125 44.03125 22.75 
Q 46.140625 19.734375 46.140625 15.234375 
Q 46.140625 10.84375 43.578125 6.953125 
Q 41.015625 3.078125 36.171875 0.953125 
Q 31.34375 -1.171875 25.25 -1.171875 
Q 15.140625 -1.171875 9.84375 3.03125 
Q 4.546875 7.234375 3.078125 15.484375 
z
" id="ArialMT-115"/>
      </defs>
      <use xlink:href="#ArialMT-73"/>
      <use x="27.783203" xlink:href="#ArialMT-116"/>
      <use x="55.566406" xlink:href="#ArialMT-101"/>
      <use x="111.181641" xlink:href="#ArialMT-114"/>
      <use x="144.482422" xlink:href="#ArialMT-97"/>
      <use x="200.097656" xlink:href="#ArialMT-116"/>
      <use x="227.880859" xlink:href="#ArialMT-105"/>
      <use x="250.097656" xlink:href="#ArialMT-111"/>
      <use x="305.712891" xlink:href="#ArialMT-110"/>
      <use x="361.328125" xlink:href="#ArialMT-115"/>
     </g>
    </g>
   </g>
   <g id="matplotlib.axis_2">
    <g id="ytick_1">
     <g id="line2d_7">
      <path clip-path="url(#p27dc4ef061)" d="M 72 258.039219 
L 518.4 258.039219 
" style="fill:none;stroke:#ffffff;stroke-linecap:round;"/>
     </g>
     <g id="text_8">
      <!-- 1 -->
      <g style="fill:#262626;" transform="translate(56.382969 261.976016)scale(0.11 -0.11)">
       <use xlink:href="#ArialMT-49"/>
      </g>
     </g>
    </g>
    <g id="ytick_2">
     <g id="line2d_8">
      <path clip-path="url(#p27dc4ef061)" d="M 72 216.257193 
L 518.4 216.257193 
" style="fill:none;stroke:#ffffff;stroke-linecap:round;"/>
     </g>
     <g id="text_9">
      <!-- 2 -->
      <g style="fill:#262626;" transform="translate(56.382969 220.19399)scale(0.11 -0.11)">
       <use xlink:href="#ArialMT-50"/>
      </g>
     </g>
    </g>
    <g id="ytick_3">
     <g id="line2d_9">
      <path clip-path="url(#p27dc4ef061)" d="M 72 174.475167 
L 518.4 174.475167 
" style="fill:none;stroke:#ffffff;stroke-linecap:round;"/>
     </g>
     <g id="text_10">
      <!-- 3 -->
      <g style="fill:#262626;" transform="translate(56.382969 178.411963)scale(0.11 -0.11)">
       <defs>
        <path d="M 4.203125 18.890625 
L 12.984375 20.0625 
Q 14.5 12.59375 18.140625 9.296875 
Q 21.78125 6 27 6 
Q 33.203125 6 37.46875 10.296875 
Q 41.75 14.59375 41.75 20.953125 
Q 41.75 27 37.796875 30.921875 
Q 33.84375 34.859375 27.734375 34.859375 
Q 25.25 34.859375 21.53125 33.890625 
L 22.515625 41.609375 
Q 23.390625 41.5 23.921875 41.5 
Q 29.546875 41.5 34.03125 44.421875 
Q 38.53125 47.359375 38.53125 53.46875 
Q 38.53125 58.296875 35.25 61.46875 
Q 31.984375 64.65625 26.8125 64.65625 
Q 21.6875 64.65625 18.265625 61.421875 
Q 14.84375 58.203125 13.875 51.765625 
L 5.078125 53.328125 
Q 6.6875 62.15625 12.390625 67.015625 
Q 18.109375 71.875 26.609375 71.875 
Q 32.46875 71.875 37.390625 69.359375 
Q 42.328125 66.84375 44.9375 62.5 
Q 47.5625 58.15625 47.5625 53.265625 
Q 47.5625 48.640625 45.0625 44.828125 
Q 42.578125 41.015625 37.703125 38.765625 
Q 44.046875 37.3125 47.5625 32.6875 
Q 51.078125 28.078125 51.078125 21.140625 
Q 51.078125 11.765625 44.234375 5.25 
Q 37.40625 -1.265625 26.953125 -1.265625 
Q 17.53125 -1.265625 11.296875 4.34375 
Q 5.078125 9.96875 4.203125 18.890625 
z
" id="ArialMT-51"/>
       </defs>
       <use xlink:href="#ArialMT-51"/>
      </g>
     </g>
    </g>
    <g id="ytick_4">
     <g id="line2d_10">
      <path clip-path="url(#p27dc4ef061)" d="M 72 132.69314 
L 518.4 132.69314 
" style="fill:none;stroke:#ffffff;stroke-linecap:round;"/>
     </g>
     <g id="text_11">
      <!-- 4 -->
      <g style="fill:#262626;" transform="translate(56.382969 136.629937)scale(0.11 -0.11)">
       <use xlink:href="#ArialMT-52"/>
      </g>
     </g>
    </g>
    <g id="ytick_5">
     <g id="line2d_11">
      <path clip-path="url(#p27dc4ef061)" d="M 72 90.911114 
L 518.4 90.911114 
" style="fill:none;stroke:#ffffff;stroke-linecap:round;"/>
     </g>
     <g id="text_12">
      <!-- 5 -->
      <g style="fill:#262626;" transform="translate(56.382969 94.847911)scale(0.11 -0.11)">
       <defs>
        <path d="M 4.15625 18.75 
L 13.375 19.53125 
Q 14.40625 12.796875 18.140625 9.390625 
Q 21.875 6 27.15625 6 
Q 33.5 6 37.890625 10.78125 
Q 42.28125 15.578125 42.28125 23.484375 
Q 42.28125 31 38.0625 35.34375 
Q 33.84375 39.703125 27 39.703125 
Q 22.75 39.703125 19.328125 37.765625 
Q 15.921875 35.84375 13.96875 32.765625 
L 5.71875 33.84375 
L 12.640625 70.609375 
L 48.25 70.609375 
L 48.25 62.203125 
L 19.671875 62.203125 
L 15.828125 42.96875 
Q 22.265625 47.46875 29.34375 47.46875 
Q 38.71875 47.46875 45.15625 40.96875 
Q 51.609375 34.46875 51.609375 24.265625 
Q 51.609375 14.546875 45.953125 7.46875 
Q 39.0625 -1.21875 27.15625 -1.21875 
Q 17.390625 -1.21875 11.203125 4.25 
Q 5.03125 9.71875 4.15625 18.75 
z
" id="ArialMT-53"/>
       </defs>
       <use xlink:href="#ArialMT-53"/>
      </g>
     </g>
    </g>
    <g id="ytick_6">
     <g id="line2d_12">
      <path clip-path="url(#p27dc4ef061)" d="M 72 49.129088 
L 518.4 49.129088 
" style="fill:none;stroke:#ffffff;stroke-linecap:round;"/>
     </g>
     <g id="text_13">
      <!-- 6 -->
      <g style="fill:#262626;" transform="translate(56.382969 53.065885)scale(0.11 -0.11)">
       <use xlink:href="#ArialMT-54"/>
      </g>
     </g>
    </g>
    <g id="text_14">
     <!-- MSE -->
     <g style="fill:#262626;" transform="translate(49.997969 176.622187)rotate(-90)scale(0.12 -0.12)">
      <defs>
       <path d="M 7.421875 0 
L 7.421875 71.578125 
L 21.6875 71.578125 
L 38.625 20.90625 
Q 40.96875 13.8125 42.046875 10.296875 
Q 43.265625 14.203125 45.84375 21.78125 
L 62.984375 71.578125 
L 75.734375 71.578125 
L 75.734375 0 
L 66.609375 0 
L 66.609375 59.90625 
L 45.796875 0 
L 37.25 0 
L 16.546875 60.9375 
L 16.546875 0 
z
" id="ArialMT-77"/>
       <path d="M 4.5 23 
L 13.421875 23.78125 
Q 14.0625 18.40625 16.375 14.96875 
Q 18.703125 11.53125 23.578125 9.40625 
Q 28.46875 7.28125 34.578125 7.28125 
Q 39.984375 7.28125 44.140625 8.890625 
Q 48.296875 10.5 50.3125 13.296875 
Q 52.34375 16.109375 52.34375 19.4375 
Q 52.34375 22.796875 50.390625 25.3125 
Q 48.4375 27.828125 43.953125 29.546875 
Q 41.0625 30.671875 31.203125 33.03125 
Q 21.34375 35.40625 17.390625 37.5 
Q 12.25 40.1875 9.734375 44.15625 
Q 7.234375 48.140625 7.234375 53.078125 
Q 7.234375 58.5 10.296875 63.203125 
Q 13.375 67.921875 19.28125 70.359375 
Q 25.203125 72.796875 32.421875 72.796875 
Q 40.375 72.796875 46.453125 70.234375 
Q 52.546875 67.671875 55.8125 62.6875 
Q 59.078125 57.71875 59.328125 51.421875 
L 50.25 50.734375 
Q 49.515625 57.515625 45.28125 60.984375 
Q 41.0625 64.453125 32.8125 64.453125 
Q 24.21875 64.453125 20.28125 61.296875 
Q 16.359375 58.15625 16.359375 53.71875 
Q 16.359375 49.859375 19.140625 47.359375 
Q 21.875 44.875 33.421875 42.265625 
Q 44.96875 39.65625 49.265625 37.703125 
Q 55.515625 34.8125 58.484375 30.390625 
Q 61.46875 25.984375 61.46875 20.21875 
Q 61.46875 14.5 58.203125 9.4375 
Q 54.9375 4.390625 48.796875 1.578125 
Q 42.671875 -1.21875 35.015625 -1.21875 
Q 25.296875 -1.21875 18.71875 1.609375 
Q 12.15625 4.4375 8.421875 10.125 
Q 4.6875 15.828125 4.5 23 
z
" id="ArialMT-83"/>
       <path d="M 7.90625 0 
L 7.90625 71.578125 
L 59.671875 71.578125 
L 59.671875 63.140625 
L 17.390625 63.140625 
L 17.390625 41.21875 
L 56.984375 41.21875 
L 56.984375 32.8125 
L 17.390625 32.8125 
L 17.390625 8.453125 
L 61.328125 8.453125 
L 61.328125 0 
z
" id="ArialMT-69"/>
      </defs>
      <use xlink:href="#ArialMT-77"/>
      <use x="83.300781" xlink:href="#ArialMT-83"/>
      <use x="150" xlink:href="#ArialMT-69"/>
     </g>
    </g>
   </g>
   <g id="line2d_13">
    <path clip-path="url(#p27dc4ef061)" d="M 92.290909 158.806907 
L 92.697133 111.83518 
L 106.102539 111.956638 
L 107.727437 112.108918 
L 108.539885 112.386008 
L 108.94611 112.799451 
L 109.352334 114.288445 
L 109.758559 131.133664 
L 110.164783 50.22 
L 110.571007 50.830006 
L 110.977232 52.494033 
L 111.383456 60.967188 
L 111.789681 132.898209 
L 112.195905 111.81092 
L 176.379361 111.925083 
L 179.222932 112.110467 
L 180.035381 112.319484 
L 180.441605 112.560165 
L 180.84783 113.119889 
L 181.254054 115.132289 
L 181.660278 130.829158 
L 182.066503 61.757484 
L 182.472727 130.659152 
L 182.878952 68.94626 
L 183.285176 114.612636 
L 183.6914 125.241137 
L 184.097625 80.412925 
L 184.503849 112.166035 
L 185.316298 112.477378 
L 185.722523 112.900194 
L 186.128747 114.136239 
L 186.534971 120.212799 
L 186.941196 114.906069 
L 187.34742 113.453194 
L 187.753645 116.543121 
L 188.159869 125.917253 
L 188.566093 120.169879 
L 188.972318 106.710658 
L 189.378542 111.966167 
L 191.409664 112.172226 
L 192.222113 112.492032 
L 192.628337 112.93193 
L 193.034562 114.254357 
L 193.440786 121.41496 
L 193.847011 109.421035 
L 194.253235 113.172194 
L 194.659459 115.172007 
L 195.065684 125.41682 
L 195.878133 112.535194 
L 196.284357 113.038187 
L 196.690581 114.679127 
L 197.096806 124.999673 
L 197.50303 96.166074 
L 197.909255 112.313744 
L 198.315479 112.538472 
L 198.721704 113.032661 
L 199.127928 114.57033 
L 199.534152 122.367328 
L 199.940377 115.193476 
L 200.346601 116.692377 
L 200.752826 127.031093 
L 201.15905 120.166693 
L 201.565274 111.10387 
L 201.971499 112.520942 
L 202.377723 112.995213 
L 202.783948 114.482651 
L 203.190172 123.474876 
L 203.596396 102.750556 
L 204.002621 113.642096 
L 204.408845 117.407154 
L 204.81507 124.995236 
L 205.221294 116.027523 
L 205.627518 131.217206 
L 206.033743 133.458892 
L 206.439967 115.156116 
L 206.846192 131.650284 
L 207.252416 64.587358 
L 207.65864 134.597329 
L 208.064865 125.110178 
L 208.471089 75.701572 
L 208.877314 115.416464 
L 209.283538 130.586148 
L 209.689762 103.209177 
L 210.095987 113.457307 
L 210.502211 116.56461 
L 210.908436 131.034761 
L 211.31466 126.584346 
L 211.720885 88.595608 
L 212.127109 113.801526 
L 212.939558 123.683311 
L 213.345782 113.883044 
L 213.752007 119.18554 
L 214.158231 120.834628 
L 214.564455 113.243188 
L 214.97068 115.527648 
L 215.376904 132.008587 
L 215.783129 101.315548 
L 216.189353 114.298942 
L 216.595577 122.035784 
L 217.001802 111.998397 
L 217.408026 125.183621 
L 217.814251 107.62171 
L 218.220475 127.15743 
L 218.626699 111.780077 
L 219.032924 129.224991 
L 219.439148 112.758904 
L 219.845373 125.372292 
L 220.251597 106.610672 
L 220.657821 127.632756 
L 221.064046 111.453932 
L 221.47027 130.812998 
L 221.876495 117.655403 
L 222.282719 116.838306 
L 222.688943 135.073446 
L 223.095168 128.80526 
L 223.501392 84.090381 
L 223.907617 117.421168 
L 224.313841 131.794568 
L 224.720066 115.921479 
L 225.12629 134.979647 
L 225.532514 108.856059 
L 225.938739 117.30259 
L 226.344963 135.655276 
L 226.751188 117.268047 
L 227.157412 138.73097 
L 227.563636 118.412671 
L 227.969861 133.918786 
L 228.376085 111.893795 
L 232.844554 112.063561 
L 234.063227 112.303069 
L 234.469451 112.504734 
L 234.875676 112.927725 
L 235.2819 114.163505 
L 235.688124 121.580288 
L 236.094349 107.247823 
L 236.500573 111.957306 
L 238.531695 112.104067 
L 239.344144 112.275302 
L 239.750369 112.450837 
L 240.156593 112.799277 
L 240.562817 113.713229 
L 240.969042 117.981194 
L 241.375266 138.538339 
L 241.781491 112.825397 
L 242.187715 113.793664 
L 242.593939 118.539238 
L 243.000164 136.628104 
L 243.406388 111.941124 
L 245.843735 112.089378 
L 246.656183 112.2381 
L 247.062408 112.382559 
L 247.468632 112.650441 
L 247.874857 113.271312 
L 248.281081 115.497582 
L 248.687305 134.82517 
L 249.09353 62.092828 
L 249.499754 122.072728 
L 249.905979 111.936448 
L 252.74955 112.11644 
L 253.561998 112.296381 
L 253.968223 112.48192 
L 254.374447 112.853049 
L 254.780672 113.840877 
L 255.186896 118.611966 
L 255.59312 137.967314 
L 255.999345 112.206391 
L 256.811794 112.535377 
L 257.218018 112.971 
L 257.624242 114.225935 
L 258.030467 121.485648 
L 258.436691 114.616489 
L 258.842916 111.903903 
L 262.90516 112.063793 
L 264.123833 112.277348 
L 264.530057 112.442966 
L 264.936282 112.759175 
L 265.342506 113.530956 
L 265.748731 116.610436 
L 266.154955 142.020677 
L 266.561179 100.558736 
L 266.967404 112.692571 
L 267.373628 113.342685 
L 267.779853 115.646303 
L 268.186077 133.782229 
L 268.592301 84.265941 
L 268.998526 125.967204 
L 269.40475 108.932034 
L 269.810975 136.590641 
L 270.217199 120.961717 
L 270.623423 115.732006 
L 271.029648 133.214263 
L 271.435872 99.155036 
L 271.842097 131.198085 
L 272.248321 108.146634 
L 272.654545 137.168501 
L 273.06077 135.676601 
L 273.466994 109.573308 
L 273.873219 135.986826 
L 274.279443 111.257782 
L 274.685667 135.495114 
L 275.091892 109.010353 
L 275.498116 137.187746 
L 275.904341 116.113036 
L 276.310565 125.859389 
L 276.71679 109.831681 
L 277.123014 136.871766 
L 277.529238 112.817585 
L 277.935463 133.756971 
L 278.341687 104.80473 
L 278.747912 138.226178 
L 279.56036 113.665448 
L 279.966585 117.112162 
L 280.372809 141.067172 
L 281.185258 112.606577 
L 281.591482 113.105136 
L 281.997707 114.594174 
L 282.403931 123.654514 
L 282.810156 114.794258 
L 283.21638 115.610868 
L 283.622604 132.753567 
L 284.028829 92.746871 
L 284.435053 131.27299 
L 284.841278 106.036898 
L 285.247502 139.815246 
L 285.653726 140.833701 
L 286.059951 134.578298 
L 286.466175 100.76588 
L 286.8724 137.094563 
L 287.278624 113.112466 
L 287.684848 137.584818 
L 288.091073 112.677264 
L 288.497297 136.630227 
L 288.903522 109.295494 
L 289.309746 139.736664 
L 289.715971 122.657667 
L 290.122195 116.127189 
L 290.528419 136.151493 
L 290.934644 102.952483 
L 291.340868 138.049973 
L 291.747093 113.701323 
L 292.153317 135.46812 
L 292.559541 107.278778 
L 292.965766 140.979244 
L 293.37199 134.288046 
L 293.778215 113.985674 
L 294.184439 118.807258 
L 294.590663 143.277255 
L 294.996888 134.779252 
L 295.403112 95.50121 
L 295.809337 135.03104 
L 296.215561 106.778485 
L 296.621785 141.458723 
L 297.02801 136.048992 
L 297.434234 114.982907 
L 297.840459 126.299351 
L 298.246683 113.059347 
L 298.652907 129.540754 
L 299.059132 107.257196 
L 299.465356 140.395083 
L 299.871581 121.820132 
L 300.277805 118.365589 
L 300.684029 144.181002 
L 301.090254 145.028552 
L 301.496478 145.227286 
L 301.902703 137.870704 
L 302.308927 92.339674 
L 302.715152 131.347573 
L 303.121376 104.585535 
L 303.5276 140.241999 
L 303.933825 119.918211 
L 304.340049 121.681302 
L 304.746274 134.997899 
L 305.152498 115.172442 
L 305.558722 127.791138 
L 305.964947 110.737502 
L 306.371171 130.136283 
L 306.777396 108.024314 
L 307.18362 139.976514 
L 307.589844 118.212931 
L 307.996069 125.224191 
L 308.402293 121.169669 
L 308.808518 119.895885 
L 309.214742 143.27586 
L 309.620966 132.272325 
L 310.027191 103.323373 
L 310.433415 138.159529 
L 310.83964 111.793865 
L 311.245864 137.243035 
L 311.652088 111.200028 
L 312.058313 139.81902 
L 312.464537 118.634306 
L 312.870762 126.010262 
L 313.276986 120.74883 
L 313.68321 121.821396 
L 314.089435 138.107972 
L 314.495659 119.754625 
L 314.901884 145.099287 
L 315.308108 140.090903 
L 315.714333 107.518923 
L 316.120557 126.325713 
L 316.526781 120.310268 
L 316.933006 118.923305 
L 317.33923 146.194053 
L 317.745455 146.769876 
L 318.151679 147.00261 
L 318.557903 145.019506 
L 318.964128 124.128714 
L 319.370352 113.447355 
L 319.776577 115.731649 
L 320.182801 132.710781 
L 320.589025 98.560469 
L 320.99525 126.294186 
L 321.807699 116.966142 
L 322.213923 141.692652 
L 322.620147 116.389119 
L 323.026372 118.706164 
L 323.432596 146.859393 
L 323.838821 147.058802 
L 324.245045 145.678755 
L 325.057494 115.372632 
L 325.463718 129.097797 
L 325.869943 110.605939 
L 326.276167 116.344305 
L 326.682391 137.488316 
L 327.088616 103.540166 
L 327.49484 128.992188 
L 327.901065 116.717816 
L 328.307289 123.330127 
L 328.713514 137.443057 
L 329.119738 123.860802 
L 329.525962 135.887947 
L 329.932187 121.769814 
L 330.338411 143.418318 
L 330.744636 133.518646 
L 331.15086 106.180176 
L 331.557084 127.019423 
L 331.963309 124.982788 
L 332.369533 119.111366 
L 332.775758 147.230717 
L 333.588206 147.961335 
L 333.994431 147.686851 
L 334.400655 145.436551 
L 334.80688 127.384698 
L 335.213104 115.390253 
L 335.619328 128.779751 
L 336.025553 117.097974 
L 336.431777 115.21055 
L 336.838002 127.07426 
L 337.244226 125.610981 
L 337.65045 116.881629 
L 338.056675 141.06257 
L 338.462899 113.501676 
L 338.869124 118.191092 
L 339.275348 146.728785 
L 339.681572 143.07581 
L 340.087797 133.634925 
L 340.494021 108.281335 
L 340.900246 121.098346 
L 341.30647 146.709323 
L 341.712695 145.440781 
L 342.525143 123.944002 
L 342.931368 139.826259 
L 343.337592 128.759011 
L 344.150041 117.671873 
L 344.556265 145.171999 
L 345.368714 123.584498 
L 345.774939 141.753602 
L 346.181163 132.616766 
L 346.587387 112.86236 
L 346.993612 118.931817 
L 347.399836 148.121348 
L 347.806061 148.050561 
L 348.212285 147.830847 
L 348.618509 144.739164 
L 349.024734 137.099379 
L 349.430958 107.029443 
L 349.837183 118.584558 
L 350.243407 147.917953 
L 350.649631 146.568861 
L 351.055856 143.882579 
L 351.46208 124.65376 
L 351.868305 119.19876 
L 352.274529 149.049376 
L 353.086978 149.205989 
L 353.493202 148.213601 
L 353.899427 145.934378 
L 354.305651 128.470207 
L 354.711876 119.521447 
L 355.1181 149.979568 
L 355.930549 150.27601 
L 356.336773 150.013804 
L 356.742998 149.169689 
L 357.149222 142.456601 
L 357.555446 126.239643 
L 357.961671 133.767844 
L 358.367895 120.538254 
L 358.77412 150.294805 
L 359.180344 150.201209 
L 359.586568 148.926934 
L 359.992793 145.52013 
L 360.399017 121.266859 
L 360.805242 116.92872 
L 361.211466 140.740596 
L 361.61769 110.686079 
L 362.023915 116.73958 
L 362.430139 138.953855 
L 362.836364 113.640032 
L 363.242588 119.368244 
L 363.648812 149.110323 
L 364.055037 149.319274 
L 364.461261 149.661373 
L 364.867486 149.751057 
L 365.27371 149.957192 
L 366.086159 149.41149 
L 366.492383 146.167596 
L 366.898608 138.922521 
L 367.304832 109.081699 
L 367.711057 117.184458 
L 368.117281 141.931506 
L 368.523505 119.583379 
L 368.92973 121.3968 
L 369.335954 149.243744 
L 369.742179 149.708149 
L 370.148403 149.824983 
L 370.554627 150.126609 
L 370.960852 150.079558 
L 371.367076 150.215865 
L 372.179525 148.876874 
L 372.585749 142.224394 
L 372.991974 130.064161 
L 373.398198 125.244902 
L 373.804423 122.805849 
L 374.210647 148.079929 
L 374.616871 147.475696 
L 375.42932 129.859425 
L 375.835545 128.258966 
L 376.241769 127.31429 
L 376.647993 136.754429 
L 377.054218 133.262758 
L 377.460442 122.974482 
L 377.866667 127.959313 
L 378.272891 136.20683 
L 378.679115 137.397499 
L 379.08534 122.668009 
L 379.491564 130.757168 
L 379.897789 130.981839 
L 380.304013 138.144768 
L 380.710238 125.905012 
L 381.116462 135.78979 
L 381.522686 126.542585 
L 381.928911 137.509929 
L 382.335135 127.680494 
L 382.74136 139.284439 
L 383.147584 129.97718 
L 383.553808 141.424711 
L 383.960033 133.937007 
L 384.366257 143.501245 
L 384.772482 138.774231 
L 385.178706 144.40281 
L 385.58493 140.641254 
L 385.991155 144.557815 
L 386.397379 140.314856 
L 386.803604 144.046902 
L 387.209828 138.219387 
L 387.616052 143.181763 
L 388.022277 135.704814 
L 388.428501 142.855783 
L 388.834726 135.129576 
L 389.24095 143.102159 
L 389.647174 136.022399 
L 390.053399 143.492701 
L 390.459623 137.163658 
L 390.865848 143.763706 
L 391.272072 137.881562 
L 391.678296 143.898266 
L 392.084521 138.181244 
L 392.490745 143.950381 
L 392.89697 138.260257 
L 393.303194 143.977345 
L 393.709419 138.299417 
L 394.115643 144.018619 
L 394.521867 138.404275 
L 394.928092 144.085735 
L 395.334316 138.591729 
L 395.740541 144.171174 
L 396.146765 138.828529 
L 396.552989 144.263606 
L 396.959214 139.07793 
L 397.365438 144.355786 
L 397.771663 139.319678 
L 398.177887 144.445394 
L 398.584111 139.54927 
L 398.990336 144.533462 
L 399.39656 139.771462 
L 399.802785 144.622757 
L 400.209009 139.994785 
L 400.615233 144.716722 
L 401.021458 140.228376 
L 401.427682 144.819022 
L 401.833907 140.480891 
L 402.240131 144.933688 
L 402.646355 140.761161 
L 403.05258 145.065904 
L 403.458804 141.080498 
L 403.865029 145.223789 
L 404.271253 141.45745 
L 404.677477 145.42231 
L 405.083702 141.928009 
L 405.489926 145.69307 
L 405.896151 142.571042 
L 406.302375 146.112404 
L 406.7086 143.580302 
L 407.114824 146.890788 
L 407.521048 145.462667 
L 407.927273 148.570444 
L 408.333497 148.843606 
L 408.739722 150.401407 
L 410.364619 151.036648 
L 412.395741 151.562682 
L 414.426863 151.851255 
L 417.676658 152.038602 
L 419.301556 152.020144 
L 419.707781 151.906845 
L 420.114005 151.663585 
L 420.520229 150.691452 
L 420.926454 150.061119 
L 421.332678 145.166369 
L 421.738903 143.56616 
L 422.145127 126.476133 
L 422.551351 130.560991 
L 422.957576 136.367348 
L 423.3638 135.644233 
L 423.770025 128.997085 
L 424.176249 138.779449 
L 424.582473 129.505882 
L 424.988698 142.373542 
L 425.394922 134.068015 
L 425.801147 143.642397 
L 426.207371 137.47249 
L 426.613595 144.739404 
L 427.01982 140.531794 
L 427.426044 146.076717 
L 427.832269 143.988488 
L 428.238493 148.328207 
L 428.644717 148.642501 
L 429.050942 150.570648 
L 431.082064 151.272256 
L 433.113186 151.717037 
L 435.550532 151.995807 
L 439.206552 152.150803 
L 445.299918 152.173992 
L 446.112367 151.937836 
L 446.924816 151.002813 
L 447.33104 148.707807 
L 447.737265 149.498193 
L 448.143489 144.665623 
L 448.549713 145.9783 
L 448.955938 136.092728 
L 449.362162 137.259706 
L 449.768387 130.951552 
L 450.174611 138.794931 
L 450.580835 132.211481 
L 450.98706 141.984648 
L 451.393284 135.206511 
L 451.799509 144.065504 
L 452.205733 139.186511 
L 452.611957 145.983818 
L 453.018182 143.504778 
L 453.424406 148.766465 
L 453.830631 148.91151 
L 454.236855 151.103619 
L 456.267977 151.635713 
L 458.705324 152.004858 
L 461.955119 152.216763 
L 468.048485 152.31926 
L 469.673382 152.256968 
L 470.079607 152.199287 
L 470.892056 151.880777 
L 471.29828 151.252192 
L 471.704505 151.313374 
L 472.110729 149.926048 
L 472.516953 150.956593 
L 472.923178 149.23034 
L 473.329402 150.9579 
L 473.735627 149.420455 
L 474.141851 151.224633 
L 474.548075 150.13699 
L 474.9543 151.519059 
L 475.360524 150.807246 
L 475.766749 151.681568 
L 476.172973 151.144055 
L 476.579197 151.749483 
L 476.985422 151.270688 
L 477.391646 151.773541 
L 477.797871 151.305914 
L 478.204095 151.777747 
L 478.610319 151.302467 
L 479.016544 151.774253 
L 479.422768 151.286011 
L 479.828993 151.769728 
L 480.235217 151.270066 
L 480.641441 151.767487 
L 481.047666 151.260871 
L 481.45389 151.768611 
L 481.860115 151.259961 
L 482.266339 151.772882 
L 482.672563 151.266264 
L 483.078788 151.779522 
L 483.485012 151.277732 
L 483.891237 151.787678 
L 484.297461 151.292342 
L 484.703686 151.796658 
L 485.10991 151.308546 
L 485.516134 151.805994 
L 485.922359 151.325344 
L 486.328583 151.815414 
L 486.734808 151.342189 
L 487.141032 151.824791 
L 487.547256 151.358839 
L 487.953481 151.834081 
L 488.359705 151.375234 
L 488.76593 151.843289 
L 489.172154 151.391401 
L 489.578378 151.852438 
L 489.984603 151.407399 
L 490.390827 151.861552 
L 490.797052 151.423288 
L 491.203276 151.870655 
L 491.6095 151.439117 
L 492.015725 151.879763 
L 492.421949 151.45492 
L 492.828174 151.888888 
L 493.234398 151.470718 
L 493.640622 151.898035 
L 494.046847 151.486522 
L 494.453071 151.907208 
L 494.859296 151.502338 
L 495.26552 151.916409 
L 495.671744 151.518167 
L 496.077969 151.925638 
L 496.484193 151.534009 
L 496.890418 151.934895 
L 497.296642 151.549863 
L 497.702867 151.94418 
L 498.109091 151.565727 
L 498.109091 151.565727 
" style="fill:none;stroke:#4c72b0;stroke-linecap:round;stroke-width:1.5;"/>
   </g>
   <g id="line2d_14">
    <path clip-path="url(#p27dc4ef061)" d="M 92.290909 158.806907 
L 92.697133 118.419991 
L 93.103358 128.995353 
L 93.509582 126.848377 
L 93.915807 116.79399 
L 94.322031 114.692728 
L 94.728256 116.253763 
L 95.13448 120.333841 
L 95.540704 136.397254 
L 95.946929 141.449764 
L 96.353153 112.763592 
L 97.165602 113.044845 
L 97.978051 113.577329 
L 98.384275 114.066802 
L 98.7905 114.916417 
L 99.196724 116.662468 
L 99.602948 121.411554 
L 100.009173 140.886956 
L 100.415397 167.640625 
L 100.821622 161.763752 
L 101.227846 166.239832 
L 101.63407 160.709291 
L 102.040295 170.753778 
L 102.852744 173.447138 
L 105.696314 174.053072 
L 106.508763 174.371885 
L 106.914988 174.63161 
L 107.321212 175.057011 
L 107.727437 175.910714 
L 108.133661 178.357234 
L 108.539885 192.410638 
L 108.94611 161.932275 
L 109.352334 182.484404 
L 109.758559 218.943719 
L 110.164783 210.953838 
L 110.571007 175.784786 
L 110.977232 176.9412 
L 111.383456 180.344415 
L 111.789681 202.025841 
L 112.195905 166.157752 
L 112.602129 231.7623 
L 113.008354 214.615163 
L 113.414578 173.321027 
L 113.820803 210.016753 
L 114.227027 177.047106 
L 114.633251 179.661212 
L 115.039476 190.645676 
L 115.4457 233.063864 
L 115.851925 176.191634 
L 116.258149 199.698987 
L 116.664373 178.546906 
L 117.070598 208.089788 
L 117.476822 176.860194 
L 117.883047 180.977347 
L 118.289271 211.766629 
L 118.695495 176.03041 
L 119.10172 186.426866 
L 119.507944 227.100086 
L 120.320393 181.424913 
L 120.726618 210.823414 
L 121.132842 179.439298 
L 121.539066 193.610959 
L 121.945291 221.11032 
L 122.351515 199.998929 
L 122.75774 209.143818 
L 123.163964 195.317071 
L 123.570188 187.154733 
L 123.976413 230.528778 
L 124.382637 222.806903 
L 124.788862 185.602525 
L 125.195086 231.209969 
L 125.60131 221.417025 
L 126.007535 186.287329 
L 126.413759 232.009452 
L 126.819984 200.715349 
L 127.226208 233.338094 
L 127.632432 234.312041 
L 128.038657 236.493666 
L 128.444881 242.577166 
L 128.851106 188.232781 
L 129.25733 228.325227 
L 129.663554 205.129401 
L 130.069779 193.061641 
L 130.476003 227.276775 
L 130.882228 203.647929 
L 131.288452 231.740459 
L 131.694676 211.07608 
L 132.100901 234.608542 
L 132.507125 219.295176 
L 132.91335 189.753099 
L 133.319574 234.679071 
L 133.725799 235.149248 
L 134.132023 236.0054 
L 134.538247 239.854684 
L 134.944472 207.80352 
L 135.350696 195.910081 
L 135.756921 227.434424 
L 136.163145 208.98942 
L 136.569369 211.627978 
L 136.975594 222.170893 
L 137.381818 242.616144 
L 137.788043 213.547533 
L 138.194267 222.628025 
L 138.600491 211.041462 
L 139.006716 209.831951 
L 139.41294 202.545726 
L 139.819165 231.926168 
L 140.225389 234.783152 
L 140.631613 225.471576 
L 141.037838 202.253722 
L 141.444062 228.895272 
L 141.850287 222.627634 
L 142.256511 227.657291 
L 142.662735 212.327491 
L 143.06896 227.378399 
L 143.475184 221.130548 
L 143.881409 221.158064 
L 144.287633 215.250032 
L 144.693857 247.79037 
L 145.100082 224.775762 
L 145.506306 222.626626 
L 145.912531 216.288341 
L 146.318755 227.094799 
L 146.72498 226.847941 
L 147.131204 248.665958 
L 147.943653 227.571418 
L 148.349877 227.962155 
L 148.756102 241.736451 
L 149.162326 230.423102 
L 149.56855 230.968048 
L 149.974775 233.338092 
L 150.380999 236.927391 
L 150.787224 241.782032 
L 151.193448 258.018911 
L 151.599672 235.168338 
L 152.005897 237.750181 
L 152.412121 239.378669 
L 152.818346 245.355782 
L 153.22457 259.749936 
L 153.630794 247.442197 
L 154.037019 253.615947 
L 154.443243 237.95716 
L 154.849468 239.916413 
L 155.255692 247.848962 
L 155.661916 252.482655 
L 156.068141 237.528267 
L 156.474365 238.697603 
L 156.88059 242.368444 
L 157.286814 259.518815 
L 157.693038 234.033535 
L 158.099263 237.737145 
L 158.505487 239.191723 
L 158.911712 244.252529 
L 159.317936 262.720747 
L 160.130385 263.79939 
L 160.536609 264.178869 
L 160.942834 264.404259 
L 161.349058 262.9753 
L 161.755283 239.709726 
L 162.161507 236.583776 
L 162.973956 237.016715 
L 163.38018 237.477574 
L 163.786405 238.441197 
L 164.192629 241.187136 
L 164.598853 254.044483 
L 165.005078 232.221387 
L 165.411302 237.808415 
L 165.817527 239.227412 
L 166.223751 244.098459 
L 166.629975 264.092605 
L 167.0362 260.607639 
L 167.442424 241.084662 
L 167.848649 253.283949 
L 168.254873 235.971849 
L 168.661097 237.755818 
L 169.067322 239.029388 
L 169.473546 243.158015 
L 169.879771 262.323047 
L 170.285995 240.718219 
L 170.692219 237.96593 
L 171.098444 239.546348 
L 171.504668 245.238902 
L 171.910893 264.753631 
L 172.317117 262.919309 
L 172.723342 240.547877 
L 173.129566 237.854487 
L 173.53579 239.204782 
L 173.942015 243.693287 
L 174.348239 263.928508 
L 174.754464 248.114105 
L 175.160688 237.758285 
L 175.566912 238.9287 
L 175.973137 242.546074 
L 176.379361 260.006228 
L 176.785586 232.82596 
L 177.598034 247.643063 
L 178.004259 260.855533 
L 178.410483 242.593414 
L 178.816708 260.050945 
L 179.222932 234.130099 
L 179.629156 240.663294 
L 180.035381 250.148625 
L 180.441605 253.171114 
L 180.84783 239.28095 
L 181.254054 243.723807 
L 181.660278 263.905228 
L 182.066503 246.671902 
L 182.472727 238.793065 
L 182.878952 241.847455 
L 183.285176 256.190877 
L 183.6914 237.716572 
L 184.097625 240.932546 
L 184.503849 251.277199 
L 184.910074 251.060208 
L 185.316298 239.66063 
L 185.722523 245.13879 
L 186.128747 266.33444 
L 186.534971 265.831945 
L 186.941196 255.772241 
L 187.34742 238.032116 
L 187.753645 239.879522 
L 188.159869 246.031199 
L 188.566093 266.932453 
L 188.972318 265.277244 
L 189.378542 246.42362 
L 189.784767 238.597084 
L 190.190991 241.028702 
L 190.597215 251.622688 
L 191.00344 251.554837 
L 191.409664 238.834142 
L 191.815889 241.772076 
L 192.222113 255.470105 
L 192.628337 240.809964 
L 193.034562 240.021747 
L 193.440786 246.465837 
L 193.847011 267.410751 
L 194.253235 264.178192 
L 194.659459 240.641677 
L 195.065684 239.940267 
L 195.471908 246.027157 
L 195.878133 268.083508 
L 196.284357 268.312711 
L 196.690581 266.719049 
L 197.096806 251.625763 
L 197.50303 253.664637 
L 197.909255 238.60762 
L 198.315479 240.904649 
L 199.127928 258.026136 
L 199.534152 239.481617 
L 199.940377 243.961047 
L 200.346601 265.503553 
L 200.752826 240.97049 
L 201.15905 239.171791 
L 201.565274 242.728616 
L 201.971499 259.970182 
L 202.377723 236.617685 
L 202.783948 241.496028 
L 203.190172 253.375481 
L 203.596396 250.991759 
L 204.002621 240.215904 
L 204.408845 246.933563 
L 204.81507 268.801022 
L 205.221294 266.479238 
L 205.627518 247.593131 
L 206.033743 239.741422 
L 206.439967 244.804576 
L 206.846192 267.626131 
L 207.65864 239.826365 
L 208.064865 245.112147 
L 208.471089 268.450355 
L 208.877314 257.349332 
L 209.283538 240.285888 
L 209.689762 247.088139 
L 210.095987 269.940635 
L 210.502211 268.096021 
L 211.31466 239.232918 
L 211.720885 242.710031 
L 212.127109 259.442789 
L 212.533333 239.21614 
L 212.939558 240.922202 
L 213.345782 249.974765 
L 213.752007 264.921804 
L 214.158231 246.425306 
L 214.564455 270.422528 
L 214.97068 269.983203 
L 215.376904 264.148144 
L 215.783129 239.033117 
L 216.189353 240.827529 
L 216.595577 249.376851 
L 217.001802 267.367552 
L 217.408026 251.491295 
L 217.814251 261.69957 
L 218.220475 242.795777 
L 218.626699 259.509811 
L 219.032924 241.695471 
L 219.439148 241.222554 
L 220.251597 263.417347 
L 220.657821 245.119497 
L 221.064046 268.620367 
L 221.876495 241.00429 
L 222.282719 250.001608 
L 222.688943 267.249557 
L 223.095168 251.09207 
L 223.501392 264.636037 
L 223.907617 246.10308 
L 224.313841 270.793052 
L 224.720066 265.504224 
L 225.12629 246.857701 
L 225.532514 271.653306 
L 225.938739 271.10707 
L 226.344963 265.704059 
L 226.751188 242.281374 
L 227.157412 240.631485 
L 227.563636 248.016566 
L 227.969861 271.570527 
L 228.376085 269.729333 
L 229.188534 241.457423 
L 230.000983 263.954995 
L 230.407207 245.647874 
L 230.813432 270.118175 
L 231.219656 258.55419 
L 231.62588 242.380555 
L 232.032105 256.637428 
L 232.438329 251.865061 
L 232.844554 241.52135 
L 233.657002 264.690889 
L 234.063227 247.4895 
L 234.469451 272.239496 
L 234.875676 272.293103 
L 235.2819 271.939028 
L 235.688124 268.595899 
L 236.094349 253.537428 
L 236.500573 261.308813 
L 236.906798 244.155321 
L 237.313022 264.995983 
L 237.719247 244.915991 
L 238.125471 242.007972 
L 238.531695 254.322756 
L 238.93792 260.357866 
L 239.344144 245.003007 
L 239.750369 267.95472 
L 240.156593 251.799744 
L 240.562817 243.064133 
L 240.969042 259.54595 
L 241.375266 250.396698 
L 241.781491 243.759507 
L 242.187715 262.742265 
L 242.593939 248.557209 
L 243.000164 244.625187 
L 243.406388 266.208572 
L 243.812613 251.289748 
L 244.218837 245.238954 
L 244.625061 268.22038 
L 245.43751 246.062992 
L 245.843735 270.385954 
L 246.249959 262.390056 
L 246.656183 249.14186 
L 247.062408 272.399073 
L 247.468632 270.960902 
L 247.874857 263.448398 
L 248.281081 249.553335 
L 248.687305 272.363921 
L 249.09353 269.593469 
L 249.905979 246.081832 
L 250.312203 270.67005 
L 250.718428 261.606255 
L 251.124652 248.341905 
L 251.530876 273.237049 
L 252.343325 273.384658 
L 252.74955 273.364138 
L 253.155774 272.911703 
L 253.561998 270.068094 
L 253.968223 259.265787 
L 254.374447 254.093266 
L 254.780672 245.009868 
L 255.186896 267.408814 
L 255.59312 253.034862 
L 255.999345 245.652529 
L 256.405569 269.396996 
L 257.218018 247.645724 
L 257.624242 273.110745 
L 258.030467 271.53343 
L 258.436691 265.16398 
L 258.842916 252.243908 
L 259.24914 246.616001 
L 259.655364 271.624172 
L 260.061589 265.289578 
L 260.467813 253.720284 
L 260.874038 267.57088 
L 261.280262 256.953372 
L 261.686486 261.417678 
L 262.092711 250.962851 
L 262.498935 272.344725 
L 262.90516 268.379037 
L 263.311384 257.041276 
L 263.717609 249.158795 
L 264.123833 273.767221 
L 264.530057 273.783024 
L 264.936282 273.56876 
L 265.342506 272.405729 
L 265.748731 267.390632 
L 266.154955 256.816953 
L 266.561179 262.649847 
L 266.967404 252.305626 
L 267.373628 271.127239 
L 267.779853 264.538031 
L 268.186077 254.749909 
L 268.592301 249.346029 
L 268.998526 274.002797 
L 269.40475 274.022971 
L 269.810975 273.881426 
L 270.217199 273.115813 
L 270.623423 269.837788 
L 271.029648 261.585119 
L 271.435872 256.798373 
L 271.842097 250.319579 
L 272.248321 273.852468 
L 272.654545 272.907248 
L 273.06077 269.155634 
L 273.466994 260.960042 
L 273.873219 258.262105 
L 274.279443 251.736905 
L 274.685667 272.755394 
L 275.091892 269.423781 
L 275.904341 253.537355 
L 276.310565 270.513644 
L 277.529238 252.942196 
L 277.935463 271.603036 
L 278.341687 267.245317 
L 278.747912 259.00516 
L 279.154136 254.373061 
L 279.56036 269.792901 
L 280.372809 258.713623 
L 280.779034 255.096348 
L 281.185258 269.006451 
L 281.997707 259.467976 
L 282.403931 256.27735 
L 282.810156 267.586947 
L 283.21638 262.694967 
L 283.622604 260.549675 
L 284.028829 257.634846 
L 284.435053 266.043655 
L 284.841278 261.818983 
L 285.247502 261.681023 
L 285.653726 259.038363 
L 286.059951 264.671796 
L 286.466175 261.371616 
L 286.8724 262.543975 
L 287.278624 260.285644 
L 287.684848 263.761436 
L 288.091073 261.405101 
L 288.497297 262.999199 
L 288.903522 261.253818 
L 289.309746 263.34878 
L 289.715971 261.795736 
L 290.122195 263.167829 
L 290.528419 262.001445 
L 290.934644 263.250326 
L 291.340868 262.356867 
L 291.747093 263.248909 
L 292.153317 262.651647 
L 292.559541 263.299743 
L 292.965766 262.966269 
L 293.37199 263.354846 
L 293.778215 263.27228 
L 294.590663 263.57771 
L 294.996888 263.516328 
L 295.403112 263.879816 
L 295.809337 263.6185 
L 296.215561 264.178652 
L 296.621785 263.734129 
L 297.02801 264.473675 
L 297.434234 263.862408 
L 297.840459 264.764482 
L 298.246683 264.00242 
L 298.652907 265.050684 
L 299.059132 264.153193 
L 299.465356 265.331926 
L 299.871581 264.313709 
L 300.277805 265.607889 
L 300.684029 264.482927 
L 301.090254 265.878296 
L 301.496478 264.659795 
L 301.902703 266.142911 
L 302.308927 264.843268 
L 302.715152 266.401539 
L 303.121376 265.032326 
L 303.5276 266.654033 
L 303.933825 265.225983 
L 304.340049 266.900287 
L 304.746274 265.423302 
L 305.152498 267.14024 
L 305.558722 265.623404 
L 305.964947 267.373872 
L 306.371171 265.825476 
L 306.777396 267.601204 
L 307.18362 266.028774 
L 307.589844 267.822293 
L 307.996069 266.23263 
L 308.402293 268.037232 
L 308.808518 266.436454 
L 309.214742 268.24614 
L 309.620966 266.639725 
L 310.027191 268.449164 
L 310.433415 266.842 
L 310.83964 268.646474 
L 311.245864 267.042901 
L 311.652088 268.838253 
L 312.058313 267.242115 
L 312.464537 269.0247 
L 312.870762 267.439389 
L 313.276986 269.206022 
L 313.68321 267.634519 
L 314.089435 269.382431 
L 314.495659 267.827349 
L 314.901884 269.554141 
L 315.308108 268.017764 
L 315.714333 269.721363 
L 316.120557 268.20568 
L 316.526781 269.884306 
L 316.933006 268.391044 
L 317.33923 270.043175 
L 317.745455 268.573825 
L 318.151679 270.198163 
L 318.557903 268.75401 
L 318.964128 270.349457 
L 319.370352 268.931602 
L 319.776577 270.497236 
L 320.182801 269.106614 
L 320.589025 270.641665 
L 320.99525 269.279066 
L 321.401474 270.782901 
L 321.807699 269.448987 
L 322.213923 270.921091 
L 322.620147 269.616407 
L 323.026372 271.056369 
L 323.432596 269.781357 
L 323.838821 271.188862 
L 324.245045 269.943872 
L 324.651269 271.318685 
L 325.057494 270.103984 
L 325.463718 271.445945 
L 325.869943 270.261726 
L 326.276167 271.570739 
L 326.682391 270.417128 
L 327.088616 271.693158 
L 327.49484 270.570219 
L 327.901065 271.813284 
L 328.307289 270.721029 
L 328.713514 271.931193 
L 329.119738 270.869581 
L 329.525962 272.046954 
L 329.932187 271.0159 
L 330.338411 272.160631 
L 330.744636 271.16001 
L 331.15086 272.272284 
L 331.557084 271.30193 
L 331.963309 272.381965 
L 332.369533 271.441682 
L 332.775758 272.489727 
L 333.181982 271.579283 
L 333.588206 272.595616 
L 333.994431 271.714753 
L 334.400655 272.699676 
L 334.80688 271.848108 
L 335.213104 272.801947 
L 335.619328 271.979366 
L 336.025553 272.902471 
L 336.431777 272.108544 
L 336.838002 273.001282 
L 337.244226 272.235657 
L 337.65045 273.098417 
L 338.056675 272.360724 
L 338.462899 273.19391 
L 338.869124 272.483761 
L 339.275348 273.287793 
L 339.681572 272.604785 
L 340.087797 273.380098 
L 340.494021 272.723813 
L 340.900246 273.470855 
L 341.30647 272.840863 
L 341.712695 273.560095 
L 342.118919 272.955953 
L 342.525143 273.647847 
L 342.931368 273.069102 
L 343.337592 273.734138 
L 343.743817 273.180327 
L 344.150041 273.818998 
L 344.556265 273.289648 
L 344.96249 273.902452 
L 345.368714 273.397084 
L 345.774939 273.984528 
L 346.181163 273.502653 
L 346.587387 274.065251 
L 346.993612 273.606375 
L 347.399836 274.144647 
L 347.806061 273.708267 
L 348.212285 274.22274 
L 348.618509 273.80835 
L 349.024734 274.299553 
L 349.430958 273.90664 
L 349.837183 274.37511 
L 350.243407 274.003155 
L 350.649631 274.449431 
L 351.055856 274.097911 
L 351.46208 274.522538 
L 351.868305 274.190926 
L 352.274529 274.594449 
L 352.680753 274.282212 
L 353.086978 274.665183 
L 353.493202 274.371784 
L 353.899427 274.734755 
L 354.305651 274.459654 
L 354.711876 274.803181 
L 355.1181 274.545832 
L 355.524324 274.870474 
L 355.930549 274.630327 
L 356.336773 274.936643 
L 356.742998 274.713144 
L 357.149222 275.001698 
L 357.555446 274.794289 
L 357.961671 275.065645 
L 358.367895 274.873763 
L 358.77412 275.128488 
L 359.180344 274.951564 
L 359.586568 275.190227 
L 359.992793 275.02769 
L 360.399017 275.25086 
L 360.805242 275.102132 
L 361.211466 275.310381 
L 361.61769 275.17488 
L 362.023915 275.368782 
L 362.430139 275.24592 
L 362.836364 275.426049 
L 363.242588 275.315234 
L 363.648812 275.482165 
L 364.055037 275.382799 
L 364.461261 275.537108 
L 364.867486 275.44859 
L 365.27371 275.590852 
L 365.679934 275.512575 
L 366.086159 275.643366 
L 366.492383 275.574721 
L 366.898608 275.694614 
L 367.304832 275.634986 
L 367.711057 275.744556 
L 368.117281 275.693329 
L 368.523505 275.793144 
L 368.92973 275.749702 
L 369.335954 275.84033 
L 369.742179 275.804054 
L 370.554627 275.856331 
L 371.773301 275.972888 
L 372.991974 276.000164 
L 374.210647 276.090618 
L 376.241769 276.159682 
L 379.08534 276.275167 
L 411.177068 276.595476 
L 498.109091 277.02 
L 498.109091 277.02 
" style="fill:none;stroke:#dd8452;stroke-linecap:round;stroke-width:1.5;"/>
   </g>
   <g id="line2d_15">
    <path clip-path="url(#p27dc4ef061)" d="M 92.290909 158.806907 
L 92.697133 146.257589 
L 93.103358 174.616956 
L 93.509582 186.932887 
L 93.915807 194.204664 
L 94.322031 169.576083 
L 94.728256 202.977013 
L 95.13448 192.291856 
L 95.540704 178.395311 
L 95.946929 204.200147 
L 96.353153 201.159762 
L 96.759378 183.707079 
L 97.165602 224.313172 
L 97.571826 205.662761 
L 97.978051 195.812813 
L 98.384275 234.274973 
L 98.7905 228.690469 
L 99.196724 209.953713 
L 99.602948 212.79623 
L 100.009173 209.253367 
L 100.415397 212.949561 
L 100.821622 231.16129 
L 101.227846 208.916826 
L 101.63407 227.247116 
L 102.040295 214.157425 
L 102.446519 229.496423 
L 102.852744 206.79589 
L 103.258968 230.202488 
L 103.665192 216.488794 
L 104.071417 225.069913 
L 104.477641 220.157561 
L 104.883866 228.828385 
L 105.29009 216.146408 
L 105.696314 220.230176 
L 106.102539 222.488329 
L 106.508763 230.146499 
L 106.914988 213.757802 
L 107.321212 233.985141 
L 107.727437 225.74121 
L 108.133661 231.052654 
L 108.539885 218.050797 
L 108.94611 232.825076 
L 109.352334 223.820306 
L 109.758559 228.004926 
L 110.164783 216.36703 
L 110.571007 233.652801 
L 111.383456 223.613133 
L 111.789681 233.235618 
L 112.195905 234.866945 
L 113.008354 224.290066 
L 113.414578 235.716096 
L 113.820803 238.046103 
L 114.227027 236.369158 
L 114.633251 236.973236 
L 115.4457 224.930893 
L 115.851925 237.994498 
L 116.258149 237.438197 
L 116.664373 228.363022 
L 117.070598 241.382695 
L 117.476822 237.229625 
L 117.883047 235.199315 
L 118.289271 225.772271 
L 118.695495 241.793319 
L 119.10172 236.516573 
L 119.507944 229.711339 
L 119.914169 243.753633 
L 120.320393 242.500928 
L 120.726618 233.77817 
L 121.132842 247.192591 
L 121.945291 241.28251 
L 122.351515 232.384358 
L 122.75774 248.704702 
L 123.163964 244.894652 
L 123.570188 237.398204 
L 123.976413 251.72843 
L 124.382637 252.869893 
L 125.195086 253.134442 
L 125.60131 250.413172 
L 126.007535 242.777484 
L 126.413759 255.074693 
L 126.819984 252.628043 
L 127.226208 248.488718 
L 127.632432 240.339938 
L 128.038657 256.061244 
L 128.444881 252.045755 
L 128.851106 243.299651 
L 129.25733 259.209858 
L 129.663554 258.774637 
L 130.069779 255.940259 
L 130.476003 251.411033 
L 130.882228 242.824773 
L 131.288452 258.78158 
L 131.694676 255.126013 
L 132.100901 246.360725 
L 132.507125 260.489257 
L 132.91335 259.725452 
L 133.319574 256.824537 
L 133.725799 248.648234 
L 134.132023 259.164281 
L 134.538247 253.78829 
L 134.944472 253.382242 
L 135.350696 244.538352 
L 135.756921 260.954827 
L 136.163145 259.476444 
L 136.569369 253.939422 
L 136.975594 253.99505 
L 137.381818 245.177271 
L 137.788043 261.628173 
L 138.194267 260.870764 
L 139.006716 253.26309 
L 139.41294 244.784761 
L 139.819165 261.547694 
L 140.225389 259.549998 
L 140.631613 253.009411 
L 141.037838 256.490246 
L 141.444062 247.811203 
L 141.850287 262.38593 
L 142.256511 261.454286 
L 142.662735 258.394879 
L 143.06896 250.357618 
L 143.475184 260.630615 
L 143.881409 254.903622 
L 144.287633 255.653223 
L 144.693857 247.072735 
L 145.100082 263.285066 
L 147.537428 263.710096 
L 147.943653 263.638315 
L 148.349877 263.137327 
L 148.756102 260.910573 
L 149.162326 256.474825 
L 149.56855 247.840672 
L 149.974775 264.138493 
L 150.380999 264.167747 
L 150.787224 264.074824 
L 151.193448 263.475316 
L 151.599672 261.379182 
L 152.005897 254.996177 
L 152.412121 258.121545 
L 152.818346 249.798466 
L 153.22457 263.955136 
L 153.630794 262.045466 
L 154.037019 258.067124 
L 154.443243 249.913026 
L 154.849468 264.24213 
L 155.255692 262.520679 
L 155.661916 258.782575 
L 156.068141 250.872102 
L 156.474365 263.871488 
L 157.286814 257.172645 
L 157.693038 249.50341 
L 158.099263 265.113078 
L 158.505487 264.571915 
L 158.911712 262.839932 
L 159.317936 257.661609 
L 159.724161 258.052073 
L 160.130385 250.574401 
L 160.536609 264.998094 
L 160.942834 263.408979 
L 161.349058 260.117216 
L 161.755283 252.979619 
L 162.161507 263.246431 
L 162.567731 258.354109 
L 162.973956 258.510311 
L 163.38018 251.457768 
L 163.786405 265.027908 
L 164.192629 262.764715 
L 164.598853 259.433583 
L 165.005078 252.558388 
L 165.411302 264.443952 
L 165.817527 260.918923 
L 166.223751 258.677778 
L 166.629975 252.073685 
L 167.0362 265.212011 
L 167.848649 259.709303 
L 168.254873 253.254841 
L 168.661097 264.528448 
L 169.067322 260.828944 
L 169.473546 259.28282 
L 169.879771 253.087612 
L 170.285995 265.031548 
L 170.692219 261.888489 
L 171.098444 259.716459 
L 171.504668 253.71909 
L 171.910893 264.811487 
L 172.317117 261.273438 
L 172.723342 259.901768 
L 173.129566 254.130621 
L 173.53579 264.784454 
L 173.942015 261.151843 
L 174.348239 260.207432 
L 174.754464 254.655249 
L 175.160688 264.653135 
L 175.566912 260.858687 
L 175.973137 260.554326 
L 176.379361 255.222183 
L 176.785586 264.485555 
L 177.19181 260.55339 
L 177.598034 260.947482 
L 178.004259 255.83789 
L 178.410483 264.281749 
L 178.816708 260.243911 
L 179.222932 261.379768 
L 179.629156 256.497932 
L 180.035381 264.054212 
L 180.441605 259.95659 
L 180.84783 261.833098 
L 181.254054 257.186157 
L 181.660278 263.82722 
L 182.066503 259.727556 
L 182.472727 262.278024 
L 182.878952 257.871739 
L 183.285176 263.634967 
L 183.6914 259.595303 
L 184.097625 262.679987 
L 184.503849 258.514076 
L 184.910074 263.510849 
L 185.316298 259.586488 
L 185.722523 263.012866 
L 186.128747 259.079044 
L 186.534971 263.4716 
L 186.941196 259.702632 
L 187.34742 263.271491 
L 187.753645 259.55695 
L 188.159869 263.509889 
L 188.566093 259.919768 
L 188.972318 263.471619 
L 189.378542 259.964728 
L 189.784767 263.60288 
L 190.190991 260.202445 
L 190.597215 263.637563 
L 191.00344 260.330629 
L 191.409664 263.727144 
L 191.815889 260.519741 
L 192.222113 263.78959 
L 192.628337 260.678072 
L 193.034562 263.867233 
L 193.440786 260.852457 
L 193.847011 263.939464 
L 194.253235 261.020164 
L 194.659459 264.015886 
L 195.065684 261.1916 
L 195.471908 264.09238 
L 195.878133 261.362231 
L 196.284357 264.170705 
L 196.690581 261.533879 
L 197.096806 264.250248 
L 197.50303 261.705815 
L 197.909255 264.33129 
L 198.315479 261.878268 
L 198.721704 264.413794 
L 199.127928 262.051125 
L 199.534152 264.497821 
L 199.940377 262.224384 
L 200.346601 264.583402 
L 200.752826 262.398007 
L 201.15905 264.670571 
L 201.565274 262.571963 
L 201.971499 264.759358 
L 202.377723 262.746216 
L 202.783948 264.849789 
L 203.190172 262.920731 
L 203.596396 264.941887 
L 204.002621 263.09547 
L 204.408845 265.03567 
L 204.81507 263.270394 
L 205.221294 265.131155 
L 205.627518 263.445462 
L 206.033743 265.228353 
L 206.439967 263.620632 
L 206.846192 265.32727 
L 207.252416 263.795861 
L 207.65864 265.427911 
L 208.064865 263.971105 
L 208.471089 265.530273 
L 208.877314 264.146318 
L 209.283538 265.634351 
L 209.689762 264.321454 
L 210.095987 265.740135 
L 210.502211 264.496465 
L 210.908436 265.847611 
L 211.31466 264.671304 
L 211.720885 265.956759 
L 212.127109 264.84592 
L 212.533333 266.067557 
L 212.939558 265.020264 
L 213.345782 266.179977 
L 213.752007 265.194286 
L 214.158231 266.293986 
L 214.564455 265.367935 
L 214.97068 266.409547 
L 215.376904 265.541158 
L 215.783129 266.52662 
L 216.189353 265.713904 
L 216.595577 266.645158 
L 217.001802 265.88612 
L 217.408026 266.765112 
L 217.814251 266.057753 
L 218.220475 266.886428 
L 218.626699 266.228749 
L 219.032924 267.009048 
L 219.439148 266.399055 
L 219.845373 267.132909 
L 220.251597 266.568617 
L 220.657821 267.257944 
L 221.064046 266.737378 
L 221.47027 267.384084 
L 221.876495 266.905285 
L 222.282719 267.511254 
L 222.688943 267.072282 
L 223.095168 267.639376 
L 223.501392 267.238311 
L 223.907617 267.768367 
L 224.313841 267.403317 
L 224.720066 267.898143 
L 225.12629 267.567241 
L 225.532514 268.028614 
L 225.938739 267.730025 
L 226.344963 268.159685 
L 226.751188 267.891608 
L 227.157412 268.291261 
L 227.563636 268.05193 
L 227.969861 268.42324 
L 228.376085 268.210927 
L 228.78231 268.555516 
L 229.188534 268.368534 
L 229.594758 268.687981 
L 230.000983 268.524685 
L 230.407207 268.820519 
L 230.813432 268.679307 
L 231.219656 268.953012 
L 231.62588 268.832329 
L 232.032105 269.085337 
L 232.438329 268.983671 
L 232.844554 269.217362 
L 233.250778 269.133253 
L 233.657002 269.348952 
L 234.063227 269.280986 
L 234.469451 269.479965 
L 234.875676 269.426777 
L 235.2819 269.610249 
L 235.688124 269.570524 
L 236.094349 269.739645 
L 236.500573 269.712119 
L 236.906798 269.867987 
L 237.313022 269.851444 
L 237.719247 269.995094 
L 238.125471 269.988369 
L 238.531695 270.120777 
L 238.93792 270.122756 
L 239.750369 270.254452 
L 240.969042 270.487204 
L 242.187715 270.631671 
L 243.406388 270.832739 
L 245.43751 271.085315 
L 248.281081 271.431378 
L 255.59312 272.006104 
L 263.311384 272.286833 
L 290.528419 272.939119 
L 327.901065 273.615563 
L 375.42932 274.242878 
L 436.362981 274.813304 
L 498.109091 275.226701 
L 498.109091 275.226701 
" style="fill:none;stroke:#55a868;stroke-linecap:round;stroke-width:1.5;"/>
   </g>
   <g id="line2d_16">
    <path clip-path="url(#p27dc4ef061)" d="M 92.290909 158.806907 
L 93.103358 186.289648 
L 93.915807 196.631265 
L 94.728256 204.550691 
L 95.540704 210.776991 
L 96.353153 215.696108 
L 97.165602 219.630705 
L 98.384275 224.213491 
L 99.602948 227.720775 
L 100.821622 230.507535 
L 102.040295 232.801486 
L 103.665192 235.310368 
L 105.29009 237.364325 
L 106.914988 239.087889 
L 108.94611 240.90932 
L 111.383456 242.751314 
L 114.227027 244.568112 
L 117.476822 246.332731 
L 121.132842 248.030566 
L 125.195086 249.654321 
L 129.663554 251.200661 
L 134.944472 252.782098 
L 140.631613 254.255915 
L 147.131204 255.714932 
L 154.443243 257.132143 
L 162.973956 258.551642 
L 172.317117 259.880705 
L 183.285176 261.206926 
L 195.471908 262.450517 
L 209.283538 263.634218 
L 225.12629 264.765587 
L 243.406388 265.842904 
L 264.530057 266.859762 
L 289.309746 267.822684 
L 318.557903 268.727651 
L 353.086978 269.566417 
L 394.521867 270.344226 
L 444.893694 271.060825 
L 498.109091 271.633098 
L 498.109091 271.633098 
" style="fill:none;stroke:#c44e52;stroke-linecap:round;stroke-width:1.5;"/>
   </g>
   <g id="line2d_17">
    <path clip-path="url(#p27dc4ef061)" d="M 92.290909 158.806907 
L 92.697133 170.786391 
L 93.103358 175.859611 
L 93.509582 178.476201 
L 94.322031 181.620191 
L 95.946929 186.238979 
L 97.978051 191.338622 
L 100.009173 195.927329 
L 102.040295 200.031903 
L 104.071417 203.688152 
L 106.102539 206.93969 
L 108.133661 209.832135 
L 110.571007 212.89081 
L 113.008354 215.564773 
L 115.4457 217.914127 
L 118.289271 220.31226 
L 121.132842 222.404228 
L 124.382637 224.488409 
L 127.632432 226.305619 
L 131.288452 228.091716 
L 135.350696 229.81805 
L 139.819165 231.466918 
L 144.693857 233.02928 
L 150.380999 234.607697 
L 156.88059 236.161821 
L 164.192629 237.666083 
L 172.317117 239.106227 
L 181.660278 240.533606 
L 192.628337 241.972992 
L 205.221294 243.388875 
L 219.439148 244.758802 
L 236.094349 246.131497 
L 255.186896 247.472763 
L 277.123014 248.782473 
L 302.308927 250.055239 
L 331.15086 251.28269 
L 364.055037 252.455214 
L 401.833907 253.574222 
L 445.299918 254.634312 
L 495.671744 255.633941 
L 498.109091 255.677187 
L 498.109091 255.677187 
" style="fill:none;stroke:#8172b3;stroke-linecap:round;stroke-width:1.5;"/>
   </g>
   <g id="patch_3">
    <path d="M 72 288.36 
L 72 38.88 
" style="fill:none;stroke:#ffffff;stroke-linecap:square;stroke-linejoin:miter;stroke-width:1.25;"/>
   </g>
   <g id="patch_4">
    <path d="M 518.4 288.36 
L 518.4 38.88 
" style="fill:none;stroke:#ffffff;stroke-linecap:square;stroke-linejoin:miter;stroke-width:1.25;"/>
   </g>
   <g id="patch_5">
    <path d="M 72 288.36 
L 518.4 288.36 
" style="fill:none;stroke:#ffffff;stroke-linecap:square;stroke-linejoin:miter;stroke-width:1.25;"/>
   </g>
   <g id="patch_6">
    <path d="M 72 38.88 
L 518.4 38.88 
" style="fill:none;stroke:#ffffff;stroke-linecap:square;stroke-linejoin:miter;stroke-width:1.25;"/>
   </g>
   <g id="legend_1">
    <g id="patch_7">
     <path d="M 414.644219 125.6425 
L 510.7 125.6425 
Q 512.9 125.6425 512.9 123.4425 
L 512.9 46.58 
Q 512.9 44.38 510.7 44.38 
L 414.644219 44.38 
Q 412.444219 44.38 412.444219 46.58 
L 412.444219 123.4425 
Q 412.444219 125.6425 414.644219 125.6425 
z
" style="fill:#eaeaf2;opacity:0.8;stroke:#cccccc;stroke-linejoin:miter;"/>
    </g>
    <g id="line2d_18">
     <path d="M 416.844219 52.83625 
L 438.844219 52.83625 
" style="fill:none;stroke:#4c72b0;stroke-linecap:round;stroke-width:1.5;"/>
    </g>
    <g id="line2d_19"/>
    <g id="text_15">
     <!-- alpha = 0.5 -->
     <g style="fill:#262626;" transform="translate(447.644219 56.68625)scale(0.11 -0.11)">
      <defs>
       <path d="M 6.390625 0 
L 6.390625 71.578125 
L 15.1875 71.578125 
L 15.1875 0 
z
" id="ArialMT-108"/>
       <path d="M 6.59375 -19.875 
L 6.59375 51.859375 
L 14.59375 51.859375 
L 14.59375 45.125 
Q 17.4375 49.078125 21 51.046875 
Q 24.5625 53.03125 29.640625 53.03125 
Q 36.28125 53.03125 41.359375 49.609375 
Q 46.4375 46.1875 49.015625 39.953125 
Q 51.609375 33.734375 51.609375 26.3125 
Q 51.609375 18.359375 48.75 11.984375 
Q 45.90625 5.609375 40.453125 2.21875 
Q 35.015625 -1.171875 29 -1.171875 
Q 24.609375 -1.171875 21.109375 0.6875 
Q 17.625 2.546875 15.375 5.375 
L 15.375 -19.875 
z
M 14.546875 25.640625 
Q 14.546875 15.625 18.59375 10.84375 
Q 22.65625 6.0625 28.421875 6.0625 
Q 34.28125 6.0625 38.453125 11.015625 
Q 42.625 15.96875 42.625 26.375 
Q 42.625 36.28125 38.546875 41.203125 
Q 34.46875 46.140625 28.8125 46.140625 
Q 23.1875 46.140625 18.859375 40.890625 
Q 14.546875 35.640625 14.546875 25.640625 
z
" id="ArialMT-112"/>
       <path d="M 6.59375 0 
L 6.59375 71.578125 
L 15.375 71.578125 
L 15.375 45.90625 
Q 21.53125 53.03125 30.90625 53.03125 
Q 36.671875 53.03125 40.921875 50.75 
Q 45.171875 48.484375 47 44.484375 
Q 48.828125 40.484375 48.828125 32.859375 
L 48.828125 0 
L 40.046875 0 
L 40.046875 32.859375 
Q 40.046875 39.453125 37.1875 42.453125 
Q 34.328125 45.453125 29.109375 45.453125 
Q 25.203125 45.453125 21.75 43.421875 
Q 18.3125 41.40625 16.84375 37.9375 
Q 15.375 34.46875 15.375 28.375 
L 15.375 0 
z
" id="ArialMT-104"/>
       <path id="ArialMT-32"/>
       <path d="M 52.828125 42.09375 
L 5.5625 42.09375 
L 5.5625 50.296875 
L 52.828125 50.296875 
z
M 52.828125 20.359375 
L 5.5625 20.359375 
L 5.5625 28.5625 
L 52.828125 28.5625 
z
" id="ArialMT-61"/>
       <path d="M 9.078125 0 
L 9.078125 10.015625 
L 19.09375 10.015625 
L 19.09375 0 
z
" id="ArialMT-46"/>
      </defs>
      <use xlink:href="#ArialMT-97"/>
      <use x="55.615234" xlink:href="#ArialMT-108"/>
      <use x="77.832031" xlink:href="#ArialMT-112"/>
      <use x="133.447266" xlink:href="#ArialMT-104"/>
      <use x="189.0625" xlink:href="#ArialMT-97"/>
      <use x="244.677734" xlink:href="#ArialMT-32"/>
      <use x="272.460938" xlink:href="#ArialMT-61"/>
      <use x="330.859375" xlink:href="#ArialMT-32"/>
      <use x="358.642578" xlink:href="#ArialMT-48"/>
      <use x="414.257812" xlink:href="#ArialMT-46"/>
      <use x="442.041016" xlink:href="#ArialMT-53"/>
     </g>
    </g>
    <g id="line2d_20">
     <path d="M 416.844219 68.42875 
L 438.844219 68.42875 
" style="fill:none;stroke:#dd8452;stroke-linecap:round;stroke-width:1.5;"/>
    </g>
    <g id="line2d_21"/>
    <g id="text_16">
     <!-- alpha = 0.2 -->
     <g style="fill:#262626;" transform="translate(447.644219 72.27875)scale(0.11 -0.11)">
      <use xlink:href="#ArialMT-97"/>
      <use x="55.615234" xlink:href="#ArialMT-108"/>
      <use x="77.832031" xlink:href="#ArialMT-112"/>
      <use x="133.447266" xlink:href="#ArialMT-104"/>
      <use x="189.0625" xlink:href="#ArialMT-97"/>
      <use x="244.677734" xlink:href="#ArialMT-32"/>
      <use x="272.460938" xlink:href="#ArialMT-61"/>
      <use x="330.859375" xlink:href="#ArialMT-32"/>
      <use x="358.642578" xlink:href="#ArialMT-48"/>
      <use x="414.257812" xlink:href="#ArialMT-46"/>
      <use x="442.041016" xlink:href="#ArialMT-50"/>
     </g>
    </g>
    <g id="line2d_22">
     <path d="M 416.844219 84.02125 
L 438.844219 84.02125 
" style="fill:none;stroke:#55a868;stroke-linecap:round;stroke-width:1.5;"/>
    </g>
    <g id="line2d_23"/>
    <g id="text_17">
     <!-- alpha = 0.1 -->
     <g style="fill:#262626;" transform="translate(447.644219 87.87125)scale(0.11 -0.11)">
      <use xlink:href="#ArialMT-97"/>
      <use x="55.615234" xlink:href="#ArialMT-108"/>
      <use x="77.832031" xlink:href="#ArialMT-112"/>
      <use x="133.447266" xlink:href="#ArialMT-104"/>
      <use x="189.0625" xlink:href="#ArialMT-97"/>
      <use x="244.677734" xlink:href="#ArialMT-32"/>
      <use x="272.460938" xlink:href="#ArialMT-61"/>
      <use x="330.859375" xlink:href="#ArialMT-32"/>
      <use x="358.642578" xlink:href="#ArialMT-48"/>
      <use x="414.257812" xlink:href="#ArialMT-46"/>
      <use x="442.041016" xlink:href="#ArialMT-49"/>
     </g>
    </g>
    <g id="line2d_24">
     <path d="M 416.844219 99.61375 
L 438.844219 99.61375 
" style="fill:none;stroke:#c44e52;stroke-linecap:round;stroke-width:1.5;"/>
    </g>
    <g id="line2d_25"/>
    <g id="text_18">
     <!-- alpha = 0.05 -->
     <g style="fill:#262626;" transform="translate(447.644219 103.46375)scale(0.11 -0.11)">
      <use xlink:href="#ArialMT-97"/>
      <use x="55.615234" xlink:href="#ArialMT-108"/>
      <use x="77.832031" xlink:href="#ArialMT-112"/>
      <use x="133.447266" xlink:href="#ArialMT-104"/>
      <use x="189.0625" xlink:href="#ArialMT-97"/>
      <use x="244.677734" xlink:href="#ArialMT-32"/>
      <use x="272.460938" xlink:href="#ArialMT-61"/>
      <use x="330.859375" xlink:href="#ArialMT-32"/>
      <use x="358.642578" xlink:href="#ArialMT-48"/>
      <use x="414.257812" xlink:href="#ArialMT-46"/>
      <use x="442.041016" xlink:href="#ArialMT-48"/>
      <use x="497.65625" xlink:href="#ArialMT-53"/>
     </g>
    </g>
    <g id="line2d_26">
     <path d="M 416.844219 115.20625 
L 438.844219 115.20625 
" style="fill:none;stroke:#8172b3;stroke-linecap:round;stroke-width:1.5;"/>
    </g>
    <g id="line2d_27"/>
    <g id="text_19">
     <!-- alpha = 0.01 -->
     <g style="fill:#262626;" transform="translate(447.644219 119.05625)scale(0.11 -0.11)">
      <use xlink:href="#ArialMT-97"/>
      <use x="55.615234" xlink:href="#ArialMT-108"/>
      <use x="77.832031" xlink:href="#ArialMT-112"/>
      <use x="133.447266" xlink:href="#ArialMT-104"/>
      <use x="189.0625" xlink:href="#ArialMT-97"/>
      <use x="244.677734" xlink:href="#ArialMT-32"/>
      <use x="272.460938" xlink:href="#ArialMT-61"/>
      <use x="330.859375" xlink:href="#ArialMT-32"/>
      <use x="358.642578" xlink:href="#ArialMT-48"/>
      <use x="414.257812" xlink:href="#ArialMT-46"/>
      <use x="442.041016" xlink:href="#ArialMT-48"/>
      <use x="497.65625" xlink:href="#ArialMT-49"/>
     </g>
    </g>
   </g>
  </g>
 </g>
 <defs>
  <clipPath id="p27dc4ef061">
   <rect height="249.48" width="446.4" x="72" y="38.88"/>
  </clipPath>
 </defs>
</svg>
