<svg id="Layer_1" data-name="Layer 1" xmlns="http://www.w3.org/2000/svg" viewBox="0 0 600 412"><path d="M110.5,60.5h23.63" style="fill:none;stroke:#3d3f42;stroke-miterlimit:10"/><path d="M139.38,60.5l-7,3.5,1.75-3.5L132.38,57Z" style="fill:#3d3f42;stroke:#3d3f42;stroke-miterlimit:10"/><rect x="10.5" y="40.5" width="100" height="40" rx="7" style="fill:#526375"/><g style="isolation:isolate"><path d="M22.77,64V55.41h1.14V63h4.23v1Z" style="fill:#fff"/><path d="M29,60.89a3.2,3.2,0,0,1,1-2.56,2.89,2.89,0,0,1,1.95-.69,2.79,2.79,0,0,1,2.1.84,3.16,3.16,0,0,1,.82,2.32,4.13,4.13,0,0,1-.36,1.89,2.52,2.52,0,0,1-1,1.07,3.11,3.11,0,0,1-1.51.38,2.79,2.79,0,0,1-2.11-.84A3.37,3.37,0,0,1,29,60.89Zm1.08,0a2.64,2.64,0,0,0,.52,1.79,1.66,1.66,0,0,0,1.31.59,1.68,1.68,0,0,0,1.31-.59,2.72,2.72,0,0,0,.52-1.83,2.58,2.58,0,0,0-.52-1.75,1.75,1.75,0,0,0-2.62,0A2.64,2.64,0,0,0,30.05,60.89Z" style="fill:#fff"/><path d="M40.09,63.23a4.07,4.07,0,0,1-1.12.71,3.46,3.46,0,0,1-1.17.2,2.26,2.26,0,0,1-1.57-.5,1.64,1.64,0,0,1-.55-1.28,1.83,1.83,0,0,1,.2-.84,1.67,1.67,0,0,1,.55-.6,2.65,2.65,0,0,1,.76-.35,8.12,8.12,0,0,1,.93-.16A9.73,9.73,0,0,0,40,60.05v-.27a1.16,1.16,0,0,0-.3-.91,1.76,1.76,0,0,0-1.2-.36,1.92,1.92,0,0,0-1.1.26,1.59,1.59,0,0,0-.52.92l-1-.14a2.57,2.57,0,0,1,.46-1.07,2,2,0,0,1,.93-.62,4.09,4.09,0,0,1,1.41-.22,3.87,3.87,0,0,1,1.3.18,1.72,1.72,0,0,1,.73.48A1.56,1.56,0,0,1,41,59a6.84,6.84,0,0,1,0,1v1.4a13.75,13.75,0,0,0,.07,1.86,2.12,2.12,0,0,0,.27.75H40.3A2.41,2.41,0,0,1,40.09,63.23ZM40,60.88a8.26,8.26,0,0,1-1.73.4,3.82,3.82,0,0,0-.92.21.82.82,0,0,0-.41.34.92.92,0,0,0,.17,1.2,1.34,1.34,0,0,0,.93.28,2.17,2.17,0,0,0,1.09-.26,1.64,1.64,0,0,0,.7-.73A2.62,2.62,0,0,0,40,61.26Z" style="fill:#fff"/><path d="M46.74,64v-.79a1.92,1.92,0,0,1-1.74.93,2.44,2.44,0,0,1-1.36-.41,2.62,2.62,0,0,1-1-1.15,3.92,3.92,0,0,1-.34-1.69,4.39,4.39,0,0,1,.31-1.69A2.39,2.39,0,0,1,43.57,58a2.48,2.48,0,0,1,1.39-.4,2.17,2.17,0,0,1,1,.23,2.14,2.14,0,0,1,.71.62V55.41h1V64Zm-3.33-3.11a2.73,2.73,0,0,0,.5,1.79,1.51,1.51,0,0,0,2.37,0A2.63,2.63,0,0,0,46.76,61a2.91,2.91,0,0,0-.49-1.87,1.51,1.51,0,0,0-1.21-.6,1.48,1.48,0,0,0-1.18.57A2.88,2.88,0,0,0,43.41,60.89Z" style="fill:#fff"/><path d="M56.78,61.72l1,.14a2.64,2.64,0,0,1-.87,1.67,2.5,2.5,0,0,1-1.72.61,2.69,2.69,0,0,1-2-.83,3.4,3.4,0,0,1-.78-2.4,4.19,4.19,0,0,1,.34-1.76,2.35,2.35,0,0,1,1-1.14,3,3,0,0,1,1.49-.37,2.61,2.61,0,0,1,1.66.51,2.34,2.34,0,0,1,.82,1.46l-1,.15a1.72,1.72,0,0,0-.52-.94,1.36,1.36,0,0,0-.9-.32,1.64,1.64,0,0,0-1.3.58,2.71,2.71,0,0,0-.49,1.8A2.82,2.82,0,0,0,54,62.71a1.58,1.58,0,0,0,1.25.56,1.47,1.47,0,0,0,1-.38A1.89,1.89,0,0,0,56.78,61.72Z" style="fill:#fff"/><path d="M58.69,64V55.41h1.06V64Z" style="fill:#fff"/><path d="M65.44,63.23a4.1,4.1,0,0,1-1.13.71,3.41,3.41,0,0,1-1.16.2,2.3,2.3,0,0,1-1.58-.5A1.67,1.67,0,0,1,61,62.36a1.72,1.72,0,0,1,.21-.84,1.67,1.67,0,0,1,.55-.6,2.53,2.53,0,0,1,.76-.35,7.73,7.73,0,0,1,.93-.16,9.59,9.59,0,0,0,1.88-.36c0-.14,0-.24,0-.27a1.16,1.16,0,0,0-.3-.91,1.76,1.76,0,0,0-1.2-.36,1.9,1.9,0,0,0-1.1.26,1.54,1.54,0,0,0-.52.92l-1-.14a2.45,2.45,0,0,1,.46-1.07,1.93,1.93,0,0,1,.93-.62A4.09,4.09,0,0,1,64,57.64a4,4,0,0,1,1.3.18,1.78,1.78,0,0,1,.73.48,1.67,1.67,0,0,1,.33.71,6.84,6.84,0,0,1,0,1v1.4a13.75,13.75,0,0,0,.07,1.86,2.31,2.31,0,0,0,.26.75h-1.1A2.17,2.17,0,0,1,65.44,63.23Zm-.09-2.35a8,8,0,0,1-1.72.4,3.82,3.82,0,0,0-.92.21.89.89,0,0,0-.42.34,1,1,0,0,0-.14.5.86.86,0,0,0,.32.7,1.34,1.34,0,0,0,.93.28,2.17,2.17,0,0,0,1.09-.26,1.62,1.62,0,0,0,.69-.73,2.46,2.46,0,0,0,.17-1.06Z" style="fill:#fff"/><path d="M67.63,62.14,68.68,62a1.4,1.4,0,0,0,.49,1,1.7,1.7,0,0,0,1.12.33A1.72,1.72,0,0,0,71.37,63a.9.9,0,0,0,.35-.7.65.65,0,0,0-.31-.56,5.28,5.28,0,0,0-1.08-.36,9.59,9.59,0,0,1-1.61-.5,1.54,1.54,0,0,1-.68-.6,1.6,1.6,0,0,1-.23-.83,1.57,1.57,0,0,1,.19-.77,1.73,1.73,0,0,1,.52-.59,2.33,2.33,0,0,1,.67-.31,3.34,3.34,0,0,1,.91-.12,3.63,3.63,0,0,1,1.29.21,1.74,1.74,0,0,1,.81.57,2.22,2.22,0,0,1,.37,1l-1,.14a1.16,1.16,0,0,0-.41-.75,1.49,1.49,0,0,0-.95-.27,1.73,1.73,0,0,0-1,.24.7.7,0,0,0-.31.57.58.58,0,0,0,.13.37,1,1,0,0,0,.4.28l.93.27a12,12,0,0,1,1.56.49,1.54,1.54,0,0,1,.7.55,1.52,1.52,0,0,1,.25.9,1.78,1.78,0,0,1-.31,1,2,2,0,0,1-.88.72,3.27,3.27,0,0,1-1.32.25,3,3,0,0,1-1.85-.5A2.4,2.4,0,0,1,67.63,62.14Z" style="fill:#fff"/><path d="M73.63,62.14,74.68,62a1.4,1.4,0,0,0,.49,1,1.7,1.7,0,0,0,1.12.33A1.72,1.72,0,0,0,77.37,63a.9.9,0,0,0,.35-.7.65.65,0,0,0-.31-.56,5.28,5.28,0,0,0-1.08-.36,9.59,9.59,0,0,1-1.61-.5,1.54,1.54,0,0,1-.68-.6,1.6,1.6,0,0,1-.23-.83,1.57,1.57,0,0,1,.19-.77,1.73,1.73,0,0,1,.52-.59,2.33,2.33,0,0,1,.67-.31,3.34,3.34,0,0,1,.91-.12,3.63,3.63,0,0,1,1.29.21,1.74,1.74,0,0,1,.81.57,2.22,2.22,0,0,1,.37,1l-1,.14a1.16,1.16,0,0,0-.41-.75,1.49,1.49,0,0,0-.95-.27,1.73,1.73,0,0,0-1,.24.7.7,0,0,0-.31.57.58.58,0,0,0,.13.37,1,1,0,0,0,.4.28l.93.27a12,12,0,0,1,1.56.49,1.54,1.54,0,0,1,.7.55,1.52,1.52,0,0,1,.25.9,1.78,1.78,0,0,1-.31,1,2,2,0,0,1-.88.72,3.27,3.27,0,0,1-1.32.25,3,3,0,0,1-1.85-.5A2.4,2.4,0,0,1,73.63,62.14Z" style="fill:#fff"/><path d="M87.43,64v-.79a2,2,0,0,1-1.74.93,2.45,2.45,0,0,1-1.37-.41,2.62,2.62,0,0,1-1-1.15A3.92,3.92,0,0,1,83,60.89a4.39,4.39,0,0,1,.31-1.69A2.51,2.51,0,0,1,84.25,58a2.48,2.48,0,0,1,1.39-.4,2.17,2.17,0,0,1,1,.23,2.28,2.28,0,0,1,.72.62V55.41h1V64Zm-3.34-3.11a2.67,2.67,0,0,0,.51,1.79,1.5,1.5,0,0,0,2.36,0A2.63,2.63,0,0,0,87.44,61,2.91,2.91,0,0,0,87,59.11a1.51,1.51,0,0,0-1.21-.6,1.48,1.48,0,0,0-1.18.57A2.88,2.88,0,0,0,84.09,60.89Z" style="fill:#fff"/><path d="M94.12,63.23a4.07,4.07,0,0,1-1.12.71,3.46,3.46,0,0,1-1.17.2,2.26,2.26,0,0,1-1.57-.5,1.64,1.64,0,0,1-.55-1.28,1.71,1.71,0,0,1,.2-.84,1.67,1.67,0,0,1,.55-.6,2.65,2.65,0,0,1,.76-.35,8.12,8.12,0,0,1,.93-.16A9.73,9.73,0,0,0,94,60.05v-.27a1.16,1.16,0,0,0-.3-.91,1.76,1.76,0,0,0-1.2-.36,1.9,1.9,0,0,0-1.1.26,1.59,1.59,0,0,0-.52.92l-1-.14a2.45,2.45,0,0,1,.46-1.07,2,2,0,0,1,.93-.62,4.09,4.09,0,0,1,1.41-.22,3.91,3.91,0,0,1,1.3.18,1.78,1.78,0,0,1,.73.48,1.56,1.56,0,0,1,.33.71,6.84,6.84,0,0,1,0,1v1.4a13.75,13.75,0,0,0,.07,1.86,2.12,2.12,0,0,0,.27.75H94.33A2.17,2.17,0,0,1,94.12,63.23ZM94,60.88a8.26,8.26,0,0,1-1.73.4,3.82,3.82,0,0,0-.92.21.82.82,0,0,0-.41.34.92.92,0,0,0,.17,1.2,1.34,1.34,0,0,0,.93.28,2.17,2.17,0,0,0,1.09-.26,1.7,1.7,0,0,0,.7-.73A2.62,2.62,0,0,0,94,61.26Z" style="fill:#fff"/><path d="M99,63.06l.15.93a4.08,4.08,0,0,1-.8.09,1.82,1.82,0,0,1-.89-.18,1,1,0,0,1-.44-.48,3.6,3.6,0,0,1-.13-1.24V58.6h-.77v-.82h.77V56.24l1-.64v2.18H99v.82H98v3.64a2.2,2.2,0,0,0,0,.58.46.46,0,0,0,.19.2.69.69,0,0,0,.36.08Z" style="fill:#fff"/><path d="M104.13,63.23a4.1,4.1,0,0,1-1.13.71,3.41,3.41,0,0,1-1.16.2,2.3,2.3,0,0,1-1.58-.5,1.67,1.67,0,0,1-.55-1.28,1.72,1.72,0,0,1,.21-.84,1.67,1.67,0,0,1,.55-.6,2.59,2.59,0,0,1,.75-.35,8.38,8.38,0,0,1,.94-.16,9.59,9.59,0,0,0,1.88-.36c0-.14,0-.24,0-.27a1.16,1.16,0,0,0-.3-.91,1.76,1.76,0,0,0-1.2-.36,1.9,1.9,0,0,0-1.1.26,1.54,1.54,0,0,0-.52.92l-1-.14a2.58,2.58,0,0,1,.47-1.07,1.93,1.93,0,0,1,.93-.62,4.09,4.09,0,0,1,1.41-.22,4,4,0,0,1,1.3.18A1.51,1.51,0,0,1,105.06,59a6.84,6.84,0,0,1,0,1v1.4a13.75,13.75,0,0,0,.07,1.86,2.31,2.31,0,0,0,.26.75h-1.1A2.17,2.17,0,0,1,104.13,63.23ZM104,60.88a8,8,0,0,1-1.72.4,3.82,3.82,0,0,0-.92.21.89.89,0,0,0-.42.34,1,1,0,0,0-.14.5.86.86,0,0,0,.32.7,1.34,1.34,0,0,0,.93.28,2.17,2.17,0,0,0,1.09-.26,1.67,1.67,0,0,0,.69-.73,2.46,2.46,0,0,0,.17-1.06Z" style="fill:#fff"/></g><path d="M240.5,60.5h23.63" style="fill:none;stroke:#3d3f42;stroke-miterlimit:10"/><path d="M269.38,60.5l-7,3.5,1.75-3.5L262.38,57Z" style="fill:#3d3f42;stroke:#3d3f42;stroke-miterlimit:10"/><rect x="140.5" y="40.5" width="100" height="40" rx="7" style="fill:#526375"/><g style="isolation:isolate"><path d="M150.63,64V55.41h5.8v1h-4.66v2.66h4v1h-4V64Z" style="fill:#fff"/><path d="M157.38,60.89a3.2,3.2,0,0,1,1-2.56,2.9,2.9,0,0,1,2-.69,2.78,2.78,0,0,1,2.09.84,3.16,3.16,0,0,1,.82,2.32,4.13,4.13,0,0,1-.36,1.89,2.52,2.52,0,0,1-1,1.07,3.1,3.1,0,0,1-1.5.38,2.8,2.8,0,0,1-2.12-.84A3.37,3.37,0,0,1,157.38,60.89Zm1.08,0a2.69,2.69,0,0,0,.52,1.79,1.75,1.75,0,0,0,2.62,0,2.72,2.72,0,0,0,.52-1.83,2.58,2.58,0,0,0-.52-1.75,1.68,1.68,0,0,0-1.3-.59,1.7,1.7,0,0,0-1.32.59A2.69,2.69,0,0,0,158.46,60.89Z" style="fill:#fff"/><path d="M164.43,64V57.78h.95v.94a2.6,2.6,0,0,1,.67-.87,1.19,1.19,0,0,1,.68-.21,2,2,0,0,1,1.08.34l-.36,1a1.46,1.46,0,0,0-.77-.23,1,1,0,0,0-.62.2,1.15,1.15,0,0,0-.4.58,4.4,4.4,0,0,0-.17,1.23V64Z" style="fill:#fff"/><path d="M168.44,64V57.78h.94v.87a2.27,2.27,0,0,1,.78-.73,2.18,2.18,0,0,1,1.11-.28,2,2,0,0,1,1.13.28,1.54,1.54,0,0,1,.63.81A2.22,2.22,0,0,1,175,57.64a1.88,1.88,0,0,1,1.42.51,2.16,2.16,0,0,1,.5,1.58V64h-1.05V60.08a2.83,2.83,0,0,0-.1-.91.86.86,0,0,0-.37-.45,1.19,1.19,0,0,0-.63-.17,1.48,1.48,0,0,0-1.09.44,1.9,1.9,0,0,0-.44,1.39V64h-1.05V60a1.82,1.82,0,0,0-.26-1.06,1,1,0,0,0-.84-.35,1.52,1.52,0,0,0-.83.24,1.28,1.28,0,0,0-.54.68,3.71,3.71,0,0,0-.17,1.3V64Z" style="fill:#fff"/><path d="M182.5,63.23a4.1,4.1,0,0,1-1.13.71,3.41,3.41,0,0,1-1.16.2,2.29,2.29,0,0,1-1.58-.5,1.64,1.64,0,0,1-.55-1.28,1.72,1.72,0,0,1,.21-.84,1.74,1.74,0,0,1,.54-.6,2.78,2.78,0,0,1,.76-.35,8.38,8.38,0,0,1,.94-.16,9.59,9.59,0,0,0,1.88-.36c0-.14,0-.24,0-.27a1.16,1.16,0,0,0-.3-.91,1.76,1.76,0,0,0-1.2-.36,1.87,1.87,0,0,0-1.1.26,1.6,1.6,0,0,0-.53.92l-1-.14a2.57,2.57,0,0,1,.46-1.07,2,2,0,0,1,.94-.62,4,4,0,0,1,1.41-.22,3.85,3.85,0,0,1,1.29.18,1.72,1.72,0,0,1,.73.48,1.56,1.56,0,0,1,.33.71,5.32,5.32,0,0,1,.06,1v1.4a16.75,16.75,0,0,0,.06,1.86,2.6,2.6,0,0,0,.27.75h-1.1A2.17,2.17,0,0,1,182.5,63.23Zm-.09-2.35a8.14,8.14,0,0,1-1.72.4,3.7,3.7,0,0,0-.92.21.91.91,0,0,0-.25,1.54,1.39,1.39,0,0,0,.94.28,2.13,2.13,0,0,0,1.08-.26,1.64,1.64,0,0,0,.7-.73,2.62,2.62,0,0,0,.17-1.06Z" style="fill:#fff"/><path d="M187.41,63.06l.16.93a4.16,4.16,0,0,1-.8.09,1.82,1.82,0,0,1-.89-.18,1,1,0,0,1-.45-.48,3.88,3.88,0,0,1-.13-1.24V58.6h-.77v-.82h.77V56.24l1-.64v2.18h1.06v.82h-1.06v3.64a1.73,1.73,0,0,0,.06.58.49.49,0,0,0,.18.2.69.69,0,0,0,.36.08C187.07,63.1,187.22,63.08,187.41,63.06Z" style="fill:#fff"/><path d="M195.82,64v-.79a2,2,0,0,1-1.74.93,2.45,2.45,0,0,1-1.37-.41,2.62,2.62,0,0,1-1-1.15,3.92,3.92,0,0,1-.34-1.69,4.39,4.39,0,0,1,.31-1.69,2.51,2.51,0,0,1,.93-1.16,2.48,2.48,0,0,1,1.39-.4,2.17,2.17,0,0,1,1,.23,2.28,2.28,0,0,1,.72.62V55.41h1V64Zm-3.34-3.11a2.67,2.67,0,0,0,.51,1.79,1.49,1.49,0,0,0,1.18.59,1.5,1.5,0,0,0,1.18-.56,2.63,2.63,0,0,0,.48-1.73,2.91,2.91,0,0,0-.49-1.87,1.51,1.51,0,0,0-1.21-.6,1.48,1.48,0,0,0-1.18.57A2.88,2.88,0,0,0,192.48,60.89Z" style="fill:#fff"/><path d="M202.51,63.23a4,4,0,0,1-1.13.71,3.36,3.36,0,0,1-1.16.2,2.26,2.26,0,0,1-1.57-.5,1.64,1.64,0,0,1-.56-1.28,1.72,1.72,0,0,1,.21-.84,1.67,1.67,0,0,1,.55-.6,2.65,2.65,0,0,1,.76-.35,8.12,8.12,0,0,1,.93-.16,9.44,9.44,0,0,0,1.88-.36c0-.14,0-.24,0-.27a1.16,1.16,0,0,0-.3-.91,1.76,1.76,0,0,0-1.2-.36,1.9,1.9,0,0,0-1.1.26,1.59,1.59,0,0,0-.52.92l-1-.14a2.45,2.45,0,0,1,.46-1.07,1.93,1.93,0,0,1,.93-.62,4.09,4.09,0,0,1,1.41-.22,3.91,3.91,0,0,1,1.3.18,1.78,1.78,0,0,1,.73.48,1.56,1.56,0,0,1,.33.71,6.84,6.84,0,0,1,.05,1v1.4a13.75,13.75,0,0,0,.07,1.86,2.12,2.12,0,0,0,.27.75h-1.11A2.17,2.17,0,0,1,202.51,63.23Zm-.09-2.35a8,8,0,0,1-1.72.4,3.82,3.82,0,0,0-.92.21.82.82,0,0,0-.41.34.92.92,0,0,0,.17,1.2,1.34,1.34,0,0,0,.93.28,2.17,2.17,0,0,0,1.09-.26,1.62,1.62,0,0,0,.69-.73,2.46,2.46,0,0,0,.17-1.06Z" style="fill:#fff"/><path d="M207.43,63.06l.15.93a4.08,4.08,0,0,1-.8.09,1.82,1.82,0,0,1-.89-.18,1,1,0,0,1-.44-.48,3.6,3.6,0,0,1-.13-1.24V58.6h-.77v-.82h.77V56.24l1.05-.64v2.18h1.06v.82h-1.06v3.64a2.2,2.2,0,0,0,0,.58.46.46,0,0,0,.19.2.69.69,0,0,0,.36.08Z" style="fill:#fff"/><path d="M212.52,63.23a4.1,4.1,0,0,1-1.13.71,3.41,3.41,0,0,1-1.16.2,2.3,2.3,0,0,1-1.58-.5,1.67,1.67,0,0,1-.55-1.28,1.72,1.72,0,0,1,.21-.84,1.67,1.67,0,0,1,.55-.6,2.59,2.59,0,0,1,.75-.35,8.38,8.38,0,0,1,.94-.16,9.59,9.59,0,0,0,1.88-.36c0-.14,0-.24,0-.27a1.16,1.16,0,0,0-.3-.91,1.76,1.76,0,0,0-1.2-.36,1.9,1.9,0,0,0-1.1.26,1.54,1.54,0,0,0-.52.92l-1-.14a2.58,2.58,0,0,1,.47-1.07,1.93,1.93,0,0,1,.93-.62,4.05,4.05,0,0,1,1.41-.22,4,4,0,0,1,1.3.18A1.51,1.51,0,0,1,213.45,59a6.84,6.84,0,0,1,.05,1v1.4a13.75,13.75,0,0,0,.07,1.86,2.31,2.31,0,0,0,.26.75h-1.1A2.17,2.17,0,0,1,212.52,63.23Zm-.09-2.35a8,8,0,0,1-1.72.4,3.82,3.82,0,0,0-.92.21.89.89,0,0,0-.42.34,1,1,0,0,0-.14.5.86.86,0,0,0,.32.7,1.34,1.34,0,0,0,.93.28,2.17,2.17,0,0,0,1.09-.26,1.67,1.67,0,0,0,.69-.73,2.46,2.46,0,0,0,.17-1.06Z" style="fill:#fff"/><path d="M214.71,62.14l1-.16a1.48,1.48,0,0,0,.49,1,1.75,1.75,0,0,0,1.13.33,1.67,1.67,0,0,0,1.07-.29.89.89,0,0,0,.36-.7.65.65,0,0,0-.31-.56,5.28,5.28,0,0,0-1.08-.36,9.59,9.59,0,0,1-1.61-.5,1.54,1.54,0,0,1-.68-.6,1.51,1.51,0,0,1-.23-.83,1.57,1.57,0,0,1,.19-.77,1.73,1.73,0,0,1,.52-.59,2.21,2.21,0,0,1,.67-.31,3.28,3.28,0,0,1,.91-.12,3.54,3.54,0,0,1,1.28.21,1.72,1.72,0,0,1,.82.57,2.22,2.22,0,0,1,.37,1l-1,.14a1.11,1.11,0,0,0-.4-.75,1.5,1.5,0,0,0-1-.27,1.7,1.7,0,0,0-1,.24.7.7,0,0,0-.31.57.58.58,0,0,0,.13.37,1,1,0,0,0,.4.28l.93.27a12,12,0,0,1,1.56.49,1.54,1.54,0,0,1,.7.55,1.52,1.52,0,0,1,.25.9,1.78,1.78,0,0,1-.31,1,2,2,0,0,1-.89.72,3.19,3.19,0,0,1-1.31.25,3,3,0,0,1-1.85-.5A2.4,2.4,0,0,1,214.71,62.14Z" style="fill:#fff"/><path d="M225.39,62l1.09.13a2.64,2.64,0,0,1-.95,1.48,3.24,3.24,0,0,1-3.95-.31,3.31,3.31,0,0,1-.8-2.36,3.44,3.44,0,0,1,.81-2.44,2.77,2.77,0,0,1,2.1-.86,2.66,2.66,0,0,1,2,.85,3.39,3.39,0,0,1,.79,2.39c0,.06,0,.15,0,.28h-4.64a2.38,2.38,0,0,0,.58,1.57,1.74,1.74,0,0,0,1.3.54,1.62,1.62,0,0,0,1-.3A2,2,0,0,0,225.39,62Zm-3.46-1.71h3.48a2.17,2.17,0,0,0-.4-1.18,1.64,1.64,0,0,0-1.31-.61,1.7,1.7,0,0,0-1.22.49A1.94,1.94,0,0,0,221.93,60.29Z" style="fill:#fff"/><path d="M230.11,63.06l.15.93a4,4,0,0,1-.79.09,1.79,1.79,0,0,1-.89-.18,1,1,0,0,1-.45-.48,3.6,3.6,0,0,1-.13-1.24V58.6h-.77v-.82H228V56.24l1.05-.64v2.18h1.06v.82h-1.06v3.64a1.73,1.73,0,0,0,.06.58.38.38,0,0,0,.18.2.69.69,0,0,0,.36.08Z" style="fill:#fff"/></g><path d="M370.5,60.5h33.63" style="fill:none;stroke:#3d3f42;stroke-miterlimit:10"/><path d="M409.38,60.5l-7,3.5,1.75-3.5L402.38,57Z" style="fill:#3d3f42;stroke:#3d3f42;stroke-miterlimit:10"/><rect x="270.5" y="40.5" width="100" height="40" rx="7" style="fill:#526375"/><g style="isolation:isolate"><path d="M287.52,61.24l1.07-.09A2.25,2.25,0,0,0,289,62.2a1.87,1.87,0,0,0,.86.67,3.27,3.27,0,0,0,1.32.26,3.19,3.19,0,0,0,1.15-.2,1.56,1.56,0,0,0,.74-.53,1.23,1.23,0,0,0,.24-.73A1.16,1.16,0,0,0,293,61a1.73,1.73,0,0,0-.78-.5,15,15,0,0,0-1.53-.42,7.43,7.43,0,0,1-1.65-.54,2.28,2.28,0,0,1-.92-.8,2,2,0,0,1-.3-1.07,2.13,2.13,0,0,1,.37-1.21,2.2,2.2,0,0,1,1.07-.86,4,4,0,0,1,1.58-.3,4.34,4.34,0,0,1,1.68.31,2.45,2.45,0,0,1,1.13.91,2.62,2.62,0,0,1,.42,1.35l-1.09.08a1.77,1.77,0,0,0-.6-1.23,2.26,2.26,0,0,0-1.49-.41,2.45,2.45,0,0,0-1.51.37,1.16,1.16,0,0,0-.47.91,1,1,0,0,0,.34.77,4.55,4.55,0,0,0,1.71.61,11,11,0,0,1,1.9.55,2.64,2.64,0,0,1,1.11.87,2.13,2.13,0,0,1,.36,1.22,2.31,2.31,0,0,1-.4,1.3,2.61,2.61,0,0,1-1.12.94,4,4,0,0,1-1.66.34,5,5,0,0,1-1.95-.34,2.73,2.73,0,0,1-1.24-1A2.82,2.82,0,0,1,287.52,61.24Z" style="fill:#fff"/><path d="M295.77,66.38v-8.6h1v.81a2.35,2.35,0,0,1,.76-.72,2.22,2.22,0,0,1,1-.23,2.43,2.43,0,0,1,1.41.41,2.58,2.58,0,0,1,.92,1.15,4.39,4.39,0,0,1,.31,1.64,4.13,4.13,0,0,1-.35,1.72,2.54,2.54,0,0,1-1,1.17,2.61,2.61,0,0,1-1.38.41,2,2,0,0,1-.94-.22,2.26,2.26,0,0,1-.69-.56v3Zm1-5.46a2.68,2.68,0,0,0,.49,1.78,1.48,1.48,0,0,0,1.17.57,1.53,1.53,0,0,0,1.21-.59,2.85,2.85,0,0,0,.5-1.84,2.75,2.75,0,0,0-.49-1.79,1.45,1.45,0,0,0-2.36,0A2.79,2.79,0,0,0,296.73,60.92Z" style="fill:#fff"/><path d="M302.42,64V55.41h1.06V64Z" style="fill:#fff"/><path d="M305.12,56.62V55.41h1.05v1.21Zm0,7.38V57.78h1.05V64Z" style="fill:#fff"/><path d="M310.08,63.06l.16.93a4.16,4.16,0,0,1-.8.09,1.82,1.82,0,0,1-.89-.18,1,1,0,0,1-.45-.48,3.88,3.88,0,0,1-.13-1.24V58.6h-.77v-.82H308V56.24l1-.64v2.18h1.06v.82H309v3.64a1.73,1.73,0,0,0,.06.58.49.49,0,0,0,.18.2.69.69,0,0,0,.36.08C309.74,63.1,309.89,63.08,310.08,63.06Z" style="fill:#fff"/><path d="M318.49,64v-.79a2,2,0,0,1-1.74.93,2.45,2.45,0,0,1-1.37-.41,2.62,2.62,0,0,1-1-1.15,3.92,3.92,0,0,1-.34-1.69,4.39,4.39,0,0,1,.31-1.69,2.45,2.45,0,0,1,.93-1.16,2.48,2.48,0,0,1,1.39-.4,2.17,2.17,0,0,1,1,.23,2.28,2.28,0,0,1,.72.62V55.41h1V64Zm-3.34-3.11a2.67,2.67,0,0,0,.51,1.79,1.49,1.49,0,0,0,1.18.59,1.5,1.5,0,0,0,1.18-.56A2.63,2.63,0,0,0,318.5,61a2.91,2.91,0,0,0-.49-1.87,1.51,1.51,0,0,0-1.21-.6,1.48,1.48,0,0,0-1.18.57A2.88,2.88,0,0,0,315.15,60.89Z" style="fill:#fff"/><path d="M325.18,63.23a4,4,0,0,1-1.13.71,3.36,3.36,0,0,1-1.16.2,2.26,2.26,0,0,1-1.57-.5,1.64,1.64,0,0,1-.56-1.28,1.72,1.72,0,0,1,.21-.84,1.67,1.67,0,0,1,.55-.6,2.65,2.65,0,0,1,.76-.35,8.12,8.12,0,0,1,.93-.16,9.44,9.44,0,0,0,1.88-.36c0-.14,0-.24,0-.27a1.16,1.16,0,0,0-.3-.91,1.76,1.76,0,0,0-1.2-.36,1.9,1.9,0,0,0-1.1.26,1.59,1.59,0,0,0-.52.92l-1-.14a2.45,2.45,0,0,1,.46-1.07,1.93,1.93,0,0,1,.93-.62,4.09,4.09,0,0,1,1.41-.22,3.91,3.91,0,0,1,1.3.18,1.78,1.78,0,0,1,.73.48,1.56,1.56,0,0,1,.33.71,6.84,6.84,0,0,1,.05,1v1.4a13.75,13.75,0,0,0,.07,1.86,2.12,2.12,0,0,0,.27.75h-1.11A2.17,2.17,0,0,1,325.18,63.23Zm-.09-2.35a8,8,0,0,1-1.72.4,3.82,3.82,0,0,0-.92.21.82.82,0,0,0-.41.34.92.92,0,0,0,.17,1.2,1.34,1.34,0,0,0,.93.28,2.17,2.17,0,0,0,1.09-.26,1.62,1.62,0,0,0,.69-.73,2.46,2.46,0,0,0,.17-1.06Z" style="fill:#fff"/><path d="M330.1,63.06l.15.93a4.08,4.08,0,0,1-.8.09,1.82,1.82,0,0,1-.89-.18,1,1,0,0,1-.44-.48,3.6,3.6,0,0,1-.13-1.24V58.6h-.77v-.82H328V56.24L329,55.6v2.18h1.06v.82H329v3.64a2.2,2.2,0,0,0,0,.58.46.46,0,0,0,.19.2.69.69,0,0,0,.36.08Z" style="fill:#fff"/><path d="M335.19,63.23a4.1,4.1,0,0,1-1.13.71,3.41,3.41,0,0,1-1.16.2,2.3,2.3,0,0,1-1.58-.5,1.67,1.67,0,0,1-.55-1.28,1.72,1.72,0,0,1,.21-.84,1.67,1.67,0,0,1,.55-.6,2.59,2.59,0,0,1,.75-.35,8.38,8.38,0,0,1,.94-.16,9.59,9.59,0,0,0,1.88-.36c0-.14,0-.24,0-.27a1.16,1.16,0,0,0-.3-.91,1.76,1.76,0,0,0-1.2-.36,1.9,1.9,0,0,0-1.1.26,1.54,1.54,0,0,0-.52.92l-1-.14a2.58,2.58,0,0,1,.47-1.07,1.93,1.93,0,0,1,.93-.62,4.05,4.05,0,0,1,1.41-.22,4,4,0,0,1,1.3.18A1.51,1.51,0,0,1,336.12,59a6.84,6.84,0,0,1,.05,1v1.4a13.75,13.75,0,0,0,.07,1.86,2.31,2.31,0,0,0,.26.75h-1.1A2.17,2.17,0,0,1,335.19,63.23Zm-.09-2.35a8,8,0,0,1-1.72.4,3.82,3.82,0,0,0-.92.21.89.89,0,0,0-.42.34,1,1,0,0,0-.14.5.86.86,0,0,0,.32.7,1.34,1.34,0,0,0,.93.28,2.17,2.17,0,0,0,1.09-.26,1.67,1.67,0,0,0,.69-.73,2.46,2.46,0,0,0,.17-1.06Z" style="fill:#fff"/><path d="M337.38,62.14l1-.16a1.48,1.48,0,0,0,.49,1,1.75,1.75,0,0,0,1.13.33,1.67,1.67,0,0,0,1.07-.29.89.89,0,0,0,.36-.7.65.65,0,0,0-.31-.56,5.28,5.28,0,0,0-1.08-.36,9.59,9.59,0,0,1-1.61-.5,1.54,1.54,0,0,1-.68-.6,1.51,1.51,0,0,1-.23-.83,1.57,1.57,0,0,1,.19-.77,1.73,1.73,0,0,1,.52-.59,2.21,2.21,0,0,1,.67-.31,3.28,3.28,0,0,1,.91-.12,3.54,3.54,0,0,1,1.28.21,1.72,1.72,0,0,1,.82.57,2.22,2.22,0,0,1,.37,1l-1,.14a1.11,1.11,0,0,0-.4-.75,1.52,1.52,0,0,0-1-.27,1.7,1.7,0,0,0-1,.24.7.7,0,0,0-.31.57.58.58,0,0,0,.13.37,1,1,0,0,0,.4.28l.93.27a12,12,0,0,1,1.56.49,1.54,1.54,0,0,1,.7.55,1.52,1.52,0,0,1,.25.9,1.78,1.78,0,0,1-.31,1,2,2,0,0,1-.89.72,3.19,3.19,0,0,1-1.31.25,3,3,0,0,1-1.85-.5A2.4,2.4,0,0,1,337.38,62.14Z" style="fill:#fff"/><path d="M348.06,62l1.09.13a2.64,2.64,0,0,1-.95,1.48,3.24,3.24,0,0,1-3.95-.31,3.31,3.31,0,0,1-.8-2.36,3.44,3.44,0,0,1,.81-2.44,2.77,2.77,0,0,1,2.1-.86,2.66,2.66,0,0,1,2,.85,3.39,3.39,0,0,1,.79,2.39c0,.06,0,.15,0,.28h-4.64a2.38,2.38,0,0,0,.58,1.57,1.74,1.74,0,0,0,1.3.54,1.62,1.62,0,0,0,1-.3A2,2,0,0,0,348.06,62Zm-3.46-1.71h3.48a2.17,2.17,0,0,0-.4-1.18,1.64,1.64,0,0,0-1.31-.61,1.7,1.7,0,0,0-1.22.49A1.94,1.94,0,0,0,344.6,60.29Z" style="fill:#fff"/><path d="M352.78,63.06l.15.93a4,4,0,0,1-.79.09,1.79,1.79,0,0,1-.89-.18,1,1,0,0,1-.45-.48,3.6,3.6,0,0,1-.13-1.24V58.6h-.77v-.82h.77V56.24l1.05-.64v2.18h1.06v.82h-1.06v3.64a1.73,1.73,0,0,0,.06.58.38.38,0,0,0,.18.2.69.69,0,0,0,.36.08Z" style="fill:#fff"/></g><rect x="410.5" y="40.5" width="100" height="40" rx="7" style="fill:#526375"/><g style="isolation:isolate"><path d="M418.68,57.74l1.07-.09a2.25,2.25,0,0,0,.36,1.05,1.87,1.87,0,0,0,.86.67,3.27,3.27,0,0,0,1.32.26,3.19,3.19,0,0,0,1.15-.2,1.56,1.56,0,0,0,.74-.53,1.23,1.23,0,0,0,.24-.73,1.16,1.16,0,0,0-.23-.71,1.73,1.73,0,0,0-.78-.5,15,15,0,0,0-1.53-.42,7.43,7.43,0,0,1-1.65-.54,2.28,2.28,0,0,1-.92-.8,2,2,0,0,1-.3-1.07,2.13,2.13,0,0,1,.37-1.21,2.2,2.2,0,0,1,1.07-.86,4,4,0,0,1,1.58-.3,4.34,4.34,0,0,1,1.68.31,2.45,2.45,0,0,1,1.13.91,2.62,2.62,0,0,1,.42,1.35l-1.09.08a1.77,1.77,0,0,0-.6-1.23,2.26,2.26,0,0,0-1.49-.41,2.45,2.45,0,0,0-1.51.37,1.16,1.16,0,0,0-.47.91,1,1,0,0,0,.34.77,4.55,4.55,0,0,0,1.71.61,11,11,0,0,1,1.9.55,2.64,2.64,0,0,1,1.11.87,2.13,2.13,0,0,1,.36,1.22,2.31,2.31,0,0,1-.4,1.3,2.61,2.61,0,0,1-1.12.94,4,4,0,0,1-1.66.34,5,5,0,0,1-1.95-.34,2.73,2.73,0,0,1-1.24-1A2.82,2.82,0,0,1,418.68,57.74Z" style="fill:#fff"/><path d="M431.19,58.5l1.09.13a2.64,2.64,0,0,1-.95,1.48,3.24,3.24,0,0,1-3.95-.31,3.31,3.31,0,0,1-.8-2.36,3.44,3.44,0,0,1,.81-2.44,2.77,2.77,0,0,1,2.1-.86,2.66,2.66,0,0,1,2,.85,3.35,3.35,0,0,1,.79,2.39c0,.06,0,.15,0,.28h-4.64a2.44,2.44,0,0,0,.58,1.57,1.74,1.74,0,0,0,1.3.54,1.62,1.62,0,0,0,1-.3A2,2,0,0,0,431.19,58.5Zm-3.46-1.71h3.48a2.17,2.17,0,0,0-.4-1.18A1.64,1.64,0,0,0,429.5,55a1.7,1.7,0,0,0-1.22.49A1.94,1.94,0,0,0,427.73,56.79Z" style="fill:#fff"/><path d="M435.91,59.56l.15.93a4,4,0,0,1-.79.09,1.79,1.79,0,0,1-.89-.18,1,1,0,0,1-.45-.48,3.6,3.6,0,0,1-.13-1.24V55.1H433v-.82h.77V52.74l1.05-.64v2.18h1.06v.82h-1.06v3.64a1.73,1.73,0,0,0,.06.58.38.38,0,0,0,.18.2.69.69,0,0,0,.36.08C435.57,59.6,435.72,59.58,435.91,59.56Z" style="fill:#fff"/><path d="M440.28,53.12V51.91h1.06v1.21Zm0,7.38V54.28h1.06V60.5Z" style="fill:#fff"/><path d="M442.94,60.5V54.28h.95v.88a2.25,2.25,0,0,1,2-1,2.54,2.54,0,0,1,1,.2,1.55,1.55,0,0,1,.7.53,2,2,0,0,1,.33.78,5.85,5.85,0,0,1,.06,1V60.5h-1.06V56.71a2.91,2.91,0,0,0-.12-1,1,1,0,0,0-.44-.51,1.32,1.32,0,0,0-.73-.19,1.67,1.67,0,0,0-1.16.43A2.08,2.08,0,0,0,444,57.1v3.4Z" style="fill:#fff"/><path d="M449.62,53.12V51.91h1.06v1.21Zm0,7.38V54.28h1.06V60.5Z" style="fill:#fff"/><path d="M454.58,59.56l.16.93a4.16,4.16,0,0,1-.8.09,1.82,1.82,0,0,1-.89-.18,1,1,0,0,1-.45-.48,4,4,0,0,1-.12-1.24V55.1h-.78v-.82h.78V52.74l1-.64v2.18h1.06v.82h-1.06v3.64a1.73,1.73,0,0,0,.06.58.49.49,0,0,0,.18.2.74.74,0,0,0,.36.08C454.24,59.6,454.39,59.58,454.58,59.56Z" style="fill:#fff"/><path d="M455.62,53.12V51.91h1.06v1.21Zm0,7.38V54.28h1.06V60.5Z" style="fill:#fff"/><path d="M462.34,59.73a4,4,0,0,1-1.13.71,3.36,3.36,0,0,1-1.16.2,2.26,2.26,0,0,1-1.57-.5,1.64,1.64,0,0,1-.56-1.28,1.72,1.72,0,0,1,.21-.84,1.67,1.67,0,0,1,.55-.6,2.65,2.65,0,0,1,.76-.35,8.12,8.12,0,0,1,.93-.16,9.44,9.44,0,0,0,1.88-.36c0-.14,0-.24,0-.27a1.16,1.16,0,0,0-.3-.91,1.76,1.76,0,0,0-1.2-.36,1.9,1.9,0,0,0-1.1.26,1.59,1.59,0,0,0-.52.92l-1-.14a2.45,2.45,0,0,1,.46-1.07,1.93,1.93,0,0,1,.93-.62,4.09,4.09,0,0,1,1.41-.22,3.91,3.91,0,0,1,1.3.18,1.78,1.78,0,0,1,.73.48,1.56,1.56,0,0,1,.33.71,6.84,6.84,0,0,1,.05,1v1.4a13.75,13.75,0,0,0,.07,1.86,2.12,2.12,0,0,0,.27.75h-1.11A2.17,2.17,0,0,1,462.34,59.73Zm-.09-2.35a8,8,0,0,1-1.72.4,3.82,3.82,0,0,0-.92.21.82.82,0,0,0-.41.34.92.92,0,0,0,.17,1.2,1.34,1.34,0,0,0,.93.28,2.17,2.17,0,0,0,1.09-.26,1.62,1.62,0,0,0,.69-.73,2.46,2.46,0,0,0,.17-1.06Z" style="fill:#fff"/><path d="M464.93,60.5V51.91H466V60.5Z" style="fill:#fff"/><path d="M475,59.73a4.1,4.1,0,0,1-1.13.71,3.41,3.41,0,0,1-1.16.2,2.29,2.29,0,0,1-1.58-.5,1.64,1.64,0,0,1-.55-1.28,1.72,1.72,0,0,1,.21-.84,1.74,1.74,0,0,1,.54-.6,2.78,2.78,0,0,1,.76-.35,8.38,8.38,0,0,1,.94-.16,9.59,9.59,0,0,0,1.88-.36v-.27a1.19,1.19,0,0,0-.29-.91,1.77,1.77,0,0,0-1.21-.36,1.86,1.86,0,0,0-1.09.26,1.54,1.54,0,0,0-.53.92l-1-.14a2.57,2.57,0,0,1,.46-1.07,2,2,0,0,1,.93-.62,4.11,4.11,0,0,1,1.42-.22,3.85,3.85,0,0,1,1.29.18,1.72,1.72,0,0,1,.73.48,1.56,1.56,0,0,1,.33.71,5.32,5.32,0,0,1,.06,1v1.4a16.75,16.75,0,0,0,.06,1.86,2.6,2.6,0,0,0,.27.75h-1.1A2.17,2.17,0,0,1,475,59.73Zm-.09-2.35a8.14,8.14,0,0,1-1.72.4,3.7,3.7,0,0,0-.92.21.91.91,0,0,0-.25,1.54,1.39,1.39,0,0,0,.94.28,2.13,2.13,0,0,0,1.08-.26,1.64,1.64,0,0,0,.7-.73,2.62,2.62,0,0,0,.17-1.06Z" style="fill:#fff"/><path d="M477.61,60.5V51.91h1.05V60.5Z" style="fill:#fff"/><path d="M480.3,62.88v-8.6h1v.81a2.35,2.35,0,0,1,.76-.72,2.25,2.25,0,0,1,1-.23,2.43,2.43,0,0,1,1.41.41,2.58,2.58,0,0,1,.92,1.15,4.39,4.39,0,0,1,.31,1.64,4.29,4.29,0,0,1-.34,1.72,2.62,2.62,0,0,1-1,1.17,2.57,2.57,0,0,1-1.37.41,2,2,0,0,1-.95-.22,2.26,2.26,0,0,1-.69-.56v3Zm.95-5.46a2.68,2.68,0,0,0,.49,1.78,1.48,1.48,0,0,0,1.18.57,1.51,1.51,0,0,0,1.2-.59,2.85,2.85,0,0,0,.5-1.84,2.75,2.75,0,0,0-.49-1.79A1.48,1.48,0,0,0,483,55a1.52,1.52,0,0,0-1.19.63A2.79,2.79,0,0,0,481.25,57.42Z" style="fill:#fff"/><path d="M487,60.5V51.91h1V55a2.38,2.38,0,0,1,1.87-.85,2.53,2.53,0,0,1,1.2.27,1.6,1.6,0,0,1,.73.75,3.62,3.62,0,0,1,.22,1.4V60.5H491V56.56a1.61,1.61,0,0,0-.34-1.15,1.28,1.28,0,0,0-1-.37,1.72,1.72,0,0,0-.88.25,1.35,1.35,0,0,0-.59.66A2.94,2.94,0,0,0,488,57.1v3.4Z" style="fill:#fff"/><path d="M497.7,59.73a4.07,4.07,0,0,1-1.12.71,3.46,3.46,0,0,1-1.17.2,2.26,2.26,0,0,1-1.57-.5,1.64,1.64,0,0,1-.55-1.28,1.83,1.83,0,0,1,.2-.84,1.67,1.67,0,0,1,.55-.6,2.65,2.65,0,0,1,.76-.35,8,8,0,0,1,.94-.16,9.75,9.75,0,0,0,1.88-.36v-.27a1.16,1.16,0,0,0-.3-.91,1.76,1.76,0,0,0-1.2-.36,1.92,1.92,0,0,0-1.1.26,1.59,1.59,0,0,0-.52.92l-1-.14a2.57,2.57,0,0,1,.46-1.07,2,2,0,0,1,.93-.62,4.09,4.09,0,0,1,1.41-.22,3.87,3.87,0,0,1,1.3.18,1.72,1.72,0,0,1,.73.48,1.56,1.56,0,0,1,.33.71,5.59,5.59,0,0,1,.05,1v1.4a15.8,15.8,0,0,0,.07,1.86,2.12,2.12,0,0,0,.27.75h-1.1A2.4,2.4,0,0,1,497.7,59.73Zm-.08-2.35a8.26,8.26,0,0,1-1.73.4A3.82,3.82,0,0,0,495,58a.86.86,0,0,0-.41.34.92.92,0,0,0,.17,1.2,1.35,1.35,0,0,0,.94.28,2.16,2.16,0,0,0,1.08-.26,1.64,1.64,0,0,0,.7-.73,2.62,2.62,0,0,0,.17-1.06Z" style="fill:#fff"/><path d="M448,74.13a4.1,4.1,0,0,1-1.13.71,3.41,3.41,0,0,1-1.16.2,2.3,2.3,0,0,1-1.58-.5,1.67,1.67,0,0,1-.55-1.28,1.74,1.74,0,0,1,.21-.84,1.67,1.67,0,0,1,.55-.6,2.59,2.59,0,0,1,.75-.35c.21,0,.52-.1.94-.16a9.59,9.59,0,0,0,1.88-.36c0-.14,0-.24,0-.27a1.16,1.16,0,0,0-.3-.91,1.76,1.76,0,0,0-1.2-.36,1.9,1.9,0,0,0-1.1.26,1.54,1.54,0,0,0-.52.92l-1-.14a2.64,2.64,0,0,1,.47-1.07,1.93,1.93,0,0,1,.93-.62,4.09,4.09,0,0,1,1.41-.22,4,4,0,0,1,1.3.18,1.51,1.51,0,0,1,1.06,1.19,6.84,6.84,0,0,1,.05,1v1.4a13.75,13.75,0,0,0,.07,1.86,2.31,2.31,0,0,0,.26.75h-1.1A2.17,2.17,0,0,1,448,74.13Zm-.09-2.35a8,8,0,0,1-1.72.4,3.82,3.82,0,0,0-.92.21.89.89,0,0,0-.42.34,1,1,0,0,0-.14.5.86.86,0,0,0,.32.7,1.34,1.34,0,0,0,.93.28,2.17,2.17,0,0,0,1.09-.26,1.67,1.67,0,0,0,.69-.73,2.46,2.46,0,0,0,.17-1.06Z" style="fill:#fff"/><path d="M450.62,74.9V68.68h.95v.88a2.25,2.25,0,0,1,2-1,2.54,2.54,0,0,1,1,.2,1.55,1.55,0,0,1,.7.53,2,2,0,0,1,.33.78,5.85,5.85,0,0,1,.06,1V74.9h-1.05V71.12a2.89,2.89,0,0,0-.13-1,1,1,0,0,0-.43-.51,1.38,1.38,0,0,0-.74-.19,1.67,1.67,0,0,0-1.16.43,2.09,2.09,0,0,0-.49,1.62v3.4Z" style="fill:#fff"/><path d="M461.33,74.9v-.78a1.94,1.94,0,0,1-1.74.92,2.44,2.44,0,0,1-1.36-.41,2.65,2.65,0,0,1-1-1.14,4,4,0,0,1-.34-1.7,4.39,4.39,0,0,1,.31-1.69,2.45,2.45,0,0,1,.93-1.16,2.48,2.48,0,0,1,1.39-.4,2.17,2.17,0,0,1,1,.23,2.14,2.14,0,0,1,.71.62V66.31h1.05V74.9ZM458,71.79a2.73,2.73,0,0,0,.5,1.79,1.52,1.52,0,0,0,1.19.59,1.47,1.47,0,0,0,1.18-.56,2.63,2.63,0,0,0,.48-1.73,2.91,2.91,0,0,0-.49-1.87,1.51,1.51,0,0,0-1.21-.6,1.48,1.48,0,0,0-1.18.57A2.88,2.88,0,0,0,458,71.79Z" style="fill:#fff"/><path d="M468.94,74.9l-2.28-8.59h1.17l1.3,5.63c.14.59.27,1.18.37,1.76.22-.92.34-1.45.38-1.59l1.64-5.8h1.37l1.23,4.35a23.39,23.39,0,0,1,.67,3c.11-.54.25-1.17.43-1.87l1.34-5.52h1.15l-2.36,8.59h-1.1l-1.81-6.54c-.15-.55-.24-.89-.27-1-.09.39-.17.73-.25,1L470.1,74.9Z" style="fill:#fff"/></g><path d="M360.5,275.5h23.63" style="fill:none;stroke:#3d3f42;stroke-miterlimit:10"/><path d="M389.38,275.5l-7,3.5,1.75-3.5-1.75-3.5Z" style="fill:#3d3f42;stroke:#3d3f42;stroke-miterlimit:10"/><path d="M.5,163.5v-23h360v23" style="fill:#526375;stroke:#000;stroke-miterlimit:10"/><path d="M.5,163.5v247h360v-247" style="fill:none;stroke:#000;stroke-miterlimit:10"/><path d="M.5,163.5h360" style="fill:none;stroke:#000;stroke-miterlimit:10"/><g style="isolation:isolate"><path d="M159.47,156.5v-7.14h-2.55v-1.45h6.83v1.45h-2.54v7.14Z" style="fill:#fff"/><path d="M165.77,156.5h-1.65v-6.22h1.53v.88a2.66,2.66,0,0,1,.71-.82,1.25,1.25,0,0,1,.71-.2,2.08,2.08,0,0,1,1.09.31l-.51,1.43a1.47,1.47,0,0,0-.78-.27.94.94,0,0,0-.58.19,1.32,1.32,0,0,0-.38.69,9.88,9.88,0,0,0-.14,2.09Z" style="fill:#fff"/><path d="M170.09,152.18l-1.49-.27a2.33,2.33,0,0,1,.87-1.34,3.17,3.17,0,0,1,1.83-.43,3.85,3.85,0,0,1,1.64.26,1.62,1.62,0,0,1,.76.66,3.5,3.5,0,0,1,.22,1.47l0,1.93a6.09,6.09,0,0,0,.08,1.21,3.76,3.76,0,0,0,.29.83h-1.63c0-.11-.09-.27-.15-.49l-.06-.19a3.13,3.13,0,0,1-.91.62,2.69,2.69,0,0,1-1,.2,2.13,2.13,0,0,1-1.52-.52,1.87,1.87,0,0,1-.3-2.26,1.61,1.61,0,0,1,.71-.63,5.32,5.32,0,0,1,1.31-.39,9.18,9.18,0,0,0,1.6-.4v-.16a.84.84,0,0,0-.24-.68,1.35,1.35,0,0,0-.88-.2,1.18,1.18,0,0,0-.69.17A1.27,1.27,0,0,0,170.09,152.18Zm2.21,1.33a8.86,8.86,0,0,1-1,.25,3.18,3.18,0,0,0-.9.29.67.67,0,0,0-.32.58.82.82,0,0,0,.25.6.92.92,0,0,0,.66.25,1.45,1.45,0,0,0,.85-.29,1,1,0,0,0,.39-.55,2.86,2.86,0,0,0,.07-.8Z" style="fill:#fff"/><path d="M175.54,149.43v-1.52h1.64v1.52Zm0,7.07v-6.22h1.64v6.22Z" style="fill:#fff"/><path d="M184.53,156.5h-1.64v-3.18a4.84,4.84,0,0,0-.11-1.3.89.89,0,0,0-.34-.46,1,1,0,0,0-.57-.16,1.29,1.29,0,0,0-.77.23,1.21,1.21,0,0,0-.47.62,5.67,5.67,0,0,0-.12,1.43v2.82h-1.65v-6.22h1.53v.91a2.58,2.58,0,0,1,3.05-.86,1.72,1.72,0,0,1,.68.5,1.94,1.94,0,0,1,.32.7,5.06,5.06,0,0,1,.09,1.1Z" style="fill:#fff"/><path d="M186.2,149.43v-1.52h1.65v1.52Zm0,7.07v-6.22h1.65v6.22Z" style="fill:#fff"/><path d="M195.2,156.5h-1.65v-3.18a4.84,4.84,0,0,0-.11-1.3.89.89,0,0,0-.34-.46,1,1,0,0,0-.57-.16,1.32,1.32,0,0,0-.77.23,1.19,1.19,0,0,0-.46.62,5.12,5.12,0,0,0-.13,1.43v2.82h-1.65v-6.22h1.53v.91a2.51,2.51,0,0,1,2-1.05,2.48,2.48,0,0,1,1,.19,1.65,1.65,0,0,1,.68.5,2,2,0,0,1,.33.7,5.06,5.06,0,0,1,.09,1.1Z" style="fill:#fff"/><path d="M196.71,156.91l1.88.23a.68.68,0,0,0,.22.45,1.22,1.22,0,0,0,.74.18,1.92,1.92,0,0,0,1-.2.75.75,0,0,0,.32-.41,2.23,2.23,0,0,0,.08-.76v-.91a2.23,2.23,0,0,1-1.86,1,2.29,2.29,0,0,1-2-1.06,3.62,3.62,0,0,1-.57-2.09,3.44,3.44,0,0,1,.75-2.39,2.43,2.43,0,0,1,1.87-.82,2.27,2.27,0,0,1,1.91,1v-.87h1.54v5.58a5.64,5.64,0,0,1-.18,1.65,2.19,2.19,0,0,1-.51.85,2.25,2.25,0,0,1-.88.49,4.55,4.55,0,0,1-1.39.18,3.58,3.58,0,0,1-2.24-.55,1.7,1.7,0,0,1-.66-1.37Zm1.47-3.65a2.22,2.22,0,0,0,.39,1.45,1.16,1.16,0,0,0,.94.46,1.3,1.3,0,0,0,1-.47,2.05,2.05,0,0,0,.42-1.4,2.14,2.14,0,0,0-.4-1.43,1.24,1.24,0,0,0-1-.47,1.19,1.19,0,0,0-1,.46A2.11,2.11,0,0,0,198.18,153.26Z" style="fill:#fff"/></g><rect x="5.5" y="335.5" width="120" height="50" rx="7" style="fill:#526375"/><g style="isolation:isolate"><path d="M10.79,357.5l3.3-8.59h1.22l3.52,8.59h-1.3l-1-2.6H12.94L12,357.5ZM13.27,354h2.91l-.9-2.38c-.27-.72-.47-1.31-.61-1.78a10.84,10.84,0,0,1-.46,1.64Z" style="fill:#fff"/><path d="M23.64,357.5v-.79a2,2,0,0,1-1.74.93,2.47,2.47,0,0,1-1.37-.41,2.62,2.62,0,0,1-1-1.15,3.92,3.92,0,0,1-.34-1.69,4.39,4.39,0,0,1,.31-1.69,2.42,2.42,0,0,1,2.32-1.56,2.14,2.14,0,0,1,1,.23,2.18,2.18,0,0,1,.72.62v-3.08h1.05v8.59Zm-3.34-3.11a2.67,2.67,0,0,0,.51,1.79,1.5,1.5,0,0,0,2.36,0,2.63,2.63,0,0,0,.49-1.73,2.9,2.9,0,0,0-.5-1.87A1.51,1.51,0,0,0,22,352a1.45,1.45,0,0,0-1.17.57A2.82,2.82,0,0,0,20.3,354.39Z" style="fill:#fff"/><path d="M24.93,359.91l.2-.89a2.39,2.39,0,0,0,.5.08.57.57,0,0,0,.48-.21,2.15,2.15,0,0,0,.16-1.07v-6.54h1.05v6.56a3.06,3.06,0,0,1-.3,1.6,1.38,1.38,0,0,1-1.26.59A2.87,2.87,0,0,1,24.93,359.91Zm1.34-9.78v-1.22h1.05v1.22Z" style="fill:#fff"/><path d="M33,357.5v-.91a2.29,2.29,0,0,1-2,1.05,2.48,2.48,0,0,1-1-.21,1.68,1.68,0,0,1-.71-.53,1.84,1.84,0,0,1-.33-.78,5.84,5.84,0,0,1-.06-1v-3.85h1v3.45a5.37,5.37,0,0,0,.07,1.11,1.06,1.06,0,0,0,.42.66,1.34,1.34,0,0,0,.79.23,1.78,1.78,0,0,0,.9-.24,1.33,1.33,0,0,0,.58-.66,3.23,3.23,0,0,0,.18-1.22v-3.33H34v6.22Z" style="fill:#fff"/><path d="M35.19,355.64l1.05-.16a1.43,1.43,0,0,0,.48,1,1.75,1.75,0,0,0,1.13.33,1.67,1.67,0,0,0,1.07-.29.89.89,0,0,0,.36-.7.65.65,0,0,0-.31-.56,5.28,5.28,0,0,0-1.08-.36,9.59,9.59,0,0,1-1.61-.5,1.54,1.54,0,0,1-.68-.6,1.6,1.6,0,0,1-.23-.83,1.57,1.57,0,0,1,.19-.77,1.73,1.73,0,0,1,.52-.59,2.21,2.21,0,0,1,.67-.31,3.28,3.28,0,0,1,.91-.12,3.63,3.63,0,0,1,1.29.21,1.74,1.74,0,0,1,.81.57,2.22,2.22,0,0,1,.37,1l-1,.14a1.11,1.11,0,0,0-.4-.75,1.49,1.49,0,0,0-.95-.27,1.73,1.73,0,0,0-1,.24.7.7,0,0,0-.31.57.58.58,0,0,0,.13.37,1,1,0,0,0,.4.28l.93.27a12,12,0,0,1,1.56.49,1.54,1.54,0,0,1,.7.55,1.52,1.52,0,0,1,.25.9,1.78,1.78,0,0,1-.31,1,2,2,0,0,1-.88.72,3.27,3.27,0,0,1-1.32.25,3,3,0,0,1-1.85-.5A2.4,2.4,0,0,1,35.19,355.64Z" style="fill:#fff"/><path d="M43.92,356.56l.15.93a4.08,4.08,0,0,1-.8.09,1.82,1.82,0,0,1-.89-.18,1,1,0,0,1-.44-.48,3.6,3.6,0,0,1-.13-1.24V352.1H41v-.82h.78v-1.54l1-.64v2.18h1.06v.82H42.86v3.64a2.2,2.2,0,0,0,0,.58.49.49,0,0,0,.18.2.74.74,0,0,0,.36.08C43.57,356.6,43.73,356.58,43.92,356.56Z" style="fill:#fff"/><path d="M49.92,357.5l-2.28-8.59H48.8l1.31,5.63c.14.59.26,1.18.36,1.76q.33-1.38.39-1.59l1.64-5.8h1.37l1.23,4.35a21.74,21.74,0,0,1,.66,3c.11-.54.26-1.17.43-1.87l1.35-5.52h1.14l-2.35,8.59h-1.1L53.42,351c-.15-.55-.24-.89-.27-1-.09.39-.17.73-.25,1l-1.82,6.54Z" style="fill:#fff"/><path d="M63,350.12v-1.21h1v1.21Zm0,7.38v-6.22h1v6.22Z" style="fill:#fff"/><path d="M65.61,357.5v-6.22h1v.88a2.22,2.22,0,0,1,2-1,2.49,2.49,0,0,1,1,.2,1.58,1.58,0,0,1,.71.53,2.3,2.3,0,0,1,.33.78,5.85,5.85,0,0,1,.06,1v3.83H69.61v-3.79a2.91,2.91,0,0,0-.12-1,1,1,0,0,0-.44-.51,1.35,1.35,0,0,0-.73-.19,1.71,1.71,0,0,0-1.17.43,2.11,2.11,0,0,0-.49,1.62v3.4Z" style="fill:#fff"/><path d="M75.22,354.39a3.2,3.2,0,0,1,1-2.56,2.91,2.91,0,0,1,2-.69,2.79,2.79,0,0,1,2.1.84,3.2,3.2,0,0,1,.81,2.32,4.13,4.13,0,0,1-.36,1.89,2.52,2.52,0,0,1-1,1.07,3.07,3.07,0,0,1-1.5.38A2.79,2.79,0,0,1,76,356.8,3.33,3.33,0,0,1,75.22,354.39Zm1.09,0a2.64,2.64,0,0,0,.52,1.79,1.65,1.65,0,0,0,1.31.59,1.68,1.68,0,0,0,1.31-.59,2.72,2.72,0,0,0,.52-1.83,2.63,2.63,0,0,0-.52-1.75,1.75,1.75,0,0,0-2.62,0A2.64,2.64,0,0,0,76.31,354.39Z" style="fill:#fff"/><path d="M82.29,359.88v-8.6h1v.81a2.37,2.37,0,0,1,.77-.72,2.19,2.19,0,0,1,1-.23,2.38,2.38,0,0,1,1.4.41,2.52,2.52,0,0,1,.92,1.15,4.2,4.2,0,0,1,.31,1.64,4.13,4.13,0,0,1-.34,1.72A2.63,2.63,0,0,1,85,357.64a2,2,0,0,1-1-.22,2.26,2.26,0,0,1-.69-.56v3Zm1-5.46a2.74,2.74,0,0,0,.48,1.78,1.51,1.51,0,0,0,2.38,0,2.79,2.79,0,0,0,.5-1.84,2.75,2.75,0,0,0-.49-1.79A1.46,1.46,0,0,0,85,352a1.54,1.54,0,0,0-1.2.63A2.85,2.85,0,0,0,83.25,354.42Z" style="fill:#fff"/><path d="M89,359.88v-8.6h1v.81a2.47,2.47,0,0,1,.77-.72,2.22,2.22,0,0,1,1-.23,2.43,2.43,0,0,1,1.41.41,2.58,2.58,0,0,1,.92,1.15,4.39,4.39,0,0,1,.31,1.64,4.13,4.13,0,0,1-.35,1.72,2.6,2.6,0,0,1-2.37,1.58,2,2,0,0,1-.94-.22,2.26,2.26,0,0,1-.69-.56v3Zm1-5.46a2.68,2.68,0,0,0,.49,1.78,1.48,1.48,0,0,0,1.17.57,1.53,1.53,0,0,0,1.21-.59,2.85,2.85,0,0,0,.5-1.84,2.81,2.81,0,0,0-.49-1.79,1.45,1.45,0,0,0-2.36,0A2.79,2.79,0,0,0,89.92,354.42Z" style="fill:#fff"/><path d="M95.25,354.39a3.2,3.2,0,0,1,1-2.56,2.87,2.87,0,0,1,2-.69,2.79,2.79,0,0,1,2.1.84,3.2,3.2,0,0,1,.82,2.32,4,4,0,0,1-.37,1.89,2.55,2.55,0,0,1-1,1.07,3.11,3.11,0,0,1-1.51.38,2.79,2.79,0,0,1-2.11-.84A3.33,3.33,0,0,1,95.25,354.39Zm1.08,0a2.64,2.64,0,0,0,.52,1.79,1.66,1.66,0,0,0,1.31.59,1.68,1.68,0,0,0,1.31-.59,2.72,2.72,0,0,0,.52-1.83,2.58,2.58,0,0,0-.52-1.75,1.75,1.75,0,0,0-2.62,0A2.64,2.64,0,0,0,96.33,354.39Z" style="fill:#fff"/><path d="M101.89,355.64l1-.16a1.44,1.44,0,0,0,.49,1,1.72,1.72,0,0,0,1.12.33,1.68,1.68,0,0,0,1.08-.29.87.87,0,0,0,.35-.7.63.63,0,0,0-.31-.56,4.84,4.84,0,0,0-1.08-.36,9.71,9.71,0,0,1-1.6-.5,1.54,1.54,0,0,1-.68-.6,1.51,1.51,0,0,1-.23-.83,1.57,1.57,0,0,1,.19-.77,1.71,1.71,0,0,1,.51-.59,2.41,2.41,0,0,1,.68-.31,3.28,3.28,0,0,1,.91-.12,3.62,3.62,0,0,1,1.28.21,1.77,1.77,0,0,1,.82.57,2.1,2.1,0,0,1,.36,1l-1,.14a1.08,1.08,0,0,0-.41-.75,1.47,1.47,0,0,0-.95-.27,1.7,1.7,0,0,0-1,.24.71.71,0,0,0-.32.57.64.64,0,0,0,.13.37,1,1,0,0,0,.41.28q.15.06.93.27a12,12,0,0,1,1.56.49,1.54,1.54,0,0,1,.7.55,1.59,1.59,0,0,1,.25.9,1.78,1.78,0,0,1-.31,1,2,2,0,0,1-.89.72,3.19,3.19,0,0,1-1.31.25,3,3,0,0,1-1.85-.5A2.4,2.4,0,0,1,101.89,355.64Z" style="fill:#fff"/><path d="M108.32,350.12v-1.21h1.05v1.21Zm0,7.38v-6.22h1.05v6.22Z" style="fill:#fff"/><path d="M113.28,356.56l.15.93a4,4,0,0,1-.79.09,1.79,1.79,0,0,1-.89-.18,1,1,0,0,1-.45-.48,3.6,3.6,0,0,1-.13-1.24V352.1h-.77v-.82h.77v-1.54l1-.64v2.18h1.06v.82h-1.06v3.64a1.73,1.73,0,0,0,.06.58.38.38,0,0,0,.18.2.69.69,0,0,0,.36.08Z" style="fill:#fff"/><path d="M118.57,355.5l1.09.13a2.64,2.64,0,0,1-1,1.48,2.9,2.9,0,0,1-1.79.53,2.83,2.83,0,0,1-2.16-.84,3.31,3.31,0,0,1-.8-2.36,3.44,3.44,0,0,1,.81-2.44,2.77,2.77,0,0,1,2.1-.86,2.66,2.66,0,0,1,2,.85,3.39,3.39,0,0,1,.79,2.39c0,.06,0,.15,0,.28h-4.64a2.38,2.38,0,0,0,.58,1.57,1.74,1.74,0,0,0,1.3.54,1.62,1.62,0,0,0,1-.3A2,2,0,0,0,118.57,355.5Zm-3.46-1.71h3.47a2.09,2.09,0,0,0-.4-1.18,1.62,1.62,0,0,0-1.3-.61,1.68,1.68,0,0,0-1.22.49A1.9,1.9,0,0,0,115.11,353.79Z" style="fill:#fff"/><path d="M17.63,371.9v-.78a2,2,0,0,1-1.74.92,2.47,2.47,0,0,1-1.37-.41,2.65,2.65,0,0,1-1-1.14,4.12,4.12,0,0,1-.34-1.7,4.39,4.39,0,0,1,.31-1.69,2.42,2.42,0,0,1,2.32-1.56,2.14,2.14,0,0,1,1,.23,2.08,2.08,0,0,1,.72.62v-3.08h1.05v8.59Zm-3.34-3.11a2.67,2.67,0,0,0,.51,1.79,1.49,1.49,0,0,0,1.19.59,1.47,1.47,0,0,0,1.17-.56,2.57,2.57,0,0,0,.49-1.73,2.9,2.9,0,0,0-.5-1.87,1.5,1.5,0,0,0-1.21-.6,1.45,1.45,0,0,0-1.17.57A2.82,2.82,0,0,0,14.29,368.79Z" style="fill:#fff"/><path d="M20.27,364.52v-1.21h1.06v1.21Zm0,7.38v-6.22h1.06v6.22Z" style="fill:#fff"/><path d="M22.92,371.9v-6.22h.95v.94a2.48,2.48,0,0,1,.67-.87,1.19,1.19,0,0,1,.68-.21,2,2,0,0,1,1.08.34l-.36,1a1.46,1.46,0,0,0-.78-.23,1.07,1.07,0,0,0-.62.2,1.2,1.2,0,0,0-.39.58,4.06,4.06,0,0,0-.18,1.23v3.26Z" style="fill:#fff"/><path d="M31.19,369.9l1.09.13a2.61,2.61,0,0,1-1,1.48,3.22,3.22,0,0,1-3.94-.31,3.26,3.26,0,0,1-.8-2.36,3.48,3.48,0,0,1,.8-2.44,2.77,2.77,0,0,1,2.1-.86,2.66,2.66,0,0,1,2,.85,3.35,3.35,0,0,1,.79,2.39v.28H27.67a2.38,2.38,0,0,0,.58,1.57,1.72,1.72,0,0,0,1.3.54,1.66,1.66,0,0,0,1-.3A2,2,0,0,0,31.19,369.9Zm-3.47-1.71H31.2a2.17,2.17,0,0,0-.4-1.18,1.64,1.64,0,0,0-1.31-.61,1.7,1.7,0,0,0-1.22.49A1.94,1.94,0,0,0,27.72,368.19Z" style="fill:#fff"/><path d="M37.66,369.62l1,.14a2.64,2.64,0,0,1-.87,1.67,2.52,2.52,0,0,1-1.72.61,2.67,2.67,0,0,1-2-.83,3.4,3.4,0,0,1-.78-2.4,4.35,4.35,0,0,1,.33-1.76,2.3,2.3,0,0,1,1-1.13,2.93,2.93,0,0,1,1.49-.38,2.58,2.58,0,0,1,1.65.51,2.35,2.35,0,0,1,.83,1.46l-1,.15a1.71,1.71,0,0,0-.51-.94,1.36,1.36,0,0,0-.9-.32,1.61,1.61,0,0,0-1.3.58,2.71,2.71,0,0,0-.5,1.8,2.82,2.82,0,0,0,.48,1.83,1.59,1.59,0,0,0,1.26.56,1.43,1.43,0,0,0,1-.38A1.83,1.83,0,0,0,37.66,369.62Z" style="fill:#fff"/><path d="M41.9,371l.16.93a4.16,4.16,0,0,1-.8.09,1.82,1.82,0,0,1-.89-.18,1,1,0,0,1-.45-.48,3.88,3.88,0,0,1-.13-1.24V366.5H39v-.82h.77v-1.54l1.05-.64v2.18H41.9v.82H40.84v3.64a1.73,1.73,0,0,0,.06.58.49.49,0,0,0,.18.2.74.74,0,0,0,.36.08C41.56,371,41.71,371,41.9,371Z" style="fill:#fff"/><path d="M42.94,364.52v-1.21H44v1.21Zm0,7.38v-6.22H44v6.22Z" style="fill:#fff"/><path d="M45.21,368.79a3.2,3.2,0,0,1,1-2.56,2.91,2.91,0,0,1,2-.69,2.78,2.78,0,0,1,2.09.84A3.16,3.16,0,0,1,51,368.7a4.13,4.13,0,0,1-.36,1.89,2.52,2.52,0,0,1-1,1.07,3.1,3.1,0,0,1-1.5.38A2.82,2.82,0,0,1,46,371.2,3.37,3.37,0,0,1,45.21,368.79Zm1.08,0a2.69,2.69,0,0,0,.52,1.79,1.75,1.75,0,0,0,2.62,0,2.72,2.72,0,0,0,.53-1.83,2.58,2.58,0,0,0-.53-1.75,1.68,1.68,0,0,0-1.3-.59,1.7,1.7,0,0,0-1.32.59A2.69,2.69,0,0,0,46.29,368.79Z" style="fill:#fff"/><path d="M52.28,371.9v-6.22h.94v.88a2.25,2.25,0,0,1,2-1,2.52,2.52,0,0,1,1,.2,1.64,1.64,0,0,1,.71.53,2.1,2.1,0,0,1,.32.78,5.85,5.85,0,0,1,.06,1v3.83h-1v-3.78a2.65,2.65,0,0,0-.13-1,1,1,0,0,0-.43-.51,1.38,1.38,0,0,0-.74-.19,1.69,1.69,0,0,0-1.16.43,2.09,2.09,0,0,0-.49,1.62v3.4Z" style="fill:#fff"/><path d="M61.89,368.79a3.2,3.2,0,0,1,1-2.56,2.91,2.91,0,0,1,2-.69,2.82,2.82,0,0,1,2.1.84,3.2,3.2,0,0,1,.81,2.32,4.13,4.13,0,0,1-.36,1.89,2.52,2.52,0,0,1-1,1.07,3.1,3.1,0,0,1-1.5.38,2.78,2.78,0,0,1-2.11-.84A3.33,3.33,0,0,1,61.89,368.79Zm1.08,0a2.64,2.64,0,0,0,.53,1.79,1.64,1.64,0,0,0,1.31.59,1.7,1.7,0,0,0,1.31-.59,2.77,2.77,0,0,0,.52-1.83,2.58,2.58,0,0,0-.53-1.75,1.74,1.74,0,0,0-2.61,0A2.64,2.64,0,0,0,63,368.79Z" style="fill:#fff"/><path d="M69.21,371.9v-5.4h-.93v-.82h.93V365a3.12,3.12,0,0,1,.11-.94,1.33,1.33,0,0,1,.54-.66,1.9,1.9,0,0,1,1.07-.26,5.25,5.25,0,0,1,1,.11l-.16.92a3.5,3.5,0,0,0-.62-.06.91.91,0,0,0-.68.21,1.05,1.05,0,0,0-.2.76v.58h1.21v.82H70.26v5.4Z" style="fill:#fff"/><path d="M75.43,372.42l1,.15a1,1,0,0,0,.35.69,1.75,1.75,0,0,0,1.08.29,1.85,1.85,0,0,0,1.13-.29,1.53,1.53,0,0,0,.54-.82,6.83,6.83,0,0,0,.07-1.35,2.16,2.16,0,0,1-1.72.81,2.35,2.35,0,0,1-2-.93,3.59,3.59,0,0,1-.7-2.22,4.21,4.21,0,0,1,.32-1.64,2.59,2.59,0,0,1,.94-1.16,2.48,2.48,0,0,1,1.44-.41,2.2,2.2,0,0,1,1.81.89v-.75h1v5.38a5.06,5.06,0,0,1-.3,2.06,2.16,2.16,0,0,1-.94.95,3.18,3.18,0,0,1-1.58.36,3,3,0,0,1-1.8-.51A1.7,1.7,0,0,1,75.43,372.42Zm.87-3.74a2.7,2.7,0,0,0,.49,1.78A1.54,1.54,0,0,0,78,371a1.58,1.58,0,0,0,1.22-.56,2.62,2.62,0,0,0,.49-1.76,2.54,2.54,0,0,0-.51-1.72,1.54,1.54,0,0,0-1.22-.58,1.5,1.5,0,0,0-1.19.57A2.54,2.54,0,0,0,76.3,368.68Z" style="fill:#fff"/><path d="M82.29,371.9v-6.22h.95v.94a2.48,2.48,0,0,1,.67-.87,1.16,1.16,0,0,1,.67-.21,2,2,0,0,1,1.09.34l-.37,1a1.41,1.41,0,0,0-.77-.23,1,1,0,0,0-.62.2,1.2,1.2,0,0,0-.39.58,4.06,4.06,0,0,0-.18,1.23v3.26Z" style="fill:#fff"/><path d="M90.36,371.13a4.25,4.25,0,0,1-1.13.71,3.42,3.42,0,0,1-1.17.2,2.28,2.28,0,0,1-1.57-.5,1.64,1.64,0,0,1-.55-1.28,1.74,1.74,0,0,1,.21-.84,1.65,1.65,0,0,1,.54-.6,2.78,2.78,0,0,1,.76-.35c.21-.05.52-.1.94-.16a9.59,9.59,0,0,0,1.88-.36v-.27a1.16,1.16,0,0,0-.3-.91,1.74,1.74,0,0,0-1.2-.36,1.92,1.92,0,0,0-1.1.26,1.59,1.59,0,0,0-.52.92l-1-.14a2.63,2.63,0,0,1,.46-1.07,2,2,0,0,1,.93-.62,4.11,4.11,0,0,1,1.42-.22,3.85,3.85,0,0,1,1.29.18,1.72,1.72,0,0,1,.73.48,1.56,1.56,0,0,1,.33.71,5.59,5.59,0,0,1,0,1v1.4a15.8,15.8,0,0,0,.07,1.86,2.6,2.6,0,0,0,.27.75h-1.1A2.17,2.17,0,0,1,90.36,371.13Zm-.09-2.35a8.26,8.26,0,0,1-1.73.4,3.82,3.82,0,0,0-.92.21.91.91,0,0,0-.41.34.92.92,0,0,0,.17,1.2,1.37,1.37,0,0,0,.94.28A2.16,2.16,0,0,0,89.4,371a1.64,1.64,0,0,0,.7-.73,2.62,2.62,0,0,0,.17-1.06Z" style="fill:#fff"/><path d="M97,371.9v-.78a2,2,0,0,1-1.74.92,2.45,2.45,0,0,1-1.37-.41,2.65,2.65,0,0,1-1-1.14,4,4,0,0,1-.34-1.7,4.39,4.39,0,0,1,.31-1.69,2.51,2.51,0,0,1,.93-1.16,2.48,2.48,0,0,1,1.39-.4,2.17,2.17,0,0,1,1,.23,2.28,2.28,0,0,1,.72.62v-3.08h1v8.59Zm-3.34-3.11a2.67,2.67,0,0,0,.51,1.79,1.49,1.49,0,0,0,1.19.59,1.47,1.47,0,0,0,1.17-.56,2.63,2.63,0,0,0,.48-1.73,2.91,2.91,0,0,0-.49-1.87,1.51,1.51,0,0,0-1.21-.6,1.48,1.48,0,0,0-1.18.57A2.88,2.88,0,0,0,93.67,368.79Z" style="fill:#fff"/><path d="M99.65,364.52v-1.21h1v1.21Zm0,7.38v-6.22h1v6.22Z" style="fill:#fff"/><path d="M106.57,369.9l1.09.13a2.61,2.61,0,0,1-1,1.48,3.22,3.22,0,0,1-3.94-.31,3.26,3.26,0,0,1-.8-2.36,3.44,3.44,0,0,1,.81-2.44,2.73,2.73,0,0,1,2.09-.86,2.63,2.63,0,0,1,2,.85,3.35,3.35,0,0,1,.79,2.39v.28h-4.64a2.38,2.38,0,0,0,.58,1.57,1.72,1.72,0,0,0,1.3.54,1.66,1.66,0,0,0,1-.3A2,2,0,0,0,106.57,369.9Zm-3.46-1.71h3.47a2.17,2.17,0,0,0-.4-1.18,1.62,1.62,0,0,0-1.3-.61,1.71,1.71,0,0,0-1.23.49A1.89,1.89,0,0,0,103.11,368.19Z" style="fill:#fff"/><path d="M109,371.9v-6.22h1v.88a2.25,2.25,0,0,1,2-1,2.54,2.54,0,0,1,1,.2,1.55,1.55,0,0,1,.7.53,2,2,0,0,1,.33.78,5.85,5.85,0,0,1,.06,1v3.83H113v-3.78a2.94,2.94,0,0,0-.12-1,1,1,0,0,0-.44-.51,1.32,1.32,0,0,0-.73-.19,1.67,1.67,0,0,0-1.16.43,2.09,2.09,0,0,0-.49,1.62v3.4Z" style="fill:#fff"/><path d="M118,371l.15.93a4.08,4.08,0,0,1-.8.09,1.82,1.82,0,0,1-.89-.18,1,1,0,0,1-.44-.48,3.6,3.6,0,0,1-.13-1.24V366.5h-.77v-.82h.77v-1.54l1.05-.64v2.18H118v.82H116.9v3.64a2.2,2.2,0,0,0,0,.58.46.46,0,0,0,.19.2.69.69,0,0,0,.36.08Z" style="fill:#fff"/></g><path d="M110.5,170.5l65,65-65,65-65-65Z" style="fill:#526375"/><g style="isolation:isolate"><path d="M72.45,215.62v-1.21h1v1.21Zm0,7.38v-6.22h1V223Z" style="fill:#fff"/><path d="M77.41,222.06l.15.93a4,4,0,0,1-.79.09,1.79,1.79,0,0,1-.89-.18,1,1,0,0,1-.45-.48,3.88,3.88,0,0,1-.13-1.24V217.6h-.77v-.82h.77v-1.54l1-.64v2.18h1.06v.82H76.35v3.64a1.73,1.73,0,0,0,.06.58.38.38,0,0,0,.18.2.69.69,0,0,0,.36.08C77.07,222.1,77.22,222.08,77.41,222.06Z" style="fill:#fff"/><path d="M82.7,221l1.09.13a2.64,2.64,0,0,1-1,1.48,2.89,2.89,0,0,1-1.78.53,2.85,2.85,0,0,1-2.17-.84,3.31,3.31,0,0,1-.8-2.36,3.44,3.44,0,0,1,.81-2.44,2.77,2.77,0,0,1,2.1-.86,2.66,2.66,0,0,1,2,.85,3.39,3.39,0,0,1,.79,2.39c0,.06,0,.15,0,.28H79.18a2.38,2.38,0,0,0,.58,1.57,1.74,1.74,0,0,0,1.3.54,1.62,1.62,0,0,0,1-.3A2,2,0,0,0,82.7,221Zm-3.46-1.71h3.47a2.09,2.09,0,0,0-.39-1.18A1.65,1.65,0,0,0,81,217.5a1.7,1.7,0,0,0-1.22.49A1.94,1.94,0,0,0,79.24,219.29Z" style="fill:#fff"/><path d="M85.11,223v-6.22h.94v.94a2.6,2.6,0,0,1,.68-.87,1.16,1.16,0,0,1,.67-.21,2,2,0,0,1,1.09.34l-.37,1a1.41,1.41,0,0,0-.77-.23,1,1,0,0,0-.62.2,1.08,1.08,0,0,0-.39.58,4.06,4.06,0,0,0-.18,1.23V223Z" style="fill:#fff"/><path d="M93.17,222.23a4.07,4.07,0,0,1-1.12.71,3.46,3.46,0,0,1-1.17.2,2.26,2.26,0,0,1-1.57-.5,1.64,1.64,0,0,1-.55-1.28,1.83,1.83,0,0,1,.2-.84,1.67,1.67,0,0,1,.55-.6,2.65,2.65,0,0,1,.76-.35,8,8,0,0,1,.94-.16,9.75,9.75,0,0,0,1.88-.36v-.27a1.16,1.16,0,0,0-.3-.91,1.76,1.76,0,0,0-1.2-.36,1.92,1.92,0,0,0-1.1.26,1.59,1.59,0,0,0-.52.92l-1-.14a2.57,2.57,0,0,1,.46-1.07,2,2,0,0,1,.93-.62,4.09,4.09,0,0,1,1.41-.22,3.87,3.87,0,0,1,1.3.18,1.72,1.72,0,0,1,.73.48,1.56,1.56,0,0,1,.33.71,6.84,6.84,0,0,1,.05,1v1.4a13.75,13.75,0,0,0,.07,1.86,2.12,2.12,0,0,0,.27.75H93.38A2.7,2.7,0,0,1,93.17,222.23Zm-.08-2.35a8.26,8.26,0,0,1-1.73.4,3.82,3.82,0,0,0-.92.21.82.82,0,0,0-.41.34.92.92,0,0,0,.17,1.2,1.34,1.34,0,0,0,.93.28,2.17,2.17,0,0,0,1.09-.26,1.64,1.64,0,0,0,.7-.73,2.62,2.62,0,0,0,.17-1.06Z" style="fill:#fff"/><path d="M98.09,222.06l.15.93a4,4,0,0,1-.79.09,1.86,1.86,0,0,1-.9-.18,1,1,0,0,1-.44-.48,3.6,3.6,0,0,1-.13-1.24V217.6h-.77v-.82H96v-1.54l1-.64v2.18h1.06v.82H97v3.64a2.2,2.2,0,0,0,0,.58.46.46,0,0,0,.19.2.69.69,0,0,0,.36.08Z" style="fill:#fff"/><path d="M99.13,215.62v-1.21h1.05v1.21Zm0,7.38v-6.22h1.05V223Z" style="fill:#fff"/><path d="M101.39,219.89a3.18,3.18,0,0,1,1-2.56,2.87,2.87,0,0,1,2-.69,2.79,2.79,0,0,1,2.1.84,3.2,3.2,0,0,1,.81,2.32,4.13,4.13,0,0,1-.36,1.89,2.55,2.55,0,0,1-1,1.07,3.11,3.11,0,0,1-1.51.38,2.79,2.79,0,0,1-2.11-.84A3.33,3.33,0,0,1,101.39,219.89Zm1.09,0a2.64,2.64,0,0,0,.52,1.79,1.66,1.66,0,0,0,1.31.59,1.68,1.68,0,0,0,1.31-.59,2.72,2.72,0,0,0,.52-1.83,2.58,2.58,0,0,0-.52-1.75,1.75,1.75,0,0,0-2.62,0A2.64,2.64,0,0,0,102.48,219.89Z" style="fill:#fff"/><path d="M108.46,223v-6.22h1v.88a2.25,2.25,0,0,1,2-1,2.46,2.46,0,0,1,1,.2,1.58,1.58,0,0,1,.71.53,2,2,0,0,1,.33.78,5.85,5.85,0,0,1,.06,1V223h-1.06v-3.79a2.91,2.91,0,0,0-.12-1,1,1,0,0,0-.44-.51,1.35,1.35,0,0,0-.73-.19A1.71,1.71,0,0,0,110,218a2.12,2.12,0,0,0-.48,1.62V223Z" style="fill:#fff"/><path d="M118.33,219.24v-1l5.69-2.4v1l-4.51,1.85,4.51,1.87v1.05Z" style="fill:#fff"/><path d="M128.79,223v-8.59h1.05V223Z" style="fill:#fff"/><path d="M131.48,215.62v-1.21h1.06v1.21Zm0,7.38v-6.22h1.06V223Z" style="fill:#fff"/><path d="M134.14,223v-6.22h1v.87a2.32,2.32,0,0,1,3-.73,1.58,1.58,0,0,1,.62.81,2.22,2.22,0,0,1,1.92-1.09,1.92,1.92,0,0,1,1.43.51,2.2,2.2,0,0,1,.49,1.58V223h-1v-3.92a2.77,2.77,0,0,0-.11-.91.86.86,0,0,0-.37-.45,1.19,1.19,0,0,0-.63-.17,1.48,1.48,0,0,0-1.09.44,1.9,1.9,0,0,0-.44,1.39V223h-1v-4a1.82,1.82,0,0,0-.26-1.06,1,1,0,0,0-.84-.35,1.48,1.48,0,0,0-.82.24,1.25,1.25,0,0,0-.55.68,3.71,3.71,0,0,0-.17,1.3V223Z" style="fill:#fff"/><path d="M144.14,215.62v-1.21h1.06v1.21Zm0,7.38v-6.22h1.06V223Z" style="fill:#fff"/><path d="M149.11,222.06l.15.93a4.08,4.08,0,0,1-.8.09,1.82,1.82,0,0,1-.89-.18,1,1,0,0,1-.44-.48,3.6,3.6,0,0,1-.13-1.24V217.6h-.78v-.82H147v-1.54l1.05-.64v2.18h1.06v.82h-1.06v3.64a2.2,2.2,0,0,0,0,.58.49.49,0,0,0,.18.2.74.74,0,0,0,.36.08C148.76,222.1,148.92,222.08,149.11,222.06Z" style="fill:#fff"/><path d="M112.2,236.39a3.85,3.85,0,0,1-1.14.87,3.12,3.12,0,0,1-1.33.29,2.64,2.64,0,0,1-2.09-.89A2.44,2.44,0,0,1,107,235a2.22,2.22,0,0,1,.52-1.44,4.28,4.28,0,0,1,1.53-1.12,4.74,4.74,0,0,1-.77-1.09,1.85,1.85,0,0,1-.2-.8,1.76,1.76,0,0,1,.61-1.34,2.09,2.09,0,0,1,1.52-.58,2,2,0,0,1,1.44.54,1.71,1.71,0,0,1,.56,1.3c0,.81-.54,1.51-1.62,2.09l1.54,2a4.75,4.75,0,0,0,.41-1.19l1.1.23a5.76,5.76,0,0,1-.77,1.85,6,6,0,0,0,1.35,1.32l-.71.84A6,6,0,0,1,112.2,236.39Zm-.66-.84-1.94-2.39a3.7,3.7,0,0,0-1.15.94,1.55,1.55,0,0,0-.3.87,1.8,1.8,0,0,0,.42,1.08,1.36,1.36,0,0,0,1.17.57,2,2,0,0,0,1-.3A2.49,2.49,0,0,0,111.54,235.55Zm-1.49-3.64a2.78,2.78,0,0,0,.89-.71,1.15,1.15,0,0,0,.2-.67,1,1,0,0,0-.27-.72.94.94,0,0,0-.7-.28,1,1,0,0,0-.71.28.88.88,0,0,0-.28.67,1,1,0,0,0,.1.42,2.23,2.23,0,0,0,.31.47Z" style="fill:#fff"/><path d="M77.75,252.32l1,.15a1.05,1.05,0,0,0,.36.69,1.79,1.79,0,0,0,1.07.29,1.9,1.9,0,0,0,1.13-.29,1.42,1.42,0,0,0,.54-.82A6.57,6.57,0,0,0,82,251a2.16,2.16,0,0,1-1.72.81,2.35,2.35,0,0,1-2-.93,3.53,3.53,0,0,1-.7-2.22,4.21,4.21,0,0,1,.32-1.64,2.64,2.64,0,0,1,.93-1.16,2.48,2.48,0,0,1,1.44-.41,2.22,2.22,0,0,1,1.82.89v-.75h1V251a5.31,5.31,0,0,1-.29,2.06,2.16,2.16,0,0,1-.94.95,3.21,3.21,0,0,1-1.58.36,3,3,0,0,1-1.8-.51A1.66,1.66,0,0,1,77.75,252.32Zm.87-3.74a2.65,2.65,0,0,0,.49,1.78,1.53,1.53,0,0,0,1.22.57,1.58,1.58,0,0,0,1.22-.56,2.68,2.68,0,0,0,.49-1.76,2.54,2.54,0,0,0-.51-1.72,1.55,1.55,0,0,0-1.22-.58,1.53,1.53,0,0,0-1.2.57A2.59,2.59,0,0,0,78.62,248.58Z" style="fill:#fff"/><path d="M84.6,251.8v-6.22h1v.94a2.74,2.74,0,0,1,.67-.87,1.21,1.21,0,0,1,.68-.21,2,2,0,0,1,1.09.34l-.37,1a1.51,1.51,0,0,0-.77-.22,1,1,0,0,0-.62.2,1.15,1.15,0,0,0-.4.58,4.4,4.4,0,0,0-.17,1.23v3.26Z" style="fill:#fff"/><path d="M92.67,251a4,4,0,0,1-1.13.71,3.36,3.36,0,0,1-1.16.2,2.26,2.26,0,0,1-1.57-.5,1.64,1.64,0,0,1-.56-1.28,1.72,1.72,0,0,1,.21-.84,1.67,1.67,0,0,1,.55-.6,2.65,2.65,0,0,1,.76-.35,8.12,8.12,0,0,1,.93-.16,9.44,9.44,0,0,0,1.88-.36c0-.14,0-.24,0-.27a1.16,1.16,0,0,0-.3-.91,1.76,1.76,0,0,0-1.2-.36,1.9,1.9,0,0,0-1.1.26,1.59,1.59,0,0,0-.52.92l-1-.14a2.45,2.45,0,0,1,.46-1.07,1.93,1.93,0,0,1,.93-.62,4.09,4.09,0,0,1,1.41-.22,3.91,3.91,0,0,1,1.3.18,1.78,1.78,0,0,1,.73.48,1.56,1.56,0,0,1,.33.71,6.84,6.84,0,0,1,.05,1v1.4a13.75,13.75,0,0,0,.07,1.86,2.12,2.12,0,0,0,.27.75H92.88A2.17,2.17,0,0,1,92.67,251Zm-.09-2.35a8,8,0,0,1-1.72.4,3.82,3.82,0,0,0-.92.21.82.82,0,0,0-.41.34.92.92,0,0,0,.17,1.2,1.34,1.34,0,0,0,.93.28,2.17,2.17,0,0,0,1.09-.26,1.7,1.7,0,0,0,.7-.73,2.65,2.65,0,0,0,.16-1.06Z" style="fill:#fff"/><path d="M99.32,251.8V251a1.92,1.92,0,0,1-1.74.93,2.5,2.5,0,0,1-1.37-.41,2.67,2.67,0,0,1-1-1.15,3.92,3.92,0,0,1-.34-1.69,4.39,4.39,0,0,1,.31-1.69,2.39,2.39,0,0,1,.93-1.16,2.46,2.46,0,0,1,1.39-.4,2.17,2.17,0,0,1,1,.23,2.14,2.14,0,0,1,.71.62v-3.08h1v8.59ZM96,248.69a2.73,2.73,0,0,0,.5,1.79,1.51,1.51,0,0,0,2.37,0,2.63,2.63,0,0,0,.48-1.73,2.91,2.91,0,0,0-.49-1.87,1.51,1.51,0,0,0-1.21-.6,1.48,1.48,0,0,0-1.18.57A2.88,2.88,0,0,0,96,248.69Z" style="fill:#fff"/><path d="M104.9,248.69a3.2,3.2,0,0,1,1-2.56,2.91,2.91,0,0,1,2-.69,2.82,2.82,0,0,1,2.1.84,3.2,3.2,0,0,1,.81,2.32,4.13,4.13,0,0,1-.36,1.89,2.52,2.52,0,0,1-1.05,1.07,3.1,3.1,0,0,1-1.5.38,2.78,2.78,0,0,1-2.11-.84A3.33,3.33,0,0,1,104.9,248.69Zm1.09,0a2.64,2.64,0,0,0,.52,1.79,1.64,1.64,0,0,0,1.31.59,1.7,1.7,0,0,0,1.31-.59,2.77,2.77,0,0,0,.52-1.83,2.58,2.58,0,0,0-.53-1.75,1.74,1.74,0,0,0-2.61,0A2.64,2.64,0,0,0,106,248.69Z" style="fill:#fff"/><path d="M112.22,251.8v-5.4h-.93v-.82h.93v-.66a3.12,3.12,0,0,1,.11-.94,1.33,1.33,0,0,1,.54-.66,1.9,1.9,0,0,1,1.07-.26,5.25,5.25,0,0,1,1,.11l-.16.92a3.5,3.5,0,0,0-.62-.06.91.91,0,0,0-.68.21,1.05,1.05,0,0,0-.2.76v.58h1.21v.82h-1.21v5.4Z" style="fill:#fff"/><path d="M118.74,251.8v-8.59h1.71l2,6.08c.19.57.32,1,.41,1.27.1-.31.25-.77.46-1.37l2.05-6h1.53v8.59h-1.09v-7.19l-2.5,7.19h-1l-2.49-7.31v7.31Z" style="fill:#fff"/><path d="M128.38,249l1.07-.09a2.25,2.25,0,0,0,.36,1.05,1.87,1.87,0,0,0,.86.67,3.27,3.27,0,0,0,1.32.26,3.15,3.15,0,0,0,1.15-.2,1.56,1.56,0,0,0,.74-.53,1.23,1.23,0,0,0,.24-.73,1.16,1.16,0,0,0-.23-.71,1.82,1.82,0,0,0-.78-.51c-.23-.08-.74-.22-1.53-.41a7.62,7.62,0,0,1-1.65-.54,2.36,2.36,0,0,1-.92-.8,2,2,0,0,1-.3-1.07,2.18,2.18,0,0,1,.37-1.22,2.22,2.22,0,0,1,1.08-.85,4,4,0,0,1,1.57-.3,4.43,4.43,0,0,1,1.69.31,2.48,2.48,0,0,1,1.12.91,2.59,2.59,0,0,1,.42,1.35l-1.09.08a1.8,1.8,0,0,0-.59-1.23,2.31,2.31,0,0,0-1.5-.41,2.4,2.4,0,0,0-1.5.37,1.14,1.14,0,0,0-.48.91,1,1,0,0,0,.34.77,4.55,4.55,0,0,0,1.71.61,10.72,10.72,0,0,1,1.9.55,2.64,2.64,0,0,1,1.11.87,2.13,2.13,0,0,1,.36,1.22,2.38,2.38,0,0,1-.39,1.3,2.7,2.7,0,0,1-1.13.94A4,4,0,0,1,132,252a5,5,0,0,1-1.95-.34,2.73,2.73,0,0,1-1.24-1A2.91,2.91,0,0,1,128.38,249Z" style="fill:#fff"/><path d="M136.79,251.8v-8.59H143v1h-5.07v2.63h4.75v1h-4.75v2.93h5.27v1Z" style="fill:#fff"/><path d="M81.3,262.44v-1l5.69-2.4v1.05L82.48,262,87,263.83v1.05Z" style="fill:#fff"/><path d="M94.08,265.26l.15.93a4,4,0,0,1-.79.09,1.79,1.79,0,0,1-.89-.18,1,1,0,0,1-.45-.48,3.88,3.88,0,0,1-.13-1.24V260.8H91.2V260H92v-1.54l1-.64V260h1.06v.82H93v3.64a1.73,1.73,0,0,0,.06.58.38.38,0,0,0,.18.2.69.69,0,0,0,.36.08C93.74,265.3,93.89,265.28,94.08,265.26Z" style="fill:#fff"/><path d="M95.11,266.2v-8.59h1.06v3.08a2.34,2.34,0,0,1,1.86-.85,2.53,2.53,0,0,1,1.2.27,1.56,1.56,0,0,1,.73.75,3.44,3.44,0,0,1,.22,1.4v3.94H99.13v-3.94a1.61,1.61,0,0,0-.35-1.15,1.26,1.26,0,0,0-1-.36,1.74,1.74,0,0,0-.88.24,1.4,1.4,0,0,0-.59.66,3.17,3.17,0,0,0-.17,1.15v3.4Z" style="fill:#fff"/><path d="M101.78,266.2V260h.94v.94a2.6,2.6,0,0,1,.68-.87,1.16,1.16,0,0,1,.67-.21,2,2,0,0,1,1.09.34l-.37,1a1.41,1.41,0,0,0-.77-.23,1,1,0,0,0-.62.2,1.08,1.08,0,0,0-.39.58,4.06,4.06,0,0,0-.18,1.23v3.26Z" style="fill:#fff"/><path d="M110,264.2l1.09.13a2.64,2.64,0,0,1-.95,1.48,3.24,3.24,0,0,1-4-.31,3.31,3.31,0,0,1-.8-2.36,3.44,3.44,0,0,1,.81-2.44,2.77,2.77,0,0,1,2.1-.86,2.66,2.66,0,0,1,2,.85,3.39,3.39,0,0,1,.79,2.39c0,.06,0,.15,0,.28h-4.64a2.38,2.38,0,0,0,.58,1.57,1.74,1.74,0,0,0,1.3.54,1.62,1.62,0,0,0,1-.3A2,2,0,0,0,110,264.2Zm-3.46-1.71h3.47a2.09,2.09,0,0,0-.39-1.18,1.65,1.65,0,0,0-1.31-.61,1.7,1.7,0,0,0-1.22.49A1.94,1.94,0,0,0,106.58,262.49Z" style="fill:#fff"/><path d="M112,264.34l1-.16a1.44,1.44,0,0,0,.49,1,1.7,1.7,0,0,0,1.12.33,1.66,1.66,0,0,0,1.08-.29.9.9,0,0,0,.35-.7.64.64,0,0,0-.31-.56,5.28,5.28,0,0,0-1.08-.36,9.92,9.92,0,0,1-1.61-.5,1.55,1.55,0,0,1-.91-1.43,1.57,1.57,0,0,1,.19-.77,1.73,1.73,0,0,1,.52-.59,2.33,2.33,0,0,1,.67-.31,3.34,3.34,0,0,1,.91-.12,3.63,3.63,0,0,1,1.29.21,1.77,1.77,0,0,1,.82.57,2.35,2.35,0,0,1,.36,1l-1,.14a1.16,1.16,0,0,0-.41-.75,1.47,1.47,0,0,0-1-.27,1.73,1.73,0,0,0-1,.24.7.7,0,0,0-.31.57.58.58,0,0,0,.13.37,1,1,0,0,0,.4.28l.94.27a13.15,13.15,0,0,1,1.56.49,1.57,1.57,0,0,1,.69.55,1.52,1.52,0,0,1,.25.9,1.85,1.85,0,0,1-.3,1,2.06,2.06,0,0,1-.89.72,3.26,3.26,0,0,1-1.31.25,3,3,0,0,1-1.85-.5A2.31,2.31,0,0,1,112,264.34Z" style="fill:#fff"/><path d="M118.46,266.2v-8.59h1.05v3.08a2.35,2.35,0,0,1,1.87-.85,2.53,2.53,0,0,1,1.2.27,1.6,1.6,0,0,1,.73.75,3.62,3.62,0,0,1,.22,1.4v3.94h-1.06v-3.94a1.61,1.61,0,0,0-.34-1.15,1.28,1.28,0,0,0-1-.36,1.71,1.71,0,0,0-.88.24,1.3,1.3,0,0,0-.59.66,2.94,2.94,0,0,0-.18,1.15v3.4Z" style="fill:#fff"/><path d="M124.74,263.09a3.2,3.2,0,0,1,1-2.56,2.9,2.9,0,0,1,2-.69,2.78,2.78,0,0,1,2.09.84,3.16,3.16,0,0,1,.82,2.32,4.13,4.13,0,0,1-.36,1.89,2.52,2.52,0,0,1-1.05,1.07,3.1,3.1,0,0,1-1.5.38,2.82,2.82,0,0,1-2.12-.84A3.37,3.37,0,0,1,124.74,263.09Zm1.08,0a2.69,2.69,0,0,0,.52,1.79,1.75,1.75,0,0,0,2.62,0,2.72,2.72,0,0,0,.52-1.83,2.58,2.58,0,0,0-.52-1.75,1.68,1.68,0,0,0-1.3-.59,1.7,1.7,0,0,0-1.32.59A2.69,2.69,0,0,0,125.82,263.09Z" style="fill:#fff"/><path d="M131.78,266.2v-8.59h1.06v8.59Z" style="fill:#fff"/><path d="M138.51,266.2v-.78a2,2,0,0,1-1.74.92,2.47,2.47,0,0,1-1.37-.41,2.65,2.65,0,0,1-1-1.14,4,4,0,0,1-.34-1.7,4.39,4.39,0,0,1,.31-1.69,2.42,2.42,0,0,1,2.32-1.56,2.14,2.14,0,0,1,1,.23,2.18,2.18,0,0,1,.72.62v-3.08h1.05v8.59Zm-3.34-3.11a2.67,2.67,0,0,0,.51,1.79,1.49,1.49,0,0,0,1.19.59,1.47,1.47,0,0,0,1.17-.56,2.63,2.63,0,0,0,.49-1.73,2.9,2.9,0,0,0-.5-1.87,1.5,1.5,0,0,0-1.21-.6,1.45,1.45,0,0,0-1.17.57A2.82,2.82,0,0,0,135.17,263.09Z" style="fill:#fff"/></g><path d="M65.5,335.5v-10q0-10-10-10h-20q-10,0-10-10v-60q0-10,6.82-10h6.81" style="fill:none;stroke:#3d3f42;stroke-miterlimit:10"/><path d="M44.38,235.5l-7,3.5,1.75-3.5L37.38,232Z" style="fill:#3d3f42;stroke:#3d3f42;stroke-miterlimit:10"/><rect x="250.5" y="215.5" width="100" height="40" rx="7" style="fill:#526375"/><g style="isolation:isolate"><path d="M261.6,239v-8.59h3.81a5.17,5.17,0,0,1,1.74.23,2,2,0,0,1,1,.82,2.41,2.41,0,0,1,.35,1.29,2.12,2.12,0,0,1-.59,1.54,3,3,0,0,1-1.83.8,3.08,3.08,0,0,1,.69.43,5.77,5.77,0,0,1,.94,1.14l1.5,2.34h-1.43l-1.14-1.79c-.33-.51-.6-.91-.82-1.18a2.34,2.34,0,0,0-.58-.57,1.64,1.64,0,0,0-.51-.23,3.26,3.26,0,0,0-.64,0h-1.32V239Zm1.13-4.8h2.45a3.64,3.64,0,0,0,1.22-.16,1.28,1.28,0,0,0,.66-.52,1.32,1.32,0,0,0,.23-.77,1.26,1.26,0,0,0-.44-1,2.07,2.07,0,0,0-1.4-.39h-2.72Z" style="fill:#fff"/><path d="M274.37,237l1.09.13a2.64,2.64,0,0,1-.95,1.48,2.9,2.9,0,0,1-1.79.53,2.83,2.83,0,0,1-2.16-.84,3.31,3.31,0,0,1-.8-2.36,3.44,3.44,0,0,1,.81-2.44,2.77,2.77,0,0,1,2.1-.86,2.66,2.66,0,0,1,2,.85,3.39,3.39,0,0,1,.79,2.39c0,.06,0,.15,0,.28h-4.64a2.38,2.38,0,0,0,.58,1.57,1.74,1.74,0,0,0,1.3.54,1.62,1.62,0,0,0,1-.3A2,2,0,0,0,274.37,237Zm-3.46-1.71h3.47a2.09,2.09,0,0,0-.4-1.18,1.62,1.62,0,0,0-1.3-.61,1.68,1.68,0,0,0-1.22.49A1.9,1.9,0,0,0,270.91,235.29Z" style="fill:#fff"/><path d="M279.09,238.06l.15.93a4.08,4.08,0,0,1-.8.09,1.82,1.82,0,0,1-.89-.18,1,1,0,0,1-.44-.48,3.6,3.6,0,0,1-.13-1.24V233.6h-.77v-.82H277v-1.54l1-.64v2.18h1.06v.82H278v3.64a2.2,2.2,0,0,0,.05.58.49.49,0,0,0,.18.2.74.74,0,0,0,.36.08C278.74,238.1,278.9,238.08,279.09,238.06Z" style="fill:#fff"/><path d="M284.2,239v-.91a2.3,2.3,0,0,1-2,1,2.56,2.56,0,0,1-1-.21,1.71,1.71,0,0,1-.7-.53,1.84,1.84,0,0,1-.33-.78,5.84,5.84,0,0,1-.06-1v-3.85h1v3.45a6.55,6.55,0,0,0,.06,1.11,1.12,1.12,0,0,0,.43.66,1.34,1.34,0,0,0,.79.23,1.72,1.72,0,0,0,.89-.24,1.3,1.3,0,0,0,.59-.66,3.23,3.23,0,0,0,.18-1.22v-3.33h1.05V239Z" style="fill:#fff"/><path d="M286.78,239v-6.22h1v.94a2.6,2.6,0,0,1,.67-.87,1.19,1.19,0,0,1,.68-.21,2,2,0,0,1,1.08.34l-.36,1a1.46,1.46,0,0,0-.77-.23,1.07,1.07,0,0,0-.63.2,1.2,1.2,0,0,0-.39.58,4.07,4.07,0,0,0-.17,1.23V239Z" style="fill:#fff"/><path d="M290.79,239v-6.22h.95v.88a2.25,2.25,0,0,1,2-1,2.49,2.49,0,0,1,1,.2,1.58,1.58,0,0,1,.71.53,2.12,2.12,0,0,1,.33.78,5.85,5.85,0,0,1,.06,1V239h-1.06v-3.79a2.91,2.91,0,0,0-.12-1,1,1,0,0,0-.44-.51,1.35,1.35,0,0,0-.73-.19,1.71,1.71,0,0,0-1.17.43,2.11,2.11,0,0,0-.49,1.62V239Z" style="fill:#fff"/><path d="M301.05,239v-5.4h-.93v-.82h.93v-.66a3.12,3.12,0,0,1,.11-.94,1.33,1.33,0,0,1,.54-.66,1.9,1.9,0,0,1,1.07-.26,5.25,5.25,0,0,1,1,.11l-.16.92a3.5,3.5,0,0,0-.62-.06.91.91,0,0,0-.68.21,1.05,1.05,0,0,0-.2.76v.58h1.21v.82H302.1V239Z" style="fill:#fff"/><path d="M304.14,231.62v-1.21h1.05v1.21Zm0,7.38v-6.22h1.05V239Z" style="fill:#fff"/><path d="M306.8,239v-6.22h.95v.88a2.22,2.22,0,0,1,2-1,2.49,2.49,0,0,1,1,.2,1.58,1.58,0,0,1,.71.53,2.1,2.1,0,0,1,.32.78,5.85,5.85,0,0,1,.06,1V239H310.8v-3.79a2.91,2.91,0,0,0-.12-1,1.08,1.08,0,0,0-.44-.51,1.36,1.36,0,0,0-.74-.19,1.69,1.69,0,0,0-1.16.43,2.08,2.08,0,0,0-.49,1.62V239Z" style="fill:#fff"/><path d="M313.48,231.62v-1.21h1v1.21Zm0,7.38v-6.22h1V239Z" style="fill:#fff"/><path d="M320.2,238.23a4.1,4.1,0,0,1-1.13.71,3.41,3.41,0,0,1-1.16.2,2.29,2.29,0,0,1-1.58-.5,1.64,1.64,0,0,1-.55-1.28,1.72,1.72,0,0,1,.21-.84,1.74,1.74,0,0,1,.54-.6,2.78,2.78,0,0,1,.76-.35,8.38,8.38,0,0,1,.94-.16,9.59,9.59,0,0,0,1.88-.36c0-.14,0-.24,0-.27a1.16,1.16,0,0,0-.3-.91,1.76,1.76,0,0,0-1.2-.36,1.87,1.87,0,0,0-1.1.26,1.6,1.6,0,0,0-.53.92l-1-.14a2.57,2.57,0,0,1,.46-1.07,2,2,0,0,1,.94-.62,4,4,0,0,1,1.41-.22,3.85,3.85,0,0,1,1.29.18,1.72,1.72,0,0,1,.73.48,1.56,1.56,0,0,1,.33.71,5.32,5.32,0,0,1,.06,1v1.4a16.75,16.75,0,0,0,.06,1.86,2.6,2.6,0,0,0,.27.75h-1.1A2.17,2.17,0,0,1,320.2,238.23Zm-.09-2.35a8.14,8.14,0,0,1-1.72.4,3.7,3.7,0,0,0-.92.21.91.91,0,0,0-.25,1.54,1.39,1.39,0,0,0,.94.28,2.13,2.13,0,0,0,1.08-.26,1.64,1.64,0,0,0,.7-.73,2.62,2.62,0,0,0,.17-1.06Z" style="fill:#fff"/><path d="M322.79,239v-8.59h1V239Z" style="fill:#fff"/><path d="M330.45,239l-2.28-8.59h1.16l1.31,5.63c.14.59.26,1.18.36,1.76q.33-1.38.39-1.59l1.63-5.8h1.37l1.23,4.35a21.85,21.85,0,0,1,.67,3c.11-.54.25-1.17.43-1.87l1.35-5.52h1.14L336.86,239h-1.1L334,232.46c-.15-.55-.24-.89-.27-1-.09.39-.17.73-.25,1L331.61,239Z" style="fill:#fff"/></g><path d="M175.5,235.5h68.63" style="fill:none;stroke:#3d3f42;stroke-miterlimit:10"/><path d="M249.38,235.5l-7,3.5,1.75-3.5-1.75-3.5Z" style="fill:#3d3f42;stroke:#3d3f42;stroke-miterlimit:10"/><g style="isolation:isolate"><path d="M193.54,232.77V224.9h5.32v.93h-4.28v2.44h3.7v.93h-3.7v3.57Z" style="fill:#242424"/><path d="M203.81,232.07a3.62,3.62,0,0,1-1,.64,2.85,2.85,0,0,1-1.06.19,2.07,2.07,0,0,1-1.45-.46,1.51,1.51,0,0,1-.5-1.17,1.54,1.54,0,0,1,.19-.77,1.56,1.56,0,0,1,.5-.55,2.3,2.3,0,0,1,.69-.32,6.11,6.11,0,0,1,.86-.14,9.3,9.3,0,0,0,1.73-.34v-.25a1.07,1.07,0,0,0-.27-.83,1.62,1.62,0,0,0-1.1-.33,1.71,1.71,0,0,0-1,.24,1.42,1.42,0,0,0-.48.85l-1-.13a2.28,2.28,0,0,1,.43-1,1.86,1.86,0,0,1,.85-.58,4,4,0,0,1,1.3-.2,3.51,3.51,0,0,1,1.18.17,1.7,1.7,0,0,1,.68.43,1.67,1.67,0,0,1,.3.66,6.06,6.06,0,0,1,0,.89v1.29a11.65,11.65,0,0,0,.07,1.71,2.13,2.13,0,0,0,.24.68h-1A2.05,2.05,0,0,1,203.81,232.07Zm-.08-2.16a7.34,7.34,0,0,1-1.58.36,3.94,3.94,0,0,0-.85.2.83.83,0,0,0-.38.31.82.82,0,0,0-.13.46.86.86,0,0,0,.29.65,1.28,1.28,0,0,0,.86.25,2,2,0,0,0,1-.24,1.53,1.53,0,0,0,.64-.67,2.4,2.4,0,0,0,.16-1Z" style="fill:#242424"/><path d="M206.18,232.77V224.9h1v7.87Z" style="fill:#242424"/><path d="M208.26,231.07l1-.15a1.3,1.3,0,0,0,.45.88,1.55,1.55,0,0,0,1,.31,1.45,1.45,0,0,0,1-.28.79.79,0,0,0,.32-.63.59.59,0,0,0-.28-.52,4.41,4.41,0,0,0-1-.32,8.8,8.8,0,0,1-1.47-.47,1.4,1.4,0,0,1-.63-.54,1.46,1.46,0,0,1-.21-.77,1.4,1.4,0,0,1,.18-.7,1.44,1.44,0,0,1,.47-.54,2.11,2.11,0,0,1,.62-.29,3.14,3.14,0,0,1,.83-.11,3.28,3.28,0,0,1,1.18.19,1.61,1.61,0,0,1,.75.53,2,2,0,0,1,.33.88l-.94.13a1.08,1.08,0,0,0-.38-.69,1.37,1.37,0,0,0-.87-.25,1.64,1.64,0,0,0-1,.22.64.64,0,0,0-.28.52.58.58,0,0,0,.11.34,1,1,0,0,0,.37.26l.86.24c.68.19,1.16.34,1.43.45a1.55,1.55,0,0,1,.64.51,1.45,1.45,0,0,1,.23.83,1.7,1.7,0,0,1-.28.91,1.88,1.88,0,0,1-.82.66,3,3,0,0,1-1.2.23,2.69,2.69,0,0,1-1.7-.46A2.22,2.22,0,0,1,208.26,231.07Z" style="fill:#242424"/><path d="M218.05,230.94l1,.12a2.44,2.44,0,0,1-.88,1.36,3,3,0,0,1-3.61-.29,3,3,0,0,1-.74-2.16,3.14,3.14,0,0,1,.75-2.24,2.49,2.49,0,0,1,1.92-.79,2.45,2.45,0,0,1,1.87.78,3.11,3.11,0,0,1,.72,2.19v.26h-4.26a2.24,2.24,0,0,0,.54,1.44,1.57,1.57,0,0,0,1.19.5,1.54,1.54,0,0,0,.91-.28A1.93,1.93,0,0,0,218.05,230.94Zm-3.17-1.57h3.18a1.92,1.92,0,0,0-.36-1.08,1.5,1.5,0,0,0-1.2-.56,1.53,1.53,0,0,0-1.12.45A1.78,1.78,0,0,0,214.88,229.37Z" style="fill:#242424"/></g><rect x="175.5" y="340.5" width="100" height="40" rx="7" style="fill:#526375"/><g style="isolation:isolate"><path d="M205.87,354l1.14.29a3.83,3.83,0,0,1-1.29,2.13,3.52,3.52,0,0,1-2.27.74,4,4,0,0,1-2.25-.57,3.52,3.52,0,0,1-1.33-1.64,5.86,5.86,0,0,1-.45-2.3,5.11,5.11,0,0,1,.51-2.34,3.52,3.52,0,0,1,1.46-1.52,4.31,4.31,0,0,1,2.08-.52,3.52,3.52,0,0,1,2.17.66,3.37,3.37,0,0,1,1.22,1.85l-1.11.26a2.67,2.67,0,0,0-.87-1.37,2.35,2.35,0,0,0-1.43-.42,2.78,2.78,0,0,0-1.66.47,2.52,2.52,0,0,0-.93,1.28,5.08,5.08,0,0,0-.27,1.64,5.32,5.32,0,0,0,.32,1.92,2.37,2.37,0,0,0,1,1.22,2.79,2.79,0,0,0,1.46.4,2.43,2.43,0,0,0,1.62-.55A2.76,2.76,0,0,0,205.87,354Z" style="fill:#fff"/><path d="M212.34,356.23a4.1,4.1,0,0,1-1.13.71,3.41,3.41,0,0,1-1.16.2,2.29,2.29,0,0,1-1.58-.5,1.64,1.64,0,0,1-.55-1.28,1.72,1.72,0,0,1,.21-.84,1.74,1.74,0,0,1,.54-.6,2.78,2.78,0,0,1,.76-.35,8.38,8.38,0,0,1,.94-.16,9.59,9.59,0,0,0,1.88-.36v-.27a1.16,1.16,0,0,0-.29-.91,1.77,1.77,0,0,0-1.21-.36,1.86,1.86,0,0,0-1.09.26,1.6,1.6,0,0,0-.53.92l-1-.14a2.57,2.57,0,0,1,.46-1.07,2,2,0,0,1,.94-.62,4,4,0,0,1,1.41-.22,3.85,3.85,0,0,1,1.29.18,1.72,1.72,0,0,1,.73.48,1.56,1.56,0,0,1,.33.71,5.32,5.32,0,0,1,.06,1v1.4a16.75,16.75,0,0,0,.06,1.86,2.6,2.6,0,0,0,.27.75h-1.1A2.17,2.17,0,0,1,212.34,356.23Zm-.09-2.35a8.14,8.14,0,0,1-1.72.4,3.7,3.7,0,0,0-.92.21.91.91,0,0,0-.25,1.54,1.39,1.39,0,0,0,.94.28,2.13,2.13,0,0,0,1.08-.26,1.64,1.64,0,0,0,.7-.73,2.62,2.62,0,0,0,.17-1.06Z" style="fill:#fff"/><path d="M214.93,357v-8.59h1V357Z" style="fill:#fff"/><path d="M221.68,354.72l1,.14a2.64,2.64,0,0,1-.87,1.67,2.5,2.5,0,0,1-1.72.61,2.69,2.69,0,0,1-2.05-.83,3.4,3.4,0,0,1-.78-2.4,4.35,4.35,0,0,1,.34-1.76,2.35,2.35,0,0,1,1-1.14,3,3,0,0,1,1.49-.37,2.59,2.59,0,0,1,1.66.51,2.34,2.34,0,0,1,.82,1.46l-1,.15a1.72,1.72,0,0,0-.52-.94,1.36,1.36,0,0,0-.9-.32,1.61,1.61,0,0,0-1.29.58,2.65,2.65,0,0,0-.5,1.8,2.82,2.82,0,0,0,.48,1.83,1.58,1.58,0,0,0,1.25.56,1.45,1.45,0,0,0,1-.38A1.89,1.89,0,0,0,221.68,354.72Z" style="fill:#fff"/><path d="M227.69,357v-.91a2.27,2.27,0,0,1-2,1.05,2.53,2.53,0,0,1-1-.21,1.74,1.74,0,0,1-.71-.53,2,2,0,0,1-.32-.78,4.77,4.77,0,0,1-.07-1v-3.85h1.06v3.45a6.55,6.55,0,0,0,.06,1.11,1.15,1.15,0,0,0,.42.66,1.37,1.37,0,0,0,.8.23,1.75,1.75,0,0,0,.89-.24,1.35,1.35,0,0,0,.59-.66,3.26,3.26,0,0,0,.17-1.22v-3.33h1.06V357Z" style="fill:#fff"/><path d="M230.27,357v-8.59h1V357Z" style="fill:#fff"/><path d="M237,356.23a4.1,4.1,0,0,1-1.13.71,3.41,3.41,0,0,1-1.16.2,2.29,2.29,0,0,1-1.58-.5,1.64,1.64,0,0,1-.55-1.28,1.72,1.72,0,0,1,.21-.84,1.74,1.74,0,0,1,.54-.6,2.78,2.78,0,0,1,.76-.35,8.38,8.38,0,0,1,.94-.16,9.59,9.59,0,0,0,1.88-.36v-.27a1.19,1.19,0,0,0-.29-.91,1.77,1.77,0,0,0-1.21-.36,1.86,1.86,0,0,0-1.09.26,1.54,1.54,0,0,0-.53.92l-1-.14a2.57,2.57,0,0,1,.46-1.07,2,2,0,0,1,.93-.62,4.11,4.11,0,0,1,1.42-.22,3.85,3.85,0,0,1,1.29.18,1.72,1.72,0,0,1,.73.48,1.56,1.56,0,0,1,.33.71,5.32,5.32,0,0,1,.06,1v1.4a16.75,16.75,0,0,0,.06,1.86,2.6,2.6,0,0,0,.27.75h-1.1A2.17,2.17,0,0,1,237,356.23Zm-.09-2.35a8.14,8.14,0,0,1-1.72.4,3.7,3.7,0,0,0-.92.21A.91.91,0,0,0,234,356a1.39,1.39,0,0,0,.94.28,2.13,2.13,0,0,0,1.08-.26,1.64,1.64,0,0,0,.7-.73,2.62,2.62,0,0,0,.17-1.06Z" style="fill:#fff"/><path d="M241.93,356.06l.15.93a4,4,0,0,1-.79.09,1.82,1.82,0,0,1-.89-.18,1,1,0,0,1-.45-.48,3.88,3.88,0,0,1-.13-1.24V351.6h-.77v-.82h.77v-1.54l1.05-.64v2.18h1.06v.82h-1.06v3.64a1.73,1.73,0,0,0,.06.58.43.43,0,0,0,.18.2.69.69,0,0,0,.36.08C241.59,356.1,241.74,356.08,241.93,356.06Z" style="fill:#fff"/><path d="M247.22,355l1.09.13a2.64,2.64,0,0,1-.95,1.48,3.24,3.24,0,0,1-4-.31,3.31,3.31,0,0,1-.8-2.36,3.44,3.44,0,0,1,.81-2.44,2.77,2.77,0,0,1,2.1-.86,2.66,2.66,0,0,1,2,.85,3.39,3.39,0,0,1,.79,2.39c0,.06,0,.15,0,.28H243.7a2.38,2.38,0,0,0,.58,1.57,1.74,1.74,0,0,0,1.3.54,1.62,1.62,0,0,0,1-.3A2,2,0,0,0,247.22,355Zm-3.46-1.71h3.48a2.17,2.17,0,0,0-.4-1.18,1.64,1.64,0,0,0-1.31-.61,1.7,1.7,0,0,0-1.22.49A1.94,1.94,0,0,0,243.76,353.29Z" style="fill:#fff"/><path d="M187.41,371.92l1,.15a1,1,0,0,0,.36.69,1.72,1.72,0,0,0,1.07.29,1.85,1.85,0,0,0,1.13-.29,1.42,1.42,0,0,0,.54-.82,7.41,7.41,0,0,0,.08-1.35,2.2,2.2,0,0,1-1.73.81,2.34,2.34,0,0,1-2-.93,3.53,3.53,0,0,1-.71-2.22,4,4,0,0,1,.33-1.64,2.51,2.51,0,0,1,.93-1.16,2.48,2.48,0,0,1,1.44-.41,2.2,2.2,0,0,1,1.81.89v-.75h1v5.38a5.06,5.06,0,0,1-.3,2.06,2.16,2.16,0,0,1-.94.95,3.14,3.14,0,0,1-1.57.36,2.91,2.91,0,0,1-1.8-.51A1.69,1.69,0,0,1,187.41,371.92Zm.88-3.74a2.71,2.71,0,0,0,.48,1.78,1.54,1.54,0,0,0,1.22.57,1.57,1.57,0,0,0,1.22-.56,2.62,2.62,0,0,0,.49-1.76,2.6,2.6,0,0,0-.5-1.72,1.57,1.57,0,0,0-1.23-.58,1.53,1.53,0,0,0-1.19.57A2.54,2.54,0,0,0,188.29,368.18Z" style="fill:#fff"/><path d="M194.27,371.4v-6.22h.95v.94a2.48,2.48,0,0,1,.67-.87,1.16,1.16,0,0,1,.68-.21,2,2,0,0,1,1.08.34l-.36,1a1.46,1.46,0,0,0-.78-.23,1.07,1.07,0,0,0-.62.2,1.2,1.2,0,0,0-.39.58,4.06,4.06,0,0,0-.18,1.23v3.26Z" style="fill:#fff"/><path d="M202.34,370.63a4.1,4.1,0,0,1-1.13.71,3.41,3.41,0,0,1-1.16.2,2.29,2.29,0,0,1-1.58-.5,1.64,1.64,0,0,1-.55-1.28,1.73,1.73,0,0,1,.75-1.44,2.78,2.78,0,0,1,.76-.35c.21-.05.52-.1.94-.16a9.59,9.59,0,0,0,1.88-.36c0-.14,0-.24,0-.27a1.16,1.16,0,0,0-.3-.91,1.76,1.76,0,0,0-1.2-.36,1.87,1.87,0,0,0-1.1.26,1.6,1.6,0,0,0-.53.92l-1-.14a2.77,2.77,0,0,1,.46-1.07,2,2,0,0,1,.94-.62,4,4,0,0,1,1.41-.22,3.85,3.85,0,0,1,1.29.18,1.76,1.76,0,0,1,.74.48,1.66,1.66,0,0,1,.32.71,5.32,5.32,0,0,1,.06,1v1.4a16.75,16.75,0,0,0,.06,1.86,2.6,2.6,0,0,0,.27.75h-1.1A2.17,2.17,0,0,1,202.34,370.63Zm-.09-2.35a8.14,8.14,0,0,1-1.72.4,3.7,3.7,0,0,0-.92.21.91.91,0,0,0-.25,1.54,1.39,1.39,0,0,0,.94.28,2.11,2.11,0,0,0,1.08-.26,1.64,1.64,0,0,0,.7-.73,2.62,2.62,0,0,0,.17-1.06Z" style="fill:#fff"/><path d="M209,371.4v-.78a2,2,0,0,1-1.74.92,2.47,2.47,0,0,1-1.37-.41,2.65,2.65,0,0,1-1-1.14,4,4,0,0,1-.34-1.7,4.39,4.39,0,0,1,.31-1.69A2.42,2.42,0,0,1,207.2,365a2.14,2.14,0,0,1,1,.23,2.18,2.18,0,0,1,.72.62v-3.08H210v8.59Zm-3.34-3.11a2.67,2.67,0,0,0,.51,1.79,1.49,1.49,0,0,0,1.19.59,1.47,1.47,0,0,0,1.17-.56,2.63,2.63,0,0,0,.49-1.73,2.9,2.9,0,0,0-.5-1.87,1.5,1.5,0,0,0-1.21-.6,1.45,1.45,0,0,0-1.17.57A2.82,2.82,0,0,0,205.65,368.29Z" style="fill:#fff"/><path d="M211.63,364v-1.21h1.06V364Zm0,7.38v-6.22h1.06v6.22Z" style="fill:#fff"/><path d="M218.55,369.4l1.09.13a2.64,2.64,0,0,1-.95,1.48,3.24,3.24,0,0,1-3.95-.31,3.31,3.31,0,0,1-.8-2.36,3.44,3.44,0,0,1,.81-2.44,2.77,2.77,0,0,1,2.1-.86,2.62,2.62,0,0,1,2,.85,3.35,3.35,0,0,1,.8,2.39c0,.06,0,.15,0,.28H215a2.38,2.38,0,0,0,.58,1.57,1.74,1.74,0,0,0,1.3.54,1.62,1.62,0,0,0,1-.3A2,2,0,0,0,218.55,369.4Zm-3.46-1.71h3.47a2.09,2.09,0,0,0-.4-1.18,1.62,1.62,0,0,0-1.3-.61,1.68,1.68,0,0,0-1.22.49A1.9,1.9,0,0,0,215.09,367.69Z" style="fill:#fff"/><path d="M221,371.4v-6.22h.95v.88a2.25,2.25,0,0,1,2-1,2.54,2.54,0,0,1,1,.2,1.55,1.55,0,0,1,.7.53,2,2,0,0,1,.33.78,5.85,5.85,0,0,1,.06,1v3.83H225v-3.78a2.65,2.65,0,0,0-.13-1,1,1,0,0,0-.43-.51,1.38,1.38,0,0,0-.74-.19,1.67,1.67,0,0,0-1.16.43A2.09,2.09,0,0,0,222,368v3.4Z" style="fill:#fff"/><path d="M229.94,370.46l.15.93a4,4,0,0,1-.79.09,1.79,1.79,0,0,1-.89-.18,1,1,0,0,1-.45-.48,3.88,3.88,0,0,1-.13-1.24V366h-.77v-.82h.77v-1.54l1-.64v2.18h1.06V366h-1.06v3.64a1.73,1.73,0,0,0,.06.58.38.38,0,0,0,.18.2.69.69,0,0,0,.36.08C229.6,370.5,229.75,370.48,229.94,370.46Z" style="fill:#fff"/><path d="M230.55,369.54l1-.16a1.48,1.48,0,0,0,.49,1,1.73,1.73,0,0,0,1.13.33,1.61,1.61,0,0,0,1.07-.29.87.87,0,0,0,.35-.7.64.64,0,0,0-.31-.56,4.89,4.89,0,0,0-1.07-.36,9.59,9.59,0,0,1-1.61-.5,1.58,1.58,0,0,1-.68-.59,1.65,1.65,0,0,1,0-1.61,1.64,1.64,0,0,1,.52-.59,2.21,2.21,0,0,1,.67-.31A3.28,3.28,0,0,1,233,365a3.58,3.58,0,0,1,1.28.21,1.72,1.72,0,0,1,.82.57,2.1,2.1,0,0,1,.36,1l-1,.14a1.11,1.11,0,0,0-.4-.75,1.52,1.52,0,0,0-1-.27,1.7,1.7,0,0,0-1,.24.7.7,0,0,0-.31.57.58.58,0,0,0,.13.37,1,1,0,0,0,.4.28c.1,0,.42.13.93.27a12,12,0,0,1,1.56.49,1.54,1.54,0,0,1,.7.55,1.59,1.59,0,0,1,.25.9,1.78,1.78,0,0,1-.31,1,2,2,0,0,1-.89.72,3.19,3.19,0,0,1-1.31.25,3,3,0,0,1-1.85-.5A2.4,2.4,0,0,1,230.55,369.54Z" style="fill:#fff"/><path d="M239.91,368.29a3.18,3.18,0,0,1,1-2.56,2.87,2.87,0,0,1,2-.69,2.79,2.79,0,0,1,2.1.84,3.2,3.2,0,0,1,.81,2.32,4.13,4.13,0,0,1-.36,1.89,2.52,2.52,0,0,1-1,1.07,3,3,0,0,1-1.5.38,2.79,2.79,0,0,1-2.11-.84A3.33,3.33,0,0,1,239.91,368.29Zm1.09,0a2.64,2.64,0,0,0,.52,1.79,1.65,1.65,0,0,0,1.31.59,1.68,1.68,0,0,0,1.31-.59,2.72,2.72,0,0,0,.52-1.83,2.58,2.58,0,0,0-.52-1.75,1.75,1.75,0,0,0-2.62,0A2.64,2.64,0,0,0,241,368.29Z" style="fill:#fff"/><path d="M247.23,371.4V366h-.93v-.82h.93v-.66a3.12,3.12,0,0,1,.11-.94,1.38,1.38,0,0,1,.54-.66,1.94,1.94,0,0,1,1.08-.26,5.24,5.24,0,0,1,1,.11l-.16.92a3.42,3.42,0,0,0-.62-.06.91.91,0,0,0-.68.21,1.1,1.1,0,0,0-.2.76v.58h1.21V366h-1.21v5.4Z" style="fill:#fff"/><path d="M255.28,371.4,253,362.81h1.17l1.31,5.63c.14.59.26,1.18.36,1.76q.33-1.38.39-1.59l1.63-5.8h1.37l1.23,4.35a23.39,23.39,0,0,1,.67,3c.11-.54.25-1.17.43-1.87l1.35-5.52h1.14l-2.36,8.59H260.6l-1.81-6.54c-.16-.55-.25-.89-.27-1-.09.39-.18.73-.25,1l-1.83,6.54Z" style="fill:#fff"/></g><path d="M110.5,300.5v10q0,10,10,10h95q10,0,10,6.82v6.81" style="fill:none;stroke:#3d3f42;stroke-miterlimit:10"/><path d="M225.5,339.38l-3.5-7,3.5,1.75,3.5-1.75Z" style="fill:#3d3f42;stroke:#3d3f42;stroke-miterlimit:10"/><g style="isolation:isolate"><path d="M159.78,317.32v-6.95h-2.59v-.93h6.24v.93h-2.61v6.95Z" style="fill:#242424"/><path d="M164,317.32v-5.71h.87v.87a2.29,2.29,0,0,1,.62-.8,1.07,1.07,0,0,1,.62-.2,1.94,1.94,0,0,1,1,.31l-.33.9a1.38,1.38,0,0,0-.71-.21.91.91,0,0,0-.57.19,1.05,1.05,0,0,0-.36.53,3.67,3.67,0,0,0-.16,1.13v3Z" style="fill:#242424"/><path d="M171.37,317.32v-.84a2.1,2.1,0,0,1-1.81,1,2.34,2.34,0,0,1-.95-.19,1.53,1.53,0,0,1-.65-.49,1.69,1.69,0,0,1-.29-.71,4.82,4.82,0,0,1-.06-.9v-3.54h1v3.16a5.67,5.67,0,0,0,.06,1,1,1,0,0,0,.39.59,1.17,1.17,0,0,0,.73.22,1.6,1.6,0,0,0,.82-.22,1.28,1.28,0,0,0,.54-.61,3.18,3.18,0,0,0,.15-1.11v-3.06h1v5.71Z" style="fill:#242424"/><path d="M177.65,315.48l1,.12a2.41,2.41,0,0,1-.88,1.36,2.63,2.63,0,0,1-1.63.48,2.58,2.58,0,0,1-2-.77,3,3,0,0,1-.74-2.16,3.16,3.16,0,0,1,.74-2.23,2.53,2.53,0,0,1,1.93-.8,2.45,2.45,0,0,1,1.87.78,3.11,3.11,0,0,1,.72,2.19v.26h-4.26a2.19,2.19,0,0,0,.53,1.44,1.61,1.61,0,0,0,1.2.5,1.44,1.44,0,0,0,.9-.28A1.89,1.89,0,0,0,177.65,315.48Zm-3.17-1.56h3.18a1.92,1.92,0,0,0-.36-1.08,1.47,1.47,0,0,0-1.2-.56,1.55,1.55,0,0,0-1.12.44A1.78,1.78,0,0,0,174.48,313.92Z" style="fill:#242424"/></g><path d="M175.5,360.5H131.87" style="fill:none;stroke:#3d3f42;stroke-miterlimit:10"/><path d="M126.62,360.5l7-3.5-1.75,3.5,1.75,3.5Z" style="fill:#3d3f42;stroke:#3d3f42;stroke-miterlimit:10"/><path d="M390.5,163.5v-23h180v23" style="fill:#526375;stroke:#000;stroke-miterlimit:10"/><path d="M390.5,163.5v247h180v-247" style="fill:none;stroke:#000;stroke-miterlimit:10"/><path d="M390.5,163.5h180" style="fill:none;stroke:#000;stroke-miterlimit:10"/><g style="isolation:isolate"><path d="M450.53,156.5v-8.59h6.37v1.45h-4.63v1.91h4.31v1.44h-4.31v2.34h4.8v1.45Z" style="fill:#fff"/><path d="M460.24,156.5l-2.51-6.22h1.73l1.17,3.17.34,1.06c.09-.27.15-.44.17-.53s.11-.35.17-.53l1.19-3.17h1.69l-2.47,6.22Z" style="fill:#fff"/><path d="M466.43,152.18l-1.49-.27a2.27,2.27,0,0,1,.86-1.34,3.17,3.17,0,0,1,1.83-.43,3.82,3.82,0,0,1,1.64.26,1.62,1.62,0,0,1,.76.66,3.34,3.34,0,0,1,.22,1.47l0,1.93a7,7,0,0,0,.08,1.21,3.37,3.37,0,0,0,.3.83H469c0-.11-.1-.27-.16-.49l-.06-.19a3.09,3.09,0,0,1-.9.62,2.7,2.7,0,0,1-1,.2,2.1,2.1,0,0,1-1.51-.52,1.74,1.74,0,0,1-.55-1.32,1.76,1.76,0,0,1,.25-.94,1.58,1.58,0,0,1,.7-.63,5.46,5.46,0,0,1,1.31-.39,8.94,8.94,0,0,0,1.6-.4v-.16a.87.87,0,0,0-.23-.68,1.39,1.39,0,0,0-.89-.2,1.12,1.12,0,0,0-.68.17A1.14,1.14,0,0,0,466.43,152.18Zm2.2,1.33a8.32,8.32,0,0,1-1,.25,3.31,3.31,0,0,0-.9.29.7.7,0,0,0-.32.58.83.83,0,0,0,.26.6.89.89,0,0,0,.66.25,1.48,1.48,0,0,0,.85-.29,1,1,0,0,0,.39-.55,3.48,3.48,0,0,0,.06-.8Z" style="fill:#fff"/><path d="M471.87,156.5v-8.59h1.65v8.59Z" style="fill:#fff"/><path d="M479.3,156.5v-.93a2.32,2.32,0,0,1-.89.78,2.53,2.53,0,0,1-1.17.29,2.29,2.29,0,0,1-1.12-.27,1.67,1.67,0,0,1-.73-.78,3.61,3.61,0,0,1-.22-1.38v-3.93h1.65v2.86a8.08,8.08,0,0,0,.09,1.61.86.86,0,0,0,.33.46,1,1,0,0,0,.61.18,1.36,1.36,0,0,0,.76-.23,1.2,1.2,0,0,0,.45-.58,6.66,6.66,0,0,0,.13-1.68v-2.62h1.64v6.22Z" style="fill:#fff"/><path d="M483.77,152.18l-1.5-.27a2.33,2.33,0,0,1,.87-1.34,3.17,3.17,0,0,1,1.83-.43,3.85,3.85,0,0,1,1.64.26,1.62,1.62,0,0,1,.76.66,3.5,3.5,0,0,1,.22,1.47l0,1.93a7,7,0,0,0,.08,1.21,3.37,3.37,0,0,0,.3.83h-1.63a3.51,3.51,0,0,1-.16-.49l-.06-.19a3.09,3.09,0,0,1-.9.62,2.7,2.7,0,0,1-1,.2,2.1,2.1,0,0,1-1.51-.52,1.74,1.74,0,0,1-.56-1.32,1.77,1.77,0,0,1,.26-.94,1.53,1.53,0,0,1,.7-.63,5.32,5.32,0,0,1,1.31-.39,9.18,9.18,0,0,0,1.6-.4v-.16a.87.87,0,0,0-.23-.68,1.39,1.39,0,0,0-.89-.2,1.12,1.12,0,0,0-.68.17A1.14,1.14,0,0,0,483.77,152.18Zm2.2,1.33a8.32,8.32,0,0,1-1,.25,3.18,3.18,0,0,0-.9.29.7.7,0,0,0-.32.58.83.83,0,0,0,.26.6.88.88,0,0,0,.65.25,1.45,1.45,0,0,0,.85-.29,1.08,1.08,0,0,0,.4-.55,3.48,3.48,0,0,0,.06-.8Z" style="fill:#fff"/><path d="M492.06,150.28v1.31h-1.12v2.51a6.79,6.79,0,0,0,0,.89.33.33,0,0,0,.15.2.43.43,0,0,0,.28.09,2.33,2.33,0,0,0,.66-.16l.14,1.27a3.17,3.17,0,0,1-1.3.25,2,2,0,0,1-.8-.15,1.17,1.17,0,0,1-.53-.39,1.45,1.45,0,0,1-.23-.64,7.43,7.43,0,0,1,0-1.16v-2.71h-.76v-1.31h.76V149l1.65-1v2.2Z" style="fill:#fff"/><path d="M493.21,149.43v-1.52h1.64v1.52Zm0,7.07v-6.22h1.64v6.22Z" style="fill:#fff"/><path d="M496.16,153.3a3.35,3.35,0,0,1,.4-1.59,2.82,2.82,0,0,1,1.15-1.17,3.4,3.4,0,0,1,1.66-.4,3.1,3.1,0,0,1,2.31.91,3.45,3.45,0,0,1,0,4.66,3.08,3.08,0,0,1-2.29.93,3.56,3.56,0,0,1-1.63-.39,2.61,2.61,0,0,1-1.19-1.13A3.77,3.77,0,0,1,496.16,153.3Zm1.69.09a2,2,0,0,0,.44,1.42,1.44,1.44,0,0,0,2.16,0,2.11,2.11,0,0,0,.44-1.43,2.07,2.07,0,0,0-.44-1.41,1.44,1.44,0,0,0-2.16,0A2,2,0,0,0,497.85,153.39Z" style="fill:#fff"/><path d="M509.53,156.5h-1.65v-3.18a5,5,0,0,0-.1-1.3,1,1,0,0,0-.34-.46,1,1,0,0,0-.57-.16,1.27,1.27,0,0,0-.77.23,1.21,1.21,0,0,0-.47.62,5.67,5.67,0,0,0-.12,1.43v2.82h-1.65v-6.22h1.53v.91a2.5,2.5,0,0,1,2.05-1.05,2.54,2.54,0,0,1,1,.19,1.72,1.72,0,0,1,.68.5,1.94,1.94,0,0,1,.32.7,5.06,5.06,0,0,1,.09,1.1Z" style="fill:#fff"/></g><path d="M480.5,250.5v63.63" style="fill:none;stroke:#3d3f42;stroke-miterlimit:10"/><path d="M480.5,319.38l-3.5-7,3.5,1.75,3.5-1.75Z" style="fill:#3d3f42;stroke:#3d3f42;stroke-miterlimit:10"/><rect x="430.5" y="210.5" width="100" height="40" rx="7" style="fill:#526375"/><g style="isolation:isolate"><path d="M460.87,224.9l1.14.29a3.86,3.86,0,0,1-1.29,2.14,3.51,3.51,0,0,1-2.27.73,4.12,4.12,0,0,1-2.25-.56,3.57,3.57,0,0,1-1.33-1.64,5.9,5.9,0,0,1-.45-2.3,5,5,0,0,1,.51-2.34,3.46,3.46,0,0,1,1.46-1.52,4.2,4.2,0,0,1,2.08-.52,3.52,3.52,0,0,1,2.17.66,3.35,3.35,0,0,1,1.22,1.84l-1.11.27a2.67,2.67,0,0,0-.87-1.37,2.29,2.29,0,0,0-1.43-.43,2.78,2.78,0,0,0-1.66.48,2.49,2.49,0,0,0-.93,1.27,5.1,5.1,0,0,0-.27,1.65,5.27,5.27,0,0,0,.32,1.91,2.36,2.36,0,0,0,1,1.23,2.79,2.79,0,0,0,1.46.4,2.43,2.43,0,0,0,1.62-.55A2.79,2.79,0,0,0,460.87,224.9Z" style="fill:#fff"/><path d="M467.34,227.15a4,4,0,0,1-1.13.7,3.19,3.19,0,0,1-1.16.21,2.29,2.29,0,0,1-1.58-.5,1.67,1.67,0,0,1-.55-1.28,1.69,1.69,0,0,1,.21-.84,1.87,1.87,0,0,1,.54-.61,2.76,2.76,0,0,1,.76-.34,6.55,6.55,0,0,1,.94-.16,9.59,9.59,0,0,0,1.88-.36v-.28a1.17,1.17,0,0,0-.29-.91,1.77,1.77,0,0,0-1.21-.35,1.79,1.79,0,0,0-1.09.26,1.6,1.6,0,0,0-.53.92l-1-.14a2.57,2.57,0,0,1,.46-1.07,2.11,2.11,0,0,1,.94-.63,4.26,4.26,0,0,1,1.41-.22,3.82,3.82,0,0,1,1.29.19,1.71,1.71,0,0,1,.73.47,1.6,1.6,0,0,1,.33.72,5.19,5.19,0,0,1,.06,1v1.41a16.75,16.75,0,0,0,.06,1.86,2.6,2.6,0,0,0,.27.75h-1.1A2.23,2.23,0,0,1,467.34,227.15Zm-.09-2.36a7.56,7.56,0,0,1-1.72.4,3.7,3.7,0,0,0-.92.21.91.91,0,0,0-.42.35.87.87,0,0,0-.15.5.91.91,0,0,0,.32.7,1.39,1.39,0,0,0,.94.28,2.14,2.14,0,0,0,1.08-.27,1.59,1.59,0,0,0,.7-.73,2.57,2.57,0,0,0,.17-1Z" style="fill:#fff"/><path d="M469.93,227.92v-8.59H471v8.59Z" style="fill:#fff"/><path d="M476.68,225.64l1,.13a2.64,2.64,0,0,1-.87,1.68,2.55,2.55,0,0,1-1.72.61,2.66,2.66,0,0,1-2.05-.84,3.36,3.36,0,0,1-.78-2.39,4.43,4.43,0,0,1,.34-1.77,2.33,2.33,0,0,1,1-1.13,3.06,3.06,0,0,1,1.49-.38,2.54,2.54,0,0,1,1.66.52,2.31,2.31,0,0,1,.82,1.45l-1,.16a1.69,1.69,0,0,0-.52-.94,1.36,1.36,0,0,0-.9-.32,1.63,1.63,0,0,0-1.29.57,2.66,2.66,0,0,0-.5,1.81,2.81,2.81,0,0,0,.48,1.82,1.56,1.56,0,0,0,1.25.57,1.5,1.5,0,0,0,1-.38A1.94,1.94,0,0,0,476.68,225.64Z" style="fill:#fff"/><path d="M482.69,227.92V227a2.26,2.26,0,0,1-2,1.06,2.53,2.53,0,0,1-1-.21,1.74,1.74,0,0,1-.71-.53,2.08,2.08,0,0,1-.32-.79,4.6,4.6,0,0,1-.07-1v-3.86h1.06v3.45a6.61,6.61,0,0,0,.06,1.12,1.13,1.13,0,0,0,.42.65,1.31,1.31,0,0,0,.8.24,1.75,1.75,0,0,0,.89-.24,1.41,1.41,0,0,0,.59-.67,3.2,3.2,0,0,0,.17-1.21v-3.34h1.06v6.23Z" style="fill:#fff"/><path d="M485.27,227.92v-8.59h1.05v8.59Z" style="fill:#fff"/><path d="M492,227.15a4,4,0,0,1-1.13.7,3.19,3.19,0,0,1-1.16.21,2.29,2.29,0,0,1-1.58-.5,1.67,1.67,0,0,1-.55-1.28,1.69,1.69,0,0,1,.21-.84,1.87,1.87,0,0,1,.54-.61,2.76,2.76,0,0,1,.76-.34,6.55,6.55,0,0,1,.94-.16,9.59,9.59,0,0,0,1.88-.36v-.28a1.21,1.21,0,0,0-.29-.91,1.77,1.77,0,0,0-1.21-.35,1.79,1.79,0,0,0-1.09.26,1.54,1.54,0,0,0-.53.92l-1-.14a2.57,2.57,0,0,1,.46-1.07,2.13,2.13,0,0,1,.93-.63,4.37,4.37,0,0,1,1.42-.22,3.82,3.82,0,0,1,1.29.19,1.71,1.71,0,0,1,.73.47,1.6,1.6,0,0,1,.33.72,5.19,5.19,0,0,1,.06,1v1.41a16.75,16.75,0,0,0,.06,1.86,2.6,2.6,0,0,0,.27.75h-1.1A2.23,2.23,0,0,1,492,227.15Zm-.09-2.36a7.56,7.56,0,0,1-1.72.4,3.7,3.7,0,0,0-.92.21.91.91,0,0,0-.42.35.87.87,0,0,0-.15.5.91.91,0,0,0,.32.7,1.39,1.39,0,0,0,.94.28,2.14,2.14,0,0,0,1.08-.27,1.59,1.59,0,0,0,.7-.73,2.57,2.57,0,0,0,.17-1Z" style="fill:#fff"/><path d="M496.93,227l.15.93a3.41,3.41,0,0,1-.79.1,1.82,1.82,0,0,1-.89-.18,1,1,0,0,1-.45-.48,4,4,0,0,1-.13-1.25v-3.58h-.77v-.82h.77v-1.54l1.05-.63v2.17h1.06v.82h-1.06v3.64a1.69,1.69,0,0,0,.06.58.41.41,0,0,0,.18.21.7.7,0,0,0,.36.07A3,3,0,0,0,496.93,227Z" style="fill:#fff"/><path d="M502.22,225.91l1.09.14a2.68,2.68,0,0,1-.95,1.48,3.24,3.24,0,0,1-3.95-.31,3.31,3.31,0,0,1-.8-2.36,3.44,3.44,0,0,1,.81-2.44,2.74,2.74,0,0,1,2.1-.87,2.69,2.69,0,0,1,2,.85,3.43,3.43,0,0,1,.79,2.39c0,.07,0,.16,0,.28H498.7a2.36,2.36,0,0,0,.58,1.57,1.71,1.71,0,0,0,1.3.55,1.56,1.56,0,0,0,1-.31A1.93,1.93,0,0,0,502.22,225.91Zm-3.46-1.7h3.48a2.11,2.11,0,0,0-.4-1.18,1.61,1.61,0,0,0-1.31-.61,1.66,1.66,0,0,0-1.22.49A1.92,1.92,0,0,0,498.76,224.21Z" style="fill:#fff"/><path d="M441.67,240l1,.13a2.64,2.64,0,0,1-.87,1.68,2.55,2.55,0,0,1-1.72.61,2.66,2.66,0,0,1-2.05-.84,3.36,3.36,0,0,1-.78-2.39,4.43,4.43,0,0,1,.34-1.77,2.33,2.33,0,0,1,1-1.13,3.06,3.06,0,0,1,1.49-.38,2.54,2.54,0,0,1,1.66.52,2.31,2.31,0,0,1,.82,1.45l-1,.16a1.69,1.69,0,0,0-.52-.94,1.36,1.36,0,0,0-.9-.32,1.63,1.63,0,0,0-1.29.57,2.68,2.68,0,0,0-.5,1.81,2.79,2.79,0,0,0,.48,1.82,1.56,1.56,0,0,0,1.25.57,1.5,1.5,0,0,0,1-.38A1.91,1.91,0,0,0,441.67,240Z" style="fill:#fff"/><path d="M443.21,239.21a3.23,3.23,0,0,1,1-2.57,2.91,2.91,0,0,1,2-.69,2.79,2.79,0,0,1,2.1.84,3.22,3.22,0,0,1,.81,2.33,4.13,4.13,0,0,1-.36,1.89,2.58,2.58,0,0,1-1.05,1.07,3.07,3.07,0,0,1-1.5.38,2.79,2.79,0,0,1-2.11-.84A3.33,3.33,0,0,1,443.21,239.21Zm1.09,0a2.66,2.66,0,0,0,.52,1.79,1.68,1.68,0,0,0,1.31.59,1.66,1.66,0,0,0,1.31-.6,2.69,2.69,0,0,0,.52-1.82,2.58,2.58,0,0,0-.52-1.75,1.75,1.75,0,0,0-2.62,0A2.62,2.62,0,0,0,444.3,239.21Z" style="fill:#fff"/><path d="M450.28,242.32v-6.23h1V237a2.23,2.23,0,0,1,2-1,2.5,2.5,0,0,1,1,.21,1.58,1.58,0,0,1,.71.53,1.86,1.86,0,0,1,.33.77,6,6,0,0,1,.06,1v3.83h-1.06v-3.79a2.87,2.87,0,0,0-.12-1,1,1,0,0,0-.44-.51,1.35,1.35,0,0,0-.73-.19,1.75,1.75,0,0,0-1.17.42,2.16,2.16,0,0,0-.49,1.63v3.4Z" style="fill:#fff"/><path d="M457.21,242.32v-5.41h-.94v-.82h.94v-.66a2.72,2.72,0,0,1,.11-.93,1.39,1.39,0,0,1,.53-.67,2.05,2.05,0,0,1,1.08-.25,5.15,5.15,0,0,1,1,.11l-.16.92a3.34,3.34,0,0,0-.62-.06,1,1,0,0,0-.68.2,1.13,1.13,0,0,0-.2.77v.57h1.22v.82h-1.22v5.41Z" style="fill:#fff"/><path d="M464.37,242.32v-.92a2.29,2.29,0,0,1-2,1.06,2.53,2.53,0,0,1-1-.21,1.74,1.74,0,0,1-.71-.53,2.08,2.08,0,0,1-.32-.79,5.39,5.39,0,0,1-.07-1v-3.86h1.06v3.45a6.61,6.61,0,0,0,.06,1.12,1.09,1.09,0,0,0,.43.65,1.28,1.28,0,0,0,.79.24,1.72,1.72,0,0,0,.89-.24,1.36,1.36,0,0,0,.59-.67,3.2,3.2,0,0,0,.17-1.21v-3.34h1.06v6.23Z" style="fill:#fff"/><path d="M466.54,240.46l1-.17a1.49,1.49,0,0,0,.49,1,1.72,1.72,0,0,0,1.12.33,1.62,1.62,0,0,0,1.08-.3.84.84,0,0,0,.35-.69.62.62,0,0,0-.31-.56,4,4,0,0,0-1.07-.36,9.36,9.36,0,0,1-1.61-.51,1.53,1.53,0,0,1-.91-1.42,1.54,1.54,0,0,1,.19-.77,1.62,1.62,0,0,1,.51-.59,2.16,2.16,0,0,1,.68-.31A3.28,3.28,0,0,1,469,236a3.58,3.58,0,0,1,1.28.21,1.78,1.78,0,0,1,.82.58,2.1,2.1,0,0,1,.36,1l-1,.14a1.11,1.11,0,0,0-.4-.75,1.52,1.52,0,0,0-1-.27,1.7,1.7,0,0,0-1,.24.69.69,0,0,0-.31.56.61.61,0,0,0,.12.37.85.85,0,0,0,.41.28q.15.06.93.27a13.85,13.85,0,0,1,1.56.49,1.56,1.56,0,0,1,.7.56,1.59,1.59,0,0,1,.25.9,1.73,1.73,0,0,1-.31,1,2,2,0,0,1-.89.72,3.19,3.19,0,0,1-1.31.26,2.91,2.91,0,0,1-1.85-.51A2.35,2.35,0,0,1,466.54,240.46Z" style="fill:#fff"/><path d="M473,234.94v-1.21h1v1.21Zm0,7.38v-6.23h1v6.23Z" style="fill:#fff"/><path d="M475.24,239.21a3.23,3.23,0,0,1,1-2.57,2.87,2.87,0,0,1,1.95-.69,2.79,2.79,0,0,1,2.1.84,3.23,3.23,0,0,1,.82,2.33,4.13,4.13,0,0,1-.36,1.89,2.64,2.64,0,0,1-1,1.07,3.11,3.11,0,0,1-1.51.38,2.79,2.79,0,0,1-2.11-.84A3.33,3.33,0,0,1,475.24,239.21Zm1.08,0a2.66,2.66,0,0,0,.52,1.79,1.7,1.7,0,0,0,1.31.59,1.66,1.66,0,0,0,1.31-.6,2.69,2.69,0,0,0,.52-1.82,2.58,2.58,0,0,0-.52-1.75,1.75,1.75,0,0,0-2.62,0A2.62,2.62,0,0,0,476.32,239.21Z" style="fill:#fff"/><path d="M482.3,242.32v-6.23h.95V237a2.23,2.23,0,0,1,2-1,2.54,2.54,0,0,1,1,.21,1.55,1.55,0,0,1,.7.53,1.86,1.86,0,0,1,.33.77,6,6,0,0,1,.06,1v3.83H486.3v-3.79a2.87,2.87,0,0,0-.12-1,1,1,0,0,0-.44-.51,1.32,1.32,0,0,0-.73-.19,1.71,1.71,0,0,0-1.16.42,2.12,2.12,0,0,0-.49,1.63v3.4Z" style="fill:#fff"/><path d="M492.31,242.32v-6.23h.94V237a2.19,2.19,0,0,1,1.89-1,2,2,0,0,1,1.13.29,1.52,1.52,0,0,1,.63.8,2.24,2.24,0,0,1,1.92-1.09,1.85,1.85,0,0,1,1.42.52,2.13,2.13,0,0,1,.5,1.57v4.28h-1.05V238.4a2.79,2.79,0,0,0-.1-.91.86.86,0,0,0-.37-.45,1.11,1.11,0,0,0-.64-.17,1.45,1.45,0,0,0-1.08.43,1.93,1.93,0,0,0-.44,1.4v3.62H496v-4a1.76,1.76,0,0,0-.26-1.05,1,1,0,0,0-.84-.35,1.6,1.6,0,0,0-.83.23,1.41,1.41,0,0,0-.55.69,3.92,3.92,0,0,0-.17,1.3v3.23Z" style="fill:#fff"/><path d="M506.37,241.55a3.83,3.83,0,0,1-1.13.7,3.19,3.19,0,0,1-1.16.21,2.29,2.29,0,0,1-1.58-.5,1.65,1.65,0,0,1-.55-1.28,1.69,1.69,0,0,1,.21-.84,1.77,1.77,0,0,1,.54-.61,2.76,2.76,0,0,1,.76-.34,6.55,6.55,0,0,1,.94-.16,9.59,9.59,0,0,0,1.88-.36v-.28a1.21,1.21,0,0,0-.29-.91,1.82,1.82,0,0,0-1.21-.35,1.79,1.79,0,0,0-1.09.26,1.54,1.54,0,0,0-.53.92l-1-.14a2.57,2.57,0,0,1,.46-1.07,2.13,2.13,0,0,1,.93-.63,4.37,4.37,0,0,1,1.42-.22,3.82,3.82,0,0,1,1.29.19,1.71,1.71,0,0,1,.73.47,1.6,1.6,0,0,1,.33.72,5.46,5.46,0,0,1,0,1v1.41a15.8,15.8,0,0,0,.07,1.86,2.6,2.6,0,0,0,.27.75h-1.1A2.23,2.23,0,0,1,506.37,241.55Zm-.09-2.36a7.56,7.56,0,0,1-1.72.4,3.7,3.7,0,0,0-.92.21,1,1,0,0,0-.42.35.87.87,0,0,0-.15.5.91.91,0,0,0,.32.7,1.39,1.39,0,0,0,.94.28,2.16,2.16,0,0,0,1.08-.27,1.59,1.59,0,0,0,.7-.73,2.57,2.57,0,0,0,.17-1Z" style="fill:#fff"/><path d="M511.28,241.37l.15.93a3.41,3.41,0,0,1-.79.1,1.79,1.79,0,0,1-.89-.18,1,1,0,0,1-.45-.48,4,4,0,0,1-.13-1.25v-3.58h-.77v-.82h.77v-1.54l1.05-.63v2.17h1.06v.82h-1.06v3.64a1.69,1.69,0,0,0,.06.58.41.41,0,0,0,.18.21.7.7,0,0,0,.36.07A3,3,0,0,0,511.28,241.37Z" style="fill:#fff"/><path d="M512.3,242.32v-6.23h1V237a2.66,2.66,0,0,1,.67-.88,1.19,1.19,0,0,1,.68-.21,2.1,2.1,0,0,1,1.08.34l-.36,1a1.55,1.55,0,0,0-.77-.23,1,1,0,0,0-.63.21,1.15,1.15,0,0,0-.39.58,4.3,4.3,0,0,0-.17,1.23v3.26Z" style="fill:#fff"/><path d="M516.32,234.94v-1.21h1v1.21Zm0,7.38v-6.23h1v6.23Z" style="fill:#fff"/><path d="M518.27,242.32l2.28-3.24-2.11-3h1.32l1,1.46c.18.28.32.51.43.7.17-.26.33-.49.47-.69l1-1.47h1.26L521.78,239l2.32,3.3h-1.3l-1.28-1.94-.34-.52-1.63,2.46Z" style="fill:#fff"/></g><rect x="430.5" y="320.5" width="100" height="40" rx="7" style="fill:#526375"/><g style="isolation:isolate"><path d="M460.87,334.9l1.14.29a3.86,3.86,0,0,1-1.29,2.14,3.51,3.51,0,0,1-2.27.73,4.12,4.12,0,0,1-2.25-.56,3.57,3.57,0,0,1-1.33-1.64,5.9,5.9,0,0,1-.45-2.3,5,5,0,0,1,.51-2.34,3.46,3.46,0,0,1,1.46-1.52,4.2,4.2,0,0,1,2.08-.52,3.52,3.52,0,0,1,2.17.66,3.35,3.35,0,0,1,1.22,1.84l-1.11.27a2.67,2.67,0,0,0-.87-1.37,2.29,2.29,0,0,0-1.43-.43,2.78,2.78,0,0,0-1.66.48,2.49,2.49,0,0,0-.93,1.27,5.1,5.1,0,0,0-.27,1.65,5.27,5.27,0,0,0,.32,1.91,2.36,2.36,0,0,0,1,1.23,2.79,2.79,0,0,0,1.46.4,2.43,2.43,0,0,0,1.62-.55A2.79,2.79,0,0,0,460.87,334.9Z" style="fill:#fff"/><path d="M467.34,337.15a4,4,0,0,1-1.13.7,3.19,3.19,0,0,1-1.16.21,2.29,2.29,0,0,1-1.58-.5,1.67,1.67,0,0,1-.55-1.28,1.69,1.69,0,0,1,.21-.84,1.87,1.87,0,0,1,.54-.61,2.76,2.76,0,0,1,.76-.34,6.55,6.55,0,0,1,.94-.16,9.59,9.59,0,0,0,1.88-.36v-.28a1.17,1.17,0,0,0-.29-.91,1.77,1.77,0,0,0-1.21-.35,1.79,1.79,0,0,0-1.09.26,1.6,1.6,0,0,0-.53.92l-1-.14a2.57,2.57,0,0,1,.46-1.07,2.11,2.11,0,0,1,.94-.63,4.26,4.26,0,0,1,1.41-.22,3.82,3.82,0,0,1,1.29.19,1.71,1.71,0,0,1,.73.47,1.6,1.6,0,0,1,.33.72,5.19,5.19,0,0,1,.06,1v1.41a16.75,16.75,0,0,0,.06,1.86,2.6,2.6,0,0,0,.27.75h-1.1A2.23,2.23,0,0,1,467.34,337.15Zm-.09-2.36a7.56,7.56,0,0,1-1.72.4,3.7,3.7,0,0,0-.92.21.91.91,0,0,0-.42.35.87.87,0,0,0-.15.5.91.91,0,0,0,.32.7,1.39,1.39,0,0,0,.94.28,2.14,2.14,0,0,0,1.08-.27,1.59,1.59,0,0,0,.7-.73,2.57,2.57,0,0,0,.17-1.05Z" style="fill:#fff"/><path d="M469.93,337.92v-8.59H471v8.59Z" style="fill:#fff"/><path d="M476.68,335.64l1,.13a2.64,2.64,0,0,1-.87,1.68,2.55,2.55,0,0,1-1.72.61,2.66,2.66,0,0,1-2.05-.84,3.36,3.36,0,0,1-.78-2.39,4.43,4.43,0,0,1,.34-1.77,2.33,2.33,0,0,1,1-1.13,3.06,3.06,0,0,1,1.49-.38,2.54,2.54,0,0,1,1.66.52,2.31,2.31,0,0,1,.82,1.45l-1,.16a1.69,1.69,0,0,0-.52-.94,1.36,1.36,0,0,0-.9-.32,1.63,1.63,0,0,0-1.29.57,2.66,2.66,0,0,0-.5,1.81,2.81,2.81,0,0,0,.48,1.82,1.56,1.56,0,0,0,1.25.57,1.5,1.5,0,0,0,1-.38A1.94,1.94,0,0,0,476.68,335.64Z" style="fill:#fff"/><path d="M482.69,337.92V337a2.26,2.26,0,0,1-2,1.06,2.53,2.53,0,0,1-1-.21,1.74,1.74,0,0,1-.71-.53,2.08,2.08,0,0,1-.32-.79,4.6,4.6,0,0,1-.07-1v-3.86h1.06v3.45a6.61,6.61,0,0,0,.06,1.12,1.13,1.13,0,0,0,.42.65,1.31,1.31,0,0,0,.8.24,1.75,1.75,0,0,0,.89-.24,1.41,1.41,0,0,0,.59-.67,3.2,3.2,0,0,0,.17-1.21v-3.34h1.06v6.23Z" style="fill:#fff"/><path d="M485.27,337.92v-8.59h1.05v8.59Z" style="fill:#fff"/><path d="M492,337.15a4,4,0,0,1-1.13.7,3.19,3.19,0,0,1-1.16.21,2.29,2.29,0,0,1-1.58-.5,1.67,1.67,0,0,1-.55-1.28,1.69,1.69,0,0,1,.21-.84,1.87,1.87,0,0,1,.54-.61,2.76,2.76,0,0,1,.76-.34,6.55,6.55,0,0,1,.94-.16,9.59,9.59,0,0,0,1.88-.36v-.28a1.21,1.21,0,0,0-.29-.91,1.77,1.77,0,0,0-1.21-.35,1.79,1.79,0,0,0-1.09.26,1.54,1.54,0,0,0-.53.92l-1-.14a2.57,2.57,0,0,1,.46-1.07,2.13,2.13,0,0,1,.93-.63,4.37,4.37,0,0,1,1.42-.22,3.82,3.82,0,0,1,1.29.19,1.71,1.71,0,0,1,.73.47,1.6,1.6,0,0,1,.33.72,5.19,5.19,0,0,1,.06,1v1.41a16.75,16.75,0,0,0,.06,1.86,2.6,2.6,0,0,0,.27.75h-1.1A2.23,2.23,0,0,1,492,337.15Zm-.09-2.36a7.56,7.56,0,0,1-1.72.4,3.7,3.7,0,0,0-.92.21.91.91,0,0,0-.42.35.87.87,0,0,0-.15.5.91.91,0,0,0,.32.7,1.39,1.39,0,0,0,.94.28,2.14,2.14,0,0,0,1.08-.27,1.59,1.59,0,0,0,.7-.73,2.57,2.57,0,0,0,.17-1.05Z" style="fill:#fff"/><path d="M496.93,337l.15.93a3.41,3.41,0,0,1-.79.1,1.82,1.82,0,0,1-.89-.18,1,1,0,0,1-.45-.48,4,4,0,0,1-.13-1.25v-3.58h-.77v-.82h.77v-1.54l1.05-.63v2.17h1.06v.82h-1.06v3.64a1.69,1.69,0,0,0,.06.58.41.41,0,0,0,.18.21.7.7,0,0,0,.36.07A3,3,0,0,0,496.93,337Z" style="fill:#fff"/><path d="M502.22,335.91l1.09.14a2.68,2.68,0,0,1-.95,1.48,3.24,3.24,0,0,1-3.95-.31,3.31,3.31,0,0,1-.8-2.36,3.44,3.44,0,0,1,.81-2.44,2.74,2.74,0,0,1,2.1-.87,2.69,2.69,0,0,1,2,.85,3.43,3.43,0,0,1,.79,2.39c0,.07,0,.16,0,.28H498.7a2.36,2.36,0,0,0,.58,1.57,1.71,1.71,0,0,0,1.3.55,1.56,1.56,0,0,0,1-.31A1.93,1.93,0,0,0,502.22,335.91Zm-3.46-1.7h3.48a2.11,2.11,0,0,0-.4-1.18,1.61,1.61,0,0,0-1.31-.61,1.66,1.66,0,0,0-1.22.49A1.92,1.92,0,0,0,498.76,334.21Z" style="fill:#fff"/><path d="M462.88,350.31l1.08.14a2.68,2.68,0,0,1-.95,1.48,3.24,3.24,0,0,1-3.95-.31,3.31,3.31,0,0,1-.8-2.36,3.44,3.44,0,0,1,.81-2.44,2.74,2.74,0,0,1,2.1-.87,2.69,2.69,0,0,1,2,.85,3.38,3.38,0,0,1,.79,2.39c0,.07,0,.16,0,.28h-4.64a2.41,2.41,0,0,0,.58,1.57,1.71,1.71,0,0,0,1.3.55,1.62,1.62,0,0,0,1-.3A2.09,2.09,0,0,0,462.88,350.31Zm-3.47-1.7h3.48a2.11,2.11,0,0,0-.4-1.18,1.61,1.61,0,0,0-1.31-.61,1.66,1.66,0,0,0-1.22.49A1.92,1.92,0,0,0,459.41,348.61Z" style="fill:#fff"/><path d="M465.28,352.32v-6.23h1v1a2.54,2.54,0,0,1,.67-.88,1.16,1.16,0,0,1,.67-.21,2.13,2.13,0,0,1,1.09.34l-.37,1a1.49,1.49,0,0,0-.77-.23,1,1,0,0,0-.62.21,1.15,1.15,0,0,0-.39.58,4,4,0,0,0-.18,1.23v3.26Z" style="fill:#fff"/><path d="M468.89,349.21a3.23,3.23,0,0,1,1-2.57,2.91,2.91,0,0,1,2-.69,2.79,2.79,0,0,1,2.1.84,3.22,3.22,0,0,1,.81,2.33,4.13,4.13,0,0,1-.36,1.89,2.58,2.58,0,0,1-1.05,1.07,3.1,3.1,0,0,1-1.5.38,2.79,2.79,0,0,1-2.11-.84A3.33,3.33,0,0,1,468.89,349.21Zm1.09,0a2.66,2.66,0,0,0,.52,1.79,1.74,1.74,0,0,0,2.62,0,2.74,2.74,0,0,0,.52-1.82,2.58,2.58,0,0,0-.53-1.75,1.74,1.74,0,0,0-2.61,0A2.62,2.62,0,0,0,470,349.21Z" style="fill:#fff"/><path d="M476,352.32v-6.23h.95v1a2.54,2.54,0,0,1,.67-.88,1.16,1.16,0,0,1,.67-.21,2.13,2.13,0,0,1,1.09.34l-.37,1a1.49,1.49,0,0,0-.77-.23,1,1,0,0,0-.62.21,1.15,1.15,0,0,0-.39.58,4,4,0,0,0-.18,1.23v3.26Z" style="fill:#fff"/><path d="M483.28,352.32v-6.23h1v1a2.54,2.54,0,0,1,.67-.88,1.16,1.16,0,0,1,.67-.21,2.13,2.13,0,0,1,1.09.34l-.37,1a1.49,1.49,0,0,0-.77-.23,1,1,0,0,0-.62.21,1.15,1.15,0,0,0-.39.58,4,4,0,0,0-.18,1.23v3.26Z" style="fill:#fff"/><path d="M491.35,351.55a3.83,3.83,0,0,1-1.13.7,3.2,3.2,0,0,1-1.17.21,2.28,2.28,0,0,1-1.57-.5,1.65,1.65,0,0,1-.55-1.28,1.69,1.69,0,0,1,.21-.84,1.77,1.77,0,0,1,.54-.61,2.76,2.76,0,0,1,.76-.34,6.55,6.55,0,0,1,.94-.16,9.59,9.59,0,0,0,1.88-.36v-.28a1.17,1.17,0,0,0-.3-.91,2.31,2.31,0,0,0-2.29-.09,1.54,1.54,0,0,0-.53.92l-1-.14a2.57,2.57,0,0,1,.46-1.07,2.13,2.13,0,0,1,.93-.63,4.37,4.37,0,0,1,1.42-.22,3.82,3.82,0,0,1,1.29.19,1.71,1.71,0,0,1,.73.47,1.6,1.6,0,0,1,.33.72,5.46,5.46,0,0,1,.05,1v1.41a15.8,15.8,0,0,0,.07,1.86,2.6,2.6,0,0,0,.27.75h-1.1A2.23,2.23,0,0,1,491.35,351.55Zm-.09-2.36a7.56,7.56,0,0,1-1.72.4,3.59,3.59,0,0,0-.92.21,1,1,0,0,0-.42.35.87.87,0,0,0-.15.5.91.91,0,0,0,.32.7,1.37,1.37,0,0,0,.94.28,2.16,2.16,0,0,0,1.08-.27,1.59,1.59,0,0,0,.7-.73,2.57,2.57,0,0,0,.17-1.05Z" style="fill:#fff"/><path d="M496.26,351.37l.15.93a3.41,3.41,0,0,1-.79.1,1.79,1.79,0,0,1-.89-.18,1,1,0,0,1-.45-.48,4,4,0,0,1-.13-1.25v-3.58h-.77v-.82h.77v-1.54l1.05-.63v2.17h1.06v.82H495.2v3.64a1.69,1.69,0,0,0,.06.58.37.37,0,0,0,.18.21.7.7,0,0,0,.36.07A3,3,0,0,0,496.26,351.37Z" style="fill:#fff"/><path d="M501.55,350.31l1.09.14a2.68,2.68,0,0,1-.95,1.48,2.89,2.89,0,0,1-1.78.53,2.85,2.85,0,0,1-2.17-.84,3.31,3.31,0,0,1-.8-2.36,3.44,3.44,0,0,1,.81-2.44,2.74,2.74,0,0,1,2.1-.87,2.69,2.69,0,0,1,2,.85,3.43,3.43,0,0,1,.79,2.39c0,.07,0,.16,0,.28H498a2.36,2.36,0,0,0,.58,1.57,1.71,1.71,0,0,0,1.3.55,1.62,1.62,0,0,0,1-.3A2,2,0,0,0,501.55,350.31Zm-3.46-1.7h3.47a2.11,2.11,0,0,0-.39-1.18,1.63,1.63,0,0,0-1.31-.61,1.66,1.66,0,0,0-1.22.49A1.88,1.88,0,0,0,498.09,348.61Z" style="fill:#fff"/></g><path d="M570.5,50.5h10q10,0,10,10v50q0,10-10,10h-390q-10,0-10,6.82v6.81" style="fill:none;stroke:#3d3f42;stroke-miterlimit:10"/><path d="M180.5,139.38l-3.5-7,3.5,1.75,3.5-1.75Z" style="fill:#3d3f42;stroke:#3d3f42;stroke-miterlimit:10"/><path d="M.5,23.5V.5h570v23" style="fill:#526375;stroke:#000;stroke-miterlimit:10"/><path d="M.5,23.5v77h570v-77" style="fill:none;stroke:#000;stroke-miterlimit:10"/><path d="M.5,23.5h570" style="fill:none;stroke:#000;stroke-miterlimit:10"/><g style="isolation:isolate"><path d="M252.53,16.5V7.91h2.78a9.82,9.82,0,0,1,2.07.13,2.25,2.25,0,0,1,1.23.84,2.67,2.67,0,0,1,.5,1.67,2.81,2.81,0,0,1-.29,1.33,2.34,2.34,0,0,1-.73.85,2.6,2.6,0,0,1-.9.41,10,10,0,0,1-1.79.12h-1.14V16.5Zm1.73-7.14V11.8h1a4.49,4.49,0,0,0,1.37-.13,1.08,1.08,0,0,0,.55-.43,1.25,1.25,0,0,0-.08-1.44,1.24,1.24,0,0,0-.7-.38,8.16,8.16,0,0,0-1.25-.06Z" style="fill:#fff"/><path d="M262.1,16.5h-1.65V10.28H262v.88a2.53,2.53,0,0,1,.71-.82,1.23,1.23,0,0,1,.71-.2,2,2,0,0,1,1.08.31L264,11.88a1.41,1.41,0,0,0-.77-.27,1,1,0,0,0-.59.19,1.31,1.31,0,0,0-.37.69,9.22,9.22,0,0,0-.14,2.09Z" style="fill:#fff"/><path d="M268.8,14.52l1.64.27a2.72,2.72,0,0,1-1,1.38,3,3,0,0,1-1.71.47,2.77,2.77,0,0,1-2.4-1.06,3.57,3.57,0,0,1-.62-2.14,3.45,3.45,0,0,1,.81-2.43,2.68,2.68,0,0,1,2.05-.87,2.77,2.77,0,0,1,2.19.91,4.07,4.07,0,0,1,.76,2.81H266.4a1.62,1.62,0,0,0,.4,1.14,1.25,1.25,0,0,0,.95.41,1,1,0,0,0,.65-.21A1.35,1.35,0,0,0,268.8,14.52Zm.09-1.66a1.6,1.6,0,0,0-.37-1.09,1.11,1.11,0,0,0-.85-.37,1.17,1.17,0,0,0-.9.39,1.51,1.51,0,0,0-.34,1.07Z" style="fill:#fff"/><path d="M271.82,10.28h1.53v.91a2.28,2.28,0,0,1,.81-.76,2.19,2.19,0,0,1,1.13-.29,2.35,2.35,0,0,1,1.84.85,3.38,3.38,0,0,1,.76,2.36,3.56,3.56,0,0,1-.76,2.43,2.4,2.4,0,0,1-1.85.86,2.18,2.18,0,0,1-.93-.2,3.15,3.15,0,0,1-.88-.71v3.14h-1.65Zm1.63,3a2.43,2.43,0,0,0,.41,1.55,1.27,1.27,0,0,0,1,.5,1.17,1.17,0,0,0,.95-.46,2.31,2.31,0,0,0,.38-1.5,2.27,2.27,0,0,0-.39-1.46,1.22,1.22,0,0,0-1-.47,1.25,1.25,0,0,0-1,.46A2,2,0,0,0,273.45,13.28Z" style="fill:#fff"/><path d="M282.8,14.52l1.64.27a2.66,2.66,0,0,1-1,1.38,3,3,0,0,1-1.71.47,2.77,2.77,0,0,1-2.4-1.06,3.56,3.56,0,0,1-.61-2.14,3.49,3.49,0,0,1,.8-2.43,2.69,2.69,0,0,1,2.05-.87,2.75,2.75,0,0,1,2.19.91,4.07,4.07,0,0,1,.77,2.81H280.4a1.72,1.72,0,0,0,.4,1.14,1.26,1.26,0,0,0,.95.41,1,1,0,0,0,.65-.21A1.29,1.29,0,0,0,282.8,14.52Zm.09-1.66a1.56,1.56,0,0,0-.37-1.09,1.11,1.11,0,0,0-.85-.37,1.14,1.14,0,0,0-.89.39,1.52,1.52,0,0,0-.35,1.07Z" style="fill:#fff"/><path d="M287.45,16.5H285.8V10.28h1.53v.88a2.53,2.53,0,0,1,.71-.82,1.21,1.21,0,0,1,.71-.2,2.07,2.07,0,0,1,1.08.31l-.51,1.43a1.44,1.44,0,0,0-.77-.27,1,1,0,0,0-.59.19,1.39,1.39,0,0,0-.38.69,10.12,10.12,0,0,0-.13,2.09Z" style="fill:#fff"/><path d="M291.77,12.18l-1.49-.27a2.27,2.27,0,0,1,.86-1.34,3.17,3.17,0,0,1,1.83-.43,3.82,3.82,0,0,1,1.64.26,1.62,1.62,0,0,1,.76.66,3.34,3.34,0,0,1,.22,1.47l0,1.93a7,7,0,0,0,.08,1.21,3.83,3.83,0,0,0,.3.83h-1.63c0-.11-.1-.27-.16-.49l-.06-.19a3.09,3.09,0,0,1-.9.62,2.7,2.7,0,0,1-1,.2,2.1,2.1,0,0,1-1.51-.52,1.74,1.74,0,0,1-.55-1.32,1.76,1.76,0,0,1,.25-.94,1.58,1.58,0,0,1,.7-.63,5.46,5.46,0,0,1,1.31-.39,8.94,8.94,0,0,0,1.6-.4v-.16a.84.84,0,0,0-.23-.68,1.39,1.39,0,0,0-.89-.2,1.12,1.12,0,0,0-.68.17A1.14,1.14,0,0,0,291.77,12.18Zm2.2,1.33a8.32,8.32,0,0,1-1,.25,3.08,3.08,0,0,0-.89.29.69.69,0,0,0-.33.58.83.83,0,0,0,.26.6.89.89,0,0,0,.66.25,1.48,1.48,0,0,0,.85-.29,1,1,0,0,0,.39-.55,3.48,3.48,0,0,0,.06-.8Z" style="fill:#fff"/><path d="M300.07,10.28v1.31h-1.13V14.1a6.79,6.79,0,0,0,0,.89.37.37,0,0,0,.15.2.45.45,0,0,0,.28.09,2.33,2.33,0,0,0,.66-.16l.14,1.27a3.14,3.14,0,0,1-1.3.25,2,2,0,0,1-.8-.15,1.23,1.23,0,0,1-.53-.39,1.59,1.59,0,0,1-.23-.64,9,9,0,0,1,0-1.16V11.59h-.76V10.28h.76V9l1.65-1v2.2Z" style="fill:#fff"/><path d="M301.21,9.43V7.91h1.65V9.43Zm0,7.07V10.28h1.65V16.5Z" style="fill:#fff"/><path d="M304.16,13.3a3.36,3.36,0,0,1,.41-1.59,2.8,2.8,0,0,1,1.14-1.17,3.42,3.42,0,0,1,1.66-.4,3.1,3.1,0,0,1,2.31.91,3.2,3.2,0,0,1,.9,2.32,3.2,3.2,0,0,1-.91,2.34,3.06,3.06,0,0,1-2.29.93,3.59,3.59,0,0,1-1.63-.39,2.58,2.58,0,0,1-1.18-1.13A3.77,3.77,0,0,1,304.16,13.3Zm1.69.09a2.08,2.08,0,0,0,.44,1.42,1.41,1.41,0,0,0,1.08.49,1.44,1.44,0,0,0,1.09-.49,2.11,2.11,0,0,0,.43-1.43,2.07,2.07,0,0,0-.43-1.41,1.41,1.41,0,0,0-1.09-.49,1.38,1.38,0,0,0-1.08.49A2.08,2.08,0,0,0,305.85,13.39Z" style="fill:#fff"/><path d="M317.53,16.5h-1.64V13.32a4.84,4.84,0,0,0-.11-1.3.89.89,0,0,0-.34-.46,1,1,0,0,0-.57-.16,1.29,1.29,0,0,0-.77.23,1.21,1.21,0,0,0-.47.62,5.67,5.67,0,0,0-.12,1.43V16.5h-1.65V10.28h1.53v.91a2.58,2.58,0,0,1,3.05-.86,1.65,1.65,0,0,1,.68.5,1.79,1.79,0,0,1,.32.7,5.06,5.06,0,0,1,.09,1.1Z" style="fill:#fff"/></g></svg>