<svg id="Layer_1" data-name="Layer 1" xmlns="http://www.w3.org/2000/svg" viewBox="0 0 562 372"><path d="M215.75,247.53l.07-41.35q0-10-10-10H79.5q-10,0-10,10v65" style="fill:none;stroke:#000;stroke-miterlimit:10"/><path d="M69.5,276.4l-3.5-7,3.5,1.75L73,269.4Z" style="stroke:#000;stroke-miterlimit:10"/><g style="isolation:isolate"><path d="M192.07,229.67V222.1h-2.32v-1h5.58v1H193v7.57Z"/><path d="M195.79,229.67v-6.22h.78v1a2.54,2.54,0,0,1,.55-.87.81.81,0,0,1,.56-.22,1.44,1.44,0,0,1,.88.34l-.29,1a1.09,1.09,0,0,0-.63-.23.8.8,0,0,0-.5.19,1,1,0,0,0-.32.54,4.9,4.9,0,0,0-.17,1.29v3.25Z"/><path d="M202.41,229.67v-.91a2.28,2.28,0,0,1-.7.79,1.74,1.74,0,0,1-2-.06,1.51,1.51,0,0,1-.57-.82,5,5,0,0,1-.15-1.36v-3.86h.87v3.45a5.91,5.91,0,0,0,.09,1.29,1,1,0,0,0,.36.52,1,1,0,0,0,.6.2,1.22,1.22,0,0,0,1-.51,2.75,2.75,0,0,0,.34-1.61v-3.34h.87v6.22Z"/><path d="M208,227.67l.89.14a2.72,2.72,0,0,1-.81,1.5,2.11,2.11,0,0,1-1.44.51,2.18,2.18,0,0,1-1.76-.83,3.72,3.72,0,0,1-.67-2.37,3.86,3.86,0,0,1,.68-2.46,2.11,2.11,0,0,1,3.37,0,3.82,3.82,0,0,1,.66,2.41v.28h-3.81a2.75,2.75,0,0,0,.49,1.59,1.33,1.33,0,0,0,1,.53C207.32,229,207.77,228.52,208,227.67Zm-2.84-1.7H208a2.39,2.39,0,0,0-.34-1.21,1.26,1.26,0,0,0-2.05-.1A2,2,0,0,0,205.19,226Z"/></g><g style="isolation:isolate"><path d="M296.33,282.54V274h4.75v1h-3.82v2.66h3.3v1h-3.3v3.9Z"/><path d="M305.47,281.77a3.24,3.24,0,0,1-.9.68,2.1,2.1,0,0,1-1,.23,1.7,1.7,0,0,1-1.27-.48,1.74,1.74,0,0,1-.48-1.29,2.12,2.12,0,0,1,.22-1,1.74,1.74,0,0,1,.61-.65,3.09,3.09,0,0,1,1.18-.34,7.05,7.05,0,0,0,1.54-.37v-.27a1.37,1.37,0,0,0-.23-.9,1.25,1.25,0,0,0-1-.38,1.42,1.42,0,0,0-.9.25,1.65,1.65,0,0,0-.44.94l-.85-.14a2.39,2.39,0,0,1,.73-1.46,2.47,2.47,0,0,1,1.59-.45,2.3,2.3,0,0,1,1.26.3,1.32,1.32,0,0,1,.58.75,5.28,5.28,0,0,1,.12,1.3v1.4a17.58,17.58,0,0,0,.05,1.86,2.81,2.81,0,0,0,.22.75h-.9A2.64,2.64,0,0,1,305.47,281.77Zm-.07-2.35a5.58,5.58,0,0,1-1.41.4,2.57,2.57,0,0,0-.76.21.8.8,0,0,0-.34.34,1.07,1.07,0,0,0-.12.51.93.93,0,0,0,.28.71,1,1,0,0,0,.76.27,1.53,1.53,0,0,0,.84-.24,1.47,1.47,0,0,0,.56-.65,2.73,2.73,0,0,0,.19-1.17Z"/><path d="M307.59,282.54V274h.87v8.59Z"/><path d="M309.47,280.68l.87-.17a1.56,1.56,0,0,0,.41,1,1.24,1.24,0,0,0,.9.32,1.28,1.28,0,0,0,.87-.27.94.94,0,0,0,.31-.71.66.66,0,0,0-.27-.57,3,3,0,0,0-.88-.36,6.13,6.13,0,0,1-1.34-.52,1.48,1.48,0,0,1-.53-.58,1.75,1.75,0,0,1-.19-.83,1.72,1.72,0,0,1,.51-1.29,1.9,1.9,0,0,1,1.41-.5,2.41,2.41,0,0,1,1,.2,1.58,1.58,0,0,1,.66.55,2.45,2.45,0,0,1,.32,1l-.85.14a1,1,0,0,0-1.1-1,1.3,1.3,0,0,0-.84.23.69.69,0,0,0-.28.57.66.66,0,0,0,.27.55,5,5,0,0,0,.94.37,7.39,7.39,0,0,1,1.38.54,1.36,1.36,0,0,1,.5.56,1.92,1.92,0,0,1,.17.83,2,2,0,0,1-.56,1.44,2.13,2.13,0,0,1-1.55.55A2,2,0,0,1,309.47,280.68Z"/><path d="M318.22,280.54l.89.13a2.65,2.65,0,0,1-.81,1.5,2.11,2.11,0,0,1-1.44.51,2.15,2.15,0,0,1-1.76-.82,3.73,3.73,0,0,1-.67-2.38,3.9,3.9,0,0,1,.68-2.46,2.1,2.1,0,0,1,1.71-.84,2,2,0,0,1,1.65.83,3.74,3.74,0,0,1,.67,2.41v.28h-3.81a2.69,2.69,0,0,0,.49,1.58,1.3,1.3,0,0,0,1.05.53C317.51,281.81,318,281.39,318.22,280.54Zm-2.84-1.71h2.84a2.42,2.42,0,0,0-.34-1.21,1.28,1.28,0,0,0-1.06-.58,1.26,1.26,0,0,0-1,.49A2,2,0,0,0,315.38,278.83Z"/></g><path d="M129.5,307.53h23.63" style="fill:none;stroke:#000;stroke-miterlimit:10"/><path d="M158.38,307.53l-7,3.5,1.75-3.5-1.75-3.5Z" style="stroke:#000;stroke-miterlimit:10"/><rect x="9.5" y="277.53" width="120" height="60" rx="7" style="fill:#526375"/><g style="isolation:isolate"><path d="M27.53,293.16l1.13.29a3.85,3.85,0,0,1-1.28,2.14,3.55,3.55,0,0,1-2.27.73,4.13,4.13,0,0,1-2.26-.56,3.63,3.63,0,0,1-1.33-1.64,5.9,5.9,0,0,1-.45-2.3,5,5,0,0,1,.51-2.34A3.46,3.46,0,0,1,23,288a4.23,4.23,0,0,1,2.08-.52,3.5,3.5,0,0,1,2.17.66,3.36,3.36,0,0,1,1.23,1.84l-1.12.27a2.63,2.63,0,0,0-.87-1.37,2.29,2.29,0,0,0-1.43-.43,2.73,2.73,0,0,0-1.65.48,2.46,2.46,0,0,0-.94,1.27,5.1,5.1,0,0,0-.27,1.65,5.27,5.27,0,0,0,.32,1.91,2.36,2.36,0,0,0,1,1.23,2.89,2.89,0,0,0,1.46.4,2.43,2.43,0,0,0,1.62-.55A2.85,2.85,0,0,0,27.53,293.16Z" style="fill:#fff"/><path d="M34,295.41a4,4,0,0,1-1.13.7,3.19,3.19,0,0,1-1.16.21,2.29,2.29,0,0,1-1.58-.5,1.67,1.67,0,0,1-.55-1.28,1.69,1.69,0,0,1,.21-.84,1.87,1.87,0,0,1,.54-.61,2.76,2.76,0,0,1,.76-.34,6.55,6.55,0,0,1,.94-.16,9.59,9.59,0,0,0,1.88-.36c0-.15,0-.24,0-.28a1.17,1.17,0,0,0-.3-.91,1.76,1.76,0,0,0-1.2-.35,1.8,1.8,0,0,0-1.1.26,1.6,1.6,0,0,0-.53.92l-1-.14a2.58,2.58,0,0,1,.47-1.07,2,2,0,0,1,.93-.63,4.26,4.26,0,0,1,1.41-.22,3.82,3.82,0,0,1,1.29.19,1.66,1.66,0,0,1,.74.47,1.84,1.84,0,0,1,.33.72,6.67,6.67,0,0,1,0,1v1.41a13.75,13.75,0,0,0,.07,1.86,2.31,2.31,0,0,0,.26.75H34.2A2.23,2.23,0,0,1,34,295.41Zm-.09-2.36a7.56,7.56,0,0,1-1.72.4,3.82,3.82,0,0,0-.92.21,1,1,0,0,0-.42.34,1,1,0,0,0-.14.51.88.88,0,0,0,.32.7,1.34,1.34,0,0,0,.93.28,2.11,2.11,0,0,0,1.08-.27,1.59,1.59,0,0,0,.7-.73,2.57,2.57,0,0,0,.17-1.05Z" style="fill:#fff"/><path d="M36.58,296.18v-8.59h1.05v8.59Z" style="fill:#fff"/><path d="M43.33,293.9l1,.13a2.73,2.73,0,0,1-.87,1.68,2.56,2.56,0,0,1-1.72.61,2.67,2.67,0,0,1-2.06-.84,3.42,3.42,0,0,1-.77-2.39,4.44,4.44,0,0,1,.33-1.77,2.3,2.3,0,0,1,1-1.13,3,3,0,0,1,1.48-.38,2.54,2.54,0,0,1,1.66.52,2.33,2.33,0,0,1,.83,1.45l-1,.16a1.69,1.69,0,0,0-.52-.94,1.36,1.36,0,0,0-.9-.32,1.63,1.63,0,0,0-1.29.57,2.72,2.72,0,0,0-.5,1.81,2.81,2.81,0,0,0,.48,1.82,1.56,1.56,0,0,0,1.25.57,1.5,1.5,0,0,0,1-.38A1.94,1.94,0,0,0,43.33,293.9Z" style="fill:#fff"/><path d="M49.35,296.18v-.92a2.31,2.31,0,0,1-2,1.06,2.53,2.53,0,0,1-1-.21,1.92,1.92,0,0,1-.71-.53,2.08,2.08,0,0,1-.32-.79,5.62,5.62,0,0,1-.06-1V290h1v3.45a6.61,6.61,0,0,0,.06,1.12,1.12,1.12,0,0,0,.43.65,1.28,1.28,0,0,0,.79.24,1.72,1.72,0,0,0,.89-.24,1.36,1.36,0,0,0,.59-.67,3.18,3.18,0,0,0,.18-1.21V290h1v6.23Z" style="fill:#fff"/><path d="M51.92,296.18v-8.59h1v8.59Z" style="fill:#fff"/><path d="M58.67,295.41a4,4,0,0,1-1.13.7,3.19,3.19,0,0,1-1.16.21,2.29,2.29,0,0,1-1.58-.5,1.67,1.67,0,0,1-.55-1.28,1.69,1.69,0,0,1,.21-.84,1.87,1.87,0,0,1,.54-.61,2.76,2.76,0,0,1,.76-.34,6.55,6.55,0,0,1,.94-.16,9.59,9.59,0,0,0,1.88-.36c0-.15,0-.24,0-.28a1.17,1.17,0,0,0-.3-.91,1.76,1.76,0,0,0-1.2-.35A1.8,1.8,0,0,0,56,291a1.6,1.6,0,0,0-.53.92l-1-.14a2.58,2.58,0,0,1,.47-1.07,2,2,0,0,1,.93-.63,4.26,4.26,0,0,1,1.41-.22,3.82,3.82,0,0,1,1.29.19,1.66,1.66,0,0,1,.74.47,1.7,1.7,0,0,1,.32.72,5.19,5.19,0,0,1,.06,1v1.41a16.75,16.75,0,0,0,.06,1.86,2.6,2.6,0,0,0,.27.75h-1.1A2.23,2.23,0,0,1,58.67,295.41Zm-.09-2.36a7.56,7.56,0,0,1-1.72.4,3.7,3.7,0,0,0-.92.21,1,1,0,0,0-.42.34.91.91,0,0,0-.14.51.88.88,0,0,0,.32.7,1.34,1.34,0,0,0,.93.28,2.11,2.11,0,0,0,1.08-.27,1.59,1.59,0,0,0,.7-.73,2.57,2.57,0,0,0,.17-1.05Z" style="fill:#fff"/><path d="M63.58,295.23l.16.93a3.56,3.56,0,0,1-.8.1,1.82,1.82,0,0,1-.89-.18,1,1,0,0,1-.45-.48,4.06,4.06,0,0,1-.12-1.25v-3.58H60.7V290h.78v-1.54l1-.63V290h1.06v.82H62.52v3.64a1.69,1.69,0,0,0,.06.58.46.46,0,0,0,.18.21.74.74,0,0,0,.36.07A3,3,0,0,0,63.58,295.23Z" style="fill:#fff"/><path d="M68.88,294.17l1.09.14a2.69,2.69,0,0,1-1,1.48,3.24,3.24,0,0,1-4-.31,3.31,3.31,0,0,1-.8-2.36,3.44,3.44,0,0,1,.81-2.44,2.74,2.74,0,0,1,2.1-.87,2.69,2.69,0,0,1,2,.85,3.38,3.38,0,0,1,.79,2.39v.28H65.35a2.41,2.41,0,0,0,.58,1.57,1.73,1.73,0,0,0,1.31.55,1.6,1.6,0,0,0,1-.31A2,2,0,0,0,68.88,294.17Zm-3.47-1.7h3.48a2.11,2.11,0,0,0-.4-1.18,1.61,1.61,0,0,0-1.31-.61,1.66,1.66,0,0,0-1.22.49A1.92,1.92,0,0,0,65.41,292.47Z" style="fill:#fff"/><path d="M78.66,296.18v-.79a1.92,1.92,0,0,1-1.74.93,2.47,2.47,0,0,1-1.37-.41,2.72,2.72,0,0,1-1-1.15,3.92,3.92,0,0,1-.35-1.69,4.58,4.58,0,0,1,.31-1.69,2.42,2.42,0,0,1,.94-1.16,2.46,2.46,0,0,1,1.38-.41,2.09,2.09,0,0,1,1,.24,2,2,0,0,1,.71.62v-3.08h1v8.59Zm-3.33-3.11a2.75,2.75,0,0,0,.5,1.79,1.53,1.53,0,0,0,1.19.59,1.51,1.51,0,0,0,1.18-.57,2.6,2.6,0,0,0,.48-1.72,3,3,0,0,0-.49-1.88,1.52,1.52,0,0,0-1.22-.59,1.45,1.45,0,0,0-1.17.57A2.8,2.8,0,0,0,75.33,293.07Z" style="fill:#fff"/><path d="M81.3,288.8v-1.21h1.06v1.21Zm0,7.38V290h1.06v6.23Z" style="fill:#fff"/><path d="M83.54,294.32l1-.17a1.54,1.54,0,0,0,.49,1,1.75,1.75,0,0,0,1.13.33,1.61,1.61,0,0,0,1.07-.3.87.87,0,0,0,.36-.69.64.64,0,0,0-.31-.56,4.24,4.24,0,0,0-1.08-.36,10.37,10.37,0,0,1-1.61-.51,1.53,1.53,0,0,1-.91-1.42,1.61,1.61,0,0,1,.19-.78,1.7,1.7,0,0,1,.52-.58,1.82,1.82,0,0,1,.67-.31,2.94,2.94,0,0,1,.91-.13,3.54,3.54,0,0,1,1.28.21,1.72,1.72,0,0,1,.82.57,2.26,2.26,0,0,1,.37,1l-1,.14A1.11,1.11,0,0,0,87,291a1.5,1.5,0,0,0-1-.27,1.7,1.7,0,0,0-1,.24.69.69,0,0,0-.31.56.56.56,0,0,0,.13.37.89.89,0,0,0,.4.28l.93.27a12,12,0,0,1,1.56.49,1.56,1.56,0,0,1,.7.56,1.52,1.52,0,0,1,.25.9,1.73,1.73,0,0,1-.31,1,2,2,0,0,1-.89.72,3.19,3.19,0,0,1-1.31.26,2.91,2.91,0,0,1-1.85-.51A2.35,2.35,0,0,1,83.54,294.32Z" style="fill:#fff"/><path d="M92.27,295.23l.15.93a3.49,3.49,0,0,1-.8.1,1.82,1.82,0,0,1-.89-.18,1,1,0,0,1-.44-.48,3.67,3.67,0,0,1-.13-1.25v-3.58h-.78V290h.78v-1.54l1-.63V290h1.06v.82H91.21v3.64a1.79,1.79,0,0,0,.05.58.46.46,0,0,0,.18.21.74.74,0,0,0,.36.07A3.06,3.06,0,0,0,92.27,295.23Z" style="fill:#fff"/><path d="M97.36,295.41a4,4,0,0,1-1.13.7,3.19,3.19,0,0,1-1.16.21,2.29,2.29,0,0,1-1.58-.5,1.67,1.67,0,0,1-.55-1.28,1.69,1.69,0,0,1,.21-.84,1.87,1.87,0,0,1,.54-.61,2.76,2.76,0,0,1,.76-.34,6.55,6.55,0,0,1,.94-.16,9.59,9.59,0,0,0,1.88-.36c0-.15,0-.24,0-.28A1.17,1.17,0,0,0,97,291a1.76,1.76,0,0,0-1.2-.35,1.8,1.8,0,0,0-1.1.26,1.6,1.6,0,0,0-.53.92l-1-.14a2.71,2.71,0,0,1,.46-1.07,2.11,2.11,0,0,1,.94-.63,4.26,4.26,0,0,1,1.41-.22,3.82,3.82,0,0,1,1.29.19,1.66,1.66,0,0,1,.74.47,1.7,1.7,0,0,1,.32.72,5.19,5.19,0,0,1,.06,1v1.41a16.75,16.75,0,0,0,.06,1.86,2.6,2.6,0,0,0,.27.75h-1.1A2.23,2.23,0,0,1,97.36,295.41Zm-.09-2.36a7.56,7.56,0,0,1-1.72.4,3.7,3.7,0,0,0-.92.21,1,1,0,0,0-.42.34.91.91,0,0,0-.14.51.9.9,0,0,0,.31.7,1.39,1.39,0,0,0,.94.28,2.11,2.11,0,0,0,1.08-.27,1.59,1.59,0,0,0,.7-.73,2.57,2.57,0,0,0,.17-1.05Z" style="fill:#fff"/><path d="M100,296.18V290h1v.89a2.23,2.23,0,0,1,2-1,2.71,2.71,0,0,1,1,.2,1.71,1.71,0,0,1,.7.53,2,2,0,0,1,.33.78,6,6,0,0,1,.06,1v3.83H104v-3.79a2.87,2.87,0,0,0-.12-1,1,1,0,0,0-.44-.51,1.32,1.32,0,0,0-.73-.19,1.71,1.71,0,0,0-1.16.42,2.12,2.12,0,0,0-.49,1.63v3.4Z" style="fill:#fff"/><path d="M110.71,293.9l1,.13a2.64,2.64,0,0,1-.87,1.68,2.55,2.55,0,0,1-1.72.61,2.66,2.66,0,0,1-2.05-.84,3.37,3.37,0,0,1-.78-2.39,4.27,4.27,0,0,1,.34-1.77,2.33,2.33,0,0,1,1-1.13,3.06,3.06,0,0,1,1.49-.38,2.56,2.56,0,0,1,1.66.52,2.31,2.31,0,0,1,.82,1.45l-1,.16a1.69,1.69,0,0,0-.52-.94,1.36,1.36,0,0,0-.9-.32,1.63,1.63,0,0,0-1.29.57,2.66,2.66,0,0,0-.5,1.81,2.81,2.81,0,0,0,.48,1.82,1.56,1.56,0,0,0,1.25.57,1.5,1.5,0,0,0,1-.38A1.94,1.94,0,0,0,110.71,293.9Z" style="fill:#fff"/><path d="M116.91,294.17l1.09.14a2.75,2.75,0,0,1-1,1.48,3.24,3.24,0,0,1-4-.31,3.31,3.31,0,0,1-.8-2.36,3.44,3.44,0,0,1,.81-2.44,2.74,2.74,0,0,1,2.1-.87,2.69,2.69,0,0,1,2,.85,3.38,3.38,0,0,1,.79,2.39c0,.07,0,.16,0,.28h-4.64a2.41,2.41,0,0,0,.58,1.57,1.72,1.72,0,0,0,1.3.55,1.56,1.56,0,0,0,1-.31A1.94,1.94,0,0,0,116.91,294.17Zm-3.47-1.7h3.48a2.11,2.11,0,0,0-.4-1.18,1.61,1.61,0,0,0-1.31-.61,1.66,1.66,0,0,0-1.22.49A1.92,1.92,0,0,0,113.44,292.47Z" style="fill:#fff"/><path d="M23.23,310.58h-1V302h1.06v3.06a2.07,2.07,0,0,1,1.7-.84,2.66,2.66,0,0,1,1.09.23,2.37,2.37,0,0,1,.84.65,3.06,3.06,0,0,1,.52,1,4,4,0,0,1,.19,1.26,3.52,3.52,0,0,1-.79,2.47,2.46,2.46,0,0,1-1.9.88,2,2,0,0,1-1.73-.92Zm0-3.16a3.32,3.32,0,0,0,.3,1.62,1.52,1.52,0,0,0,2.55.21,2.77,2.77,0,0,0,.5-1.79,2.81,2.81,0,0,0-.48-1.8,1.46,1.46,0,0,0-1.17-.58,1.53,1.53,0,0,0-1.2.6A2.67,2.67,0,0,0,23.22,307.42Z" style="fill:#fff"/><path d="M33.19,308.57l1.09.14a2.68,2.68,0,0,1-1,1.48,2.89,2.89,0,0,1-1.78.53,2.85,2.85,0,0,1-2.17-.84,3.31,3.31,0,0,1-.8-2.36,3.44,3.44,0,0,1,.81-2.44,2.74,2.74,0,0,1,2.1-.87,2.69,2.69,0,0,1,2,.85,3.43,3.43,0,0,1,.79,2.39c0,.07,0,.16,0,.28H29.67a2.36,2.36,0,0,0,.58,1.57,1.71,1.71,0,0,0,1.3.55,1.56,1.56,0,0,0,1-.31A1.93,1.93,0,0,0,33.19,308.57Zm-3.46-1.7H33.2a2.11,2.11,0,0,0-.39-1.18,1.63,1.63,0,0,0-1.31-.61,1.64,1.64,0,0,0-1.22.49A1.88,1.88,0,0,0,29.73,306.87Z" style="fill:#fff"/><path d="M37.91,309.63l.15.93a3.49,3.49,0,0,1-.8.1,1.82,1.82,0,0,1-.89-.18,1,1,0,0,1-.44-.48,3.67,3.67,0,0,1-.13-1.25v-3.58H35v-.82h.77v-1.54l1.05-.63v2.17h1.06v.82H36.85v3.64a2.15,2.15,0,0,0,0,.58.43.43,0,0,0,.19.21.7.7,0,0,0,.36.07A3,3,0,0,0,37.91,309.63Z" style="fill:#fff"/><path d="M40.09,310.58l-1.91-6.23h1.09l1,3.6.37,1.33c0-.07.13-.49.33-1.28l1-3.65H43L44,308l.31,1.19.36-1.2,1.07-3.6h1l-1.94,6.23h-1.1l-1-3.73-.24-1.06-1.26,4.79Z" style="fill:#fff"/><path d="M51.87,308.57l1.09.14a2.69,2.69,0,0,1-1,1.48,3.24,3.24,0,0,1-4-.31,3.31,3.31,0,0,1-.8-2.36,3.44,3.44,0,0,1,.81-2.44,2.74,2.74,0,0,1,2.1-.87,2.69,2.69,0,0,1,2,.85,3.38,3.38,0,0,1,.79,2.39v.28H48.34a2.41,2.41,0,0,0,.58,1.57,1.73,1.73,0,0,0,1.31.55,1.6,1.6,0,0,0,1-.31A2,2,0,0,0,51.87,308.57Zm-3.47-1.7h3.48a2.11,2.11,0,0,0-.4-1.18,1.61,1.61,0,0,0-1.31-.61,1.66,1.66,0,0,0-1.22.49A1.92,1.92,0,0,0,48.4,306.87Z" style="fill:#fff"/><path d="M58.54,308.57l1.09.14a2.64,2.64,0,0,1-1,1.48,3.22,3.22,0,0,1-3.94-.31,3.31,3.31,0,0,1-.8-2.36,3.44,3.44,0,0,1,.81-2.44,2.73,2.73,0,0,1,2.09-.87,2.66,2.66,0,0,1,2,.85,3.38,3.38,0,0,1,.8,2.39c0,.07,0,.16,0,.28H55a2.36,2.36,0,0,0,.58,1.57,1.71,1.71,0,0,0,1.3.55,1.56,1.56,0,0,0,1-.31A2,2,0,0,0,58.54,308.57Zm-3.46-1.7h3.47a2.11,2.11,0,0,0-.4-1.18,1.59,1.59,0,0,0-1.3-.61,1.68,1.68,0,0,0-1.23.49A1.87,1.87,0,0,0,55.08,306.87Z" style="fill:#fff"/><path d="M61,310.58v-6.23h.95v.89a2.23,2.23,0,0,1,2-1,2.54,2.54,0,0,1,1,.21,1.55,1.55,0,0,1,.7.53,1.86,1.86,0,0,1,.33.77,6,6,0,0,1,.06,1v3.83H65v-3.79a2.59,2.59,0,0,0-.13-1,.94.94,0,0,0-.43-.51,1.38,1.38,0,0,0-.74-.19,1.71,1.71,0,0,0-1.16.42,2.12,2.12,0,0,0-.49,1.63v3.4Z" style="fill:#fff"/><path d="M71,310.58v-6.23h1v.95a2.66,2.66,0,0,1,.67-.88,1.19,1.19,0,0,1,.68-.21,2.13,2.13,0,0,1,1.08.34l-.36,1a1.56,1.56,0,0,0-.78-.23,1,1,0,0,0-.62.21,1.15,1.15,0,0,0-.39.58,4,4,0,0,0-.18,1.23v3.26Z" style="fill:#fff"/><path d="M79.22,308.57l1.09.14a2.64,2.64,0,0,1-1,1.48,2.87,2.87,0,0,1-1.78.53,2.83,2.83,0,0,1-2.16-.84,3.26,3.26,0,0,1-.8-2.36,3.44,3.44,0,0,1,.81-2.44,2.91,2.91,0,0,1,4.13,0,3.38,3.38,0,0,1,.79,2.39v.28H75.7a2.36,2.36,0,0,0,.58,1.57,1.69,1.69,0,0,0,1.3.55,1.6,1.6,0,0,0,1-.31A2,2,0,0,0,79.22,308.57Zm-3.47-1.7h3.48a2.11,2.11,0,0,0-.4-1.18,1.6,1.6,0,0,0-1.31-.61,1.66,1.66,0,0,0-1.22.49A1.92,1.92,0,0,0,75.75,306.87Z" style="fill:#fff"/><path d="M81.88,310.58v-5.41H81v-.82h.93v-.66a2.67,2.67,0,0,1,.12-.93,1.39,1.39,0,0,1,.53-.67,2,2,0,0,1,1.08-.25,5.24,5.24,0,0,1,1,.11l-.16.92a3.42,3.42,0,0,0-.62-.06,1,1,0,0,0-.68.2,1.13,1.13,0,0,0-.2.77v.57h1.22v.82H82.93v5.41Z" style="fill:#fff"/><path d="M89.23,308.57l1.09.14a2.69,2.69,0,0,1-1,1.48,3.24,3.24,0,0,1-4-.31,3.31,3.31,0,0,1-.8-2.36,3.44,3.44,0,0,1,.81-2.44,2.74,2.74,0,0,1,2.1-.87,2.69,2.69,0,0,1,2,.85,3.38,3.38,0,0,1,.79,2.39c0,.07,0,.16,0,.28H85.7a2.41,2.41,0,0,0,.58,1.57,1.72,1.72,0,0,0,1.3.55,1.61,1.61,0,0,0,1-.31A2,2,0,0,0,89.23,308.57Zm-3.47-1.7h3.48a2.11,2.11,0,0,0-.4-1.18,1.61,1.61,0,0,0-1.31-.61,1.66,1.66,0,0,0-1.22.49A1.92,1.92,0,0,0,85.76,306.87Z" style="fill:#fff"/><path d="M91.63,310.58v-6.23h1v.95a2.54,2.54,0,0,1,.67-.88,1.16,1.16,0,0,1,.67-.21,2.13,2.13,0,0,1,1.09.34l-.36,1a1.56,1.56,0,0,0-.78-.23,1,1,0,0,0-.62.21,1.15,1.15,0,0,0-.39.58,4,4,0,0,0-.18,1.23v3.26Z" style="fill:#fff"/><path d="M99.9,308.57l1.09.14a2.69,2.69,0,0,1-1,1.48,3.24,3.24,0,0,1-4-.31,3.31,3.31,0,0,1-.8-2.36,3.44,3.44,0,0,1,.81-2.44,2.74,2.74,0,0,1,2.1-.87,2.69,2.69,0,0,1,2,.85,3.38,3.38,0,0,1,.79,2.39c0,.07,0,.16,0,.28H96.37A2.41,2.41,0,0,0,97,309.3a1.72,1.72,0,0,0,1.3.55,1.61,1.61,0,0,0,1-.31A2,2,0,0,0,99.9,308.57Zm-3.47-1.7h3.48a2.11,2.11,0,0,0-.4-1.18,1.61,1.61,0,0,0-1.31-.61,1.66,1.66,0,0,0-1.22.49A1.92,1.92,0,0,0,96.43,306.87Z" style="fill:#fff"/><path d="M102.31,310.58v-6.23h1v.89a2.23,2.23,0,0,1,2-1,2.5,2.5,0,0,1,1,.21,1.58,1.58,0,0,1,.71.53,1.86,1.86,0,0,1,.33.77,6,6,0,0,1,.06,1v3.83h-1.06v-3.79a2.87,2.87,0,0,0-.12-1,1,1,0,0,0-.44-.51,1.35,1.35,0,0,0-.73-.19,1.75,1.75,0,0,0-1.17.42,2.16,2.16,0,0,0-.49,1.63v3.4Z" style="fill:#fff"/><path d="M113,308.3l1,.13a2.64,2.64,0,0,1-.87,1.68,2.56,2.56,0,0,1-1.72.61,2.66,2.66,0,0,1-2-.84,3.36,3.36,0,0,1-.78-2.39,4.27,4.27,0,0,1,.34-1.77,2.33,2.33,0,0,1,1-1.13,3.06,3.06,0,0,1,1.49-.38,2.56,2.56,0,0,1,1.66.52,2.36,2.36,0,0,1,.82,1.45l-1,.16a1.69,1.69,0,0,0-.52-.94,1.36,1.36,0,0,0-.9-.32,1.66,1.66,0,0,0-1.3.57,2.72,2.72,0,0,0-.49,1.81,2.81,2.81,0,0,0,.48,1.82,1.55,1.55,0,0,0,1.25.57,1.51,1.51,0,0,0,1-.38A1.93,1.93,0,0,0,113,308.3Z" style="fill:#fff"/><path d="M119.24,308.57l1.09.14a2.68,2.68,0,0,1-1,1.48,2.89,2.89,0,0,1-1.78.53,2.85,2.85,0,0,1-2.17-.84,3.31,3.31,0,0,1-.8-2.36,3.44,3.44,0,0,1,.81-2.44,2.74,2.74,0,0,1,2.1-.87,2.69,2.69,0,0,1,2,.85,3.43,3.43,0,0,1,.79,2.39c0,.07,0,.16,0,.28h-4.64a2.36,2.36,0,0,0,.58,1.57,1.71,1.71,0,0,0,1.3.55,1.56,1.56,0,0,0,1-.31A1.93,1.93,0,0,0,119.24,308.57Zm-3.46-1.7h3.47a2,2,0,0,0-.39-1.18,1.63,1.63,0,0,0-1.31-.61,1.66,1.66,0,0,0-1.22.49A1.92,1.92,0,0,0,115.78,306.87Z" style="fill:#fff"/><path d="M14.6,317.6v-1.21h1.05v1.21Zm0,7.38v-6.23h1.05V325Z" style="fill:#fff"/><path d="M17.26,325v-6.23h.94v.88a2.3,2.3,0,0,1,.78-.74,2.23,2.23,0,0,1,1.11-.28,2,2,0,0,1,1.13.29,1.57,1.57,0,0,1,.63.8,2.24,2.24,0,0,1,1.92-1.09,1.9,1.9,0,0,1,1.42.51,2.22,2.22,0,0,1,.5,1.58V325H24.64v-3.92a2.9,2.9,0,0,0-.1-.92.88.88,0,0,0-.37-.44,1.11,1.11,0,0,0-.64-.17,1.49,1.49,0,0,0-1.09.43,1.92,1.92,0,0,0-.43,1.4V325H21v-4.05a1.76,1.76,0,0,0-.26-1.05,1,1,0,0,0-.85-.35,1.5,1.5,0,0,0-.82.23,1.41,1.41,0,0,0-.55.69,3.92,3.92,0,0,0-.17,1.3V325Z" style="fill:#fff"/><path d="M31.31,324.21a4,4,0,0,1-1.12.7,3.2,3.2,0,0,1-1.17.21,2.26,2.26,0,0,1-1.57-.5,1.67,1.67,0,0,1-.55-1.29,1.7,1.7,0,0,1,.75-1.44,2.63,2.63,0,0,1,.76-.34,6.55,6.55,0,0,1,.94-.16,9.75,9.75,0,0,0,1.88-.36v-.28a1.17,1.17,0,0,0-.3-.91,1.76,1.76,0,0,0-1.2-.35,1.84,1.84,0,0,0-1.1.26,1.59,1.59,0,0,0-.52.92l-1-.14a2.57,2.57,0,0,1,.46-1.07,2.13,2.13,0,0,1,.93-.63,4.35,4.35,0,0,1,1.41-.22,3.61,3.61,0,0,1,1.3.19,1.62,1.62,0,0,1,.73.47,1.6,1.6,0,0,1,.33.72,5.46,5.46,0,0,1,0,1v1.41a15.8,15.8,0,0,0,.07,1.86,2.33,2.33,0,0,0,.27.75h-1.1A2.48,2.48,0,0,1,31.31,324.21Zm-.08-2.36a7.67,7.67,0,0,1-1.73.4,3.82,3.82,0,0,0-.92.21.91.91,0,0,0-.56.85.91.91,0,0,0,.32.7,1.37,1.37,0,0,0,.94.28,2.16,2.16,0,0,0,1.08-.27,1.59,1.59,0,0,0,.7-.73,2.57,2.57,0,0,0,.17-1.05Z" style="fill:#fff"/><path d="M33.73,325.49l1,.15a.93.93,0,0,0,.36.69,1.72,1.72,0,0,0,1.07.3,1.85,1.85,0,0,0,1.13-.3,1.36,1.36,0,0,0,.54-.82,7.26,7.26,0,0,0,.08-1.35,2.21,2.21,0,0,1-1.73.82,2.34,2.34,0,0,1-2-.93,3.57,3.57,0,0,1-.71-2.22,4,4,0,0,1,.33-1.64,2.44,2.44,0,0,1,2.37-1.58,2.26,2.26,0,0,1,1.82.89v-.75h1v5.38a5,5,0,0,1-.3,2.06,2.13,2.13,0,0,1-.94,1,3.25,3.25,0,0,1-1.57.35,3,3,0,0,1-1.8-.5A1.71,1.71,0,0,1,33.73,325.49Zm.88-3.74a2.72,2.72,0,0,0,.48,1.79,1.61,1.61,0,0,0,2.44,0,3.29,3.29,0,0,0,0-3.47,1.57,1.57,0,0,0-1.23-.58,1.53,1.53,0,0,0-1.19.57A2.51,2.51,0,0,0,34.61,321.75Z" style="fill:#fff"/><path d="M44.86,323l1.09.14a2.68,2.68,0,0,1-1,1.48,2.9,2.9,0,0,1-1.79.53,2.83,2.83,0,0,1-2.16-.84,3.32,3.32,0,0,1-.8-2.36,3.44,3.44,0,0,1,.81-2.44,2.74,2.74,0,0,1,2.1-.87,2.69,2.69,0,0,1,2,.85,3.43,3.43,0,0,1,.79,2.39c0,.07,0,.16,0,.28H41.34a2.36,2.36,0,0,0,.58,1.57,1.71,1.71,0,0,0,1.3.55,1.56,1.56,0,0,0,1-.31A2,2,0,0,0,44.86,323Zm-3.46-1.7h3.47a2,2,0,0,0-.4-1.18,1.59,1.59,0,0,0-1.3-.61A1.64,1.64,0,0,0,42,320,1.88,1.88,0,0,0,41.4,321.27Z" style="fill:#fff"/><path d="M54.67,324.21a4,4,0,0,1-1.13.7,3.19,3.19,0,0,1-1.16.21,2.3,2.3,0,0,1-1.58-.5,1.71,1.71,0,0,1-.55-1.29,1.68,1.68,0,0,1,.21-.83,1.87,1.87,0,0,1,.54-.61,2.76,2.76,0,0,1,.76-.34,6.55,6.55,0,0,1,.94-.16,9.59,9.59,0,0,0,1.88-.36c0-.15,0-.24,0-.28a1.17,1.17,0,0,0-.3-.91,1.76,1.76,0,0,0-1.2-.35,1.82,1.82,0,0,0-1.1.26,1.6,1.6,0,0,0-.53.92l-1-.14a2.58,2.58,0,0,1,.47-1.07,2,2,0,0,1,.93-.63,4.3,4.3,0,0,1,1.41-.22,3.68,3.68,0,0,1,1.3.19,1.68,1.68,0,0,1,.73.47,1.84,1.84,0,0,1,.33.72,6.67,6.67,0,0,1,0,1v1.41a13.75,13.75,0,0,0,.07,1.86A2.31,2.31,0,0,0,56,325h-1.1A2.23,2.23,0,0,1,54.67,324.21Zm-.09-2.36a7.56,7.56,0,0,1-1.72.4,3.82,3.82,0,0,0-.92.21,1,1,0,0,0-.42.34,1,1,0,0,0-.14.51.88.88,0,0,0,.32.7,1.34,1.34,0,0,0,.93.28,2.11,2.11,0,0,0,1.08-.27,1.59,1.59,0,0,0,.7-.73,2.41,2.41,0,0,0,.17-1.05Z" style="fill:#fff"/><path d="M57.28,325v-6.23h.95v.89a2.23,2.23,0,0,1,2-1,2.71,2.71,0,0,1,1,.2,1.71,1.71,0,0,1,.7.53,2,2,0,0,1,.33.78,6,6,0,0,1,.06,1V325H61.29v-3.79a2.82,2.82,0,0,0-.13-1,1,1,0,0,0-.43-.51,1.38,1.38,0,0,0-.74-.19,1.71,1.71,0,0,0-1.16.42,2.12,2.12,0,0,0-.49,1.63V325Z" style="fill:#fff"/><path d="M68,325v-.79a1.92,1.92,0,0,1-1.74.93,2.44,2.44,0,0,1-1.36-.41,2.74,2.74,0,0,1-1-1.15,3.92,3.92,0,0,1-.34-1.69,4.39,4.39,0,0,1,.31-1.69,2.35,2.35,0,0,1,.93-1.16,2.49,2.49,0,0,1,1.39-.41,2.05,2.05,0,0,1,1,.24,2,2,0,0,1,.71.62v-3.08h1V325Zm-3.33-3.11a2.75,2.75,0,0,0,.5,1.79,1.55,1.55,0,0,0,1.19.59,1.5,1.5,0,0,0,1.18-.57A2.6,2.6,0,0,0,68,322a2.94,2.94,0,0,0-.49-1.88,1.5,1.5,0,0,0-1.21-.59,1.48,1.48,0,0,0-1.18.57A2.86,2.86,0,0,0,64.66,321.87Z" style="fill:#fff"/><path d="M76.27,324l.15.93a3.49,3.49,0,0,1-.8.1,1.82,1.82,0,0,1-.89-.18,1,1,0,0,1-.44-.48,3.67,3.67,0,0,1-.13-1.25v-3.58h-.78v-.82h.78v-1.54l1-.63v2.17h1.06v.82H75.21v3.64a2.15,2.15,0,0,0,.05.58.46.46,0,0,0,.18.21.74.74,0,0,0,.36.07A3.06,3.06,0,0,0,76.27,324Z" style="fill:#fff"/><path d="M81.56,323l1.09.14a2.64,2.64,0,0,1-1,1.48,2.87,2.87,0,0,1-1.78.53,2.83,2.83,0,0,1-2.16-.84,3.28,3.28,0,0,1-.8-2.36,3.44,3.44,0,0,1,.81-2.44,2.7,2.7,0,0,1,2.09-.87,2.66,2.66,0,0,1,2,.85,3.38,3.38,0,0,1,.79,2.39v.28H78a2.36,2.36,0,0,0,.58,1.57,1.69,1.69,0,0,0,1.3.55,1.6,1.6,0,0,0,1-.31A2,2,0,0,0,81.56,323Zm-3.46-1.7h3.47a2.11,2.11,0,0,0-.4-1.18,1.59,1.59,0,0,0-1.3-.61,1.67,1.67,0,0,0-1.23.49A1.87,1.87,0,0,0,78.1,321.27Z" style="fill:#fff"/><path d="M83.55,323.12l1-.17a1.54,1.54,0,0,0,.49,1,1.73,1.73,0,0,0,1.13.33,1.61,1.61,0,0,0,1.07-.3.86.86,0,0,0,.35-.69.62.62,0,0,0-.31-.56,4,4,0,0,0-1.07-.36,10.37,10.37,0,0,1-1.61-.51,1.53,1.53,0,0,1-.91-1.42,1.62,1.62,0,0,1,.71-1.36,1.82,1.82,0,0,1,.67-.31,2.94,2.94,0,0,1,.91-.13,3.58,3.58,0,0,1,1.28.21,1.72,1.72,0,0,1,.82.57,2.14,2.14,0,0,1,.36,1l-1,.14a1.11,1.11,0,0,0-.4-.75,1.52,1.52,0,0,0-1-.27,1.7,1.7,0,0,0-1,.24.69.69,0,0,0-.31.56.56.56,0,0,0,.13.37.89.89,0,0,0,.4.28c.1,0,.42.13.93.27a12,12,0,0,1,1.56.49,1.56,1.56,0,0,1,.7.56,1.59,1.59,0,0,1,.25.9,1.73,1.73,0,0,1-.31,1,2,2,0,0,1-.89.72,3.19,3.19,0,0,1-1.31.26,2.91,2.91,0,0,1-1.85-.51A2.35,2.35,0,0,1,83.55,323.12Z" style="fill:#fff"/><path d="M92.28,324l.15.93a3.49,3.49,0,0,1-.8.1,1.82,1.82,0,0,1-.89-.18,1.09,1.09,0,0,1-.45-.48,4.06,4.06,0,0,1-.12-1.25v-3.58h-.78v-.82h.78v-1.54l1-.63v2.17h1.07v.82H91.21v3.64a1.69,1.69,0,0,0,.06.58.46.46,0,0,0,.18.21.74.74,0,0,0,.36.07A3.16,3.16,0,0,0,92.28,324Z" style="fill:#fff"/><path d="M96.65,317.6v-1.21h1v1.21Zm0,7.38v-6.23h1V325Z" style="fill:#fff"/><path d="M99.31,325v-6.23h.94v.88a2.3,2.3,0,0,1,.78-.74,2.23,2.23,0,0,1,1.11-.28,2,2,0,0,1,1.13.29,1.5,1.5,0,0,1,.62.8,2.27,2.27,0,0,1,1.93-1.09,1.9,1.9,0,0,1,1.42.51,2.22,2.22,0,0,1,.5,1.58V325h-1v-3.92a2.9,2.9,0,0,0-.1-.92.9.9,0,0,0-.38-.44,1.08,1.08,0,0,0-.63-.17,1.47,1.47,0,0,0-1.09.43,1.92,1.92,0,0,0-.43,1.4V325H103v-4.05a1.77,1.77,0,0,0-.25-1.05,1,1,0,0,0-.85-.35,1.5,1.5,0,0,0-.82.23,1.36,1.36,0,0,0-.55.69,3.92,3.92,0,0,0-.17,1.3V325Z" style="fill:#fff"/><path d="M113.36,324.21a4,4,0,0,1-1.12.7,3.24,3.24,0,0,1-1.17.21,2.26,2.26,0,0,1-1.57-.5,1.8,1.8,0,0,1-.35-2.12,1.79,1.79,0,0,1,.55-.61,2.63,2.63,0,0,1,.76-.34,6.36,6.36,0,0,1,.93-.16,9.73,9.73,0,0,0,1.89-.36v-.28a1.17,1.17,0,0,0-.3-.91,1.76,1.76,0,0,0-1.2-.35,1.84,1.84,0,0,0-1.1.26,1.59,1.59,0,0,0-.52.92l-1-.14a2.57,2.57,0,0,1,.46-1.07,2.07,2.07,0,0,1,.93-.63,4.35,4.35,0,0,1,1.41-.22,3.64,3.64,0,0,1,1.3.19,1.68,1.68,0,0,1,.73.47,1.6,1.6,0,0,1,.33.72,6.67,6.67,0,0,1,0,1v1.41a13.75,13.75,0,0,0,.07,1.86,2.12,2.12,0,0,0,.27.75h-1.11A2.23,2.23,0,0,1,113.36,324.21Zm-.08-2.36a7.67,7.67,0,0,1-1.73.4,3.82,3.82,0,0,0-.92.21.87.87,0,0,0-.41.34.92.92,0,0,0-.15.51.91.91,0,0,0,.32.7,1.34,1.34,0,0,0,.93.28,2.18,2.18,0,0,0,1.09-.27,1.65,1.65,0,0,0,.7-.73,2.57,2.57,0,0,0,.17-1.05Z" style="fill:#fff"/><path d="M115.78,325.49l1,.15a.93.93,0,0,0,.36.69,1.72,1.72,0,0,0,1.07.3,1.85,1.85,0,0,0,1.13-.3,1.46,1.46,0,0,0,.54-.82,6.7,6.7,0,0,0,.07-1.35,2.17,2.17,0,0,1-1.72.82,2.33,2.33,0,0,1-2-.93,3.57,3.57,0,0,1-.71-2.22,4.21,4.21,0,0,1,.32-1.64,2.62,2.62,0,0,1,.94-1.17,2.56,2.56,0,0,1,1.44-.41,2.23,2.23,0,0,1,1.81.89v-.75h1v5.38a5,5,0,0,1-.3,2.06,2.13,2.13,0,0,1-.94,1,3.27,3.27,0,0,1-1.58.35,3,3,0,0,1-1.79-.5A1.71,1.71,0,0,1,115.78,325.49Zm.88-3.74a2.72,2.72,0,0,0,.48,1.79,1.61,1.61,0,0,0,2.44,0,3.29,3.29,0,0,0,0-3.47,1.57,1.57,0,0,0-1.23-.58,1.53,1.53,0,0,0-1.19.57A2.51,2.51,0,0,0,116.66,321.75Z" style="fill:#fff"/><path d="M126.91,323l1.09.14a2.64,2.64,0,0,1-1,1.48,3.22,3.22,0,0,1-3.94-.31,3.32,3.32,0,0,1-.8-2.36,3.44,3.44,0,0,1,.81-2.44,2.74,2.74,0,0,1,2.1-.87,2.66,2.66,0,0,1,2,.85,3.38,3.38,0,0,1,.8,2.39c0,.07,0,.16,0,.28h-4.64a2.36,2.36,0,0,0,.58,1.57,1.71,1.71,0,0,0,1.3.55,1.56,1.56,0,0,0,1-.31A2,2,0,0,0,126.91,323Zm-3.46-1.7h3.47a2,2,0,0,0-.4-1.18,1.59,1.59,0,0,0-1.3-.61A1.64,1.64,0,0,0,124,320,1.88,1.88,0,0,0,123.45,321.27Z" style="fill:#fff"/></g><path d="M339.5,50.5h10q10,0,10,10v40q0,10-10,10h-170q-10,0-10,6.82v6.81" style="fill:none;stroke:#000;stroke-miterlimit:10"/><path d="M169.5,129.38l-3.5-7,3.5,1.75,3.5-1.75Z" style="stroke:#000;stroke-miterlimit:10"/><path d="M-.5,23.5V.5h340v23" style="fill:#526375;stroke:#000;stroke-miterlimit:10"/><path d="M-.5,23.5v77h340v-77" style="fill:none;stroke:#000;stroke-miterlimit:10"/><path d="M-.5,23.5h340" style="fill:none;stroke:#000;stroke-miterlimit:10"/><g style="isolation:isolate"><path d="M136.53,16.5V7.91h2.78a9.82,9.82,0,0,1,2.07.13,2.25,2.25,0,0,1,1.23.84,2.67,2.67,0,0,1,.5,1.67,2.81,2.81,0,0,1-.29,1.33,2.34,2.34,0,0,1-.73.85,2.6,2.6,0,0,1-.9.41,10,10,0,0,1-1.79.12h-1.14V16.5Zm1.73-7.14V11.8h1a4.49,4.49,0,0,0,1.37-.13,1.08,1.08,0,0,0,.55-.43,1.25,1.25,0,0,0-.08-1.44,1.24,1.24,0,0,0-.7-.38,8.16,8.16,0,0,0-1.25-.06Z" style="fill:#fff"/><path d="M146.1,16.5h-1.65V10.28H146v.88a2.53,2.53,0,0,1,.71-.82,1.23,1.23,0,0,1,.71-.2,2,2,0,0,1,1.08.31L148,11.88a1.41,1.41,0,0,0-.77-.27,1,1,0,0,0-.59.19,1.31,1.31,0,0,0-.37.69,9.22,9.22,0,0,0-.14,2.09Z" style="fill:#fff"/><path d="M152.8,14.52l1.64.27a2.72,2.72,0,0,1-1,1.38,3,3,0,0,1-1.71.47,2.77,2.77,0,0,1-2.4-1.06,3.57,3.57,0,0,1-.62-2.14,3.45,3.45,0,0,1,.81-2.43,2.68,2.68,0,0,1,2-.87,2.77,2.77,0,0,1,2.19.91,4.07,4.07,0,0,1,.76,2.81H150.4a1.62,1.62,0,0,0,.4,1.14,1.25,1.25,0,0,0,.95.41,1,1,0,0,0,.65-.21A1.35,1.35,0,0,0,152.8,14.52Zm.09-1.66a1.6,1.6,0,0,0-.37-1.09,1.11,1.11,0,0,0-.85-.37,1.17,1.17,0,0,0-.9.39,1.51,1.51,0,0,0-.34,1.07Z" style="fill:#fff"/><path d="M155.82,10.28h1.53v.91a2.28,2.28,0,0,1,.81-.76,2.19,2.19,0,0,1,1.13-.29,2.35,2.35,0,0,1,1.84.85,3.38,3.38,0,0,1,.76,2.36,3.56,3.56,0,0,1-.76,2.43,2.4,2.4,0,0,1-1.85.86,2.18,2.18,0,0,1-.93-.2,3.15,3.15,0,0,1-.88-.71v3.14h-1.65Zm1.63,3a2.43,2.43,0,0,0,.41,1.55,1.27,1.27,0,0,0,1,.5,1.17,1.17,0,0,0,1-.46,2.31,2.31,0,0,0,.38-1.5,2.27,2.27,0,0,0-.39-1.46,1.22,1.22,0,0,0-1-.47,1.25,1.25,0,0,0-1,.46A2,2,0,0,0,157.45,13.28Z" style="fill:#fff"/><path d="M166.8,14.52l1.64.27a2.66,2.66,0,0,1-1,1.38,3,3,0,0,1-1.71.47,2.77,2.77,0,0,1-2.4-1.06,3.56,3.56,0,0,1-.61-2.14,3.49,3.49,0,0,1,.8-2.43,2.69,2.69,0,0,1,2-.87,2.75,2.75,0,0,1,2.19.91,4.07,4.07,0,0,1,.77,2.81H164.4a1.72,1.72,0,0,0,.4,1.14,1.26,1.26,0,0,0,.95.41,1,1,0,0,0,.65-.21A1.29,1.29,0,0,0,166.8,14.52Zm.09-1.66a1.56,1.56,0,0,0-.37-1.09,1.11,1.11,0,0,0-.85-.37,1.14,1.14,0,0,0-.89.39,1.52,1.52,0,0,0-.35,1.07Z" style="fill:#fff"/><path d="M171.45,16.5H169.8V10.28h1.53v.88a2.53,2.53,0,0,1,.71-.82,1.21,1.21,0,0,1,.71-.2,2.07,2.07,0,0,1,1.08.31l-.51,1.43a1.44,1.44,0,0,0-.77-.27,1,1,0,0,0-.59.19,1.39,1.39,0,0,0-.38.69,10.12,10.12,0,0,0-.13,2.09Z" style="fill:#fff"/><path d="M175.77,12.18l-1.49-.27a2.27,2.27,0,0,1,.86-1.34,3.17,3.17,0,0,1,1.83-.43,3.82,3.82,0,0,1,1.64.26,1.62,1.62,0,0,1,.76.66,3.34,3.34,0,0,1,.22,1.47l0,1.93a7,7,0,0,0,.08,1.21,3.83,3.83,0,0,0,.3.83h-1.63c0-.11-.1-.27-.16-.49l-.06-.19a3.09,3.09,0,0,1-.9.62,2.7,2.7,0,0,1-1,.2,2.1,2.1,0,0,1-1.51-.52,1.74,1.74,0,0,1-.55-1.32,1.76,1.76,0,0,1,.25-.94,1.58,1.58,0,0,1,.7-.63,5.46,5.46,0,0,1,1.31-.39,8.94,8.94,0,0,0,1.6-.4v-.16a.84.84,0,0,0-.23-.68,1.39,1.39,0,0,0-.89-.2,1.12,1.12,0,0,0-.68.17A1.14,1.14,0,0,0,175.77,12.18Zm2.2,1.33a8.32,8.32,0,0,1-1,.25,3.08,3.08,0,0,0-.89.29.69.69,0,0,0-.33.58.83.83,0,0,0,.26.6.89.89,0,0,0,.66.25,1.48,1.48,0,0,0,.85-.29,1,1,0,0,0,.39-.55,3.48,3.48,0,0,0,.06-.8Z" style="fill:#fff"/><path d="M184.07,10.28v1.31h-1.13V14.1a6.79,6.79,0,0,0,0,.89.37.37,0,0,0,.15.2.45.45,0,0,0,.28.09,2.33,2.33,0,0,0,.66-.16l.14,1.27a3.14,3.14,0,0,1-1.3.25,2,2,0,0,1-.8-.15,1.23,1.23,0,0,1-.53-.39,1.59,1.59,0,0,1-.23-.64,9,9,0,0,1-.05-1.16V11.59h-.76V10.28h.76V9l1.65-1v2.2Z" style="fill:#fff"/><path d="M185.21,9.43V7.91h1.65V9.43Zm0,7.07V10.28h1.65V16.5Z" style="fill:#fff"/><path d="M188.16,13.3a3.36,3.36,0,0,1,.41-1.59,2.8,2.8,0,0,1,1.14-1.17,3.42,3.42,0,0,1,1.66-.4,3.1,3.1,0,0,1,2.31.91,3.2,3.2,0,0,1,.9,2.32,3.2,3.2,0,0,1-.91,2.34,3.06,3.06,0,0,1-2.29.93,3.59,3.59,0,0,1-1.63-.39,2.58,2.58,0,0,1-1.18-1.13A3.77,3.77,0,0,1,188.16,13.3Zm1.69.09a2.08,2.08,0,0,0,.44,1.42,1.41,1.41,0,0,0,1.08.49,1.44,1.44,0,0,0,1.09-.49,2.11,2.11,0,0,0,.43-1.43,2.07,2.07,0,0,0-.43-1.41,1.41,1.41,0,0,0-1.09-.49,1.38,1.38,0,0,0-1.08.49A2.08,2.08,0,0,0,189.85,13.39Z" style="fill:#fff"/><path d="M201.53,16.5h-1.64V13.32a4.84,4.84,0,0,0-.11-1.3.89.89,0,0,0-.34-.46,1,1,0,0,0-.57-.16,1.29,1.29,0,0,0-.77.23,1.21,1.21,0,0,0-.47.62,5.67,5.67,0,0,0-.12,1.43V16.5h-1.65V10.28h1.53v.91a2.58,2.58,0,0,1,3.05-.86,1.65,1.65,0,0,1,.68.5,1.79,1.79,0,0,1,.32.7,5.06,5.06,0,0,1,.09,1.1Z" style="fill:#fff"/></g><path d="M149.5,60.5h33.63" style="fill:none;stroke:#000;stroke-miterlimit:10"/><path d="M188.38,60.5l-7,3.5,1.75-3.5L181.38,57Z" style="stroke:#000;stroke-miterlimit:10"/><rect x="49.5" y="40.5" width="100" height="40" rx="7" style="fill:#526375"/><g style="isolation:isolate"><path d="M73.19,64V55.41h1.13V63h4.23v1Z" style="fill:#fff"/><path d="M79.38,60.89a3.2,3.2,0,0,1,1-2.56,2.91,2.91,0,0,1,2-.69,2.82,2.82,0,0,1,2.1.84,3.2,3.2,0,0,1,.81,2.32,4.13,4.13,0,0,1-.36,1.89,2.52,2.52,0,0,1-1,1.07,3.1,3.1,0,0,1-1.5.38,2.78,2.78,0,0,1-2.11-.84A3.33,3.33,0,0,1,79.38,60.89Zm1.08,0A2.64,2.64,0,0,0,81,62.68a1.64,1.64,0,0,0,1.31.59,1.66,1.66,0,0,0,1.3-.59,2.72,2.72,0,0,0,.53-1.83,2.58,2.58,0,0,0-.53-1.75,1.74,1.74,0,0,0-2.61,0A2.64,2.64,0,0,0,80.46,60.89Z" style="fill:#fff"/><path d="M90.51,63.23a4.1,4.1,0,0,1-1.13.71,3.41,3.41,0,0,1-1.16.2,2.29,2.29,0,0,1-1.58-.5,1.64,1.64,0,0,1-.55-1.28,1.72,1.72,0,0,1,.21-.84,1.74,1.74,0,0,1,.54-.6,2.78,2.78,0,0,1,.76-.35,8.38,8.38,0,0,1,.94-.16,9.59,9.59,0,0,0,1.88-.36v-.27a1.16,1.16,0,0,0-.29-.91,1.77,1.77,0,0,0-1.21-.36,1.86,1.86,0,0,0-1.09.26,1.6,1.6,0,0,0-.53.92l-1-.14a2.57,2.57,0,0,1,.46-1.07,2,2,0,0,1,.94-.62,4,4,0,0,1,1.41-.22,3.85,3.85,0,0,1,1.29.18,1.72,1.72,0,0,1,.73.48,1.56,1.56,0,0,1,.33.71,5.32,5.32,0,0,1,.06,1v1.4a16.75,16.75,0,0,0,.06,1.86,2.6,2.6,0,0,0,.27.75h-1.1A2.17,2.17,0,0,1,90.51,63.23Zm-.09-2.35a8.14,8.14,0,0,1-1.72.4,3.7,3.7,0,0,0-.92.21A.91.91,0,0,0,87.53,63a1.39,1.39,0,0,0,.94.28,2.13,2.13,0,0,0,1.08-.26,1.64,1.64,0,0,0,.7-.73,2.62,2.62,0,0,0,.17-1.06Z" style="fill:#fff"/><path d="M97.16,64v-.79a2,2,0,0,1-1.74.93,2.45,2.45,0,0,1-1.37-.41,2.62,2.62,0,0,1-1-1.15,3.92,3.92,0,0,1-.34-1.69,4.39,4.39,0,0,1,.31-1.69,2.42,2.42,0,0,1,2.32-1.56,2.14,2.14,0,0,1,1,.23,2.18,2.18,0,0,1,.72.62V55.41h1V64Zm-3.34-3.11a2.67,2.67,0,0,0,.51,1.79,1.5,1.5,0,0,0,2.36,0A2.63,2.63,0,0,0,97.17,61a2.91,2.91,0,0,0-.49-1.87,1.51,1.51,0,0,0-1.21-.6,1.48,1.48,0,0,0-1.18.57A2.88,2.88,0,0,0,93.82,60.89Z" style="fill:#fff"/><path d="M107.17,64v-.79a2,2,0,0,1-1.75.93,2.44,2.44,0,0,1-1.36-.41,2.62,2.62,0,0,1-1-1.15,3.92,3.92,0,0,1-.34-1.69,4.39,4.39,0,0,1,.31-1.69A2.45,2.45,0,0,1,104,58a2.48,2.48,0,0,1,1.39-.4,2.17,2.17,0,0,1,1,.23,2.14,2.14,0,0,1,.71.62V55.41h1V64Zm-3.34-3.11a2.73,2.73,0,0,0,.5,1.79,1.52,1.52,0,0,0,1.19.59,1.5,1.5,0,0,0,1.18-.56,2.63,2.63,0,0,0,.48-1.73,2.91,2.91,0,0,0-.49-1.87,1.51,1.51,0,0,0-1.21-.6,1.48,1.48,0,0,0-1.18.57A2.88,2.88,0,0,0,103.83,60.89Z" style="fill:#fff"/><path d="M113.86,63.23a4,4,0,0,1-1.13.71,3.36,3.36,0,0,1-1.16.2,2.26,2.26,0,0,1-1.57-.5,1.64,1.64,0,0,1-.56-1.28,1.72,1.72,0,0,1,.21-.84,1.67,1.67,0,0,1,.55-.6,2.53,2.53,0,0,1,.76-.35,8.12,8.12,0,0,1,.93-.16,9.44,9.44,0,0,0,1.88-.36c0-.14,0-.24,0-.27a1.16,1.16,0,0,0-.3-.91,1.76,1.76,0,0,0-1.2-.36,1.9,1.9,0,0,0-1.1.26,1.59,1.59,0,0,0-.52.92l-1-.14a2.45,2.45,0,0,1,.46-1.07,1.93,1.93,0,0,1,.93-.62,4.09,4.09,0,0,1,1.41-.22,3.91,3.91,0,0,1,1.3.18,1.78,1.78,0,0,1,.73.48,1.56,1.56,0,0,1,.33.71,6.84,6.84,0,0,1,0,1v1.4a13.75,13.75,0,0,0,.07,1.86,2.31,2.31,0,0,0,.26.75h-1.1A2.17,2.17,0,0,1,113.86,63.23Zm-.09-2.35a8,8,0,0,1-1.72.4,3.82,3.82,0,0,0-.92.21.82.82,0,0,0-.41.34.92.92,0,0,0,.17,1.2,1.34,1.34,0,0,0,.93.28,2.17,2.17,0,0,0,1.09-.26,1.62,1.62,0,0,0,.69-.73,2.46,2.46,0,0,0,.17-1.06Z" style="fill:#fff"/><path d="M118.78,63.06l.15.93a4.08,4.08,0,0,1-.8.09,1.82,1.82,0,0,1-.89-.18,1,1,0,0,1-.44-.48,3.6,3.6,0,0,1-.13-1.24V58.6h-.77v-.82h.77V56.24l1-.64v2.18h1.06v.82h-1.06v3.64a2.2,2.2,0,0,0,0,.58.46.46,0,0,0,.19.2.69.69,0,0,0,.36.08Z" style="fill:#fff"/><path d="M123.87,63.23a4.1,4.1,0,0,1-1.13.71,3.41,3.41,0,0,1-1.16.2,2.3,2.3,0,0,1-1.58-.5,1.67,1.67,0,0,1-.55-1.28,1.72,1.72,0,0,1,.21-.84,1.67,1.67,0,0,1,.55-.6,2.59,2.59,0,0,1,.75-.35,8.38,8.38,0,0,1,.94-.16,9.59,9.59,0,0,0,1.88-.36c0-.14,0-.24,0-.27a1.16,1.16,0,0,0-.3-.91,1.76,1.76,0,0,0-1.2-.36,1.9,1.9,0,0,0-1.1.26,1.54,1.54,0,0,0-.52.92l-1-.14a2.58,2.58,0,0,1,.47-1.07,1.93,1.93,0,0,1,.93-.62,4.05,4.05,0,0,1,1.41-.22,4,4,0,0,1,1.3.18A1.51,1.51,0,0,1,124.8,59a6.84,6.84,0,0,1,0,1v1.4a13.75,13.75,0,0,0,.07,1.86,2.31,2.31,0,0,0,.26.75h-1.1A2.17,2.17,0,0,1,123.87,63.23Zm-.09-2.35a8,8,0,0,1-1.72.4,3.82,3.82,0,0,0-.92.21.89.89,0,0,0-.42.34,1,1,0,0,0-.14.5.86.86,0,0,0,.32.7,1.34,1.34,0,0,0,.93.28,2.17,2.17,0,0,0,1.09-.26,1.67,1.67,0,0,0,.69-.73,2.46,2.46,0,0,0,.17-1.06Z" style="fill:#fff"/></g><path d="M259.63,203.45h66c3,0,5.37,3.13,5.37,7v26c0,3.86-2.4,7-5.37,7h-66c-3,0-5.37-3.14-5.37-7v-26C254.26,206.58,256.67,203.45,259.63,203.45Z" style="fill:#526375"/><g style="isolation:isolate"><path d="M282,227.89V219.3h6.21v1h-5.07v2.63h4.75v1h-4.75v2.93h5.27v1Z" style="fill:#fff"/><path d="M289.09,227.89l2.28-3.23-2.11-3h1.32l1,1.46.43.69.47-.68,1.05-1.47h1.26l-2.15,2.93,2.32,3.29h-1.3L292.34,226l-.34-.53-1.63,2.46Z" style="fill:#fff"/><path d="M295.8,220.51V219.3h1.06v1.21Zm0,7.38v-6.22h1.06v6.22Z" style="fill:#fff"/><path d="M300.76,227l.16.93a4.16,4.16,0,0,1-.8.09,1.82,1.82,0,0,1-.89-.18,1,1,0,0,1-.45-.48,3.88,3.88,0,0,1-.13-1.24v-3.58h-.77v-.82h.77v-1.54l1.05-.64v2.18h1.06v.82H299.7v3.64a1.73,1.73,0,0,0,.06.58.49.49,0,0,0,.18.2.69.69,0,0,0,.36.08C300.42,227,300.57,227,300.76,227Z" style="fill:#fff"/></g><rect x="189.5" y="40.5" width="100" height="40" rx="7" style="fill:#526375"/><g style="isolation:isolate"><path d="M204.53,53.73l1.14.28a3.82,3.82,0,0,1-1.29,2.14,3.51,3.51,0,0,1-2.27.73,4,4,0,0,1-2.25-.56,3.52,3.52,0,0,1-1.33-1.64,5.86,5.86,0,0,1-.45-2.3,5,5,0,0,1,.51-2.34,3.52,3.52,0,0,1,1.46-1.52,4.2,4.2,0,0,1,2.08-.52,3.52,3.52,0,0,1,2.17.66,3.38,3.38,0,0,1,1.22,1.84l-1.11.27a2.67,2.67,0,0,0-.87-1.37,2.36,2.36,0,0,0-1.43-.43,2.78,2.78,0,0,0-1.66.48,2.54,2.54,0,0,0-.93,1.27,5.19,5.19,0,0,0-.27,1.65,5.36,5.36,0,0,0,.32,1.92,2.37,2.37,0,0,0,1,1.22,2.79,2.79,0,0,0,1.46.4,2.43,2.43,0,0,0,1.62-.55A2.79,2.79,0,0,0,204.53,53.73Z" style="fill:#fff"/><path d="M206.91,56.74V48.15H208v8.59Z" style="fill:#fff"/><path d="M213.68,56.74v-.92a2.26,2.26,0,0,1-2,1.06,2.53,2.53,0,0,1-1-.21,1.68,1.68,0,0,1-.71-.53,2.09,2.09,0,0,1-.33-.79,5.62,5.62,0,0,1-.06-1V50.52h1V54a6.22,6.22,0,0,0,.07,1.11,1.08,1.08,0,0,0,.42.65,1.29,1.29,0,0,0,.8.24,1.78,1.78,0,0,0,.89-.24,1.47,1.47,0,0,0,.59-.67,3.38,3.38,0,0,0,.17-1.21V50.52h1.05v6.22Z" style="fill:#fff"/><path d="M215.85,54.88l1.05-.16a1.49,1.49,0,0,0,.49,1,1.7,1.7,0,0,0,1.12.33,1.72,1.72,0,0,0,1.08-.29.9.9,0,0,0,.35-.7.65.65,0,0,0-.31-.56,4.7,4.7,0,0,0-1.08-.36,8.8,8.8,0,0,1-1.61-.51,1.58,1.58,0,0,1-.68-.59,1.6,1.6,0,0,1-.23-.83,1.54,1.54,0,0,1,.19-.77,1.65,1.65,0,0,1,.52-.59,2.09,2.09,0,0,1,.67-.31,3.33,3.33,0,0,1,.91-.13,3.42,3.42,0,0,1,1.29.22,1.69,1.69,0,0,1,.81.57,2.22,2.22,0,0,1,.37,1l-1,.14a1.16,1.16,0,0,0-.41-.75,1.49,1.49,0,0,0-.95-.27,1.73,1.73,0,0,0-1,.24.69.69,0,0,0-.31.56.56.56,0,0,0,.13.37.82.82,0,0,0,.4.28l.93.27a15,15,0,0,1,1.57.49,1.66,1.66,0,0,1,.69.56,1.52,1.52,0,0,1,.25.9,1.73,1.73,0,0,1-.31,1,2,2,0,0,1-.88.72,3.27,3.27,0,0,1-1.32.26,2.88,2.88,0,0,1-1.84-.51A2.31,2.31,0,0,1,215.85,54.88Z" style="fill:#fff"/><path d="M224.58,55.79l.15.94a4.08,4.08,0,0,1-.8.09,1.82,1.82,0,0,1-.89-.18,1,1,0,0,1-.44-.48,3.64,3.64,0,0,1-.13-1.24V51.34h-.77v-.82h.77V49l1.05-.63v2.18h1.06v.82h-1.06V55a2.15,2.15,0,0,0,0,.58.43.43,0,0,0,.19.21.69.69,0,0,0,.36.08A3.31,3.31,0,0,0,224.58,55.79Z" style="fill:#fff"/><path d="M229.87,54.73l1.09.14a2.61,2.61,0,0,1-1,1.48,3.22,3.22,0,0,1-3.94-.31,3.31,3.31,0,0,1-.8-2.36,3.44,3.44,0,0,1,.81-2.44,2.74,2.74,0,0,1,2.1-.87,2.66,2.66,0,0,1,2,.85,3.38,3.38,0,0,1,.8,2.39c0,.07,0,.16,0,.29h-4.64a2.4,2.4,0,0,0,.58,1.57,1.74,1.74,0,0,0,1.3.54,1.62,1.62,0,0,0,1-.3A2.08,2.08,0,0,0,229.87,54.73ZM226.41,53h3.47a2.14,2.14,0,0,0-.4-1.18,1.59,1.59,0,0,0-1.3-.61,1.64,1.64,0,0,0-1.22.49A1.86,1.86,0,0,0,226.41,53Z" style="fill:#fff"/><path d="M232.27,56.74V50.52h.95v.94a2.6,2.6,0,0,1,.67-.87,1.13,1.13,0,0,1,.68-.22,2.1,2.1,0,0,1,1.08.34l-.36,1a1.55,1.55,0,0,0-.77-.23,1,1,0,0,0-.62.21,1.11,1.11,0,0,0-.4.58,4.3,4.3,0,0,0-.17,1.23v3.26Z" style="fill:#fff"/><path d="M243.65,56.74V56a1.92,1.92,0,0,1-1.74.93,2.5,2.5,0,0,1-1.37-.41,2.72,2.72,0,0,1-1-1.15,3.92,3.92,0,0,1-.35-1.69,4.58,4.58,0,0,1,.31-1.69,2.48,2.48,0,0,1,2.32-1.57,2.09,2.09,0,0,1,1,.24,2.14,2.14,0,0,1,.71.62V48.15h1v8.59Zm-3.33-3.11a2.75,2.75,0,0,0,.5,1.79,1.51,1.51,0,0,0,2.37,0,2.65,2.65,0,0,0,.48-1.73,3,3,0,0,0-.49-1.87,1.53,1.53,0,0,0-1.22-.6,1.46,1.46,0,0,0-1.17.57A2.8,2.8,0,0,0,240.32,53.63Z" style="fill:#fff"/><path d="M250.35,56a3.83,3.83,0,0,1-1.13.7,3.19,3.19,0,0,1-1.16.21,2.29,2.29,0,0,1-1.58-.5,1.65,1.65,0,0,1-.55-1.28,1.69,1.69,0,0,1,.21-.84,1.74,1.74,0,0,1,.54-.6,2.51,2.51,0,0,1,.76-.35,8.38,8.38,0,0,1,.94-.16,9.59,9.59,0,0,0,1.88-.36c0-.15,0-.24,0-.28a1.17,1.17,0,0,0-.3-.91,2.33,2.33,0,0,0-2.3-.09,1.6,1.6,0,0,0-.53.92l-1-.14a2.58,2.58,0,0,1,.47-1.07,2,2,0,0,1,.93-.63,4.26,4.26,0,0,1,1.41-.22,3.82,3.82,0,0,1,1.29.19A1.75,1.75,0,0,1,251,51a1.7,1.7,0,0,1,.32.72,5.26,5.26,0,0,1,.06,1v1.41a16.75,16.75,0,0,0,.06,1.86,2.6,2.6,0,0,0,.27.75h-1.1A2.23,2.23,0,0,1,250.35,56Zm-.09-2.36a7.56,7.56,0,0,1-1.72.4,4.93,4.93,0,0,0-.92.21,1,1,0,0,0-.42.35.86.86,0,0,0-.14.5.88.88,0,0,0,.32.7,1.34,1.34,0,0,0,.93.28,2.21,2.21,0,0,0,1.08-.26,1.69,1.69,0,0,0,.7-.73,2.62,2.62,0,0,0,.17-1.06Z" style="fill:#fff"/><path d="M255.26,55.79l.16.94a4.16,4.16,0,0,1-.8.09,1.82,1.82,0,0,1-.89-.18,1,1,0,0,1-.45-.48,4,4,0,0,1-.12-1.24V51.34h-.78v-.82h.78V49l1-.63v2.18h1.06v.82H254.2V55a1.69,1.69,0,0,0,.06.58.46.46,0,0,0,.18.21.74.74,0,0,0,.36.08A3.17,3.17,0,0,0,255.26,55.79Z" style="fill:#fff"/><path d="M260.36,56a3.83,3.83,0,0,1-1.13.7,3.19,3.19,0,0,1-1.16.21,2.29,2.29,0,0,1-1.58-.5,1.65,1.65,0,0,1-.55-1.28,1.69,1.69,0,0,1,.21-.84,1.74,1.74,0,0,1,.54-.6,2.51,2.51,0,0,1,.76-.35,8.38,8.38,0,0,1,.94-.16,9.59,9.59,0,0,0,1.88-.36v-.28a1.21,1.21,0,0,0-.29-.91,1.82,1.82,0,0,0-1.21-.35,1.79,1.79,0,0,0-1.09.26,1.54,1.54,0,0,0-.53.92l-1-.14a2.57,2.57,0,0,1,.46-1.07,2.13,2.13,0,0,1,.93-.63,4.37,4.37,0,0,1,1.42-.22,3.82,3.82,0,0,1,1.29.19A1.71,1.71,0,0,1,261,51a1.6,1.6,0,0,1,.33.72,5.53,5.53,0,0,1,.05,1v1.41A15.8,15.8,0,0,0,261.4,56a2.6,2.6,0,0,0,.27.75h-1.1A2.23,2.23,0,0,1,260.36,56Zm-.09-2.36a7.56,7.56,0,0,1-1.72.4,4.93,4.93,0,0,0-.92.21,1,1,0,0,0-.42.35.87.87,0,0,0-.15.5.91.91,0,0,0,.32.7,1.39,1.39,0,0,0,.94.28,2.27,2.27,0,0,0,1.08-.26,1.69,1.69,0,0,0,.7-.73,2.62,2.62,0,0,0,.17-1.06Z" style="fill:#fff"/><path d="M262.55,54.88l1-.16a1.49,1.49,0,0,0,.49,1,1.72,1.72,0,0,0,1.12.33,1.68,1.68,0,0,0,1.08-.29.9.9,0,0,0,.35-.7.63.63,0,0,0-.31-.56,4.35,4.35,0,0,0-1.08-.36,8.8,8.8,0,0,1-1.61-.51A1.55,1.55,0,0,1,263,53a1.52,1.52,0,0,1-.24-.83,1.66,1.66,0,0,1,.71-1.36,2.2,2.2,0,0,1,.67-.31,3.6,3.6,0,0,1,2.2.09,1.77,1.77,0,0,1,.82.57,2.22,2.22,0,0,1,.36,1l-1,.14a1.12,1.12,0,0,0-.41-.75,1.47,1.47,0,0,0-1-.27,1.75,1.75,0,0,0-1,.24.72.72,0,0,0-.31.56.62.62,0,0,0,.13.37.85.85,0,0,0,.41.28q.15.06.93.27a15.4,15.4,0,0,1,1.56.49,1.6,1.6,0,0,1,.69.56,1.52,1.52,0,0,1,.26.9,1.81,1.81,0,0,1-.31,1,2,2,0,0,1-.89.72,3.22,3.22,0,0,1-1.31.26,2.89,2.89,0,0,1-1.85-.51A2.35,2.35,0,0,1,262.55,54.88Z" style="fill:#fff"/><path d="M273.23,54.73l1.09.14a2.61,2.61,0,0,1-1,1.48,3.22,3.22,0,0,1-3.94-.31,3.26,3.26,0,0,1-.8-2.36,3.44,3.44,0,0,1,.81-2.44,2.73,2.73,0,0,1,2.09-.87,2.66,2.66,0,0,1,2,.85,3.38,3.38,0,0,1,.79,2.39v.29h-4.64a2.4,2.4,0,0,0,.58,1.57,1.74,1.74,0,0,0,1.3.54,1.62,1.62,0,0,0,1-.3A2.08,2.08,0,0,0,273.23,54.73ZM269.77,53h3.47a2.14,2.14,0,0,0-.4-1.18,1.59,1.59,0,0,0-1.3-.61,1.67,1.67,0,0,0-1.23.49A1.89,1.89,0,0,0,269.77,53Z" style="fill:#fff"/><path d="M278,55.79l.15.94a4.08,4.08,0,0,1-.8.09,1.82,1.82,0,0,1-.89-.18,1,1,0,0,1-.44-.48,3.64,3.64,0,0,1-.13-1.24V51.34h-.78v-.82h.78V49l1.05-.63v2.18H278v.82h-1.06V55a1.79,1.79,0,0,0,.05.58.46.46,0,0,0,.18.21.74.74,0,0,0,.36.08A3.43,3.43,0,0,0,278,55.79Z" style="fill:#fff"/><path d="M216,63.76V62.55H217v1.21Zm0,7.38V64.92H217v6.22Z" style="fill:#fff"/><path d="M218.86,71.14v-5.4h-.93v-.82h.93v-.67a3,3,0,0,1,.11-.93,1.38,1.38,0,0,1,.54-.66,1.94,1.94,0,0,1,1.08-.26,5.24,5.24,0,0,1,1,.11l-.16.92a3.42,3.42,0,0,0-.62-.06,1,1,0,0,0-.68.2,1.15,1.15,0,0,0-.2.77v.58h1.21v.82h-1.21v5.4Z" style="fill:#fff"/><path d="M229.32,71.14v-.79a2,2,0,0,1-1.74.93,2.45,2.45,0,0,1-1.37-.41,2.68,2.68,0,0,1-1-1.15A3.92,3.92,0,0,1,224.9,68a4.39,4.39,0,0,1,.31-1.69,2.45,2.45,0,0,1,2.32-1.57,2.05,2.05,0,0,1,1,.24,2.28,2.28,0,0,1,.72.62V62.55h1v8.59ZM226,68a2.67,2.67,0,0,0,.51,1.79,1.52,1.52,0,0,0,1.19.59,1.5,1.5,0,0,0,1.17-.56,2.65,2.65,0,0,0,.48-1.73,2.89,2.89,0,0,0-.49-1.87,1.51,1.51,0,0,0-1.21-.6,1.48,1.48,0,0,0-1.18.57A2.86,2.86,0,0,0,226,68Z" style="fill:#fff"/><path d="M236.21,69.13l1.09.14a2.64,2.64,0,0,1-1,1.48,2.89,2.89,0,0,1-1.78.53,2.85,2.85,0,0,1-2.17-.84,3.31,3.31,0,0,1-.8-2.36,3.44,3.44,0,0,1,.81-2.44,2.74,2.74,0,0,1,2.1-.87,2.69,2.69,0,0,1,2,.85,3.44,3.44,0,0,1,.79,2.4c0,.06,0,.15,0,.28h-4.64a2.4,2.4,0,0,0,.58,1.57,1.74,1.74,0,0,0,1.3.54,1.62,1.62,0,0,0,1-.3A2,2,0,0,0,236.21,69.13Zm-3.46-1.7h3.47a2.14,2.14,0,0,0-.39-1.18,1.74,1.74,0,0,0-2.53-.12A1.94,1.94,0,0,0,232.75,67.43Z" style="fill:#fff"/><path d="M238.21,69.28l1-.16a1.49,1.49,0,0,0,.49,1,1.7,1.7,0,0,0,1.12.33,1.72,1.72,0,0,0,1.08-.29.9.9,0,0,0,.35-.7.63.63,0,0,0-.31-.56,5.28,5.28,0,0,0-1.08-.36,8.8,8.8,0,0,1-1.61-.51,1.58,1.58,0,0,1-.68-.59,1.6,1.6,0,0,1-.23-.83,1.54,1.54,0,0,1,.19-.77,1.65,1.65,0,0,1,.52-.59,2.09,2.09,0,0,1,.67-.31,3.33,3.33,0,0,1,.91-.13A3.63,3.63,0,0,1,242,65a1.77,1.77,0,0,1,.82.57,2.35,2.35,0,0,1,.36,1l-1,.14a1.16,1.16,0,0,0-.41-.75,1.47,1.47,0,0,0-.95-.27,1.73,1.73,0,0,0-1,.24.69.69,0,0,0-.31.56.56.56,0,0,0,.13.37,1,1,0,0,0,.4.29l.94.26a15.4,15.4,0,0,1,1.56.49,1.66,1.66,0,0,1,.69.56,1.52,1.52,0,0,1,.25.9,1.79,1.79,0,0,1-.3,1,2.06,2.06,0,0,1-.89.72,3.26,3.26,0,0,1-1.31.26,2.89,2.89,0,0,1-1.85-.51A2.26,2.26,0,0,1,238.21,69.28Z" style="fill:#fff"/><path d="M244.63,63.76V62.55h1.06v1.21Zm0,7.38V64.92h1.06v6.22Z" style="fill:#fff"/><path d="M247.28,71.14V64.92h.95v.94a2.6,2.6,0,0,1,.67-.87,1.2,1.2,0,0,1,.68-.22,2.13,2.13,0,0,1,1.08.34l-.36,1a1.55,1.55,0,0,0-.77-.23,1,1,0,0,0-.63.21,1.15,1.15,0,0,0-.39.58,4,4,0,0,0-.17,1.23v3.26Z" style="fill:#fff"/><path d="M255.55,69.13l1.09.14a2.61,2.61,0,0,1-1,1.48,2.87,2.87,0,0,1-1.78.53,2.83,2.83,0,0,1-2.16-.84,3.26,3.26,0,0,1-.8-2.36,3.44,3.44,0,0,1,.81-2.44,2.72,2.72,0,0,1,2.09-.87,2.66,2.66,0,0,1,2,.85,3.39,3.39,0,0,1,.79,2.4v.28H252a2.4,2.4,0,0,0,.58,1.57,1.74,1.74,0,0,0,1.3.54,1.66,1.66,0,0,0,1-.3A2.08,2.08,0,0,0,255.55,69.13Zm-3.46-1.7h3.47a2.14,2.14,0,0,0-.4-1.18,1.62,1.62,0,0,0-1.3-.61,1.67,1.67,0,0,0-1.23.49A1.89,1.89,0,0,0,252.09,67.43Z" style="fill:#fff"/><path d="M262,71.14v-.79a1.92,1.92,0,0,1-1.74.93,2.47,2.47,0,0,1-1.37-.41,2.75,2.75,0,0,1-1-1.15,4.08,4.08,0,0,1-.34-1.69,4.58,4.58,0,0,1,.31-1.69,2.45,2.45,0,0,1,2.32-1.57,2,2,0,0,1,1,.24,2.08,2.08,0,0,1,.72.62V62.55H263v8.59ZM258.67,68a2.68,2.68,0,0,0,.5,1.79,1.53,1.53,0,0,0,1.19.59,1.5,1.5,0,0,0,1.17-.56,2.59,2.59,0,0,0,.49-1.73,3,3,0,0,0-.49-1.87,1.53,1.53,0,0,0-1.22-.6,1.45,1.45,0,0,0-1.17.57A2.8,2.8,0,0,0,258.67,68Z" style="fill:#fff"/></g><path d="M339.5,250.5h10q10,0,10-10v-45q0-10,6.82-10h6.81" style="fill:none;stroke:#000;stroke-miterlimit:10"/><path d="M272,307.53h10q10,0,10-10v-47" style="fill:none;stroke:#000;stroke-miterlimit:10"/><path d="M378.38,185.5l-7,3.5,1.75-3.5-1.75-3.5Z" style="stroke:#000;stroke-miterlimit:10"/><path d="M292,244.45l3.5,7L292,249.7l-3.5,1.75Z" style="stroke:#000;stroke-miterlimit:10"/><path d="M-.5,153.5v-23h340v23" style="fill:#526375;stroke:#000;stroke-miterlimit:10"/><path d="M-.5,153.5v217h340v-217" style="fill:none;stroke:#000;stroke-miterlimit:10"/><path d="M-.5,153.5h340" style="fill:none;stroke:#000;stroke-miterlimit:10"/><g style="isolation:isolate"><path d="M139.69,143.34l1.69.54a3.77,3.77,0,0,1-1.29,2.08,3.64,3.64,0,0,1-2.28.69,3.68,3.68,0,0,1-2.81-1.17,4.47,4.47,0,0,1-1.11-3.2A4.68,4.68,0,0,1,135,139a3.81,3.81,0,0,1,2.91-1.19,3.53,3.53,0,0,1,2.56.94,3.29,3.29,0,0,1,.88,1.58l-1.71.41a1.89,1.89,0,0,0-.64-1.06,1.85,1.85,0,0,0-1.17-.38,1.93,1.93,0,0,0-1.55.68,3.35,3.35,0,0,0-.6,2.22,3.59,3.59,0,0,0,.59,2.32,1.9,1.9,0,0,0,1.52.69,1.7,1.7,0,0,0,1.19-.44A2.51,2.51,0,0,0,139.69,143.34Z" style="fill:#fff"/><path d="M144.08,142.18l-1.49-.27a2.33,2.33,0,0,1,.87-1.34,3.16,3.16,0,0,1,1.82-.43,3.8,3.8,0,0,1,1.64.26,1.57,1.57,0,0,1,.76.66,3.34,3.34,0,0,1,.22,1.47v1.93a7.21,7.21,0,0,0,.07,1.21,4.45,4.45,0,0,0,.3.83h-1.63c0-.11-.09-.27-.16-.49s0-.16-.05-.19a3.27,3.27,0,0,1-.91.62,2.69,2.69,0,0,1-1,.2,2.13,2.13,0,0,1-1.52-.52,1.74,1.74,0,0,1-.55-1.32,1.76,1.76,0,0,1,.25-.94,1.56,1.56,0,0,1,.71-.63,5.32,5.32,0,0,1,1.31-.39,9.18,9.18,0,0,0,1.6-.4v-.16a.84.84,0,0,0-.24-.68,1.35,1.35,0,0,0-.88-.2,1.16,1.16,0,0,0-.69.17A1.2,1.2,0,0,0,144.08,142.18Zm2.21,1.33a8.6,8.6,0,0,1-1,.25,3.2,3.2,0,0,0-.89.29.67.67,0,0,0-.32.58.82.82,0,0,0,.25.6.91.91,0,0,0,.66.25,1.45,1.45,0,0,0,.85-.29,1,1,0,0,0,.39-.55,3.32,3.32,0,0,0,.07-.8Z" style="fill:#fff"/><path d="M149.53,146.5v-8.59h1.64v8.59Z" style="fill:#fff"/><path d="M158.29,142.12l-1.63.29a1.16,1.16,0,0,0-.37-.73,1.08,1.08,0,0,0-.75-.25,1.21,1.21,0,0,0-1,.43,2.12,2.12,0,0,0-.37,1.42,2.48,2.48,0,0,0,.37,1.56,1.21,1.21,0,0,0,1,.46,1.11,1.11,0,0,0,.77-.27,1.58,1.58,0,0,0,.42-.91l1.62.27a2.87,2.87,0,0,1-1,1.68,3,3,0,0,1-1.91.57,2.87,2.87,0,0,1-2.18-.86,3.93,3.93,0,0,1,0-4.78,2.86,2.86,0,0,1,2.2-.86,3,3,0,0,1,1.81.49A2.7,2.7,0,0,1,158.29,142.12Z" style="fill:#fff"/><path d="M163.63,146.5v-.93a2.4,2.4,0,0,1-.89.78,2.53,2.53,0,0,1-1.17.29,2.33,2.33,0,0,1-1.13-.27,1.7,1.7,0,0,1-.72-.78,3.43,3.43,0,0,1-.22-1.38v-3.93h1.65v2.86a8.08,8.08,0,0,0,.09,1.61.86.86,0,0,0,.33.46,1,1,0,0,0,.61.18,1.3,1.3,0,0,0,.75-.23,1.16,1.16,0,0,0,.46-.58,6.85,6.85,0,0,0,.12-1.68v-2.62h1.65v6.22Z" style="fill:#fff"/><path d="M166.86,146.5v-8.59h1.65v8.59Z" style="fill:#fff"/><path d="M171.43,142.18l-1.5-.27a2.33,2.33,0,0,1,.87-1.34,3.17,3.17,0,0,1,1.83-.43,3.85,3.85,0,0,1,1.64.26,1.62,1.62,0,0,1,.76.66,3.34,3.34,0,0,1,.22,1.47l0,1.93a7,7,0,0,0,.08,1.21,3.37,3.37,0,0,0,.3.83H174a3.51,3.51,0,0,1-.16-.49l-.06-.19a3.09,3.09,0,0,1-.9.62,2.7,2.7,0,0,1-1,.2,2.1,2.1,0,0,1-1.51-.52,1.74,1.74,0,0,1-.56-1.32,1.77,1.77,0,0,1,.26-.94,1.53,1.53,0,0,1,.7-.63,5.46,5.46,0,0,1,1.31-.39,9.18,9.18,0,0,0,1.6-.4v-.16a.87.87,0,0,0-.23-.68,1.39,1.39,0,0,0-.89-.2,1.12,1.12,0,0,0-.68.17A1.14,1.14,0,0,0,171.43,142.18Zm2.2,1.33a8.32,8.32,0,0,1-1,.25,3.18,3.18,0,0,0-.9.29.7.7,0,0,0-.32.58.83.83,0,0,0,.26.6.89.89,0,0,0,.66.25,1.42,1.42,0,0,0,.84-.29,1.08,1.08,0,0,0,.4-.55,3.48,3.48,0,0,0,.06-.8Z" style="fill:#fff"/><path d="M179.73,140.28v1.31H178.6v2.51a6.79,6.79,0,0,0,0,.89.33.33,0,0,0,.15.2.45.45,0,0,0,.28.09,2.33,2.33,0,0,0,.66-.16l.14,1.27a3.17,3.17,0,0,1-1.3.25,2,2,0,0,1-.8-.15,1.17,1.17,0,0,1-.53-.39,1.45,1.45,0,0,1-.23-.64,9,9,0,0,1-.05-1.16v-2.71h-.76v-1.31H177V139l1.65-1v2.2Z" style="fill:#fff"/><path d="M180.87,139.43v-1.52h1.64v1.52Zm0,7.07v-6.22h1.64v6.22Z" style="fill:#fff"/><path d="M183.82,143.3a3.36,3.36,0,0,1,.41-1.59,2.8,2.8,0,0,1,1.14-1.17,3.42,3.42,0,0,1,1.66-.4,3.1,3.1,0,0,1,2.31.91,3.45,3.45,0,0,1,0,4.66,3.08,3.08,0,0,1-2.29.93,3.56,3.56,0,0,1-1.63-.39,2.58,2.58,0,0,1-1.18-1.13A3.77,3.77,0,0,1,183.82,143.3Zm1.69.09a2.08,2.08,0,0,0,.44,1.42,1.44,1.44,0,0,0,2.16,0,2.11,2.11,0,0,0,.44-1.43,2.07,2.07,0,0,0-.44-1.41,1.44,1.44,0,0,0-2.16,0A2.08,2.08,0,0,0,185.51,143.39Z" style="fill:#fff"/><path d="M197.19,146.5h-1.64v-3.18a4.84,4.84,0,0,0-.11-1.3.89.89,0,0,0-.34-.46,1,1,0,0,0-.57-.16,1.29,1.29,0,0,0-.77.23,1.21,1.21,0,0,0-.47.62,5.67,5.67,0,0,0-.12,1.43v2.82h-1.65v-6.22h1.53v.91a2.58,2.58,0,0,1,3-.86,1.72,1.72,0,0,1,.68.5,1.94,1.94,0,0,1,.32.7,5.06,5.06,0,0,1,.09,1.1Z" style="fill:#fff"/><path d="M198.28,144.72l1.65-.25a1.22,1.22,0,0,0,.43.73,1.44,1.44,0,0,0,.9.25,1.71,1.71,0,0,0,1-.23.54.54,0,0,0,.21-.44.45.45,0,0,0-.11-.31,1.41,1.41,0,0,0-.56-.22,8.86,8.86,0,0,1-2.52-.8,1.62,1.62,0,0,1-.74-1.4,1.7,1.7,0,0,1,.64-1.36,3,3,0,0,1,2-.55,3.55,3.55,0,0,1,1.9.41,2.13,2.13,0,0,1,.85,1.23l-1.55.29a1,1,0,0,0-.38-.56,1.36,1.36,0,0,0-.79-.19,1.81,1.81,0,0,0-.93.18.39.39,0,0,0-.19.34.35.35,0,0,0,.16.29,6.22,6.22,0,0,0,1.54.47,4.59,4.59,0,0,1,1.84.73,1.52,1.52,0,0,1,.51,1.22,1.88,1.88,0,0,1-.71,1.48,3.17,3.17,0,0,1-2.12.61,3.44,3.44,0,0,1-2-.52A2.37,2.37,0,0,1,198.28,144.72Z" style="fill:#fff"/></g><path d="M215.75,247.53l56.25,60-56.25,60-56.25-60Z" style="fill:#526375"/><g style="isolation:isolate"><path d="M198.19,304.35v-8.59h1.14v8.59Z" style="fill:#fff"/><path d="M203.5,303.41l.15.93a4,4,0,0,1-.79.09,1.79,1.79,0,0,1-.89-.18,1,1,0,0,1-.45-.48,3.64,3.64,0,0,1-.13-1.24V299h-.77v-.82h.77v-1.55l1.05-.63v2.18h1.06V299h-1.06v3.63a1.76,1.76,0,0,0,.06.59.38.38,0,0,0,.18.2.69.69,0,0,0,.36.08C203.16,303.45,203.31,303.43,203.5,303.41Z" style="fill:#fff"/><path d="M208.79,302.34l1.09.14a2.64,2.64,0,0,1-.95,1.48,2.89,2.89,0,0,1-1.78.53,2.85,2.85,0,0,1-2.17-.84,3.31,3.31,0,0,1-.8-2.36,3.44,3.44,0,0,1,.81-2.44,2.73,2.73,0,0,1,2.1-.86,2.68,2.68,0,0,1,2,.84,3.44,3.44,0,0,1,.79,2.4c0,.06,0,.15,0,.28h-4.64a2.4,2.4,0,0,0,.58,1.57,1.74,1.74,0,0,0,1.3.54,1.62,1.62,0,0,0,1-.3A2,2,0,0,0,208.79,302.34Zm-3.46-1.7h3.47a2.14,2.14,0,0,0-.39-1.18,1.74,1.74,0,0,0-2.53-.12A1.9,1.9,0,0,0,205.33,300.64Z" style="fill:#fff"/><path d="M211.19,304.35v-6.22h.95v.94a2.74,2.74,0,0,1,.67-.87,1.21,1.21,0,0,1,.68-.21,2,2,0,0,1,1.09.34l-.37,1a1.51,1.51,0,0,0-.77-.22,1,1,0,0,0-.62.2,1.11,1.11,0,0,0-.4.58,4.4,4.4,0,0,0-.17,1.23v3.26Z" style="fill:#fff"/><path d="M219.26,303.58a3.71,3.71,0,0,1-1.13.7,3.15,3.15,0,0,1-1.16.21,2.26,2.26,0,0,1-1.57-.5,1.66,1.66,0,0,1-.56-1.28,1.71,1.71,0,0,1,.76-1.44,2.4,2.4,0,0,1,.76-.35,8.12,8.12,0,0,1,.93-.16,9.44,9.44,0,0,0,1.88-.36c0-.15,0-.24,0-.28a1.13,1.13,0,0,0-.3-.9,1.76,1.76,0,0,0-1.2-.36,1.9,1.9,0,0,0-1.1.26,1.59,1.59,0,0,0-.52.92l-1-.14a2.45,2.45,0,0,1,.46-1.07,1.93,1.93,0,0,1,.93-.62,4.09,4.09,0,0,1,1.41-.22,3.91,3.91,0,0,1,1.3.18,1.88,1.88,0,0,1,.73.47,1.6,1.6,0,0,1,.33.72,6.77,6.77,0,0,1,.05,1v1.41a13.75,13.75,0,0,0,.07,1.86,2.12,2.12,0,0,0,.27.75h-1.11A2.23,2.23,0,0,1,219.26,303.58Zm-.09-2.35a8.1,8.1,0,0,1-1.72.39,5.15,5.15,0,0,0-.92.21.94.94,0,0,0-.56.85.91.91,0,0,0,.32.7,1.34,1.34,0,0,0,.93.28,2.28,2.28,0,0,0,1.09-.26,1.62,1.62,0,0,0,.69-.73,2.46,2.46,0,0,0,.17-1.06Z" style="fill:#fff"/><path d="M224.18,303.41l.15.93a4.08,4.08,0,0,1-.8.09,1.82,1.82,0,0,1-.89-.18,1,1,0,0,1-.44-.48,3.64,3.64,0,0,1-.13-1.24V299h-.77v-.82h.77v-1.55l1.05-.63v2.18h1.06V299h-1.06v3.63a2.24,2.24,0,0,0,0,.59.46.46,0,0,0,.19.2.69.69,0,0,0,.36.08Z" style="fill:#fff"/><path d="M229.47,302.34l1.09.14a2.61,2.61,0,0,1-1,1.48,3.22,3.22,0,0,1-3.94-.31,3.26,3.26,0,0,1-.8-2.36,3.44,3.44,0,0,1,.81-2.44,2.72,2.72,0,0,1,2.09-.86,2.65,2.65,0,0,1,2,.84,3.39,3.39,0,0,1,.79,2.4v.28H226a2.4,2.4,0,0,0,.58,1.57,1.74,1.74,0,0,0,1.3.54,1.62,1.62,0,0,0,1-.3A2.08,2.08,0,0,0,229.47,302.34Zm-3.46-1.7h3.47a2.14,2.14,0,0,0-.4-1.18,1.62,1.62,0,0,0-1.3-.61,1.67,1.67,0,0,0-1.23.49A1.89,1.89,0,0,0,226,300.64Z" style="fill:#fff"/><path d="M177.84,318.75v-6.22h.95v.94a2.48,2.48,0,0,1,.67-.87,1.16,1.16,0,0,1,.67-.21,2,2,0,0,1,1.09.34l-.37,1a1.48,1.48,0,0,0-.77-.22,1,1,0,0,0-.62.2,1.15,1.15,0,0,0-.39.58,4.06,4.06,0,0,0-.18,1.23v3.26Z" style="fill:#fff"/><path d="M186.1,316.75l1.09.13a2.64,2.64,0,0,1-.95,1.48,3.24,3.24,0,0,1-4-.31,3.31,3.31,0,0,1-.8-2.36,3.44,3.44,0,0,1,.81-2.44,2.73,2.73,0,0,1,2.1-.86,2.66,2.66,0,0,1,2,.85,3.35,3.35,0,0,1,.79,2.39c0,.06,0,.15,0,.28h-4.64a2.46,2.46,0,0,0,.58,1.57,1.74,1.74,0,0,0,1.3.54,1.62,1.62,0,0,0,1-.3A2,2,0,0,0,186.1,316.75ZM182.64,315h3.48a2.14,2.14,0,0,0-.4-1.18,1.64,1.64,0,0,0-1.31-.61,1.7,1.7,0,0,0-1.22.49A1.94,1.94,0,0,0,182.64,315Z" style="fill:#fff"/><path d="M188.77,318.75v-5.4h-.93v-.82h.93v-.67a3.09,3.09,0,0,1,.11-.93,1.33,1.33,0,0,1,.54-.66,1.9,1.9,0,0,1,1.07-.26,5.25,5.25,0,0,1,1,.11l-.16.92a3.5,3.5,0,0,0-.62-.06,1,1,0,0,0-.68.2,1.15,1.15,0,0,0-.2.77v.58H191v.82h-1.21v5.4Z" style="fill:#fff"/><path d="M196.11,316.75l1.09.13a2.64,2.64,0,0,1-.95,1.48,2.89,2.89,0,0,1-1.78.53,2.85,2.85,0,0,1-2.17-.84,3.31,3.31,0,0,1-.8-2.36,3.44,3.44,0,0,1,.81-2.44,2.73,2.73,0,0,1,2.1-.86,2.66,2.66,0,0,1,2,.85,3.39,3.39,0,0,1,.79,2.39c0,.06,0,.15,0,.28h-4.64a2.4,2.4,0,0,0,.58,1.57,1.74,1.74,0,0,0,1.3.54,1.62,1.62,0,0,0,1-.3A2,2,0,0,0,196.11,316.75ZM192.65,315h3.47a2.14,2.14,0,0,0-.39-1.18,1.65,1.65,0,0,0-1.31-.61,1.68,1.68,0,0,0-1.22.49A1.9,1.9,0,0,0,192.65,315Z" style="fill:#fff"/><path d="M198.51,318.75v-6.22h1v.94a2.74,2.74,0,0,1,.67-.87,1.21,1.21,0,0,1,.68-.21,2,2,0,0,1,1.09.34l-.37,1a1.51,1.51,0,0,0-.77-.22,1,1,0,0,0-.62.2,1,1,0,0,0-.39.58,4.06,4.06,0,0,0-.18,1.23v3.26Z" style="fill:#fff"/><path d="M206.78,316.75l1.09.13a2.64,2.64,0,0,1-1,1.48,2.89,2.89,0,0,1-1.78.53,2.85,2.85,0,0,1-2.17-.84,3.31,3.31,0,0,1-.8-2.36,3.44,3.44,0,0,1,.81-2.44,2.73,2.73,0,0,1,2.1-.86,2.66,2.66,0,0,1,2,.85,3.39,3.39,0,0,1,.79,2.39c0,.06,0,.15,0,.28h-4.64a2.4,2.4,0,0,0,.58,1.57,1.74,1.74,0,0,0,1.3.54,1.62,1.62,0,0,0,1-.3A2,2,0,0,0,206.78,316.75ZM203.32,315h3.47a2.14,2.14,0,0,0-.39-1.18,1.65,1.65,0,0,0-1.31-.61,1.68,1.68,0,0,0-1.22.49A1.9,1.9,0,0,0,203.32,315Z" style="fill:#fff"/><path d="M209.2,318.75v-6.22h1v.88a2.22,2.22,0,0,1,2-1,2.49,2.49,0,0,1,1,.2,1.64,1.64,0,0,1,.71.53,2.1,2.1,0,0,1,.32.78,5.77,5.77,0,0,1,.06,1v3.83H213.2V315a2.87,2.87,0,0,0-.12-1,1.08,1.08,0,0,0-.44-.51,1.38,1.38,0,0,0-.74-.19,1.69,1.69,0,0,0-1.16.43,2.08,2.08,0,0,0-.49,1.62v3.4Z" style="fill:#fff"/><path d="M219.93,316.47l1,.13a2.73,2.73,0,0,1-.87,1.68,2.52,2.52,0,0,1-1.72.61,2.68,2.68,0,0,1-2.06-.84,3.4,3.4,0,0,1-.77-2.39,4.35,4.35,0,0,1,.33-1.76,2.32,2.32,0,0,1,1-1.14,3,3,0,0,1,1.48-.37,2.59,2.59,0,0,1,1.66.51,2.35,2.35,0,0,1,.83,1.45l-1,.16a1.63,1.63,0,0,0-.52-.94,1.32,1.32,0,0,0-.9-.32,1.63,1.63,0,0,0-1.29.57,3.61,3.61,0,0,0,0,3.63,1.57,1.57,0,0,0,1.26.57,1.43,1.43,0,0,0,1-.38A1.83,1.83,0,0,0,219.93,316.47Z" style="fill:#fff"/><path d="M226.13,316.75l1.09.13a2.61,2.61,0,0,1-1,1.48,3.22,3.22,0,0,1-3.94-.31,3.31,3.31,0,0,1-.8-2.36,3.44,3.44,0,0,1,.81-2.44,2.72,2.72,0,0,1,2.09-.86,2.63,2.63,0,0,1,2,.85,3.35,3.35,0,0,1,.79,2.39v.28h-4.64a2.4,2.4,0,0,0,.58,1.57,1.74,1.74,0,0,0,1.3.54,1.62,1.62,0,0,0,1-.3A2.1,2.1,0,0,0,226.13,316.75ZM222.67,315h3.47a2.14,2.14,0,0,0-.4-1.18,1.62,1.62,0,0,0-1.3-.61,1.71,1.71,0,0,0-1.23.49A1.89,1.89,0,0,0,222.67,315Z" style="fill:#fff"/><path d="M235.92,318.75V318a2,2,0,0,1-1.75.93,2.44,2.44,0,0,1-1.36-.41,2.68,2.68,0,0,1-1-1.15,3.92,3.92,0,0,1-.34-1.69,4.39,4.39,0,0,1,.31-1.69,2.45,2.45,0,0,1,.93-1.16,2.48,2.48,0,0,1,1.39-.4,2,2,0,0,1,1,.23,2.14,2.14,0,0,1,.71.62v-3.08h1v8.59Zm-3.34-3.11a2.73,2.73,0,0,0,.5,1.79,1.52,1.52,0,0,0,1.19.59,1.5,1.5,0,0,0,1.18-.56,2.65,2.65,0,0,0,.48-1.73,2.89,2.89,0,0,0-.49-1.87,1.51,1.51,0,0,0-1.21-.6,1.48,1.48,0,0,0-1.18.57A2.88,2.88,0,0,0,232.58,315.64Z" style="fill:#fff"/><path d="M242.61,318a3.71,3.71,0,0,1-1.13.7,3.15,3.15,0,0,1-1.16.21,2.26,2.26,0,0,1-1.57-.5,1.66,1.66,0,0,1-.56-1.28,1.72,1.72,0,0,1,.21-.84,1.67,1.67,0,0,1,.55-.6,2.31,2.31,0,0,1,.76-.35,8.12,8.12,0,0,1,.93-.16,9.44,9.44,0,0,0,1.88-.36c0-.14,0-.24,0-.28a1.13,1.13,0,0,0-.3-.9,1.76,1.76,0,0,0-1.2-.36,1.9,1.9,0,0,0-1.1.26,1.59,1.59,0,0,0-.52.92l-1-.14a2.45,2.45,0,0,1,.46-1.07,1.93,1.93,0,0,1,.93-.62,4.09,4.09,0,0,1,1.41-.22,3.91,3.91,0,0,1,1.3.18,1.88,1.88,0,0,1,.73.47,1.6,1.6,0,0,1,.33.72,6.84,6.84,0,0,1,.05,1v1.4a13.75,13.75,0,0,0,.07,1.86,2.31,2.31,0,0,0,.26.75h-1.1A2.23,2.23,0,0,1,242.61,318Zm-.09-2.35a7.52,7.52,0,0,1-1.72.39,4.25,4.25,0,0,0-.92.22.82.82,0,0,0-.41.34.89.89,0,0,0-.15.5.91.91,0,0,0,.32.7,1.34,1.34,0,0,0,.93.28,2.28,2.28,0,0,0,1.09-.26,1.62,1.62,0,0,0,.69-.73,2.46,2.46,0,0,0,.17-1.06Z" style="fill:#fff"/><path d="M247.53,317.81l.15.93a4.08,4.08,0,0,1-.8.09,1.82,1.82,0,0,1-.89-.18,1,1,0,0,1-.44-.48,3.64,3.64,0,0,1-.13-1.24v-3.58h-.77v-.82h.77V311l1.05-.64v2.18h1.06v.82h-1.06V317a2.2,2.2,0,0,0,.05.58.46.46,0,0,0,.19.2.69.69,0,0,0,.36.08Z" style="fill:#fff"/><path d="M252.62,318a3.83,3.83,0,0,1-1.13.7,3.19,3.19,0,0,1-1.16.21,2.3,2.3,0,0,1-1.58-.5,1.69,1.69,0,0,1-.55-1.28,1.72,1.72,0,0,1,.21-.84,1.67,1.67,0,0,1,.55-.6,2.35,2.35,0,0,1,.75-.35,8.38,8.38,0,0,1,.94-.16,9.59,9.59,0,0,0,1.88-.36c0-.14,0-.24,0-.28a1.13,1.13,0,0,0-.3-.9,1.76,1.76,0,0,0-1.2-.36,1.9,1.9,0,0,0-1.1.26,1.54,1.54,0,0,0-.52.92l-1-.14a2.58,2.58,0,0,1,.47-1.07,1.93,1.93,0,0,1,.93-.62,4.05,4.05,0,0,1,1.41-.22,4,4,0,0,1,1.3.18,1.88,1.88,0,0,1,.73.47,1.84,1.84,0,0,1,.33.72,6.84,6.84,0,0,1,0,1v1.4a13.75,13.75,0,0,0,.07,1.86,2.31,2.31,0,0,0,.26.75h-1.1A2.23,2.23,0,0,1,252.62,318Zm-.09-2.35a7.52,7.52,0,0,1-1.72.39,4.25,4.25,0,0,0-.92.22.89.89,0,0,0-.42.34,1,1,0,0,0-.14.5.88.88,0,0,0,.32.7,1.34,1.34,0,0,0,.93.28,2.28,2.28,0,0,0,1.09-.26,1.67,1.67,0,0,0,.69-.73,2.46,2.46,0,0,0,.17-1.06Z" style="fill:#fff"/></g><path d="M379.5,23.5V.5h180v23" style="fill:#526375;stroke:#000;stroke-miterlimit:10"/><path d="M379.5,23.5v347h180V23.5" style="fill:none;stroke:#000;stroke-miterlimit:10"/><path d="M379.5,23.5h180" style="fill:none;stroke:#000;stroke-miterlimit:10"/><g style="isolation:isolate"><path d="M439.53,16.5V7.91h6.37V9.36h-4.63v1.91h4.31v1.44h-4.31v2.34h4.8V16.5Z" style="fill:#fff"/><path d="M449.24,16.5l-2.51-6.22h1.73l1.17,3.17.34,1.06c.09-.27.15-.44.17-.53s.11-.35.17-.53l1.19-3.17h1.69l-2.47,6.22Z" style="fill:#fff"/><path d="M455.43,12.18l-1.49-.27a2.27,2.27,0,0,1,.86-1.34,3.17,3.17,0,0,1,1.83-.43,3.82,3.82,0,0,1,1.64.26,1.62,1.62,0,0,1,.76.66,3.34,3.34,0,0,1,.22,1.47l0,1.93a7,7,0,0,0,.08,1.21,3.37,3.37,0,0,0,.3.83H458c0-.11-.1-.27-.16-.49l-.06-.19a3.09,3.09,0,0,1-.9.62,2.7,2.7,0,0,1-1,.2,2.1,2.1,0,0,1-1.51-.52,1.74,1.74,0,0,1-.55-1.32,1.76,1.76,0,0,1,.25-.94,1.58,1.58,0,0,1,.7-.63,5.46,5.46,0,0,1,1.31-.39,8.94,8.94,0,0,0,1.6-.4v-.16a.87.87,0,0,0-.23-.68,1.39,1.39,0,0,0-.89-.2,1.12,1.12,0,0,0-.68.17A1.14,1.14,0,0,0,455.43,12.18Zm2.2,1.33a8.32,8.32,0,0,1-1,.25,3.31,3.31,0,0,0-.9.29.7.7,0,0,0-.32.58.83.83,0,0,0,.26.6.89.89,0,0,0,.66.25,1.48,1.48,0,0,0,.85-.29,1,1,0,0,0,.39-.55,3.48,3.48,0,0,0,.06-.8Z" style="fill:#fff"/><path d="M460.87,16.5V7.91h1.65V16.5Z" style="fill:#fff"/><path d="M468.3,16.5v-.93a2.32,2.32,0,0,1-.89.78,2.53,2.53,0,0,1-1.17.29,2.29,2.29,0,0,1-1.12-.27,1.67,1.67,0,0,1-.73-.78,3.61,3.61,0,0,1-.22-1.38V10.28h1.65v2.86a8.08,8.08,0,0,0,.09,1.61.86.86,0,0,0,.33.46,1,1,0,0,0,.61.18,1.36,1.36,0,0,0,.76-.23,1.2,1.2,0,0,0,.45-.58,6.66,6.66,0,0,0,.13-1.68V10.28h1.64V16.5Z" style="fill:#fff"/><path d="M472.77,12.18l-1.5-.27a2.33,2.33,0,0,1,.87-1.34,3.17,3.17,0,0,1,1.83-.43,3.85,3.85,0,0,1,1.64.26,1.62,1.62,0,0,1,.76.66,3.5,3.5,0,0,1,.22,1.47l0,1.93a7,7,0,0,0,.08,1.21,3.37,3.37,0,0,0,.3.83h-1.63a3.51,3.51,0,0,1-.16-.49l-.06-.19a3.09,3.09,0,0,1-.9.62,2.7,2.7,0,0,1-1,.2,2.1,2.1,0,0,1-1.51-.52,1.74,1.74,0,0,1-.56-1.32,1.77,1.77,0,0,1,.26-.94,1.53,1.53,0,0,1,.7-.63,5.32,5.32,0,0,1,1.31-.39,9.18,9.18,0,0,0,1.6-.4v-.16a.87.87,0,0,0-.23-.68,1.39,1.39,0,0,0-.89-.2,1.12,1.12,0,0,0-.68.17A1.14,1.14,0,0,0,472.77,12.18Zm2.2,1.33a8.32,8.32,0,0,1-1,.25,3.18,3.18,0,0,0-.9.29.7.7,0,0,0-.32.58.83.83,0,0,0,.26.6.88.88,0,0,0,.65.25,1.45,1.45,0,0,0,.85-.29,1.08,1.08,0,0,0,.4-.55,3.48,3.48,0,0,0,.06-.8Z" style="fill:#fff"/><path d="M481.06,10.28v1.31h-1.12V14.1a6.79,6.79,0,0,0,0,.89.33.33,0,0,0,.15.2.43.43,0,0,0,.28.09,2.33,2.33,0,0,0,.66-.16l.14,1.27a3.17,3.17,0,0,1-1.3.25,2,2,0,0,1-.8-.15,1.17,1.17,0,0,1-.53-.39,1.45,1.45,0,0,1-.23-.64,7.43,7.43,0,0,1,0-1.16V11.59h-.76V10.28h.76V9l1.65-1v2.2Z" style="fill:#fff"/><path d="M482.21,9.43V7.91h1.64V9.43Zm0,7.07V10.28h1.64V16.5Z" style="fill:#fff"/><path d="M485.16,13.3a3.35,3.35,0,0,1,.4-1.59,2.82,2.82,0,0,1,1.15-1.17,3.4,3.4,0,0,1,1.66-.4,3.1,3.1,0,0,1,2.31.91,3.2,3.2,0,0,1,.9,2.32,3.2,3.2,0,0,1-.91,2.34,3.08,3.08,0,0,1-2.29.93,3.56,3.56,0,0,1-1.63-.39,2.61,2.61,0,0,1-1.19-1.13A3.77,3.77,0,0,1,485.16,13.3Zm1.69.09a2,2,0,0,0,.44,1.42,1.44,1.44,0,0,0,2.16,0,2.11,2.11,0,0,0,.44-1.43,2.07,2.07,0,0,0-.44-1.41,1.44,1.44,0,0,0-2.16,0A2,2,0,0,0,486.85,13.39Z" style="fill:#fff"/><path d="M498.53,16.5h-1.65V13.32a5,5,0,0,0-.1-1.3,1,1,0,0,0-.34-.46,1,1,0,0,0-.57-.16,1.27,1.27,0,0,0-.77.23,1.21,1.21,0,0,0-.47.62,5.67,5.67,0,0,0-.12,1.43V16.5h-1.65V10.28h1.53v.91a2.5,2.5,0,0,1,2.05-1,2.54,2.54,0,0,1,1,.19,1.72,1.72,0,0,1,.68.5,1.94,1.94,0,0,1,.32.7,5.06,5.06,0,0,1,.09,1.1Z" style="fill:#fff"/></g><path d="M469.5,130.5v33.63" style="fill:none;stroke:#000;stroke-miterlimit:10"/><path d="M469.5,169.38l-3.5-7,3.5,1.75,3.5-1.75Z" style="stroke:#000;stroke-miterlimit:10"/><rect x="409.5" y="70.5" width="120" height="60" rx="7" style="fill:#526375"/><g style="isolation:isolate"><path d="M420.35,94.43l1.07-.09a2.37,2.37,0,0,0,.35,1,2,2,0,0,0,.87.67,3.27,3.27,0,0,0,1.32.26,3.09,3.09,0,0,0,1.14-.2,1.51,1.51,0,0,0,.74-.53,1.17,1.17,0,0,0,.25-.73,1.11,1.11,0,0,0-.24-.71,1.72,1.72,0,0,0-.77-.51c-.23-.09-.74-.22-1.53-.41a7.76,7.76,0,0,1-1.66-.54,2.32,2.32,0,0,1-.91-.8,1.91,1.91,0,0,1-.31-1.07A2.26,2.26,0,0,1,421,89.6a2.32,2.32,0,0,1,1.08-.85,4,4,0,0,1,1.58-.3,4.38,4.38,0,0,1,1.68.31,2.43,2.43,0,0,1,1.12.91,2.51,2.51,0,0,1,.43,1.35l-1.09.08a1.77,1.77,0,0,0-.6-1.23,2.31,2.31,0,0,0-1.5-.41,2.44,2.44,0,0,0-1.5.37,1.15,1.15,0,0,0-.47.91,1,1,0,0,0,.33.77,4.55,4.55,0,0,0,1.72.61,11,11,0,0,1,1.9.55,2.64,2.64,0,0,1,1.11.87,2.21,2.21,0,0,1,.35,1.22,2.38,2.38,0,0,1-.39,1.3,2.64,2.64,0,0,1-1.13.94,4,4,0,0,1-1.65.34,5.1,5.1,0,0,1-2-.34,2.76,2.76,0,0,1-1.23-1A2.82,2.82,0,0,1,420.35,94.43Z" style="fill:#fff"/><path d="M428.21,94.08a3.2,3.2,0,0,1,1-2.56,2.91,2.91,0,0,1,2-.69,2.78,2.78,0,0,1,2.09.84A3.16,3.16,0,0,1,434,94a4.13,4.13,0,0,1-.36,1.89A2.52,2.52,0,0,1,432.63,97a3.1,3.1,0,0,1-1.5.38,2.82,2.82,0,0,1-2.12-.84A3.37,3.37,0,0,1,428.21,94.08Zm1.08,0a2.69,2.69,0,0,0,.52,1.79,1.7,1.7,0,0,0,1.32.59,1.66,1.66,0,0,0,1.3-.59A2.72,2.72,0,0,0,433,94a2.58,2.58,0,0,0-.53-1.75,1.68,1.68,0,0,0-1.3-.59,1.7,1.7,0,0,0-1.32.59A2.69,2.69,0,0,0,429.29,94.08Z" style="fill:#fff"/><path d="M435.26,97.19V91h.95v.94a2.74,2.74,0,0,1,.67-.87,1.19,1.19,0,0,1,.68-.21,2,2,0,0,1,1.08.34l-.36,1a1.51,1.51,0,0,0-.77-.22,1,1,0,0,0-.62.2,1.15,1.15,0,0,0-.4.58,4.4,4.4,0,0,0-.17,1.23v3.26Z" style="fill:#fff"/><path d="M441.57,96.25l.16.93a4.16,4.16,0,0,1-.8.09,1.82,1.82,0,0,1-.89-.18,1,1,0,0,1-.45-.48,3.88,3.88,0,0,1-.13-1.24V91.79h-.77V91h.77V89.43l1.05-.64V91h1.06v.82h-1.06v3.64a1.73,1.73,0,0,0,.06.58.49.49,0,0,0,.18.2.71.71,0,0,0,.36.08C441.23,96.29,441.38,96.27,441.57,96.25Z" style="fill:#fff"/><path d="M448.24,96.25l.15.93a4,4,0,0,1-.79.09,1.79,1.79,0,0,1-.89-.18,1,1,0,0,1-.45-.48,3.88,3.88,0,0,1-.13-1.24V91.79h-.77V91h.77V89.43l1.05-.64V91h1.06v.82h-1.06v3.64a1.73,1.73,0,0,0,.06.58.38.38,0,0,0,.18.2.69.69,0,0,0,.36.08C447.9,96.29,448.05,96.27,448.24,96.25Z" style="fill:#fff"/><path d="M449.27,97.19V88.6h1.06v3.08a2.34,2.34,0,0,1,1.86-.85,2.53,2.53,0,0,1,1.2.27,1.56,1.56,0,0,1,.73.75,3.44,3.44,0,0,1,.22,1.4v3.94h-1V93.25a1.64,1.64,0,0,0-.35-1.16,1.26,1.26,0,0,0-1-.36,1.75,1.75,0,0,0-.88.25,1.4,1.4,0,0,0-.59.66,3.17,3.17,0,0,0-.17,1.15v3.4Z" style="fill:#fff"/><path d="M460.21,95.19l1.09.13a2.66,2.66,0,0,1-1,1.48,2.87,2.87,0,0,1-1.78.53,2.83,2.83,0,0,1-2.16-.84,3.26,3.26,0,0,1-.8-2.36,3.48,3.48,0,0,1,.8-2.44,2.77,2.77,0,0,1,2.1-.86,2.66,2.66,0,0,1,2,.85,3.35,3.35,0,0,1,.79,2.39v.28h-4.64a2.35,2.35,0,0,0,.58,1.57,1.72,1.72,0,0,0,1.3.54,1.66,1.66,0,0,0,1-.3A2,2,0,0,0,460.21,95.19Zm-3.47-1.71h3.48a2.14,2.14,0,0,0-.4-1.18,1.64,1.64,0,0,0-1.31-.61,1.7,1.7,0,0,0-1.22.49A1.94,1.94,0,0,0,456.74,93.48Z" style="fill:#fff"/><path d="M470,97.19V96.4a1.92,1.92,0,0,1-1.74.93,2.5,2.5,0,0,1-1.37-.41,2.73,2.73,0,0,1-1-1.15,3.92,3.92,0,0,1-.35-1.69,4.58,4.58,0,0,1,.31-1.69,2.45,2.45,0,0,1,2.33-1.56,2.2,2.2,0,0,1,1,.23,2.14,2.14,0,0,1,.71.62V88.6H471v8.59Zm-3.33-3.11a2.73,2.73,0,0,0,.5,1.79,1.5,1.5,0,0,0,1.19.59,1.53,1.53,0,0,0,1.18-.56,2.63,2.63,0,0,0,.48-1.73,2.91,2.91,0,0,0-.49-1.87,1.51,1.51,0,0,0-1.22-.6,1.46,1.46,0,0,0-1.17.57A2.88,2.88,0,0,0,466.66,94.08Z" style="fill:#fff"/><path d="M472.63,89.81V88.6h1.06v1.21Zm0,7.38V91h1.06v6.22Z" style="fill:#fff"/><path d="M474.87,95.33l1.05-.16a1.4,1.4,0,0,0,.49,1,1.7,1.7,0,0,0,1.12.33,1.72,1.72,0,0,0,1.08-.29.9.9,0,0,0,.35-.7.65.65,0,0,0-.31-.56,5.28,5.28,0,0,0-1.08-.36,9.59,9.59,0,0,1-1.61-.5,1.54,1.54,0,0,1-.68-.6,1.6,1.6,0,0,1-.23-.83,1.54,1.54,0,0,1,.19-.77,1.73,1.73,0,0,1,.52-.59,2.33,2.33,0,0,1,.67-.31,3.34,3.34,0,0,1,.91-.12,3.63,3.63,0,0,1,1.29.21,1.69,1.69,0,0,1,.81.57,2.22,2.22,0,0,1,.37,1l-1,.14a1.16,1.16,0,0,0-.41-.75,1.49,1.49,0,0,0-.95-.27,1.73,1.73,0,0,0-1,.24.7.7,0,0,0-.31.57.58.58,0,0,0,.13.37,1,1,0,0,0,.4.28l.93.27a12,12,0,0,1,1.56.49,1.54,1.54,0,0,1,.7.55,1.52,1.52,0,0,1,.25.9,1.73,1.73,0,0,1-.31,1,1.93,1.93,0,0,1-.88.73,3.27,3.27,0,0,1-1.32.25,3,3,0,0,1-1.85-.5A2.4,2.4,0,0,1,474.87,95.33Z" style="fill:#fff"/><path d="M483.6,96.25l.15.93a4.08,4.08,0,0,1-.8.09,1.82,1.82,0,0,1-.89-.18,1,1,0,0,1-.44-.48,3.6,3.6,0,0,1-.13-1.24V91.79h-.78V91h.78V89.43l1.05-.64V91h1.06v.82h-1.06v3.64a2.2,2.2,0,0,0,0,.58.49.49,0,0,0,.18.2.74.74,0,0,0,.36.08C483.25,96.29,483.41,96.27,483.6,96.25Z" style="fill:#fff"/><path d="M488.69,96.42a3.83,3.83,0,0,1-1.13.7,3.19,3.19,0,0,1-1.16.21,2.29,2.29,0,0,1-1.58-.5,1.67,1.67,0,0,1-.55-1.28,1.72,1.72,0,0,1,.21-.84,1.74,1.74,0,0,1,.54-.6,2.78,2.78,0,0,1,.76-.35,8.38,8.38,0,0,1,.94-.16,9.59,9.59,0,0,0,1.88-.36c0-.14,0-.24,0-.28a1.15,1.15,0,0,0-.3-.9,1.76,1.76,0,0,0-1.2-.36A1.9,1.9,0,0,0,486,92a1.6,1.6,0,0,0-.53.92l-1-.14a2.58,2.58,0,0,1,.47-1.07,1.93,1.93,0,0,1,.93-.62,4,4,0,0,1,1.41-.22,3.85,3.85,0,0,1,1.29.18,1.76,1.76,0,0,1,.74.48,1.73,1.73,0,0,1,.33.71,6.84,6.84,0,0,1,.05,1v1.4a13.75,13.75,0,0,0,.07,1.86,2.31,2.31,0,0,0,.26.75h-1.1A2.23,2.23,0,0,1,488.69,96.42Zm-.09-2.35a7.65,7.65,0,0,1-1.72.39,4.25,4.25,0,0,0-.92.22.89.89,0,0,0-.42.34,1,1,0,0,0-.14.5.86.86,0,0,0,.32.7,1.34,1.34,0,0,0,.93.28,2.11,2.11,0,0,0,1.08-.26,1.64,1.64,0,0,0,.7-.73,2.62,2.62,0,0,0,.17-1.06Z" style="fill:#fff"/><path d="M491.3,97.19V91h.95v.88a2.25,2.25,0,0,1,2-1,2.54,2.54,0,0,1,1,.2,1.55,1.55,0,0,1,.7.53,2,2,0,0,1,.33.78,5.85,5.85,0,0,1,.06,1v3.83H495.3V93.4a2.87,2.87,0,0,0-.12-1,1.06,1.06,0,0,0-.43-.51,1.38,1.38,0,0,0-.74-.19,1.67,1.67,0,0,0-1.16.43,2.08,2.08,0,0,0-.49,1.62v3.4Z" style="fill:#fff"/><path d="M502,94.91l1,.13a2.64,2.64,0,0,1-.87,1.68,2.5,2.5,0,0,1-1.72.61,2.69,2.69,0,0,1-2.05-.83,3.4,3.4,0,0,1-.78-2.4,4.35,4.35,0,0,1,.34-1.76,2.35,2.35,0,0,1,1-1.14,3.08,3.08,0,0,1,1.49-.37,2.59,2.59,0,0,1,1.66.51,2.34,2.34,0,0,1,.82,1.45L502,93a1.72,1.72,0,0,0-.52-.94,1.36,1.36,0,0,0-.9-.32,1.63,1.63,0,0,0-1.29.57,2.7,2.7,0,0,0-.5,1.81,2.77,2.77,0,0,0,.48,1.82,1.56,1.56,0,0,0,1.25.57,1.45,1.45,0,0,0,1-.38A1.89,1.89,0,0,0,502,94.91Z" style="fill:#fff"/><path d="M508.24,95.19l1.09.13a2.66,2.66,0,0,1-1,1.48,3.24,3.24,0,0,1-3.95-.31,3.31,3.31,0,0,1-.8-2.36,3.44,3.44,0,0,1,.81-2.44,2.77,2.77,0,0,1,2.1-.86,2.66,2.66,0,0,1,2,.85,3.35,3.35,0,0,1,.79,2.39v.28h-4.65a2.46,2.46,0,0,0,.58,1.57,1.76,1.76,0,0,0,1.31.54,1.66,1.66,0,0,0,1-.3A2,2,0,0,0,508.24,95.19Zm-3.47-1.71h3.48a2.14,2.14,0,0,0-.4-1.18,1.64,1.64,0,0,0-1.31-.61,1.7,1.7,0,0,0-1.22.49A1.94,1.94,0,0,0,504.77,93.48Z" style="fill:#fff"/><path d="M510.23,95.33l1-.16a1.44,1.44,0,0,0,.49,1,1.72,1.72,0,0,0,1.12.33,1.68,1.68,0,0,0,1.08-.29.87.87,0,0,0,.35-.7.63.63,0,0,0-.31-.56,4.84,4.84,0,0,0-1.08-.36,9.39,9.39,0,0,1-1.6-.5,1.54,1.54,0,0,1-.68-.6,1.52,1.52,0,0,1-.24-.83,1.66,1.66,0,0,1,.19-.77,1.73,1.73,0,0,1,.52-.59,2.47,2.47,0,0,1,.67-.31,3.41,3.41,0,0,1,.92-.12A3.62,3.62,0,0,1,514,91a1.77,1.77,0,0,1,.82.57,2.22,2.22,0,0,1,.36,1l-1,.14a1.12,1.12,0,0,0-.41-.75,1.47,1.47,0,0,0-1-.27,1.75,1.75,0,0,0-1,.24.72.72,0,0,0-.31.57.64.64,0,0,0,.13.37,1,1,0,0,0,.41.28q.15.06.93.27a12.55,12.55,0,0,1,1.56.49,1.47,1.47,0,0,1,.69.55,1.52,1.52,0,0,1,.26.9,1.81,1.81,0,0,1-.31,1,2,2,0,0,1-.89.73,3.22,3.22,0,0,1-1.31.25,3,3,0,0,1-1.85-.5A2.4,2.4,0,0,1,510.23,95.33Z" style="fill:#fff"/><path d="M420.93,104.21V103H422v1.21Zm0,7.38v-6.22H422v6.22Z" style="fill:#fff"/><path d="M423.59,111.59v-6.22h1v.88a2.25,2.25,0,0,1,2-1,2.54,2.54,0,0,1,1,.2,1.55,1.55,0,0,1,.7.53,2,2,0,0,1,.33.78,5.85,5.85,0,0,1,.06,1v3.83h-1.06V107.8a2.91,2.91,0,0,0-.12-1,1,1,0,0,0-.44-.51,1.32,1.32,0,0,0-.73-.19,1.67,1.67,0,0,0-1.16.43,2.08,2.08,0,0,0-.49,1.62v3.4Z" style="fill:#fff"/><path d="M437.66,110.82a4.1,4.1,0,0,1-1.13.71,3.41,3.41,0,0,1-1.16.2,2.3,2.3,0,0,1-1.58-.5,1.67,1.67,0,0,1-.55-1.28,1.72,1.72,0,0,1,.21-.84,1.67,1.67,0,0,1,.55-.6,2.59,2.59,0,0,1,.75-.35,8.38,8.38,0,0,1,.94-.16,9.59,9.59,0,0,0,1.88-.36c0-.14,0-.24,0-.27a1.16,1.16,0,0,0-.3-.91,1.76,1.76,0,0,0-1.2-.36,1.9,1.9,0,0,0-1.1.26,1.54,1.54,0,0,0-.52.92l-1-.14a2.58,2.58,0,0,1,.47-1.07,1.93,1.93,0,0,1,.93-.62,4.05,4.05,0,0,1,1.41-.22,4,4,0,0,1,1.3.18,1.51,1.51,0,0,1,1.06,1.19,6.84,6.84,0,0,1,.05,1V109a13.75,13.75,0,0,0,.07,1.86,2.31,2.31,0,0,0,.26.75h-1.1A2.17,2.17,0,0,1,437.66,110.82Zm-.09-2.35a8,8,0,0,1-1.72.4,3.82,3.82,0,0,0-.92.21.89.89,0,0,0-.42.34,1,1,0,0,0-.14.5.86.86,0,0,0,.32.7,1.34,1.34,0,0,0,.93.28,2.17,2.17,0,0,0,1.09-.26,1.67,1.67,0,0,0,.69-.73,2.46,2.46,0,0,0,.17-1.06Z" style="fill:#fff"/><path d="M439.85,109.73l1-.16a1.48,1.48,0,0,0,.49,1,1.75,1.75,0,0,0,1.13.33,1.67,1.67,0,0,0,1.07-.29.89.89,0,0,0,.36-.7.64.64,0,0,0-.32-.56,4.89,4.89,0,0,0-1.07-.36,9.59,9.59,0,0,1-1.61-.5,1.54,1.54,0,0,1-.68-.6A1.51,1.51,0,0,1,440,107a1.57,1.57,0,0,1,.19-.77,1.64,1.64,0,0,1,.52-.59,2.21,2.21,0,0,1,.67-.31,3.28,3.28,0,0,1,.91-.12,3.54,3.54,0,0,1,1.28.21,1.72,1.72,0,0,1,.82.57,2.22,2.22,0,0,1,.37,1l-1,.14a1.11,1.11,0,0,0-.4-.75,1.52,1.52,0,0,0-1-.27,1.7,1.7,0,0,0-1,.24.7.7,0,0,0-.31.57.58.58,0,0,0,.13.37,1,1,0,0,0,.4.28l.93.27a12,12,0,0,1,1.56.49,1.54,1.54,0,0,1,.7.55,1.52,1.52,0,0,1,.25.9,1.73,1.73,0,0,1-.31,1,1.91,1.91,0,0,1-.89.73,3.19,3.19,0,0,1-1.31.25,3,3,0,0,1-1.85-.5A2.4,2.4,0,0,1,439.85,109.73Z" style="fill:#fff"/><path d="M450.33,109.31l1,.14a2.64,2.64,0,0,1-.87,1.67,2.52,2.52,0,0,1-1.72.61,2.69,2.69,0,0,1-2-.83,3.4,3.4,0,0,1-.78-2.4,4.19,4.19,0,0,1,.34-1.76,2.35,2.35,0,0,1,1-1.14,3,3,0,0,1,1.49-.37,2.61,2.61,0,0,1,1.66.51,2.34,2.34,0,0,1,.82,1.46l-1,.15a1.72,1.72,0,0,0-.52-.94,1.36,1.36,0,0,0-.9-.32,1.64,1.64,0,0,0-1.3.58,2.71,2.71,0,0,0-.49,1.8,2.77,2.77,0,0,0,.48,1.82,1.55,1.55,0,0,0,1.25.57,1.47,1.47,0,0,0,1-.38A1.88,1.88,0,0,0,450.33,109.31Z" style="fill:#fff"/><path d="M456.53,109.59l1.09.13a2.64,2.64,0,0,1-.95,1.48,2.89,2.89,0,0,1-1.78.53,2.85,2.85,0,0,1-2.17-.84,3.31,3.31,0,0,1-.8-2.36,3.44,3.44,0,0,1,.81-2.44,2.77,2.77,0,0,1,2.1-.86,2.66,2.66,0,0,1,2,.85,3.39,3.39,0,0,1,.79,2.39c0,.06,0,.15,0,.28H453a2.38,2.38,0,0,0,.58,1.57,1.74,1.74,0,0,0,1.3.54,1.62,1.62,0,0,0,1-.3A2,2,0,0,0,456.53,109.59Zm-3.46-1.71h3.47a2.06,2.06,0,0,0-.39-1.18,1.64,1.64,0,0,0-1.31-.61,1.7,1.7,0,0,0-1.22.49A1.94,1.94,0,0,0,453.07,107.88Z" style="fill:#fff"/><path d="M459,111.59v-6.22h.95v.88a2.22,2.22,0,0,1,2-1,2.49,2.49,0,0,1,1,.2,1.58,1.58,0,0,1,.71.53,2.3,2.3,0,0,1,.33.78,7.53,7.53,0,0,1,.05,1v3.83H463V107.8a2.91,2.91,0,0,0-.12-1,1.08,1.08,0,0,0-.44-.51,1.36,1.36,0,0,0-.74-.19,1.7,1.7,0,0,0-1.16.43,2.11,2.11,0,0,0-.49,1.62v3.4Z" style="fill:#fff"/><path d="M469.66,111.59v-.79a2,2,0,0,1-1.74.93,2.47,2.47,0,0,1-1.37-.41,2.62,2.62,0,0,1-1-1.15,3.92,3.92,0,0,1-.34-1.69,4.39,4.39,0,0,1,.31-1.69,2.42,2.42,0,0,1,2.32-1.56,2.14,2.14,0,0,1,1,.23,2.18,2.18,0,0,1,.72.62V103h1.05v8.59Zm-3.34-3.11a2.67,2.67,0,0,0,.51,1.79,1.5,1.5,0,0,0,2.36,0,2.63,2.63,0,0,0,.49-1.73,2.9,2.9,0,0,0-.5-1.87,1.5,1.5,0,0,0-1.21-.6,1.45,1.45,0,0,0-1.17.57A2.82,2.82,0,0,0,466.32,108.48Z" style="fill:#fff"/><path d="M472.3,104.21V103h1.06v1.21Zm0,7.38v-6.22h1.06v6.22Z" style="fill:#fff"/><path d="M475,111.59v-6.22h1v.88a2.25,2.25,0,0,1,2-1,2.46,2.46,0,0,1,1,.2,1.58,1.58,0,0,1,.71.53,2,2,0,0,1,.33.78,5.85,5.85,0,0,1,.06,1v3.83H479V107.8a2.91,2.91,0,0,0-.12-1,1,1,0,0,0-.44-.51,1.35,1.35,0,0,0-.73-.19,1.71,1.71,0,0,0-1.17.43,2.12,2.12,0,0,0-.48,1.62v3.4Z" style="fill:#fff"/><path d="M481.44,112.11l1,.15a1,1,0,0,0,.35.69,1.82,1.82,0,0,0,1.08.29A2,2,0,0,0,485,113a1.53,1.53,0,0,0,.54-.82,6.83,6.83,0,0,0,.07-1.35,2.16,2.16,0,0,1-1.72.81,2.35,2.35,0,0,1-2-.93,3.53,3.53,0,0,1-.7-2.22,4.21,4.21,0,0,1,.32-1.64,2.59,2.59,0,0,1,.94-1.16,2.48,2.48,0,0,1,1.44-.41,2.2,2.2,0,0,1,1.81.89v-.75h1v5.38a5.12,5.12,0,0,1-.29,2.06,2.16,2.16,0,0,1-.94,1,3.18,3.18,0,0,1-1.58.36,3,3,0,0,1-1.8-.51A1.7,1.7,0,0,1,481.44,112.11Zm.87-3.74a2.7,2.7,0,0,0,.49,1.78,1.53,1.53,0,0,0,1.22.57,1.58,1.58,0,0,0,1.22-.56,2.62,2.62,0,0,0,.49-1.76,2.54,2.54,0,0,0-.51-1.72,1.54,1.54,0,0,0-1.22-.58,1.5,1.5,0,0,0-1.19.57A2.54,2.54,0,0,0,482.31,108.37Z" style="fill:#fff"/><path d="M491.25,108.48a3.2,3.2,0,0,1,1-2.56,2.91,2.91,0,0,1,2-.69,2.82,2.82,0,0,1,2.1.84,3.2,3.2,0,0,1,.81,2.32,4.13,4.13,0,0,1-.36,1.89,2.52,2.52,0,0,1-1.05,1.07,3.1,3.1,0,0,1-1.5.38,2.78,2.78,0,0,1-2.11-.84A3.33,3.33,0,0,1,491.25,108.48Zm1.08,0a2.64,2.64,0,0,0,.53,1.79,1.64,1.64,0,0,0,1.31.59,1.66,1.66,0,0,0,1.3-.59,2.72,2.72,0,0,0,.53-1.83,2.58,2.58,0,0,0-.53-1.75,1.74,1.74,0,0,0-2.61,0A2.64,2.64,0,0,0,492.33,108.48Z" style="fill:#fff"/><path d="M498.3,111.59v-6.22h.95v.94a2.74,2.74,0,0,1,.67-.87,1.21,1.21,0,0,1,.68-.21,2,2,0,0,1,1.09.34l-.37,1a1.51,1.51,0,0,0-.77-.22,1,1,0,0,0-.62.2,1.08,1.08,0,0,0-.39.58,4.06,4.06,0,0,0-.18,1.23v3.26Z" style="fill:#fff"/><path d="M506.35,111.59v-.79a1.92,1.92,0,0,1-1.74.93,2.47,2.47,0,0,1-1.37-.41,2.69,2.69,0,0,1-1-1.15,4.08,4.08,0,0,1-.34-1.69,4.58,4.58,0,0,1,.31-1.69,2.42,2.42,0,0,1,2.32-1.56,2.14,2.14,0,0,1,1,.23,2.08,2.08,0,0,1,.72.62V103h1.05v8.59ZM503,108.48a2.68,2.68,0,0,0,.5,1.79,1.5,1.5,0,0,0,2.36,0,2.57,2.57,0,0,0,.49-1.73,3,3,0,0,0-.49-1.87,1.53,1.53,0,0,0-1.22-.6,1.45,1.45,0,0,0-1.17.57A2.82,2.82,0,0,0,503,108.48Z" style="fill:#fff"/><path d="M513.25,109.59l1.09.13a2.66,2.66,0,0,1-1,1.48,3.24,3.24,0,0,1-3.95-.31,3.31,3.31,0,0,1-.8-2.36,3.44,3.44,0,0,1,.81-2.44,2.77,2.77,0,0,1,2.1-.86,2.66,2.66,0,0,1,2,.85,3.35,3.35,0,0,1,.79,2.39v.28h-4.65a2.44,2.44,0,0,0,.58,1.57,1.76,1.76,0,0,0,1.31.54,1.66,1.66,0,0,0,1-.3A2,2,0,0,0,513.25,109.59Zm-3.47-1.71h3.48a2.14,2.14,0,0,0-.4-1.18,1.64,1.64,0,0,0-1.31-.61,1.7,1.7,0,0,0-1.22.49A1.94,1.94,0,0,0,509.78,107.88Z" style="fill:#fff"/><path d="M515.65,111.59v-6.22h1v.94a2.48,2.48,0,0,1,.67-.87,1.16,1.16,0,0,1,.68-.21,2,2,0,0,1,1.08.34l-.36,1a1.54,1.54,0,0,0-.78-.22,1.07,1.07,0,0,0-.62.2,1.2,1.2,0,0,0-.39.58,4.06,4.06,0,0,0-.18,1.23v3.26Z" style="fill:#fff"/></g><path d="M469.5,230.5v33.63" style="fill:none;stroke:#000;stroke-miterlimit:10"/><path d="M469.5,269.38l-3.5-7,3.5,1.75,3.5-1.75Z" style="stroke:#000;stroke-miterlimit:10"/><rect x="414.5" y="170.5" width="110" height="60" rx="7" style="fill:#526375"/><g style="isolation:isolate"><path d="M429.08,185.63v-1h3.64v3.18a6.35,6.35,0,0,1-1.72,1,5.29,5.29,0,0,1-1.83.34,4.77,4.77,0,0,1-2.3-.55,3.56,3.56,0,0,1-1.56-1.56,4.86,4.86,0,0,1-.53-2.29,5.28,5.28,0,0,1,.52-2.34,3.5,3.5,0,0,1,1.51-1.62,4.75,4.75,0,0,1,2.27-.53,4.3,4.3,0,0,1,1.68.31,2.7,2.7,0,0,1,1.18.84,3.5,3.5,0,0,1,.65,1.4l-1,.28a3.3,3.3,0,0,0-.48-1,2,2,0,0,0-.82-.6,3,3,0,0,0-1.19-.22,3.65,3.65,0,0,0-1.34.23,2.5,2.5,0,0,0-.92.63,3.06,3.06,0,0,0-.54.85,4.44,4.44,0,0,0-.33,1.73,4.13,4.13,0,0,0,.4,1.92,2.51,2.51,0,0,0,1.15,1.15,3.54,3.54,0,0,0,1.6.37,3.77,3.77,0,0,0,1.44-.28,3.59,3.59,0,0,0,1.07-.61v-1.6Z" style="fill:#fff"/><path d="M438.52,187l1.09.13a2.64,2.64,0,0,1-.95,1.48,3.24,3.24,0,0,1-4-.31,3.31,3.31,0,0,1-.8-2.36,3.44,3.44,0,0,1,.81-2.44,2.77,2.77,0,0,1,2.1-.86,2.66,2.66,0,0,1,2,.85,3.35,3.35,0,0,1,.79,2.39c0,.06,0,.15,0,.28H435a2.44,2.44,0,0,0,.58,1.57,1.74,1.74,0,0,0,1.3.54,1.62,1.62,0,0,0,1-.3A2,2,0,0,0,438.52,187Zm-3.46-1.71h3.48a2.17,2.17,0,0,0-.4-1.18,1.64,1.64,0,0,0-1.31-.61,1.7,1.7,0,0,0-1.22.49A1.94,1.94,0,0,0,435.06,185.29Z" style="fill:#fff"/><path d="M443.24,188.06l.15.93a4,4,0,0,1-.79.09,1.79,1.79,0,0,1-.89-.18,1,1,0,0,1-.45-.48,3.6,3.6,0,0,1-.13-1.24V183.6h-.77v-.82h.77v-1.54l1.05-.64v2.18h1.06v.82h-1.06v3.64a1.73,1.73,0,0,0,.06.58.38.38,0,0,0,.18.2.69.69,0,0,0,.36.08C442.9,188.1,443.05,188.08,443.24,188.06Z" style="fill:#fff"/><path d="M449.91,188.06l.15.93a4.08,4.08,0,0,1-.8.09,1.82,1.82,0,0,1-.89-.18,1,1,0,0,1-.44-.48,3.6,3.6,0,0,1-.13-1.24V183.6H447v-.82h.77v-1.54l1.05-.64v2.18h1.06v.82h-1.06v3.64a2.2,2.2,0,0,0,0,.58.46.46,0,0,0,.19.2.69.69,0,0,0,.36.08Z" style="fill:#fff"/><path d="M450.94,189v-8.59H452v3.08a2.34,2.34,0,0,1,1.86-.85,2.53,2.53,0,0,1,1.2.27,1.6,1.6,0,0,1,.73.75,3.44,3.44,0,0,1,.22,1.4V189H455v-3.94a1.61,1.61,0,0,0-.34-1.15,1.28,1.28,0,0,0-1-.37,1.75,1.75,0,0,0-.88.25,1.35,1.35,0,0,0-.59.66,3,3,0,0,0-.17,1.15V189Z" style="fill:#fff"/><path d="M461.87,187l1.09.13a2.64,2.64,0,0,1-.95,1.48,3.24,3.24,0,0,1-3.95-.31,3.31,3.31,0,0,1-.8-2.36,3.44,3.44,0,0,1,.81-2.44,2.77,2.77,0,0,1,2.1-.86,2.66,2.66,0,0,1,2,.85,3.35,3.35,0,0,1,.79,2.39c0,.06,0,.15,0,.28h-4.64a2.38,2.38,0,0,0,.58,1.57,1.74,1.74,0,0,0,1.3.54,1.62,1.62,0,0,0,1-.3A2,2,0,0,0,461.87,187Zm-3.46-1.71h3.48a2.17,2.17,0,0,0-.4-1.18,1.64,1.64,0,0,0-1.31-.61A1.7,1.7,0,0,0,459,184,1.94,1.94,0,0,0,458.41,185.29Z" style="fill:#fff"/><path d="M467.6,189v-8.59h1V189Z" style="fill:#fff"/><path d="M474.35,188.23a4.1,4.1,0,0,1-1.13.71,3.41,3.41,0,0,1-1.16.2,2.29,2.29,0,0,1-1.58-.5,1.64,1.64,0,0,1-.55-1.28,1.72,1.72,0,0,1,.21-.84,1.74,1.74,0,0,1,.54-.6,2.78,2.78,0,0,1,.76-.35,8.38,8.38,0,0,1,.94-.16,9.59,9.59,0,0,0,1.88-.36c0-.14,0-.24,0-.27a1.16,1.16,0,0,0-.3-.91,1.76,1.76,0,0,0-1.2-.36,1.87,1.87,0,0,0-1.1.26,1.6,1.6,0,0,0-.53.92l-1-.14a2.58,2.58,0,0,1,.47-1.07,1.93,1.93,0,0,1,.93-.62,4,4,0,0,1,1.41-.22,3.85,3.85,0,0,1,1.29.18,1.76,1.76,0,0,1,.74.48,1.66,1.66,0,0,1,.32.71,5.32,5.32,0,0,1,.06,1v1.4a16.75,16.75,0,0,0,.06,1.86,2.6,2.6,0,0,0,.27.75h-1.1A2.17,2.17,0,0,1,474.35,188.23Zm-.09-2.35a8.14,8.14,0,0,1-1.72.4,3.7,3.7,0,0,0-.92.21.87.87,0,0,0-.56.84.86.86,0,0,0,.32.7,1.34,1.34,0,0,0,.93.28,2.11,2.11,0,0,0,1.08-.26,1.64,1.64,0,0,0,.7-.73,2.62,2.62,0,0,0,.17-1.06Z" style="fill:#fff"/><path d="M477.93,189h-1v-8.59H478v3.06a2.11,2.11,0,0,1,1.71-.83,2.5,2.5,0,0,1,1.08.23,2.2,2.2,0,0,1,.85.65,3.21,3.21,0,0,1,.52,1,4.31,4.31,0,0,1,.18,1.26,3.55,3.55,0,0,1-.79,2.48,2.48,2.48,0,0,1-1.9.87,2,2,0,0,1-1.73-.92Zm0-3.16a3.14,3.14,0,0,0,.31,1.62,1.51,1.51,0,0,0,2.54.21,2.69,2.69,0,0,0,.5-1.79,2.81,2.81,0,0,0-.48-1.8,1.48,1.48,0,0,0-2.36,0A2.62,2.62,0,0,0,477.92,185.84Z" style="fill:#fff"/><path d="M487.9,187l1.09.13a2.66,2.66,0,0,1-1,1.48,3.24,3.24,0,0,1-3.95-.31,3.31,3.31,0,0,1-.8-2.36,3.44,3.44,0,0,1,.81-2.44,2.77,2.77,0,0,1,2.1-.86,2.66,2.66,0,0,1,2,.85,3.35,3.35,0,0,1,.79,2.39c0,.06,0,.15,0,.28h-4.64a2.44,2.44,0,0,0,.58,1.57,1.75,1.75,0,0,0,1.3.54,1.67,1.67,0,0,0,1-.3A2,2,0,0,0,487.9,187Zm-3.47-1.71h3.48a2.17,2.17,0,0,0-.4-1.18,1.64,1.64,0,0,0-1.31-.61A1.7,1.7,0,0,0,485,184,1.94,1.94,0,0,0,484.43,185.29Z" style="fill:#fff"/><path d="M490.29,189v-8.59h1V189Z" style="fill:#fff"/><path d="M492.55,187.14l1.05-.16a1.44,1.44,0,0,0,.49,1,1.7,1.7,0,0,0,1.12.33,1.72,1.72,0,0,0,1.08-.29.9.9,0,0,0,.35-.7.65.65,0,0,0-.31-.56,5.28,5.28,0,0,0-1.08-.36,9.92,9.92,0,0,1-1.61-.5,1.55,1.55,0,0,1-.91-1.43,1.57,1.57,0,0,1,.19-.77,1.73,1.73,0,0,1,.52-.59,2.33,2.33,0,0,1,.67-.31,3.34,3.34,0,0,1,.91-.12,3.63,3.63,0,0,1,1.29.21,1.69,1.69,0,0,1,.81.57,2.22,2.22,0,0,1,.37,1l-1,.14a1.16,1.16,0,0,0-.41-.75,1.49,1.49,0,0,0-.95-.27,1.73,1.73,0,0,0-1,.24.7.7,0,0,0-.31.57.58.58,0,0,0,.13.37,1,1,0,0,0,.4.28l.93.27a12.86,12.86,0,0,1,1.57.49,1.57,1.57,0,0,1,.69.55,1.52,1.52,0,0,1,.25.9,1.78,1.78,0,0,1-.31,1,2,2,0,0,1-.88.72,3.27,3.27,0,0,1-1.32.25,2.94,2.94,0,0,1-1.84-.5A2.36,2.36,0,0,1,492.55,187.14Z" style="fill:#fff"/><path d="M501.92,185.89a3.2,3.2,0,0,1,1-2.56,2.89,2.89,0,0,1,1.95-.69,2.79,2.79,0,0,1,2.1.84,3.16,3.16,0,0,1,.82,2.32,4.13,4.13,0,0,1-.36,1.89,2.52,2.52,0,0,1-1.05,1.07,3.11,3.11,0,0,1-1.51.38,2.79,2.79,0,0,1-2.11-.84A3.37,3.37,0,0,1,501.92,185.89Zm1.08,0a2.64,2.64,0,0,0,.52,1.79,1.66,1.66,0,0,0,1.31.59,1.68,1.68,0,0,0,1.31-.59,2.72,2.72,0,0,0,.52-1.83,2.58,2.58,0,0,0-.52-1.75,1.75,1.75,0,0,0-2.62,0A2.64,2.64,0,0,0,503,185.89Z" style="fill:#fff"/><path d="M509.24,189v-5.4h-.94v-.82h.94v-.66a2.82,2.82,0,0,1,.11-.94,1.36,1.36,0,0,1,.53-.66,2,2,0,0,1,1.08-.26,5.24,5.24,0,0,1,1,.11l-.16.92a3.34,3.34,0,0,0-.62-.06.92.92,0,0,0-.68.21,1.1,1.1,0,0,0-.2.76v.58h1.22v.82h-1.22V189Z" style="fill:#fff"/><path d="M420.57,202.46l.16.93a4.16,4.16,0,0,1-.8.09,1.82,1.82,0,0,1-.89-.18,1,1,0,0,1-.45-.48,3.88,3.88,0,0,1-.13-1.24V198h-.77v-.82h.77v-1.54l1.05-.64v2.18h1.06V198h-1.06v3.64a1.73,1.73,0,0,0,.06.58.49.49,0,0,0,.18.2.71.71,0,0,0,.36.08C420.23,202.5,420.38,202.48,420.57,202.46Z" style="fill:#fff"/><path d="M421.61,203.4v-8.59h1.05v3.08a2.34,2.34,0,0,1,1.86-.85,2.53,2.53,0,0,1,1.2.27,1.56,1.56,0,0,1,.73.75,3.44,3.44,0,0,1,.22,1.4v3.94h-1.05v-3.94a1.66,1.66,0,0,0-.34-1.15,1.29,1.29,0,0,0-1-.36,1.75,1.75,0,0,0-.89.24,1.33,1.33,0,0,0-.58.66,2.94,2.94,0,0,0-.18,1.15v3.4Z" style="fill:#fff"/><path d="M432.54,201.4l1.09.13a2.61,2.61,0,0,1-1,1.48,2.79,2.79,0,0,1-1.78.53,2.83,2.83,0,0,1-2.16-.84,3.26,3.26,0,0,1-.8-2.36,3.44,3.44,0,0,1,.81-2.44,2.74,2.74,0,0,1,2.09-.86,2.63,2.63,0,0,1,2,.85,3.35,3.35,0,0,1,.79,2.39v.28H429a2.38,2.38,0,0,0,.58,1.57,1.74,1.74,0,0,0,1.3.54,1.62,1.62,0,0,0,1-.3A2,2,0,0,0,432.54,201.4Zm-3.46-1.71h3.47a2.17,2.17,0,0,0-.4-1.18,1.62,1.62,0,0,0-1.3-.61,1.71,1.71,0,0,0-1.23.49A1.89,1.89,0,0,0,429.08,199.69Z" style="fill:#fff"/><path d="M438.29,203.4v-8.59h1.06v4.9l2.49-2.53h1.37l-2.38,2.31,2.62,3.91h-1.3l-2.06-3.18-.74.71v2.47Z" style="fill:#fff"/><path d="M447.87,203.4V198h-.93v-.82h.93v-.66a3.12,3.12,0,0,1,.11-.94,1.38,1.38,0,0,1,.54-.66,1.94,1.94,0,0,1,1.08-.26,5.24,5.24,0,0,1,1,.11l-.16.92a3.42,3.42,0,0,0-.62-.06.91.91,0,0,0-.68.21,1.1,1.1,0,0,0-.2.76v.58h1.21V198h-1.21v5.4Z" style="fill:#fff"/><path d="M451,196v-1.21H452V196Zm0,7.38v-6.22H452v6.22Z" style="fill:#fff"/><path d="M453.61,203.4v-6.22h.95v.94a2.48,2.48,0,0,1,.67-.87,1.16,1.16,0,0,1,.68-.21,2,2,0,0,1,1.08.34l-.36,1a1.46,1.46,0,0,0-.78-.23,1.07,1.07,0,0,0-.62.2,1.2,1.2,0,0,0-.39.58,4.06,4.06,0,0,0-.18,1.23v3.26Z" style="fill:#fff"/><path d="M457.2,201.54l1-.16a1.44,1.44,0,0,0,.49,1,1.72,1.72,0,0,0,1.12.33,1.66,1.66,0,0,0,1.08-.29.9.9,0,0,0,.35-.7.64.64,0,0,0-.31-.56,5.28,5.28,0,0,0-1.08-.36,9.92,9.92,0,0,1-1.61-.5,1.53,1.53,0,0,1-.91-1.43,1.57,1.57,0,0,1,.19-.77,1.73,1.73,0,0,1,.52-.59,2.33,2.33,0,0,1,.67-.31,3.34,3.34,0,0,1,.91-.12,3.63,3.63,0,0,1,1.29.21,1.77,1.77,0,0,1,.82.57,2.35,2.35,0,0,1,.36,1l-1,.14a1.12,1.12,0,0,0-.41-.75,1.47,1.47,0,0,0-.95-.27,1.73,1.73,0,0,0-1,.24.7.7,0,0,0-.31.57.58.58,0,0,0,.13.37,1,1,0,0,0,.4.28l.94.27a13.15,13.15,0,0,1,1.56.49,1.57,1.57,0,0,1,.69.55,1.52,1.52,0,0,1,.25.9,1.85,1.85,0,0,1-.3,1,2.06,2.06,0,0,1-.89.72,3.26,3.26,0,0,1-1.31.25A3,3,0,0,1,458,203,2.31,2.31,0,0,1,457.2,201.54Z" style="fill:#fff"/><path d="M465.92,202.46l.15.93a4,4,0,0,1-.79.09,1.86,1.86,0,0,1-.9-.18,1,1,0,0,1-.44-.48,3.6,3.6,0,0,1-.13-1.24V198H463v-.82h.77v-1.54l1.05-.64v2.18h1.06V198h-1.06v3.64a1.73,1.73,0,0,0,.06.58.38.38,0,0,0,.18.2.69.69,0,0,0,.36.08Z" style="fill:#fff"/><path d="M474.54,201.4l1.09.13a2.64,2.64,0,0,1-.95,1.48,2.83,2.83,0,0,1-1.78.53,2.87,2.87,0,0,1-2.17-.84,3.31,3.31,0,0,1-.8-2.36,3.44,3.44,0,0,1,.81-2.44,2.77,2.77,0,0,1,2.1-.86,2.66,2.66,0,0,1,2,.85,3.35,3.35,0,0,1,.79,2.39c0,.06,0,.15,0,.28H471a2.44,2.44,0,0,0,.58,1.57,1.74,1.74,0,0,0,1.3.54,1.62,1.62,0,0,0,1-.3A2,2,0,0,0,474.54,201.4Zm-3.46-1.71h3.48a2.17,2.17,0,0,0-.4-1.18,1.64,1.64,0,0,0-1.31-.61,1.7,1.7,0,0,0-1.22.49A1.94,1.94,0,0,0,471.08,199.69Z" style="fill:#fff"/><path d="M476.94,203.4v-8.59H478v8.59Z" style="fill:#fff"/><path d="M483.88,201.4l1.09.13a2.64,2.64,0,0,1-1,1.48,2.83,2.83,0,0,1-1.78.53,2.87,2.87,0,0,1-2.17-.84,3.31,3.31,0,0,1-.8-2.36,3.44,3.44,0,0,1,.81-2.44,2.77,2.77,0,0,1,2.1-.86,2.66,2.66,0,0,1,2,.85,3.35,3.35,0,0,1,.79,2.39c0,.06,0,.15,0,.28h-4.64a2.44,2.44,0,0,0,.58,1.57,1.74,1.74,0,0,0,1.3.54,1.62,1.62,0,0,0,1-.3A2,2,0,0,0,483.88,201.4Zm-3.46-1.71h3.48a2.17,2.17,0,0,0-.4-1.18,1.64,1.64,0,0,0-1.31-.61,1.7,1.7,0,0,0-1.22.49A1.94,1.94,0,0,0,480.42,199.69Z" style="fill:#fff"/><path d="M486.3,203.4v-6.22h.94v.87a2.27,2.27,0,0,1,.78-.73,2.16,2.16,0,0,1,1.11-.28,2,2,0,0,1,1.13.28,1.54,1.54,0,0,1,.63.81,2.22,2.22,0,0,1,1.92-1.09,1.88,1.88,0,0,1,1.42.51,2.2,2.2,0,0,1,.5,1.58v4.27h-1.05v-3.92a2.83,2.83,0,0,0-.1-.91.86.86,0,0,0-.37-.45,1.2,1.2,0,0,0-.64-.17,1.49,1.49,0,0,0-1.09.44,2,2,0,0,0-.43,1.4v3.61H490v-4a1.82,1.82,0,0,0-.26-1.06,1,1,0,0,0-.85-.35,1.51,1.51,0,0,0-.82.24,1.34,1.34,0,0,0-.55.68,4,4,0,0,0-.17,1.3v3.23Z" style="fill:#fff"/><path d="M500.55,201.4l1.09.13a2.64,2.64,0,0,1-.95,1.48,2.83,2.83,0,0,1-1.78.53,2.87,2.87,0,0,1-2.17-.84,3.31,3.31,0,0,1-.8-2.36,3.44,3.44,0,0,1,.81-2.44,2.77,2.77,0,0,1,2.1-.86,2.66,2.66,0,0,1,2,.85,3.35,3.35,0,0,1,.79,2.39c0,.06,0,.15,0,.28H497a2.44,2.44,0,0,0,.58,1.57,1.74,1.74,0,0,0,1.3.54,1.62,1.62,0,0,0,1-.3A2,2,0,0,0,500.55,201.4Zm-3.46-1.71h3.48a2.17,2.17,0,0,0-.4-1.18,1.64,1.64,0,0,0-1.31-.61,1.7,1.7,0,0,0-1.22.49A1.94,1.94,0,0,0,497.09,199.69Z" style="fill:#fff"/><path d="M503,203.4v-6.22h.95v.88a2.25,2.25,0,0,1,2-1,2.49,2.49,0,0,1,1,.2,1.58,1.58,0,0,1,.71.53,2.3,2.3,0,0,1,.33.78,5.85,5.85,0,0,1,.06,1v3.83H507v-3.78a2.94,2.94,0,0,0-.12-1,1,1,0,0,0-.44-.51,1.35,1.35,0,0,0-.73-.19,1.71,1.71,0,0,0-1.17.43A2.13,2.13,0,0,0,504,200v3.4Z" style="fill:#fff"/><path d="M512,202.46l.15.93a4.08,4.08,0,0,1-.8.09,1.82,1.82,0,0,1-.89-.18,1,1,0,0,1-.45-.48,4,4,0,0,1-.12-1.24V198h-.78v-.82h.78v-1.54l1-.64v2.18H512V198h-1.07v3.64a1.73,1.73,0,0,0,.06.58.49.49,0,0,0,.18.2.74.74,0,0,0,.36.08C511.6,202.5,511.75,202.48,512,202.46Z" style="fill:#fff"/><path d="M512.55,201.54l1.05-.16a1.44,1.44,0,0,0,.49,1,1.7,1.7,0,0,0,1.12.33,1.66,1.66,0,0,0,1.08-.29.9.9,0,0,0,.35-.7.64.64,0,0,0-.31-.56,5.28,5.28,0,0,0-1.08-.36,9.92,9.92,0,0,1-1.61-.5,1.53,1.53,0,0,1-.91-1.43,1.57,1.57,0,0,1,.19-.77,1.73,1.73,0,0,1,.52-.59,2.33,2.33,0,0,1,.67-.31A3.34,3.34,0,0,1,515,197a3.63,3.63,0,0,1,1.29.21,1.69,1.69,0,0,1,.81.57,2.22,2.22,0,0,1,.37,1l-1,.14a1.16,1.16,0,0,0-.41-.75,1.47,1.47,0,0,0-.95-.27,1.73,1.73,0,0,0-1,.24.7.7,0,0,0-.31.57.58.58,0,0,0,.13.37,1,1,0,0,0,.4.28l.93.27a12.86,12.86,0,0,1,1.57.49,1.57,1.57,0,0,1,.69.55,1.52,1.52,0,0,1,.25.9,1.85,1.85,0,0,1-.3,1,2.06,2.06,0,0,1-.89.72,3.27,3.27,0,0,1-1.32.25,2.94,2.94,0,0,1-1.84-.5A2.36,2.36,0,0,1,512.55,201.54Z" style="fill:#fff"/><path d="M438.28,210.42v-1.21h1.06v1.21Zm0,7.38v-6.22h1.06v6.22Z" style="fill:#fff"/><path d="M440.94,217.8v-6.22h.95v.88a2.25,2.25,0,0,1,2-1,2.54,2.54,0,0,1,1,.2,1.55,1.55,0,0,1,.7.53,2,2,0,0,1,.33.78,5.85,5.85,0,0,1,.06,1v3.83H445V214a2.59,2.59,0,0,0-.13-1,1,1,0,0,0-.43-.51,1.38,1.38,0,0,0-.74-.19,1.67,1.67,0,0,0-1.16.43,2.08,2.08,0,0,0-.49,1.62v3.4Z" style="fill:#fff"/><path d="M450.53,215.94l1-.16a1.44,1.44,0,0,0,.49,1,1.72,1.72,0,0,0,1.12.33,1.68,1.68,0,0,0,1.08-.29.87.87,0,0,0,.35-.7.63.63,0,0,0-.31-.56,4.89,4.89,0,0,0-1.07-.36,9.59,9.59,0,0,1-1.61-.5,1.54,1.54,0,0,1-.68-.6,1.51,1.51,0,0,1-.23-.83,1.57,1.57,0,0,1,.19-.77,1.64,1.64,0,0,1,.52-.59,2.21,2.21,0,0,1,.67-.31,3.28,3.28,0,0,1,.91-.12,3.58,3.58,0,0,1,1.28.21,1.77,1.77,0,0,1,.82.57,2.1,2.1,0,0,1,.36,1l-1,.14a1.11,1.11,0,0,0-.4-.75,1.52,1.52,0,0,0-1-.27,1.7,1.7,0,0,0-1,.24.7.7,0,0,0-.31.57.63.63,0,0,0,.12.37,1.09,1.09,0,0,0,.41.28q.15.06.93.27a12,12,0,0,1,1.56.49,1.54,1.54,0,0,1,.7.55,1.59,1.59,0,0,1,.25.9,1.73,1.73,0,0,1-.31,1,1.91,1.91,0,0,1-.89.73,3.19,3.19,0,0,1-1.31.25,3,3,0,0,1-1.85-.5A2.4,2.4,0,0,1,450.53,215.94Z" style="fill:#fff"/><path d="M456.56,214.69a3.2,3.2,0,0,1,1-2.56,2.91,2.91,0,0,1,2-.69,2.82,2.82,0,0,1,2.1.84,3.2,3.2,0,0,1,.81,2.32,4.13,4.13,0,0,1-.36,1.89,2.52,2.52,0,0,1-1,1.07,3.1,3.1,0,0,1-1.5.38,2.78,2.78,0,0,1-2.11-.84A3.33,3.33,0,0,1,456.56,214.69Zm1.08,0a2.64,2.64,0,0,0,.53,1.79,1.64,1.64,0,0,0,1.31.59,1.66,1.66,0,0,0,1.3-.59,2.72,2.72,0,0,0,.53-1.83,2.58,2.58,0,0,0-.53-1.75,1.74,1.74,0,0,0-2.61,0A2.64,2.64,0,0,0,457.64,214.69Z" style="fill:#fff"/><path d="M463.61,217.8v-6.22h.95v.94a2.74,2.74,0,0,1,.67-.87,1.21,1.21,0,0,1,.68-.21,2,2,0,0,1,1.09.34l-.37,1a1.51,1.51,0,0,0-.77-.22,1,1,0,0,0-.62.2,1.15,1.15,0,0,0-.4.58,4.4,4.4,0,0,0-.17,1.23v3.26Z" style="fill:#fff"/><path d="M469.92,216.86l.16.93a4.16,4.16,0,0,1-.8.09,1.82,1.82,0,0,1-.89-.18,1,1,0,0,1-.45-.48,4,4,0,0,1-.12-1.24V212.4H467v-.82h.78V210l1-.64v2.18h1.06v.82h-1.06V216a1.73,1.73,0,0,0,.06.58.49.49,0,0,0,.18.2.74.74,0,0,0,.36.08C469.58,216.9,469.73,216.88,469.92,216.86Z" style="fill:#fff"/><path d="M475.22,215.8l1.09.13a2.66,2.66,0,0,1-1,1.48,3.24,3.24,0,0,1-4-.31,3.31,3.31,0,0,1-.8-2.36,3.44,3.44,0,0,1,.81-2.44,2.77,2.77,0,0,1,2.1-.86,2.66,2.66,0,0,1,2,.85,3.35,3.35,0,0,1,.79,2.39c0,.06,0,.15,0,.28h-4.64a2.44,2.44,0,0,0,.58,1.57,1.76,1.76,0,0,0,1.31.54,1.66,1.66,0,0,0,1-.3A2,2,0,0,0,475.22,215.8Zm-3.47-1.71h3.48a2.14,2.14,0,0,0-.4-1.18,1.64,1.64,0,0,0-1.31-.61,1.7,1.7,0,0,0-1.22.49A1.94,1.94,0,0,0,471.75,214.09Z" style="fill:#fff"/><path d="M481.67,217.8V217a2,2,0,0,1-1.74.93,2.45,2.45,0,0,1-1.37-.41,2.62,2.62,0,0,1-1-1.15,3.92,3.92,0,0,1-.34-1.69,4.39,4.39,0,0,1,.31-1.69,2.42,2.42,0,0,1,2.32-1.56,2.17,2.17,0,0,1,1,.23,2.28,2.28,0,0,1,.72.62v-3.08h1v8.59Zm-3.34-3.11a2.67,2.67,0,0,0,.51,1.79,1.5,1.5,0,0,0,2.36,0,2.63,2.63,0,0,0,.48-1.73,2.91,2.91,0,0,0-.49-1.87,1.51,1.51,0,0,0-1.21-.6,1.48,1.48,0,0,0-1.18.57A2.88,2.88,0,0,0,478.33,214.69Z" style="fill:#fff"/><path d="M487.61,217.8v-8.59h1.06v8.59Z" style="fill:#fff"/><path d="M490.31,210.42v-1.21h1.05v1.21Zm0,7.38v-6.22h1.05v6.22Z" style="fill:#fff"/><path d="M492.55,215.94l1-.16a1.44,1.44,0,0,0,.49,1,1.72,1.72,0,0,0,1.12.33,1.68,1.68,0,0,0,1.08-.29.9.9,0,0,0,.35-.7.63.63,0,0,0-.31-.56,4.84,4.84,0,0,0-1.08-.36,9.92,9.92,0,0,1-1.61-.5,1.57,1.57,0,0,1-.67-.6,1.52,1.52,0,0,1-.24-.83,1.69,1.69,0,0,1,.19-.77,1.73,1.73,0,0,1,.52-.59,2.47,2.47,0,0,1,.67-.31,3.39,3.39,0,0,1,.91-.12,3.63,3.63,0,0,1,1.29.21,1.77,1.77,0,0,1,.82.57,2.22,2.22,0,0,1,.36,1l-1,.14a1.12,1.12,0,0,0-.41-.75,1.47,1.47,0,0,0-1-.27,1.75,1.75,0,0,0-1,.24.72.72,0,0,0-.31.57.64.64,0,0,0,.13.37,1,1,0,0,0,.41.28q.15.06.93.27a13.15,13.15,0,0,1,1.56.49,1.5,1.5,0,0,1,1,1.45,1.81,1.81,0,0,1-.31,1,2,2,0,0,1-.89.73,3.22,3.22,0,0,1-1.31.25,3,3,0,0,1-1.85-.5A2.4,2.4,0,0,1,492.55,215.94Z" style="fill:#fff"/><path d="M501.27,216.86l.15.93a4,4,0,0,1-.79.09,1.82,1.82,0,0,1-.89-.18,1,1,0,0,1-.45-.48,3.88,3.88,0,0,1-.13-1.24V212.4h-.77v-.82h.77V210l1-.64v2.18h1.06v.82h-1.06V216a1.73,1.73,0,0,0,.06.58.43.43,0,0,0,.18.2.69.69,0,0,0,.36.08C500.93,216.9,501.08,216.88,501.27,216.86Z" style="fill:#fff"/></g><rect x="409.5" y="270.5" width="120" height="60" rx="7" style="fill:#526375"/><g style="isolation:isolate"><path d="M428.08,295.3v-8.59h3.81a5.2,5.2,0,0,1,1.75.23,1.94,1.94,0,0,1,.95.82,2.41,2.41,0,0,1,.36,1.29,2.16,2.16,0,0,1-.59,1.54,3,3,0,0,1-1.83.8,3.33,3.33,0,0,1,.69.43,5.83,5.83,0,0,1,.94,1.14l1.49,2.34h-1.43l-1.13-1.79c-.34-.51-.61-.91-.82-1.18a2.85,2.85,0,0,0-.58-.58,1.81,1.81,0,0,0-.52-.22,3.21,3.21,0,0,0-.63,0h-1.32v3.81Zm1.14-4.8h2.44a3.6,3.6,0,0,0,1.22-.16,1.31,1.31,0,0,0,.67-.52,1.39,1.39,0,0,0,.23-.77,1.3,1.3,0,0,0-.44-1,2.09,2.09,0,0,0-1.4-.39h-2.72Z" style="fill:#fff"/><path d="M440.86,293.3l1.09.13a2.66,2.66,0,0,1-1,1.48,3.24,3.24,0,0,1-3.95-.31,3.3,3.3,0,0,1-.79-2.36,3.44,3.44,0,0,1,.8-2.44,2.77,2.77,0,0,1,2.1-.86,2.66,2.66,0,0,1,2,.85,3.35,3.35,0,0,1,.79,2.39v.28h-4.65a2.39,2.39,0,0,0,.59,1.57,1.72,1.72,0,0,0,1.3.54,1.66,1.66,0,0,0,1-.3A2,2,0,0,0,440.86,293.3Zm-3.47-1.71h3.48a2.14,2.14,0,0,0-.4-1.18,1.64,1.64,0,0,0-1.31-.61,1.7,1.7,0,0,0-1.22.49A1.94,1.94,0,0,0,437.39,291.59Z" style="fill:#fff"/><path d="M445.57,294.36l.16.93a4.16,4.16,0,0,1-.8.09,1.82,1.82,0,0,1-.89-.18,1,1,0,0,1-.45-.48,3.88,3.88,0,0,1-.13-1.24V289.9h-.77v-.82h.77v-1.54l1.05-.64v2.18h1.06v.82h-1.06v3.64a1.73,1.73,0,0,0,.06.58.49.49,0,0,0,.18.2.69.69,0,0,0,.36.08C445.23,294.4,445.38,294.38,445.57,294.36Z" style="fill:#fff"/><path d="M450.68,295.3v-.91a2.27,2.27,0,0,1-2,1.05,2.53,2.53,0,0,1-1-.21,1.68,1.68,0,0,1-.71-.53,2,2,0,0,1-.32-.78,4.77,4.77,0,0,1-.07-1v-3.85h1.06v3.45a6.55,6.55,0,0,0,.06,1.11,1.1,1.1,0,0,0,.42.65,1.31,1.31,0,0,0,.8.24,1.75,1.75,0,0,0,.89-.24,1.35,1.35,0,0,0,.59-.66,3.48,3.48,0,0,0,.17-1.22v-3.33h1.06v6.22Z" style="fill:#fff"/><path d="M453.27,295.3v-6.22h1V290a2.48,2.48,0,0,1,.67-.87,1.16,1.16,0,0,1,.67-.21,2,2,0,0,1,1.09.34l-.37,1a1.48,1.48,0,0,0-.77-.22,1,1,0,0,0-.62.2,1.2,1.2,0,0,0-.39.58,4.06,4.06,0,0,0-.18,1.23v3.26Z" style="fill:#fff"/><path d="M457.27,295.3v-6.22h1V290a2.25,2.25,0,0,1,2-1,2.54,2.54,0,0,1,1,.2,1.55,1.55,0,0,1,.7.53,2,2,0,0,1,.33.78,5.85,5.85,0,0,1,.06,1v3.83h-1.05v-3.79a2.59,2.59,0,0,0-.13-1,1,1,0,0,0-.43-.51,1.38,1.38,0,0,0-.74-.19,1.67,1.67,0,0,0-1.16.43,2.08,2.08,0,0,0-.49,1.62v3.4Z" style="fill:#fff"/><path d="M469.58,294.36l.16.93a4.16,4.16,0,0,1-.8.09,1.82,1.82,0,0,1-.89-.18,1,1,0,0,1-.45-.48,4,4,0,0,1-.12-1.24V289.9h-.78v-.82h.78v-1.54l1-.64v2.18h1.06v.82h-1.06v3.64a1.73,1.73,0,0,0,.06.58.49.49,0,0,0,.18.2.74.74,0,0,0,.36.08C469.24,294.4,469.39,294.38,469.58,294.36Z" style="fill:#fff"/><path d="M470.62,295.3v-8.59h1.05v3.08a2.34,2.34,0,0,1,1.86-.85,2.54,2.54,0,0,1,1.21.27,1.54,1.54,0,0,1,.72.75,3.44,3.44,0,0,1,.22,1.4v3.94h-1.05v-3.94a1.61,1.61,0,0,0-.34-1.15,1.24,1.24,0,0,0-1-.37,1.7,1.7,0,0,0-.88.25,1.3,1.3,0,0,0-.59.66,2.94,2.94,0,0,0-.18,1.15v3.4Z" style="fill:#fff"/><path d="M481.55,293.3l1.09.13a2.61,2.61,0,0,1-1,1.48,3.22,3.22,0,0,1-3.94-.31,3.31,3.31,0,0,1-.8-2.36,3.44,3.44,0,0,1,.81-2.44,2.76,2.76,0,0,1,2.09-.86,2.63,2.63,0,0,1,2,.85,3.35,3.35,0,0,1,.79,2.39v.28H478a2.38,2.38,0,0,0,.58,1.57,1.74,1.74,0,0,0,1.3.54,1.62,1.62,0,0,0,1-.3A2,2,0,0,0,481.55,293.3Zm-3.46-1.71h3.47a2.14,2.14,0,0,0-.4-1.18,1.62,1.62,0,0,0-1.3-.61,1.71,1.71,0,0,0-1.23.49A1.89,1.89,0,0,0,478.09,291.59Z" style="fill:#fff"/><path d="M487.27,295.3v-8.59h1.06v8.59Z" style="fill:#fff"/><path d="M494,294.53a4.07,4.07,0,0,1-1.12.71,3.42,3.42,0,0,1-1.17.2,2.26,2.26,0,0,1-1.57-.5,1.64,1.64,0,0,1-.55-1.28,1.83,1.83,0,0,1,.2-.84,1.67,1.67,0,0,1,.55-.6,2.65,2.65,0,0,1,.76-.35,8.38,8.38,0,0,1,.94-.16,9.75,9.75,0,0,0,1.88-.36v-.27a1.16,1.16,0,0,0-.3-.91,1.76,1.76,0,0,0-1.2-.36,1.92,1.92,0,0,0-1.1.26,1.59,1.59,0,0,0-.52.92l-1-.14a2.57,2.57,0,0,1,.46-1.07,2,2,0,0,1,.93-.62,4.09,4.09,0,0,1,1.41-.22,3.87,3.87,0,0,1,1.3.18,1.72,1.72,0,0,1,.73.48,1.56,1.56,0,0,1,.33.71,5.59,5.59,0,0,1,.05,1v1.4a15.8,15.8,0,0,0,.07,1.86,2.33,2.33,0,0,0,.27.75h-1.1A2.4,2.4,0,0,1,494,294.53Zm-.08-2.35a8.26,8.26,0,0,1-1.73.4,3.82,3.82,0,0,0-.92.21.86.86,0,0,0-.41.34.92.92,0,0,0,.17,1.2,1.37,1.37,0,0,0,.94.28,2.16,2.16,0,0,0,1.08-.26,1.64,1.64,0,0,0,.7-.73,2.62,2.62,0,0,0,.17-1.06Z" style="fill:#fff"/><path d="M497.61,295.3h-1v-8.59h1.06v3.06a2.09,2.09,0,0,1,1.7-.83,2.54,2.54,0,0,1,1.09.23,2.17,2.17,0,0,1,.84.65,3,3,0,0,1,.52,1,4,4,0,0,1,.19,1.26,3.6,3.6,0,0,1-.79,2.48,2.48,2.48,0,0,1-1.9.87,2,2,0,0,1-1.73-.92Zm0-3.16a3.27,3.27,0,0,0,.3,1.62,1.52,1.52,0,0,0,2.55.21,2.75,2.75,0,0,0,.5-1.79,2.81,2.81,0,0,0-.48-1.8,1.52,1.52,0,0,0-1.17-.58,1.53,1.53,0,0,0-1.2.6A2.67,2.67,0,0,0,497.6,292.14Z" style="fill:#fff"/><path d="M507.57,293.3l1.09.13a2.64,2.64,0,0,1-1,1.48,2.9,2.9,0,0,1-1.79.53,2.83,2.83,0,0,1-2.16-.84,3.31,3.31,0,0,1-.8-2.36,3.44,3.44,0,0,1,.81-2.44,2.77,2.77,0,0,1,2.1-.86,2.66,2.66,0,0,1,2,.85,3.39,3.39,0,0,1,.79,2.39c0,.06,0,.15,0,.28h-4.64a2.38,2.38,0,0,0,.58,1.57,1.74,1.74,0,0,0,1.3.54,1.62,1.62,0,0,0,1-.3A2,2,0,0,0,507.57,293.3Zm-3.46-1.71h3.47a2.06,2.06,0,0,0-.4-1.18,1.62,1.62,0,0,0-1.3-.61,1.68,1.68,0,0,0-1.22.49A1.9,1.9,0,0,0,504.11,291.59Z" style="fill:#fff"/><path d="M510,295.3v-8.59H511v8.59Z" style="fill:#fff"/><path d="M445,302.32v-1.21H446v1.21Zm0,7.38v-6.22H446v6.22Z" style="fill:#fff"/><path d="M447.61,309.7v-6.22h.95v.88a2.25,2.25,0,0,1,2-1,2.54,2.54,0,0,1,1,.2,1.55,1.55,0,0,1,.7.53,2,2,0,0,1,.33.78,5.85,5.85,0,0,1,.06,1v3.83h-1.06v-3.78a2.94,2.94,0,0,0-.12-1,1,1,0,0,0-.44-.51,1.32,1.32,0,0,0-.73-.19,1.67,1.67,0,0,0-1.16.43,2.08,2.08,0,0,0-.49,1.62v3.4Z" style="fill:#fff"/><path d="M457.62,312.08v-8.6h1v.81a2.37,2.37,0,0,1,.77-.72,2.19,2.19,0,0,1,1-.23,2.38,2.38,0,0,1,1.4.41,2.52,2.52,0,0,1,.92,1.15,4.2,4.2,0,0,1,.31,1.64,4.13,4.13,0,0,1-.34,1.72,2.56,2.56,0,0,1-1,1.17,2.46,2.46,0,0,1-1.37.41,2,2,0,0,1-.95-.22,2.26,2.26,0,0,1-.69-.56v3Zm1-5.46a2.74,2.74,0,0,0,.48,1.78,1.51,1.51,0,0,0,2.38,0,3.61,3.61,0,0,0,0-3.63,1.5,1.5,0,0,0-1.17-.59,1.54,1.54,0,0,0-1.2.63A2.85,2.85,0,0,0,458.58,306.62Z" style="fill:#fff"/><path d="M464.27,309.7v-8.59h1.06v8.59Z" style="fill:#fff"/><path d="M471,309.7v-.91a2.29,2.29,0,0,1-2,1,2.48,2.48,0,0,1-1-.21,1.68,1.68,0,0,1-.71-.53,1.84,1.84,0,0,1-.33-.78,5.84,5.84,0,0,1-.06-1v-3.85H468v3.45a5.37,5.37,0,0,0,.07,1.11,1.06,1.06,0,0,0,.42.66,1.34,1.34,0,0,0,.79.23,1.78,1.78,0,0,0,.9-.24,1.33,1.33,0,0,0,.58-.66,3.23,3.23,0,0,0,.18-1.22v-3.33H472v6.22Z" style="fill:#fff"/><path d="M473.62,309.7v-6.22h.95v.94a2.6,2.6,0,0,1,.67-.87,1.19,1.19,0,0,1,.68-.21,2,2,0,0,1,1.08.34l-.36,1a1.46,1.46,0,0,0-.77-.23,1,1,0,0,0-.62.2,1.15,1.15,0,0,0-.4.58,4.4,4.4,0,0,0-.17,1.23v3.26Z" style="fill:#fff"/><path d="M481.69,308.93a4.1,4.1,0,0,1-1.13.71,3.41,3.41,0,0,1-1.16.2,2.3,2.3,0,0,1-1.58-.5,1.67,1.67,0,0,1-.55-1.28,1.72,1.72,0,0,1,.21-.84,1.67,1.67,0,0,1,.55-.6,2.59,2.59,0,0,1,.75-.35c.21,0,.52-.1.94-.16a9.59,9.59,0,0,0,1.88-.36c0-.14,0-.24,0-.27a1.16,1.16,0,0,0-.3-.91,1.76,1.76,0,0,0-1.2-.36,1.9,1.9,0,0,0-1.1.26,1.54,1.54,0,0,0-.52.92l-1-.14a2.64,2.64,0,0,1,.47-1.07,1.93,1.93,0,0,1,.93-.62,4.05,4.05,0,0,1,1.41-.22,4,4,0,0,1,1.3.18,1.51,1.51,0,0,1,1.06,1.19,6.84,6.84,0,0,1,.05,1v1.4a13.75,13.75,0,0,0,.07,1.86,2.31,2.31,0,0,0,.26.75h-1.1A2.17,2.17,0,0,1,481.69,308.93Zm-.09-2.35a8,8,0,0,1-1.72.4,3.82,3.82,0,0,0-.92.21.89.89,0,0,0-.42.34,1,1,0,0,0-.14.5.86.86,0,0,0,.32.7,1.34,1.34,0,0,0,.93.28,2.17,2.17,0,0,0,1.09-.26,1.67,1.67,0,0,0,.69-.73,2.46,2.46,0,0,0,.17-1.06Z" style="fill:#fff"/><path d="M484.28,309.7v-8.59h1.05v8.59Z" style="fill:#fff"/><path d="M487,302.32v-1.21h1v1.21Zm0,7.38v-6.22h1v6.22Z" style="fill:#fff"/><path d="M491.94,308.76l.15.93a4.08,4.08,0,0,1-.8.09,1.82,1.82,0,0,1-.89-.18,1,1,0,0,1-.44-.48,3.6,3.6,0,0,1-.13-1.24V304.3h-.77v-.82h.77v-1.54l1.05-.64v2.18h1.06v.82h-1.06v3.64a2.2,2.2,0,0,0,.05.58.46.46,0,0,0,.19.2.69.69,0,0,0,.36.08Z" style="fill:#fff"/><path d="M492.92,312.1l-.11-1a2.43,2.43,0,0,0,.6.09,1.13,1.13,0,0,0,.56-.12.92.92,0,0,0,.35-.33,5.68,5.68,0,0,0,.32-.78l.09-.26-2.36-6.23h1.14l1.29,3.6q.26.69.45,1.44c.13-.48.27-.95.44-1.42l1.33-3.62h1.05l-2.36,6.33a13.84,13.84,0,0,1-.6,1.41,2,2,0,0,1-.64.76,1.54,1.54,0,0,1-.87.25A2.31,2.31,0,0,1,492.92,312.1Z" style="fill:#fff"/></g></svg>